<svg width="34" height="34" viewBox="0 0 34 34" fill="none" xmlns="http://www.w3.org/2000/svg">
<g clip-path="url(#clip0)">
<path d="M32.5723 27.2265H31.5746C31.7026 26.9771 31.7754 26.6949 31.7754 26.3958L31.7747 9.13054C31.7747 8.12362 30.9555 7.30437 29.9486 7.30437H27.2598V6.69609C27.2598 6.21643 26.8696 5.82616 26.3898 5.82616H25.5655V3.32696C25.5655 3.04613 25.4289 2.78124 25.2002 2.61828C24.9715 2.45538 24.6765 2.41288 24.411 2.50472L22.8422 3.04719C22.5823 3.13711 22.4444 3.42066 22.5343 3.68064C22.6242 3.94056 22.9076 4.07875 23.1677 3.98857L24.5694 3.50387V15.4822L17.498 17.9276V5.94928L21.1595 4.68311C21.4195 4.5932 21.5573 4.30964 21.4674 4.04966C21.3775 3.78975 21.0942 3.65169 20.834 3.74174L17 5.06754L9.589 2.50472C9.3235 2.41282 9.02853 2.45538 8.79976 2.61828C8.57106 2.78124 8.43446 3.04613 8.43446 3.32696V5.8261H7.61016C7.13044 5.8261 6.74023 6.21637 6.74023 6.69602V7.30496H4.05078C3.0438 7.30496 2.22461 8.12422 2.22461 9.13114L2.22468 10.9023C2.22468 11.1774 2.44767 11.4003 2.72272 11.4003C2.99778 11.4003 3.22077 11.1773 3.22077 10.9023L3.2207 9.1312C3.2207 8.67346 3.59304 8.30112 4.05078 8.30112H6.74023V9.29722H4.71484C4.58276 9.29722 4.45606 9.34968 4.36269 9.44311C4.26926 9.53648 4.2168 9.66318 4.2168 9.79527L4.21746 25.7324C4.21746 26.0075 4.44045 26.2304 4.71551 26.2304L29.2852 26.2297C29.4172 26.2297 29.5439 26.1773 29.6374 26.0839C29.7307 25.9905 29.7832 25.8638 29.7832 25.7317L29.7825 9.7946C29.7825 9.51948 29.5595 9.29655 29.2845 9.29655H27.2598V8.30046H29.9486C30.4063 8.30046 30.7786 8.6728 30.7786 9.13054L30.7793 26.3958C30.7793 26.8535 30.407 27.2258 29.9492 27.2258L4.05145 27.2265C3.59371 27.2265 3.22137 26.8542 3.22137 26.3964L3.2209 13.0335C3.2209 12.7584 2.99791 12.5355 2.72286 12.5355C2.4478 12.5355 2.22481 12.7584 2.22481 13.0335L2.22527 26.3964C2.22527 26.6953 2.29786 26.9773 2.42569 27.2265H1.42773C0.640488 27.2265 0 27.867 0 28.6542V30.1152C0 30.9025 0.640488 31.543 1.42773 31.543H21.2288C21.5039 31.543 21.7269 31.3201 21.7269 31.0449C21.7269 30.7698 21.5039 30.5469 21.2288 30.5469H1.42773C1.18973 30.5469 0.996094 30.3532 0.996094 30.1152V28.6543C0.996094 28.4163 1.18973 28.2227 1.42773 28.2227H13.6465V28.5726C13.6465 29.2585 14.2045 29.8165 14.8903 29.8165H19.1097C19.7956 29.8165 20.3535 29.2585 20.3535 28.5726V28.2227H32.5723C32.8103 28.2227 33.0039 28.4163 33.0039 28.6543V30.1152C33.0039 30.3532 32.8103 30.5469 32.5723 30.5469H23.4032C23.1281 30.5469 22.9052 30.7698 22.9052 31.0449C22.9052 31.3201 23.1281 31.543 23.4032 31.543H32.5723C33.3595 31.543 34 30.9025 34 30.1152V28.6543C34 27.867 33.3595 27.2265 32.5723 27.2265ZM24.98 16.3941C25.3302 16.2729 25.5655 15.9425 25.5655 15.5719V6.82226H26.2637V18.1287H19.9641L24.98 16.3941ZM9.43055 3.50387L16.502 5.94928V17.9276L9.43055 15.4822V3.50387ZM7.73633 6.82226H8.43446V15.572C8.43446 15.9426 8.6698 16.273 9.02016 16.3943L14.0359 18.1288H7.73633V6.82226ZM28.7864 10.2926L28.7871 25.2337L5.21349 25.2343L5.21289 10.2933H6.74023V18.2549C6.74023 18.7345 7.13044 19.1248 7.61016 19.1248H26.3898C26.8696 19.1248 27.2598 18.7345 27.2598 18.2549V10.2926H28.7864ZM19.3574 28.5726C19.3574 28.7092 19.2463 28.8203 19.1097 28.8203H14.8903C14.7537 28.8203 14.6426 28.7092 14.6426 28.5726V28.2226H19.3574V28.5726Z" fill="white"/>
<path d="M23.542 20.5454H10.4585C10.1834 20.5454 9.96045 20.7683 9.96045 21.0435C9.96045 21.3186 10.1834 21.5415 10.4585 21.5415H23.542C23.8172 21.5415 24.0401 21.3186 24.0401 21.0435C24.0401 20.7683 23.8171 20.5454 23.542 20.5454Z" fill="white"/>
<path d="M18.9435 22.6582H10.4585C10.1834 22.6582 9.96045 22.8811 9.96045 23.1562C9.96045 23.4314 10.1834 23.6543 10.4585 23.6543H18.9435C19.2186 23.6543 19.4415 23.4314 19.4415 23.1562C19.4415 22.8811 19.2186 22.6582 18.9435 22.6582Z" fill="white"/>
</g>
<defs>
<clipPath id="clip0">
<rect width="34" height="34" fill="white"/>
</clipPath>
</defs>
</svg>
