<svg width="30" height="30" viewBox="0 0 30 30" fill="none" xmlns="http://www.w3.org/2000/svg">
<path d="M29.0625 3.28125C29.3217 3.28125 29.5312 3.07172 29.5312 2.8125V0.9375C29.5312 0.678281 29.3217 0.46875 29.0625 0.46875H0.9375C0.678281 0.46875 0.46875 0.678281 0.46875 0.9375V2.8125C0.46875 3.07172 0.678281 3.28125 0.9375 3.28125H1.40625V16.4062H0.9375C0.678281 16.4062 0.46875 16.6158 0.46875 16.875V18.75C0.46875 19.0092 0.678281 19.2188 0.9375 19.2188H29.0625C29.3217 19.2188 29.5312 19.0092 29.5312 18.75V16.875C29.5312 16.6158 29.3217 16.4062 29.0625 16.4062H28.5938V3.28125H29.0625ZM1.40625 1.40625H28.5938V2.34375H1.40625V1.40625ZM28.5938 18.2812H1.40625V17.3438H28.5938V18.2812ZM7.96875 16.4062H4.21875V15.4688H7.96875V16.4062ZM24.8438 16.4062H22.9688V15.4688H24.8438V16.4062ZM27.6562 16.4062H25.7812V15C25.7812 14.7408 25.5717 14.5312 25.3125 14.5312H22.5C22.2408 14.5312 22.0312 14.7408 22.0312 15V16.4062H8.90625V15C8.90625 14.7408 8.69672 14.5312 8.4375 14.5312H3.75C3.49078 14.5312 3.28125 14.7408 3.28125 15V16.4062H2.34375V3.28125H27.6562V16.4062Z" fill="white"/>
<path d="M6.5625 13.5938H23.4375C23.6967 13.5938 23.9062 13.3842 23.9062 13.125V11.25C23.9062 10.9908 23.6967 10.7812 23.4375 10.7812H22.0312V8.4375C22.0312 8.17828 21.8217 7.96875 21.5625 7.96875H19.6875C19.4283 7.96875 19.2188 8.17828 19.2188 8.4375V10.7812H18.2812V4.6875C18.2812 4.42828 18.0717 4.21875 17.8125 4.21875H15.9375C15.6783 4.21875 15.4688 4.42828 15.4688 4.6875V10.7812H14.5312V6.5625C14.5312 6.30328 14.3217 6.09375 14.0625 6.09375H12.1875C11.9283 6.09375 11.7188 6.30328 11.7188 6.5625V10.7812H10.7812V7.5C10.7812 7.24078 10.5717 7.03125 10.3125 7.03125H8.4375C8.17828 7.03125 7.96875 7.24078 7.96875 7.5V10.7812H6.5625C6.30328 10.7812 6.09375 10.9908 6.09375 11.25V13.125C6.09375 13.3842 6.30328 13.5938 6.5625 13.5938ZM20.1562 8.90625H21.0938V10.7812H20.1562V8.90625ZM16.4062 5.15625H17.3438V10.7812H16.4062V5.15625ZM12.6562 7.03125H13.5938V10.7812H12.6562V7.03125ZM8.90625 7.96875H9.84375V10.7812H8.90625V7.96875ZM7.03125 11.7188H22.9688V12.6562H7.03125V11.7188Z" fill="white"/>
<path d="M23.1117 24.2452C23.595 23.8153 23.9062 23.1961 23.9062 22.5C23.9062 21.2077 22.8548 20.1562 21.5625 20.1562C20.2702 20.1562 19.2188 21.2077 19.2188 22.5C19.2188 23.1961 19.53 23.8153 20.0133 24.2452C19.2792 24.5798 18.6703 25.1423 18.2812 25.845C17.8922 25.1428 17.2833 24.5803 16.5492 24.2452C17.0325 23.8153 17.3438 23.1961 17.3438 22.5C17.3438 21.2077 16.2923 20.1562 15 20.1562C13.7077 20.1562 12.6562 21.2077 12.6562 22.5C12.6562 23.1961 12.9675 23.8153 13.4508 24.2452C12.7167 24.5798 12.1078 25.1423 11.7188 25.845C11.3297 25.1428 10.7208 24.5803 9.98672 24.2452C10.47 23.8153 10.7812 23.1961 10.7812 22.5C10.7812 21.2077 9.72984 20.1562 8.4375 20.1562C7.14516 20.1562 6.09375 21.2077 6.09375 22.5C6.09375 23.1961 6.405 23.8153 6.88828 24.2452C5.59219 24.8362 4.6875 26.1413 4.6875 27.6562V29.0625C4.6875 29.3217 4.89703 29.5312 5.15625 29.5312H24.8438C25.103 29.5312 25.3125 29.3217 25.3125 29.0625V27.6562C25.3125 26.1413 24.4078 24.8362 23.1117 24.2452ZM20.1562 22.5C20.1562 21.7247 20.7872 21.0938 21.5625 21.0938C22.3378 21.0938 22.9688 21.7247 22.9688 22.5C22.9688 23.2753 22.3378 23.9062 21.5625 23.9062C20.7872 23.9062 20.1562 23.2753 20.1562 22.5ZM13.5938 22.5C13.5938 21.7247 14.2247 21.0938 15 21.0938C15.7753 21.0938 16.4062 21.7247 16.4062 22.5C16.4062 23.2753 15.7753 23.9062 15 23.9062C14.2247 23.9062 13.5938 23.2753 13.5938 22.5ZM7.03125 22.5C7.03125 21.7247 7.66219 21.0938 8.4375 21.0938C9.21281 21.0938 9.84375 21.7247 9.84375 22.5C9.84375 23.2753 9.21281 23.9062 8.4375 23.9062C7.66219 23.9062 7.03125 23.2753 7.03125 22.5ZM5.625 27.6562C5.625 26.1052 6.88641 24.8438 8.4375 24.8438C9.98859 24.8438 11.25 26.1052 11.25 27.6562V28.5938H5.625V27.6562ZM12.1875 27.6562C12.1875 26.1052 13.4489 24.8438 15 24.8438C16.5511 24.8438 17.8125 26.1052 17.8125 27.6562V28.5938H12.1875V27.6562ZM24.375 28.5938H18.75V27.6562C18.75 26.1052 20.0114 24.8438 21.5625 24.8438C23.1136 24.8438 24.375 26.1052 24.375 27.6562V28.5938Z" fill="white"/>
</svg>
