<svg width="31" height="31" viewBox="0 0 31 31" fill="none" xmlns="http://www.w3.org/2000/svg">
<path d="M27.4006 13.0273L26.2323 12.7938C25.8477 12.7168 25.5488 12.4184 25.4723 12.0338L25.2577 10.9609C25.7048 10.6306 26.0671 10.1942 26.3088 9.68798H26.6406C27.7092 9.68798 28.5781 8.81902 28.5781 7.75048C28.5781 7.31406 28.428 6.91542 28.1834 6.59137L28.3606 6.05953C28.505 5.62553 28.5781 5.17555 28.5781 4.71927C28.5781 2.38409 26.6784 0.484375 24.3428 0.484375H23.0587C21.8676 0.484375 20.7574 1.04577 20.0517 1.99562L19.6986 2.08427C19.4239 2.15256 19.173 2.26978 18.9492 2.42188H1.45312V15.0156H6.16077L5.4342 17.9219H0.484375V18.8906H30.5156V16.8262C30.5156 14.9856 29.2054 13.3881 27.4006 13.0273ZM13.1842 15.0156L13.9108 17.9219H8.85486L9.58142 15.0156H13.1842ZM14.183 15.0156H16.4397C16.15 15.5605 15.9844 16.1776 15.9844 16.8262V17.9219H14.9095L14.183 15.0156ZM16.9531 16.8262C16.9531 15.4457 17.9354 14.2474 19.2893 13.9766L19.6986 13.8948L21.529 17.9219H16.9531V16.8262ZM21.4549 13.2065L22.3563 13.657L21.1086 14.6553L20.6673 13.6846C20.9691 13.5887 21.2384 13.4249 21.4549 13.2065ZM23.3851 15.0156H23.1149L22.924 14.4436L23.25 14.183L23.576 14.4436L23.3851 15.0156ZM22.2682 15.5392L22.0647 16.7594L21.5222 15.5654L22.118 15.0888L22.2682 15.5392ZM23.1759 15.9844H23.3241L23.6472 17.9219H22.8528L23.1759 15.9844ZM24.2318 15.5392L24.382 15.0888L24.9778 15.5654L24.4353 16.7594L24.2318 15.5392ZM25.8327 13.685L25.3914 14.6557L24.1437 13.6574L25.0451 13.207C25.2616 13.4249 25.5309 13.5887 25.8327 13.685ZM24.5225 12.2232C24.5321 12.2716 24.5486 12.3177 24.5617 12.3646L23.25 13.021L21.9378 12.3651C21.9509 12.3181 21.9674 12.2721 21.9771 12.2237L22.1355 11.4332C22.4852 11.5553 22.8591 11.625 23.25 11.625C23.6409 11.625 24.0148 11.5553 24.3645 11.4327L24.5225 12.2232ZM25.6719 8.23438C25.6719 9.5698 24.5854 10.6562 23.25 10.6562C21.9146 10.6562 20.8281 9.5698 20.8281 8.23438V6.35645C20.8281 5.69092 21.2776 5.11306 21.9218 4.94837C22.148 5.45697 22.6581 5.8125 23.25 5.8125H25.1875C25.4544 5.8125 25.6719 6.0295 25.6719 6.29688V8.23438ZM26.6406 8.71875H26.6019C26.6246 8.55987 26.6406 8.39906 26.6406 8.23438V6.78125C27.1749 6.78125 27.6094 7.21573 27.6094 7.75C27.6094 8.28427 27.1749 8.71875 26.6406 8.71875ZM19.9335 3.02347L20.6426 2.84619L20.7463 2.6907C21.2631 1.9157 22.1277 1.45312 23.0587 1.45312H24.3428C26.1441 1.45312 27.6094 2.91836 27.6094 4.71927C27.6094 5.07092 27.5527 5.41822 27.4418 5.75244L27.373 5.9583C27.1468 5.86578 26.8998 5.8125 26.6406 5.8125H26.5515C26.351 5.25014 25.8182 4.84375 25.1875 4.84375H23.25C22.9831 4.84375 22.7656 4.62675 22.7656 4.35938C22.7656 4.092 22.9831 3.875 23.25 3.875H23.7344V2.90625H23.25C22.5845 2.90625 22.0216 3.35623 21.8506 3.96752L21.6937 4.00675C20.7952 4.2315 20.1297 4.94063 19.9286 5.8125H19.8594C19.6157 5.8125 19.3852 5.86287 19.1706 5.94473C19.0422 5.49862 18.8906 4.86555 18.8906 4.35938C18.8906 3.7263 19.3193 3.1775 19.9335 3.02347ZM19.8594 6.78125V8.23438C19.8594 8.39906 19.8754 8.55987 19.8981 8.71875H19.8594C19.3251 8.71875 18.8906 8.28427 18.8906 7.75C18.8906 7.21573 19.3251 6.78125 19.8594 6.78125ZM2.42188 3.39062H18.1389C18.0033 3.68852 17.9219 4.01498 17.9219 4.35938C17.9219 5.13825 18.1955 6.09683 18.3438 6.55795C18.0837 6.88781 17.9219 7.29808 17.9219 7.75C17.9219 8.81853 18.7908 9.6875 19.8594 9.6875H20.1912C20.4329 10.1937 20.7952 10.6301 21.2423 10.9604L21.0277 12.0333C20.9507 12.4179 20.6523 12.7163 20.2677 12.7933L19.0994 13.0268C18.3501 13.1765 17.6889 13.5417 17.1682 14.0464H2.42188V3.39062ZM7.15955 15.0156H8.58264L7.85608 17.9219H6.43298L7.15955 15.0156ZM29.5469 17.9219H24.971L26.8014 13.8948L27.2107 13.9766C28.5646 14.2474 29.5469 15.4462 29.5469 16.8262V17.9219Z" fill="white"/>
<path d="M16.9531 5.32812H11.1406V7.26562H9.20312V4.35938H3.39062V10.1719H6.29688V13.0781H13.0781V10.1719H16.9531V5.32812ZM4.35938 5.32812H8.23438V9.20312H4.35938V5.32812ZM12.1094 12.1094H7.26562V10.1719H9.20312V8.23438H12.1094V12.1094ZM15.9844 9.20312H13.0781V7.26562H12.1094V6.29688H15.9844V9.20312Z" fill="white"/>
<path d="M27.3619 25.8424C28.117 25.2064 28.5781 24.2604 28.5781 23.25V22.7656C28.5781 21.1628 27.2747 19.8594 25.6719 19.8594H24.7031C23.1003 19.8594 21.7969 21.1628 21.7969 22.7656V23.25C21.7969 24.2609 22.2585 25.2074 23.0127 25.8424C21.839 26.1771 20.8809 26.9826 20.3404 28.0366C19.7954 26.9836 18.8354 26.181 17.6768 25.8458C18.4179 25.2233 18.8906 24.2909 18.8906 23.25V22.7656C18.8906 21.1628 17.5872 19.8594 15.9844 19.8594H15.0156C13.4128 19.8594 12.1094 21.1628 12.1094 22.7656V23.25C12.1094 24.2909 12.5821 25.2233 13.3232 25.8458C12.1631 26.1814 11.2026 26.985 10.6582 28.04C10.1142 26.985 9.15275 26.179 7.99267 25.8429C8.73183 25.2204 9.20312 24.2895 9.20312 23.25V22.2812C9.20312 20.9458 8.11667 19.8594 6.78125 19.8594H3.39062C2.85636 19.8594 2.42188 20.2939 2.42188 20.8281V23.25C2.42188 24.2909 2.89462 25.2233 3.63572 25.8458C1.81834 26.3713 0.484375 28.0468 0.484375 30.0312V30.5156H30.5156V30.0312C30.5156 28.0516 29.203 26.3674 27.3619 25.8424ZM26.1562 26.6406C26.1562 27.1749 25.7218 27.6094 25.1875 27.6094C24.6532 27.6094 24.2188 27.1749 24.2188 26.6406C24.2188 26.5922 24.2309 26.5471 24.2376 26.5006C24.5433 26.5898 24.8635 26.6406 25.1875 26.6406C25.5115 26.6406 25.8322 26.5898 26.1374 26.5006C26.1441 26.5471 26.1562 26.5922 26.1562 26.6406ZM22.7656 23.25V22.7656C22.7656 21.6971 23.6346 20.8281 24.7031 20.8281H25.6719C26.7404 20.8281 27.6094 21.6971 27.6094 22.7656V23.25C27.6094 24.1834 27.0625 25.0436 26.2124 25.4432C25.5915 25.7421 24.7874 25.744 24.1587 25.4413C23.3125 25.0436 22.7656 24.1834 22.7656 23.25ZM13.0781 23.25V22.7656C13.0781 21.6971 13.9471 20.8281 15.0156 20.8281H15.9844C17.0529 20.8281 17.9219 21.6971 17.9219 22.7656V23.25C17.9219 24.5854 16.8354 25.6719 15.5 25.6719C14.1646 25.6719 13.0781 24.5854 13.0781 23.25ZM14.5312 26.6406H16.4688C18.1733 26.6406 19.5842 27.9068 19.8206 29.5469H11.1794C11.4157 27.9068 12.8267 26.6406 14.5312 26.6406ZM3.39062 23.25V20.8281H6.78125C7.58241 20.8281 8.23438 21.4801 8.23438 22.2812V23.25C8.23438 24.5854 7.14792 25.6719 5.8125 25.6719C4.47708 25.6719 3.39062 24.5854 3.39062 23.25ZM1.48752 29.5469C1.72341 27.9058 3.13827 26.6406 4.84375 26.6406H6.78125C8.48673 26.6406 9.90159 27.9058 10.1375 29.5469H1.48752ZM20.8659 29.5469C21.0538 28.2279 21.9935 27.1468 23.2636 26.7772C23.3353 27.7808 24.166 28.5781 25.1875 28.5781C26.2086 28.5781 27.0393 27.7813 27.111 26.7782C28.3815 27.1478 29.325 28.2279 29.5125 29.5469H20.8659Z" fill="white"/>
</svg>
