<svg width="30" height="30" viewBox="0 0 30 30" fill="none" xmlns="http://www.w3.org/2000/svg">
<g clip-path="url(#clip0)">
<path d="M21.958 23.7297V25.7811C21.958 26.5163 21.3599 27.1145 20.6246 27.1145H9.37547C8.64023 27.1145 8.04211 26.5163 8.04211 25.7811V23.7297C8.04211 22.9954 8.64023 22.3979 9.37547 22.3979H20.6246C21.3599 22.398 21.958 22.9954 21.958 23.7297ZM9.21399 23.7297V25.7811C9.21399 25.8686 9.28793 25.9426 9.37547 25.9426H20.6246C20.7137 25.9426 20.7861 25.8702 20.7861 25.7811V23.7297C20.7861 23.6431 20.7122 23.5698 20.6246 23.5698H9.37547C9.28793 23.5699 9.21399 23.6431 9.21399 23.7297Z" fill="white"/>
<path d="M1.55256 16.6257H1.84687V14.1354C1.84687 14.1342 1.84687 14.1332 1.84687 14.132C1.84687 14.1312 1.84687 14.1304 1.84687 14.1296C1.84705 14.0756 1.84986 14.0463 1.85602 14.0347C1.87307 13.9365 1.9149 13.8412 1.98357 13.7592L3.34635 12.1321C2.92277 11.4543 2.95963 10.5523 3.50033 9.9068L4.04584 9.25688C4.36922 8.86951 4.82572 8.63133 5.33133 8.58627C5.83817 8.54109 6.33076 8.69531 6.71889 9.02045C6.71906 9.02063 6.7193 9.0208 6.71953 9.02104C7.52057 9.69422 7.62492 10.8931 6.95303 11.6927L6.40799 12.3441C6.08338 12.7315 5.62605 12.9696 5.12039 13.0141C5.06326 13.0191 5.00643 13.0216 4.94982 13.0216C4.70537 13.0216 4.46678 12.9749 4.24424 12.8852L3.01869 14.3484V16.6258H7.73063C7.7775 13.335 8.27267 11.7002 10.6407 10.5647L11.5811 9.60252C10.8883 8.90338 10.4021 8.04258 10.4021 7.1359V5.70902V4.65756C10.4021 2.12168 12.4651 0.0585938 15.0009 0.0585938C17.5366 0.0585938 19.5995 2.12168 19.5995 4.65756V5.70896V7.13584C19.5995 8.04281 19.113 8.90379 18.4199 9.60305L19.3607 10.5645C21.7289 11.7001 22.2241 13.3349 22.271 16.6257H26.9829V14.3484L25.7573 12.8851C25.5347 12.9748 25.296 13.0216 25.0515 13.0216C24.9941 13.0216 24.9364 13.019 24.8786 13.0138C24.3729 12.9688 23.9164 12.7307 23.5939 12.3444L23.0479 11.6936C22.7231 11.3071 22.5686 10.8157 22.6128 10.3098C22.6571 9.8032 22.895 9.34535 23.2828 9.02045C23.6703 8.69584 24.1622 8.54162 24.6677 8.58609C25.1733 8.63062 25.6306 8.86857 25.9549 9.2557L26.5024 9.90803C27.0404 10.5527 27.0769 11.4538 26.6548 12.1315L28.0181 13.7593C28.1009 13.8581 28.1449 13.9762 28.1529 14.0956C28.1538 14.1046 28.1544 14.1147 28.1546 14.126C28.1547 14.1283 28.1548 14.1306 28.1548 14.133C28.1548 14.1339 28.1549 14.1346 28.1549 14.1355V16.6258H28.4476C29.3035 16.6257 30 17.3222 30 18.1784V19.1883C30 20.0444 29.3035 20.7409 28.4474 20.7409H27.7299L25.6024 29.0689C25.5478 29.2847 25.3817 29.9414 24.6224 29.9414H5.37768C4.62351 29.9414 4.45412 29.2871 4.39805 29.0704L2.27015 20.741H1.55256C0.696505 20.741 0 20.0445 0 19.1883V18.1784C0 17.3222 0.696505 16.6257 1.55256 16.6257ZM4.4884 11.6814C4.636 11.8051 4.82361 11.8637 5.01768 11.8467C5.21145 11.8296 5.38623 11.739 5.50957 11.5917L6.0552 10.9396C6.31213 10.6339 6.27205 10.1757 5.9659 9.91822C5.81818 9.79465 5.6298 9.73588 5.43551 9.7534C5.24209 9.77062 5.06807 9.86098 4.94461 10.0089L4.39852 10.6596C4.14158 10.9663 4.18189 11.4247 4.4884 11.6814ZM25.6036 10.6602L25.0568 10.0087C24.9333 9.86115 24.7585 9.77057 24.5648 9.75352C24.5428 9.75158 24.5208 9.75059 24.499 9.75059C24.3288 9.75059 24.1662 9.80918 24.0354 9.91875C23.8878 10.0424 23.7972 10.2176 23.7802 10.4119C23.7633 10.6057 23.8218 10.7931 23.9452 10.94L24.4926 11.5924C24.6151 11.7391 24.7892 11.8295 24.9826 11.8467C25.1771 11.8643 25.3655 11.8054 25.5127 11.6821C25.8185 11.4249 25.8589 10.966 25.6036 10.6602ZM15.0009 1.23047C13.1113 1.23047 11.5741 2.76785 11.5741 4.65756V5.09725C12.7467 4.99734 13.7133 4.62592 14.5802 4.29281C15.3582 3.99381 16.1164 3.70248 16.866 3.70248C17.3794 3.70248 17.8888 3.83918 18.3978 4.20363C18.175 2.52768 16.7365 1.23047 15.0009 1.23047ZM18.4276 7.13584V5.896C17.3839 4.47088 16.6178 4.7652 15.0006 5.3867C14.0793 5.74072 12.9595 6.17057 11.5741 6.27234V7.1359C11.5741 8.57537 13.8025 10.0979 15.0009 10.0979C16.1992 10.0979 18.4276 8.57537 18.4276 7.13584ZM11.8287 11.0258L13.4387 12.5106L14.1224 11.135C13.5882 10.9839 13.0174 10.7121 12.4873 10.352L11.8287 11.0258ZM15.8794 11.1349L16.563 12.5106L18.1727 11.0259L17.5137 10.3524C16.9838 10.7123 16.4132 10.984 15.8794 11.1349ZM19.1149 11.7513L16.7833 13.9017C16.6741 14.0024 16.5319 14.0569 16.386 14.0569C16.3507 14.0569 16.3151 14.0537 16.2798 14.0472C16.0984 14.0138 15.9434 13.8969 15.8613 13.7317L15.0008 12.0004L14.1403 13.7317C14.0583 13.8969 13.9032 14.0138 13.7218 14.0472C13.5402 14.0807 13.3539 14.0266 13.2183 13.9017L10.8867 11.7513C9.37506 12.5546 8.94744 13.616 8.90244 16.6257H21.0991C21.0541 13.616 20.6265 12.5546 19.1149 11.7513ZM1.17188 19.1883C1.17188 19.3982 1.34262 19.569 1.55256 19.569H12.3717C12.6952 19.569 12.9576 19.8314 12.9576 20.155C12.9576 20.4785 12.6952 20.7409 12.3717 20.7409H3.47965L5.53066 28.7695L24.4693 28.7695L26.5204 20.741H17.635C17.3115 20.741 17.0491 20.4786 17.0491 20.155C17.0491 19.8315 17.3115 19.5691 17.635 19.5691H28.4474C28.6538 19.5691 28.8281 19.3947 28.8281 19.1883V18.1784C28.8281 17.972 28.6538 17.7977 28.4474 17.7977H1.55256C1.34625 17.7977 1.17188 17.972 1.17188 18.1784V19.1883Z" fill="white"/>
<path d="M15.0024 20.7407H15.0007C14.6772 20.7407 14.4156 20.4783 14.4156 20.1548C14.4156 19.8312 14.6788 19.5688 15.0024 19.5688C15.3261 19.5688 15.5884 19.8312 15.5884 20.1548C15.5884 20.4783 15.3259 20.7407 15.0024 20.7407Z" fill="white"/>
</g>
<defs>
<clipPath id="clip0">
<rect width="30" height="30" fill="white" transform="matrix(-1 0 0 1 30 0)"/>
</clipPath>
</defs>
</svg>
