<?xml version="1.0" standalone="no"?>
<!DOCTYPE svg PUBLIC "-//W3C//DTD SVG 1.1//EN" "http://www.w3.org/Graphics/SVG/1.1/DTD/svg11.dtd" >
<svg xmlns="http://www.w3.org/2000/svg" xmlns:xlink="http://www.w3.org/1999/xlink" version="1.1">
<metadata>
Created by FontForge 20170731 at Thu Apr 22 17:10:44 2021
 By Aleksey,,,
 2002 PARACHUTE TYPE &#38; IMAGE CORP. All rights reserved. Designed by Panos Vassiliou. Based on DIN 1451 by the Deutsches Institut Normung 6  {www.parachute.gr}
</metadata>
<defs>
<font id="PFDinText-Bold" horiz-adv-x="1017" >
  <font-face 
    font-family="PF Din Text"
    font-weight="700"
    font-stretch="normal"
    units-per-em="2048"
    panose-1="2 0 8 6 2 0 0 2 0 4"
    ascent="1536"
    descent="-512"
    x-height="1024"
    cap-height="1419"
    bbox="-590 -514 2048 1896"
    underline-thickness="163"
    underline-position="-552"
    unicode-range="U+0020-E001"
  />
<missing-glyph horiz-adv-x="2048" 
 />
    <glyph glyph-name=".notdef" horiz-adv-x="2048" 
 />
    <glyph glyph-name=".null" horiz-adv-x="0" 
 />
    <glyph glyph-name="nonmarkingreturn" horiz-adv-x="682" 
 />
    <glyph glyph-name="space" unicode=" " horiz-adv-x="509" 
 />
    <glyph glyph-name="exclam" unicode="!" horiz-adv-x="544" 
d="M383 348l10 1071h-239l10 -1071h219zM152 0h243v229h-243v-229z" />
    <glyph glyph-name="quotedbl" unicode="&#x22;" horiz-adv-x="710" 
d="M598 1032h-197v387h197v-387zM311 1032h-196v387h196v-387z" />
    <glyph glyph-name="numbersign" unicode="#" horiz-adv-x="1091" 
d="M1044 823h-204l-31 -225h180v-176h-205l-59 -422h-207l60 422h-162l-60 -422h-206l59 422h-170v176h197l30 225h-172v176h199l59 420h199l-57 -420h168l59 420h199l-58 -420h182v-176zM635 823h-164l-33 -225h166z" />
    <glyph glyph-name="dollar" unicode="$" 
d="M977 410q0 -171 -104.5 -280.5t-270.5 -135.5v-219h-162v219q-233 25 -411 203l143 188q132 -125 268 -158v379q-161 44 -253.5 143.5t-92.5 258.5q0 163 95.5 277.5t250.5 139.5v142h162v-144q184 -28 340 -151l-123 -199q-97 73 -217 111v-357q166 -31 270.5 -138.5
t104.5 -278.5zM440 870v308q-49 -21 -80.5 -67t-31.5 -107q0 -87 112 -134zM748 410q0 72 -37.5 106.5t-108.5 54.5v-344q68 19 107 66t39 117z" />
    <glyph glyph-name="percent" unicode="%" horiz-adv-x="1351" 
d="M616 1118q0 -84 -10.5 -135t-38.5 -86q-75 -98 -215 -98q-145 0 -221 110q-26 36 -35.5 82.5t-9.5 126.5q0 57 3.5 92t23 80t57.5 80q76 68 182 68q104 0 180 -68q54 -50 69 -107.5t15 -144.5zM1106 1419l-676 -1421h-194l677 1421h193zM1268 301q0 -84 -10.5 -131.5
t-38.5 -83.5q-78 -106 -215 -106q-142 0 -220 112q-47 67 -47 209q0 85 15 142.5t69 107.5q75 67 183 67t180 -65q54 -51 69 -109t15 -143zM442 1110v6q0 82 -14 107q-21 41 -76 41q-57 0 -78 -43q-14 -25 -14 -103v-31q0 -52 19 -79q21 -37 73 -37q41 0 60 22
q14 13 21.5 36t8 37.5t0.5 43.5zM1094 291v8q0 80 -15 104q-21 43 -75 43q-58 0 -78 -45q-15 -25 -15 -100v-31q0 -52 19 -82q24 -34 74 -34q38 0 61 20q29 29 29 117z" />
    <glyph glyph-name="ampersand" unicode="&#x26;" horiz-adv-x="1306" 
d="M1290 0h-282l-90 127q-81 -68 -169 -101.5t-200 -33.5q-129 0 -234.5 51t-169 149.5t-63.5 225.5q0 137 89.5 250.5t223.5 191.5q-41 63 -62.5 119t-21.5 127q0 146 85.5 237t234.5 91q140 0 233.5 -88t93.5 -216q0 -61 -19 -113.5t-54.5 -94.5t-73.5 -73t-90 -63
l201 -276q30 64 39 182h221q-15 -241 -115 -385zM739 1130q0 42 -30.5 70.5t-77.5 28.5q-44 0 -68 -33.5t-24 -79.5q0 -62 65 -153q65 35 100 73.5t35 93.5zM793 303l-269 379q-99 -53 -155 -115.5t-56 -144.5q0 -103 68 -161t168 -58q138 0 244 100z" />
    <glyph glyph-name="quotesingle" unicode="'" horiz-adv-x="509" 
d="M352 1032h-194v387h194v-387z" />
    <glyph glyph-name="parenleft" unicode="(" horiz-adv-x="583" 
d="M559 -16l-27 -201q-160 7 -260 114.5t-100 256.5v968q0 151 99.5 257.5t260.5 113.5l27 -201q-172 -25 -172 -155v-998q0 -130 172 -155z" />
    <glyph glyph-name="parenright" unicode=")" horiz-adv-x="583" 
d="M444 154q0 -149 -99 -256.5t-259 -114.5l-29 201q174 26 174 155v998q0 129 -174 155l29 201q161 -7 259.5 -113.5t98.5 -257.5v-968z" />
    <glyph glyph-name="asterisk" unicode="*" horiz-adv-x="729" 
d="M446 1419v-172l140 80l84 -125l-150 -92l150 -92l-84 -127l-140 82v-172h-163v172l-140 -82l-84 127l150 92l-150 92l84 125l140 -80v172h163z" />
    <glyph glyph-name="plus" unicode="+" horiz-adv-x="1214" 
d="M1114 414h-409v-414h-197v414h-408v194h408v408h197v-408h409v-194z" />
    <glyph glyph-name="comma" unicode="," horiz-adv-x="509" 
d="M377 -152l-244 -176v559h244v-383z" />
    <glyph glyph-name="hyphen" unicode="-" horiz-adv-x="835" 
d="M739 406h-641v225h641v-225z" />
    <glyph glyph-name="period" unicode="." horiz-adv-x="509" 
d="M377 0h-244v233h244v-233z" />
    <glyph glyph-name="slash" unicode="/" horiz-adv-x="692" 
d="M686 1430l-479 -1430h-199l479 1430h199z" />
    <glyph glyph-name="zero" unicode="0" horiz-adv-x="978" 
d="M907 406q0 -129 -60.5 -226t-154 -144.5t-203.5 -47.5t-203 47.5t-152.5 144.5t-59.5 226v606q0 129 59.5 226t152.5 144.5t203 47.5t203.5 -47.5t154 -144.5t60.5 -226v-606zM664 418v583q0 90 -47.5 139.5t-127.5 49.5t-127 -49.5t-47 -139.5v-583q0 -91 47.5 -141
t126.5 -50q80 0 127.5 50t47.5 141z" />
    <glyph glyph-name="one" unicode="1" horiz-adv-x="978" 
d="M621 0h-244v1145l-207 -152v264l223 162h228v-1419z" />
    <glyph glyph-name="two" unicode="2" horiz-adv-x="978" 
d="M899 0h-838v215l549 678q43 52 43 125q0 51 -22 88q-21 37 -60.5 60.5t-85.5 23.5q-75 0 -125 -51.5t-57 -147.5h-242q0 189 121 314t289 125q126 0 225.5 -60.5t155.5 -163.5q45 -83 45 -186q0 -152 -88 -260l-418 -520h508v-240z" />
    <glyph glyph-name="three" unicode="3" horiz-adv-x="978" 
d="M885 430q0 -197 -127.5 -319.5t-317.5 -122.5q-156 0 -272.5 102t-147.5 295h240q27 -80 73 -119t120 -39q78 0 133 54t55 143q0 91 -55 144t-137 53h-134v219h117q90 0 142.5 48.5t52.5 123.5t-54 126.5t-129 51.5q-61 0 -108.5 -40.5t-65.5 -125.5h-239
q12 171 130.5 288.5t274.5 117.5q126 0 226.5 -59.5t153 -153.5t52.5 -201q0 -189 -143 -283q79 -49 119.5 -131t40.5 -172z" />
    <glyph glyph-name="four" unicode="4" horiz-adv-x="978" 
d="M956 205h-110v-205h-244v205h-579v211l473 1003h270l-471 -987h307v397h244v-397h110v-227z" />
    <glyph glyph-name="five" unicode="5" horiz-adv-x="978" 
d="M909 487q0 -167 -39 -258q-46 -107 -148.5 -174t-221.5 -67q-58 0 -113.5 13t-109.5 43t-96.5 75t-72.5 114.5t-40 155.5h241q37 -162 183 -162q64 0 100 26t55 73q19 58 19 176q0 120 -39 181.5t-142 61.5q-53 0 -92 -25t-74 -89h-223v788h785v-241h-553v-260
q83 67 200 67q111 0 204 -58t138 -157q39 -85 39 -283z" />
    <glyph glyph-name="six" unicode="6" horiz-adv-x="978" 
d="M911 451q0 -119 -36.5 -210.5t-99 -145.5t-138 -80.5t-160.5 -26.5q-78 0 -150 29t-130 83t-92.5 139t-34.5 189q0 130 55 240l379 751h272l-291 -573h9q34 6 71 6q60 0 103 -14q113 -33 178 -132.5t65 -254.5zM668 432q0 99 -51 152t-128 53t-127.5 -53t-50.5 -152
q0 -101 48 -153t130 -52q68 0 123.5 53.5t55.5 151.5z" />
    <glyph glyph-name="seven" unicode="7" horiz-adv-x="978" 
d="M934 1196l-479 -1196h-269l471 1178h-315v-199h-244v440h836v-223z" />
    <glyph glyph-name="eight" unicode="8" horiz-adv-x="978" 
d="M936 422q0 -188 -131.5 -311t-315.5 -123t-315 123t-131 311q0 96 44.5 180t119.5 131q-137 113 -137 277q0 177 120.5 298.5t298.5 121.5t300 -121.5t122 -298.5q0 -155 -139 -277q78 -51 121 -132.5t43 -178.5zM668 1014q0 83 -52.5 129.5t-126.5 46.5t-126 -46.5
t-52 -129.5q0 -82 52 -128t126 -46t126.5 46t52.5 128zM692 424q0 84 -60 140.5t-143 56.5t-142.5 -56.5t-59.5 -140.5q0 -81 60 -139t142 -58t142.5 58t60.5 139z" />
    <glyph glyph-name="nine" unicode="9" horiz-adv-x="978" 
d="M909 989q0 -129 -55 -239l-381 -750h-270l289 573h-9q-82 -20 -174 9q-112 33 -176.5 132t-64.5 255q0 95 24 173.5t65 131t96.5 88.5t117.5 52t129 16q78 0 150.5 -29t130.5 -83t93 -139.5t35 -189.5zM666 985q0 101 -48.5 153t-130.5 52q-68 0 -123 -53.5t-55 -151.5
q0 -99 50.5 -152t127.5 -53t128 53t51 152z" />
    <glyph glyph-name="colon" unicode=":" horiz-adv-x="509" 
d="M377 449h-244v231h244v-231zM377 0h-244v229h244v-229z" />
    <glyph glyph-name="semicolon" unicode=";" horiz-adv-x="509" 
d="M377 451h-244v229h244v-229zM377 -47l-244 -174v452h244v-278z" />
    <glyph glyph-name="less" unicode="&#x3c;" horiz-adv-x="1189" 
d="M1104 -41l-1014 465v172l1014 465v-219l-748 -332l748 -332v-219z" />
    <glyph glyph-name="equal" unicode="=" horiz-adv-x="1185" 
d="M1108 604h-1014v199h1014v-199zM1108 219h-1014v197h1014v-197z" />
    <glyph glyph-name="greater" unicode="&#x3e;" horiz-adv-x="1214" 
d="M1108 424l-1014 -465v219l748 332l-748 332v219l1014 -465v-172z" />
    <glyph glyph-name="question" unicode="?" horiz-adv-x="946" 
d="M846 1038q0 -116 -64 -211q-8 -13 -24 -34.5t-21 -28.5q-1 -2 -27 -34t-43.5 -54t-36.5 -48.5t-22 -37.5q-24 -32 -30.5 -67.5t-6.5 -92.5v-80h-241v101q0 79 9 126.5t42 96.5q3 15 61 91t66 91q3 5 29 39.5t34.5 48.5t19.5 42.5t11 53.5q0 65 -45.5 107.5t-99.5 42.5
q-158 0 -158 -211h-244v61q0 163 116.5 276.5t274.5 113.5q156 0 269 -99q131 -118 131 -293zM571 0h-241v229h241v-229z" />
    <glyph glyph-name="at" unicode="@" horiz-adv-x="1650" 
d="M1526 596q0 -109 -79.5 -199t-193.5 -90h-288v64l-4 -2q-52 -70 -173 -70q-130 0 -211 69.5t-81 186.5q0 108 71.5 176t202.5 68h195v45q0 102 -140 102q-113 0 -176 -69l-127 122q111 134 297 134q344 0 344 -275v-356h21q76 0 90 24q43 8 43 82v424q0 98 -65 156.5
t-179 58.5h-459q-114 0 -177.5 -58.5t-63.5 -156.5v-616q0 -100 64 -161.5t177 -61.5h654v-193h-647q-203 0 -329 116.5t-126 305.5v604q0 189 125.5 305.5t329.5 116.5h452q203 0 328 -116.5t125 -305.5v-430zM965 600v35h-166q-115 0 -115 -72q0 -32 29.5 -56t97.5 -24
q89 0 121.5 22.5t32.5 94.5z" />
    <glyph glyph-name="A" unicode="A" horiz-adv-x="1232" 
d="M1243 0h-270l-109 307h-495l-109 -307h-268l522 1419h207zM788 535l-170 512l-4 -3l-170 -509h344z" />
    <glyph glyph-name="B" unicode="B" horiz-adv-x="1232" 
d="M1163 412q0 -184 -119 -298t-290 -114h-609v1419h562q208 0 321 -107t113 -284q0 -196 -178 -293q-2 0 4 -6q94 -35 145 -124.5t51 -192.5zM887 1014q0 77 -52 126.5t-151 49.5h-285v-350h285q100 0 151.5 49t51.5 125zM907 424q0 80 -51.5 133t-153.5 53h-303v-370h303
q100 0 152.5 53t52.5 131z" />
    <glyph glyph-name="C" unicode="C" horiz-adv-x="1128" 
d="M307 707q0 139 8 211.5t19.5 98.5t40.5 66q74 93 196 93q91 0 158.5 -55t91.5 -144h266q-38 199 -177 324.5t-339 125.5q-146 0 -270 -74t-184 -206q-30 -67 -44.5 -141t-17 -130.5t-2.5 -168.5t2.5 -168.5t17 -131t44.5 -141.5q60 -132 184 -206t270 -74
q200 0 339 125.5t177 324.5h-266q-24 -89 -91.5 -143.5t-158.5 -54.5q-123 0 -196 92q-29 39 -40.5 65.5t-19.5 99.5t-8 212z" />
    <glyph glyph-name="D" unicode="D" horiz-adv-x="1271" 
d="M1176 870v-317q0 -161 -46 -266q-60 -132 -191.5 -209.5t-279.5 -77.5h-514v1419h508q153 0 285 -77t192 -209q43 -98 46 -263zM924 707q0 139 -8 211.5t-20 100.5t-40 62q-78 97 -203 97h-254v-938h260q65 0 115 26t80 66q31 41 42.5 66.5t19.5 97.5t8 211z" />
    <glyph glyph-name="E" unicode="E" horiz-adv-x="1128" 
d="M1079 0h-934v1419h934v-241h-680v-349h580v-229h-580v-360h680v-240z" />
    <glyph glyph-name="F" unicode="F" horiz-adv-x="1091" 
d="M1079 1178h-680v-363h580v-229h-580v-586h-254v1419h934v-241z" />
    <glyph glyph-name="G" unicode="G" horiz-adv-x="1232" 
d="M616 1430q201 0 340 -126t177 -325h-267q-23 91 -90.5 145t-159.5 54q-122 0 -196 -93q-30 -40 -41.5 -67.5t-19 -99t-7.5 -211.5q0 -139 8 -212t19.5 -99.5t40.5 -65.5q73 -92 196 -92q111 0 188 81t77 191v43h-285v235h539v-290q0 -171 -107 -314q-148 -198 -412 -198
q-147 0 -279 78t-192 210q-42 93 -45 261q-2 27 -2 83v179q0 57 2 84q3 166 45 262q60 132 192 209.5t279 77.5z" />
    <glyph glyph-name="H" unicode="H" horiz-adv-x="1306" 
d="M1163 0h-256v600h-508v-600h-254v1419h254v-590h508v590h256v-1419z" />
    <glyph glyph-name="I" unicode="I" horiz-adv-x="544" 
d="M399 0h-254v1419h254v-1419z" />
    <glyph glyph-name="J" unicode="J" horiz-adv-x="980" 
d="M852 449q0 -104 -39.5 -192.5t-105.5 -146t-149.5 -90t-172.5 -32.5q-225 0 -379 184l189 170q89 -102 184 -102q39 0 75 12t69 37.5t53 72t20 107.5v950h256v-970z" />
    <glyph glyph-name="K" unicode="K" horiz-adv-x="1271" 
d="M1290 0h-301l-375 643l-215 -250v-393h-254v1419h254v-645l7 2l538 643h307l-465 -567z" />
    <glyph glyph-name="L" unicode="L" horiz-adv-x="1128" 
d="M1079 0h-934v1419h254v-1179h680v-240z" />
    <glyph glyph-name="M" unicode="M" horiz-adv-x="1521" 
d="M1397 0h-254v778l-6 -2l-265 -579h-202l-267 581l-4 -2v-776h-254v1419h238l391 -866l387 866h236v-1419z" />
    <glyph glyph-name="N" unicode="N" horiz-adv-x="1378" 
d="M1239 0h-233l-603 926l-4 -2v-924h-254v1419h234l602 -927l2 4v923h256v-1419z" />
    <glyph glyph-name="O" unicode="O" horiz-adv-x="1200" 
d="M600 238q124 0 197 92q28 38 39.5 66.5t18.5 99.5t7 211q0 141 -7 212.5t-18.5 99.5t-39.5 66q-74 93 -197 93t-197 -93q-28 -38 -39.5 -66t-18.5 -99.5t-7 -212.5q0 -140 7 -211t18.5 -99.5t39.5 -66.5q73 -92 197 -92zM600 -14q-148 0 -279.5 78t-191.5 210
q-45 103 -45 265v342q0 158 45 262q60 132 191.5 209.5t279.5 77.5t279.5 -77.5t191.5 -209.5q45 -104 45 -262v-342q0 -162 -45 -265q-60 -132 -191.5 -210t-279.5 -78z" />
    <glyph glyph-name="P" unicode="P" horiz-adv-x="1175" 
d="M1157 973q0 -83 -32.5 -163t-94.5 -142q-131 -131 -332 -131h-299v-537h-254v1419h527q141 0 253 -55t175 -162q57 -97 57 -229zM901 977q0 100 -58 150.5t-159 50.5h-285v-402h291q86 0 139 47q72 60 72 154z" />
    <glyph glyph-name="Q" unicode="Q" horiz-adv-x="1232" 
d="M1278 135l-154 -176l-176 141q-148 -114 -332 -114q-147 0 -279 78t-192 210q-42 93 -45 261v-3q-2 0 -2 156q0 142 2 193q3 166 45 262q60 132 192 209.5t279 77.5q148 0 279.5 -77.5t191.5 -209.5q43 -98 46 -262q2 -51 2 -213v-125q-3 -163 -43 -260zM881 707
q0 140 -7.5 212t-18.5 99.5t-40 66.5q-74 93 -199 93q-122 0 -196 -93q-30 -40 -41.5 -67.5t-19 -99t-7.5 -211.5q0 -139 8 -212t19.5 -99.5t40.5 -65.5q73 -92 196 -92q62 0 117 30l-170 135l154 175l151 -119q13 89 13 248z" />
    <glyph glyph-name="R" unicode="R" horiz-adv-x="1232" 
d="M1223 0h-291l-297 586h-236v-586h-254v1419h566q248 0 372 -180q72 -105 72 -227q0 -135 -74 -244q-70 -98 -188 -147zM911 1012q0 62 -28 104q-52 74 -174 74h-310v-375h297q105 0 168 66q47 53 47 131z" />
    <glyph glyph-name="S" unicode="S" horiz-adv-x="1163" 
d="M1087 410q0 -199 -138 -310.5t-371 -111.5q-319 0 -564 209l168 188q183 -145 398 -145q123 0 188.5 47.5t65.5 122.5q0 102 -101 145q-25 11 -56.5 18t-84.5 13t-64 8q-115 15 -199 50t-145 108q-86 106 -86 256q0 189 128.5 305.5t346.5 116.5q236 0 484 -158
l-144 -207q-179 113 -350 113q-95 0 -153 -45t-58 -129q0 -36 18.5 -63t53.5 -43.5t65.5 -26t76 -19.5t63.5 -16q24 -7 76.5 -20t87.5 -23.5t61 -22.5q115 -52 174 -147.5t59 -212.5z" />
    <glyph glyph-name="T" unicode="T" 
d="M1018 1190h-381v-1190h-256v1190h-381v229h1018v-229z" />
    <glyph glyph-name="U" unicode="U" horiz-adv-x="1271" 
d="M1153 487q0 -147 -69 -262t-186.5 -176t-260.5 -61q-221 0 -369.5 144.5t-148.5 373.5v913h256v-891q0 -131 74.5 -209.5t187.5 -78.5q115 0 187.5 70.5t72.5 199.5v909h256v-932z" />
    <glyph glyph-name="V" unicode="V" horiz-adv-x="1128" 
d="M1137 1419l-475 -1419h-195l-475 1419h270l299 -977l6 2l299 975h271z" />
    <glyph glyph-name="W" unicode="W" horiz-adv-x="1667" 
d="M1653 1419l-359 -1419h-209l-249 928l-5 -2l-247 -926h-211l-359 1419h269l202 -899l4 2l252 897h185l252 -899l4 2l202 897h269z" />
    <glyph glyph-name="X" unicode="X" horiz-adv-x="1089" 
d="M1126 0h-288l-293 489l-293 -489h-291l440 727l-411 692h289l266 -456l264 456h291l-412 -692z" />
    <glyph glyph-name="Y" unicode="Y" 
d="M1063 1419l-432 -837v-582h-244v582l-432 837h272l283 -583l281 583h272z" />
    <glyph glyph-name="Z" unicode="Z" horiz-adv-x="1054" 
d="M995 0h-934v219l615 971h-590v229h909v-205l-616 -974h616v-240z" />
    <glyph glyph-name="bracketleft" unicode="[" horiz-adv-x="583" 
d="M545 -201h-406v1626h406v-172h-187v-1284h187v-170z" />
    <glyph glyph-name="backslash" unicode="\" horiz-adv-x="692" 
d="M686 -2h-199l-481 1432h199z" />
    <glyph glyph-name="bracketright" unicode="]" horiz-adv-x="583" 
d="M444 -201h-405v170h186v1284h-186v172h405v-1626z" />
    <glyph glyph-name="asciicircum" unicode="^" horiz-adv-x="1214" 
d="M1126 616h-215l-305 572l-305 -572h-215l442 803h156z" />
    <glyph glyph-name="underscore" unicode="_" horiz-adv-x="1024" 
d="M1024 -307h-1024v166h1024v-166z" />
    <glyph glyph-name="grave" unicode="`" horiz-adv-x="526" 
d="M457 1122h-201l-305 308h305z" />
    <glyph glyph-name="a" unicode="a" 
d="M903 0h-244v78q0 -2 -6 -2q-31 -39 -89.5 -63.5t-133.5 -24.5q-138 0 -235 63q-134 90 -134 258q0 132 91.5 216.5t253.5 84.5h253v72q0 60 -40.5 93.5t-139.5 33.5q-160 0 -223 -74l-150 158q122 141 363 141q206 0 313 -78q121 -84 121 -264v-692zM659 365v51h-217
q-149 0 -149 -97q0 -43 39 -73.5t127 -30.5q127 0 168 41q32 32 32 109z" />
    <glyph glyph-name="b" unicode="b" horiz-adv-x="1054" 
d="M967 535v-39q0 -76 -8 -142t-32.5 -136t-63.5 -118.5t-106 -80t-155 -31.5q-133 0 -233 100v-88h-244v1419h244v-487q102 102 233 102q365 0 365 -499zM717 512q0 47 -2 79.5t-12 74t-27.5 66.5t-51.5 43t-81 18q-34 0 -61 -9.5t-45 -24.5t-31 -39t-20 -46.5t-11 -53.5
t-5 -54t-1 -54q0 -44 2 -75.5t12 -74t27.5 -69.5t51.5 -46.5t81 -19.5q35 0 63 10t46 24t31 39t19.5 46.5t10 55t4 55t0.5 55.5z" />
    <glyph glyph-name="c" unicode="c" horiz-adv-x="909" 
d="M877 145q-157 -157 -355 -157q-93 0 -175.5 30t-149.5 91t-106.5 164t-39.5 237t39.5 237.5t106.5 164.5t149.5 91.5t175.5 30.5q197 0 348 -151l-155 -183q-83 95 -185 95q-235 0 -235 -285q0 -148 60 -214.5t175 -66.5q100 0 185 97z" />
    <glyph glyph-name="d" unicode="d" horiz-adv-x="1054" 
d="M948 0h-243v88q-112 -100 -234 -100q-68 0 -123 18.5t-92.5 48t-65.5 74t-44 90.5t-26 104t-13 106.5t-3 105.5q0 74 8 137.5t32 132.5t63 117.5t106.5 80t157.5 31.5q132 0 234 -102v487h243v-1419zM705 512q0 44 -2.5 76.5t-12.5 74t-27.5 67.5t-51.5 44.5t-81 18.5
q-48 0 -82 -18t-52 -43t-28 -66.5t-12 -74t-2 -79.5t2 -79t12 -74.5t27.5 -68.5t52 -44.5t82.5 -18.5q47 0 81 19.5t51.5 46.5t27.5 69t12.5 74.5t2.5 75.5z" />
    <glyph glyph-name="e" unicode="e" 
d="M940 432h-616q0 -73 34 -125q59 -90 179 -90q116 0 213 90l153 -168q-154 -151 -362 -151q-48 0 -93 6.5t-92 23.5t-87 43t-76 67t-61 94t-39.5 126t-14.5 160q0 114 25.5 205.5t67.5 150t99 98t116.5 56t123.5 16.5q86 0 163.5 -31t137 -88t94.5 -143.5t35 -191.5v-148z
M694 612q-6 93 -57.5 144t-126.5 51q-77 0 -128.5 -51t-57.5 -144h370z" />
    <glyph glyph-name="f" unicode="f" horiz-adv-x="583" 
d="M602 815h-201v-815h-241v815h-109v207h109v108q0 142 80.5 215.5t210.5 73.5h151v-221h-115q-86 0 -86 -96v-80h201v-207z" />
    <glyph glyph-name="g" unicode="g" horiz-adv-x="1054" 
d="M453 1036q135 0 235 -100v88h242v-979q0 -112 -37 -200.5t-100.5 -142.5t-144 -82t-171.5 -28q-195 0 -350 146l158 172q104 -78 196 -78q83 0 141 55t66 136v67q-100 -100 -235 -100q-89 0 -157 33t-107.5 84.5t-64 123t-32.5 138t-8 141.5q0 87 9 158.5t33.5 142
t64.5 118.5t107 77.5t155 29.5zM688 512q0 30 -1 53t-5 54t-11 54t-20 47t-31 39.5t-45 25.5t-61 10q-48 0 -82.5 -18.5t-52 -44.5t-27.5 -68.5t-12 -74t-2 -77.5q0 -48 2 -81t12 -74.5t28 -66.5t52 -43t82 -18q34 0 61 9.5t45 24.5t31 39t20 46.5t11 54t5 55t1 54.5z" />
    <glyph glyph-name="h" unicode="h" horiz-adv-x="1091" 
d="M963 0h-244v604q0 90 -48 139.5t-124 49.5q-78 0 -127 -49.5t-49 -139.5v-604h-244v1419h244v-485q0 2 6 2q89 98 233 98q64 0 125.5 -23.5t113 -67.5t83 -114.5t31.5 -156.5v-672z" />
    <glyph glyph-name="i" unicode="i" horiz-adv-x="509" 
d="M377 1188h-244v231h244v-231zM377 0h-244v1022h244v-1022z" />
    <glyph glyph-name="j" unicode="j" horiz-adv-x="544" 
d="M395 1188h-241v231h241v-231zM395 -100q0 -130 -87.5 -212.5t-223.5 -82.5h-98v223h59q56 0 82.5 34.5t26.5 84.5v1075h241v-1122z" />
    <glyph glyph-name="k" unicode="k" horiz-adv-x="1054" 
d="M1059 0h-273l-286 440l-129 -147v-293h-244v1419h244v-788l6 2l348 389h297l-365 -406z" />
    <glyph glyph-name="l" unicode="l" horiz-adv-x="544" 
d="M514 0h-111q-125 0 -200.5 61.5t-75.5 196.5v1161h244v-1108q0 -49 26 -68.5t62 -19.5h55v-223z" />
    <glyph glyph-name="m" unicode="m" horiz-adv-x="1705" 
d="M1567 0h-244v606q0 90 -48 139.5t-124 49.5q-78 0 -127 -49.5t-49 -139.5v-606h-244v606q0 90 -48.5 139.5t-125.5 49.5t-125.5 -49.5t-48.5 -139.5v-606h-244v1024h244v-98q92 108 240 108q97 0 161 -32t117 -97q115 129 313 129q64 0 125.5 -23.5t113 -67.5t83 -114
t31.5 -155v-674z" />
    <glyph glyph-name="n" unicode="n" horiz-adv-x="1091" 
d="M963 0h-244v606q0 90 -48 139.5t-124 49.5q-78 0 -127 -49.5t-49 -139.5v-606h-244v1024h244q0 -94 2 -94q90 104 237 104q64 0 125.5 -23.5t113 -67.5t83 -114t31.5 -155v-674z" />
    <glyph glyph-name="o" unicode="o" 
d="M940 512q0 -136 -18 -215.5t-62 -136.5q-129 -172 -350 -172q-231 0 -358 178q-40 59 -57 137.5t-17 208.5q0 142 26 236.5t113 175.5q114 110 293 110q183 0 293 -106q46 -43 75.5 -90.5t42 -104.5t16 -103t3.5 -118zM696 510q0 144 -26 195q-50 90 -160 90
q-111 0 -158 -86q-30 -56 -30 -197q0 -51 1 -77.5t10.5 -68t28.5 -67.5q46 -70 148 -70q72 0 123 41q22 19 36 46.5t19.5 65t6.5 62t1 66.5z" />
    <glyph glyph-name="p" unicode="p" horiz-adv-x="1054" 
d="M973 489q0 -499 -367 -499q-131 0 -233 102v-487h-244v1419h244v-88q100 100 233 100q68 0 123.5 -18.5t93 -48t65.5 -74.5t44 -90.5t25.5 -103.5t12.5 -106.5t3 -105.5zM723 512q0 46 -2 77.5t-12 74t-27.5 68.5t-52 44.5t-82.5 18.5q-34 0 -61 -10t-45 -25.5t-31 -39.5
t-20 -47t-11 -54t-5 -54t-1 -53q0 -45 2 -77t12 -74t27.5 -68t51.5 -45t81 -19q48 0 82 18t52 43t28 66.5t12 74.5t2 81z" />
    <glyph glyph-name="q" unicode="q" horiz-adv-x="1054" 
d="M950 -395h-243v487q-102 -102 -234 -102q-75 0 -135 22t-99 61.5t-66 87.5t-41 108.5t-20 115.5t-6 117q0 88 8 159.5t32.5 143.5t63.5 121t106 79.5t157 30.5q134 0 234 -100v88h243v-1419zM707 512q0 43 -2 75t-12 74t-27.5 69t-51 46t-79.5 19q-41 0 -72 -11.5
t-49.5 -35t-30.5 -48t-17 -61t-6.5 -63t-1.5 -64.5q0 -48 2.5 -81t12.5 -74.5t28 -66.5t52 -43t82 -18q46 0 79 18.5t50.5 45t27.5 68t12.5 74.5t2.5 77z" />
    <glyph glyph-name="r" unicode="r" horiz-adv-x="800" 
d="M831 956l-153 -219q-47 35 -73.5 46.5t-61.5 11.5q-73 0 -122.5 -46.5t-49.5 -138.5v-610h-244v1024h244q0 -98 2 -98q80 108 237 108q59 0 109.5 -18t111.5 -60z" />
    <glyph glyph-name="s" unicode="s" horiz-adv-x="978" 
d="M918 311q0 -153 -124.5 -238t-310.5 -85q-269 0 -458 166l147 176q71 -69 148 -95t180 -26q74 0 122 28t48 76q0 79 -131 95q-20 3 -97.5 10t-119.5 16q-232 58 -232 277q0 156 110.5 239.5t280.5 83.5q130 0 227.5 -29t184.5 -96l-131 -184q-69 47 -134 65.5t-147 18.5
q-149 0 -149 -98q0 -35 55.5 -57t120.5 -27q52 -2 121 -13q66 -10 112 -28q85 -32 131 -96t46 -179z" />
    <glyph glyph-name="t" unicode="t" horiz-adv-x="583" 
d="M383 1321v-299h147v-207h-147v-489q0 -54 19 -77.5t61 -23.5h63v-225h-125q-116 0 -189 69t-73 193v553h-106v207h106v299h244z" />
    <glyph glyph-name="u" unicode="u" horiz-adv-x="1091" 
d="M963 0h-242v94q-6 0 -6 -2q-89 -102 -234 -102q-64 0 -125.5 23.5t-113.5 67.5t-83.5 114.5t-31.5 156.5v672h244v-604q0 -90 49 -140.5t125 -50.5q77 0 126.5 50.5t49.5 140.5v604h242v-1024z" />
    <glyph glyph-name="v" unicode="v" horiz-adv-x="921" 
d="M938 1024l-381 -1024h-195l-378 1024h258l217 -631l4 2l217 629h258z" />
    <glyph glyph-name="w" unicode="w" horiz-adv-x="1452" 
d="M1458 1024l-332 -1024h-206l-193 633l-4 -2l-191 -631h-206l-332 1024h258l174 -625l4 2l199 623h196l197 -625l4 2l174 623h258z" />
    <glyph glyph-name="x" unicode="x" horiz-adv-x="991" 
d="M985 0h-291l-198 307l-201 -307h-291l352 522l-338 502h291l187 -299l184 299h293l-340 -502z" />
    <glyph glyph-name="y" unicode="y" horiz-adv-x="909" 
d="M934 1024l-438 -1212q-40 -114 -116 -160.5t-183 -46.5h-88v213h65q46 0 73.5 24t45.5 74l47 143l-365 965h258l220 -641l4 2l219 639h258z" />
    <glyph glyph-name="z" unicode="z" horiz-adv-x="909" 
d="M846 0h-783v207l474 600h-447v217h756v-195l-477 -602h477v-227z" />
    <glyph glyph-name="braceleft" unicode="{" horiz-adv-x="583" 
d="M27 522q76 -1 113.5 -56t37.5 -151v-276q0 -107 62 -171.5t153 -64.5h168v166h-78q-84 0 -84 144v247q0 156 -133 242q47 35 90 103.5t43 156.5v248q0 57 21 99t63 42h78v168h-168q-91 0 -153 -65t-62 -172v-273q0 -100 -37.5 -158t-113.5 -59v-170z" />
    <glyph glyph-name="bar" unicode="|" horiz-adv-x="475" 
d="M336 -483h-197v1976h197v-1976z" />
    <glyph glyph-name="braceright" unicode="}" horiz-adv-x="583" 
d="M559 522q-76 -1 -113.5 -56t-37.5 -151v-276q0 -107 -62 -171.5t-153 -64.5h-168v166h77q84 0 84 144v247q0 156 133 242q-47 35 -90 103.5t-43 156.5v248q0 57 -21 99t-63 42h-77v168h168q91 0 153 -65t62 -172v-273q0 -100 37.5 -158t113.5 -59v-170z" />
    <glyph glyph-name="asciitilde" unicode="~" horiz-adv-x="1214" 
d="M1085 539q-35 -66 -75.5 -110t-98.5 -67q-41 -16 -92 -16q-27 0 -55 4.5t-61 16t-51.5 18.5t-59 24.5t-51.5 22.5q-7 3 -26.5 11t-27.5 11.5t-23.5 9.5t-24.5 8.5t-21 4.5t-21 2q-43 0 -74 -30t-81 -103l-113 135q94 193 270 193q31 0 66 -8t57.5 -16.5t65 -26.5
t59.5 -25q15 -5 54.5 -21.5t67.5 -25t52 -8.5q25 0 41 8q25 13 50 41t63 84z" />
    <glyph glyph-name="nbspace" unicode="&#xa0;" horiz-adv-x="509" 
 />
    <glyph glyph-name="sterling" unicode="&#xa3;" horiz-adv-x="1032" 
d="M1067 1176l-227 -78q-39 50 -74 71t-90 21q-77 0 -128.5 -52t-51.5 -126v-221h204v-173h-202v-389h479v-229h-905v229h192v389h-162v173h162v225q0 172 119 291q126 120 309 120q132 0 218.5 -62t156.5 -189z" />
    <glyph glyph-name="_00A4h" unicode="&#xa4;" horiz-adv-x="1138" 
d="M326 725q0 100 69 170t168 70q101 0 170.5 -68.5t69.5 -171.5q0 -101 -69.5 -169.5t-170.5 -68.5t-169 70t-68 168zM84 1071l119 -119q-68 -109 -68 -227q0 -114 68 -227l-117 -115l131 -137l119 116q98 -67 229 -67q132 0 230 67l118 -118l131 141l-118 113
q69 114 69 227q0 119 -67 227l114 113l-131 139q-108 -108 -116 -117q-109 68 -230 68q-120 0 -229 -68l-119 119z" />
    <glyph glyph-name="yen" unicode="&#xa5;" horiz-adv-x="978" 
d="M1032 1419l-319 -631h186v-159h-268l-23 -47v-113h291v-160h-291v-309h-237v309h-291v160h291v113l-25 47h-266v159h184l-317 631h266l276 -583l277 583h266z" />
    <glyph glyph-name="brokenbar" unicode="&#xa6;" horiz-adv-x="475" 
d="M336 614h-197v879h197v-879zM336 -514h-197v879h197v-879z" />
    <glyph glyph-name="section" unicode="&#xa7;" horiz-adv-x="978" 
d="M870 641q0 -124 -27.5 -206t-107.5 -132q57 -32 90 -93t33 -134q0 -163 -110.5 -267t-268.5 -104q-145 0 -248.5 107t-103.5 288h219q5 -82 42.5 -126t105.5 -44q60 0 96.5 36t36.5 97q0 33 -11.5 54t-52 46t-119.5 54q-6 6 -40 14.5t-37 14.5q-123 47 -173.5 132
t-50.5 240q0 120 36.5 212t101.5 133q-57 23 -93 81t-36 130q0 143 97.5 237t239.5 94q72 0 133 -22t110 -66t76.5 -117.5t27.5 -169.5h-220q0 78 -33 120t-94 42q-58 0 -88 -32t-30 -72q0 -24 8.5 -42t19 -29.5t38.5 -24.5t46 -19.5t62 -21.5l37 -13q72 -23 119.5 -48.5
t88.5 -70t60.5 -113t19.5 -165.5zM489 825q-45 0 -75 -29t-41 -70t-11 -93q0 -197 136 -197q78 0 118 47q15 19 23 45q8 44 8 129q0 87 -29 121q-13 19 -48.5 33t-80.5 14z" />
    <glyph glyph-name="dieresis" unicode="&#xa8;" horiz-adv-x="790" 
d="M713 1157h-254v244h254v-244zM328 1157h-254v244h254v-244z" />
    <glyph glyph-name="copyright" unicode="&#xa9;" horiz-adv-x="1605" 
d="M1411 891v-363q-3 -170 -45 -264q-57 -126 -189 -202t-280 -76h-211q-148 0 -280 76t-189 202q-16 34 -25.5 79.5t-12.5 82t-7 100.5q-2 29 -2 181q0 82 3 139t12 131.5t31.5 137t57.5 112.5q66 94 177.5 148.5t234.5 54.5h211q148 0 280.5 -76t188.5 -201
q15 -34 25 -80.5t13 -82t7 -99.5zM1235 707q0 154 -7 231t-22.5 118.5t-52.5 86.5q-95 117 -256 117h-211q-161 0 -256 -117q-52 -64 -68 -141.5t-16 -294.5q0 -152 8 -231t24 -118t52 -84q96 -118 256 -118h211q160 0 256 118q36 46 51.5 85t23 117t7.5 231zM1122 535
q-27 -130 -110 -206.5t-205 -76.5q-93 0 -173 47.5t-116 130.5q-25 52 -29 160q-2 16 -2 104q0 113 17 180q3 12 9 34.5t9.5 35t10.5 29.5t16 31q41 62 111.5 97.5t146.5 35.5q123 0 205.5 -75.5t109.5 -205.5h-168q-19 56 -57 88.5t-90 32.5q-86 0 -129 -80
q-17 -33 -22 -72.5t-5 -130.5q0 -90 5 -128.5t22 -73.5q43 -80 129 -80q105 0 147 123h168z" />
    <glyph glyph-name="guillemotleft" unicode="&#xab;" horiz-adv-x="1034" 
d="M940 113l-453 444l453 442v-258l-190 -184l190 -184v-260zM532 113l-450 444l450 442v-258l-188 -184l188 -184v-260z" />
    <glyph glyph-name="logicalnot" unicode="&#xac;" horiz-adv-x="1024" 
d="M797 84v356h-797v234h1024v-590h-227z" />
    <glyph glyph-name="sfthyphen" unicode="&#xad;" horiz-adv-x="835" 
d="M98 406h641v225h-641v-225z" />
    <glyph glyph-name="registered" unicode="&#xae;" horiz-adv-x="1605" 
d="M1411 891v-363q-3 -170 -45 -264q-57 -126 -189 -202t-280 -76h-211q-148 0 -280 76t-189 202q-16 34 -25.5 79.5t-12.5 82t-7 100.5q-2 29 -2 181q0 82 3 139t12 131.5t31.5 137t57.5 112.5q66 94 177.5 148.5t234.5 54.5h211q146 0 279.5 -76.5t189.5 -200.5
q16 -35 25.5 -81.5t12.5 -82t7 -98.5zM1235 707q0 154 -7 231t-22.5 118.5t-52.5 86.5q-95 117 -256 117h-211q-161 0 -256 -117q-52 -64 -68 -141.5t-16 -294.5q0 -152 8 -231t24 -118t52 -84q96 -118 256 -118h211q160 0 256 118q36 46 51.5 85t23 117t7.5 231zM1147 309
h-189l-157 326h-113v-326h-162v809h322q147 0 215 -104q41 -64 41 -131q0 -72 -36 -130.5t-103 -93.5zM950 883q0 43 -27 65.5t-75 22.5h-160v-189h154q48 0 78 27t30 74z" />
    <glyph glyph-name="degree" unicode="&#xb0;" horiz-adv-x="823" 
d="M713 1130q0 -123 -88.5 -211t-212.5 -88t-212.5 88t-88.5 211q0 124 88 212t213 88t213 -88t88 -212zM553 1130q0 60 -40.5 101t-100.5 41t-101 -41t-41 -101t41 -99.5t101 -39.5t100.5 39.5t40.5 99.5z" />
    <glyph glyph-name="plusminus" unicode="&#xb1;" horiz-adv-x="1214" 
d="M1124 557h-419v-281h-197v281h-418v195h418v280h197v-280h419v-195zM1124 0h-1034v193h1034v-193z" />
    <glyph glyph-name="twosuperior" unicode="&#xb2;" horiz-adv-x="598" 
d="M555 545h-524v143l334 410q22 31 22 67q0 39 -24.5 67t-65.5 28t-68.5 -30.5t-31.5 -88.5h-166q0 123 75.5 203.5t180.5 80.5q79 0 140.5 -38t96.5 -103q29 -54 29 -117q0 -92 -53 -161q-120 -150 -240 -297h295v-164z" />
    <glyph glyph-name="threesuperior" unicode="&#xb3;" horiz-adv-x="598" 
d="M547 815q0 -124 -80 -200t-199 -76q-96 0 -169.5 67t-94.5 193h164q18 -48 43 -71t65 -23q43 0 73 29t30 77q0 51 -30 80t-75 29h-90v151h80q50 0 78.5 26.5t28.5 67.5q0 40 -30 68.5t-71 28.5q-33 0 -58.5 -24t-35.5 -75h-164q9 112 83 188t171 76q119 0 195 -77
t76 -181q0 -110 -78 -172q42 -33 65 -81.5t23 -100.5z" />
    <glyph glyph-name="_00B6h" unicode="&#xb6;" horiz-adv-x="942" 
d="M506 -160h-133v977q-147 8 -250 105.5t-103 230.5q0 138 107.5 244t255.5 106h535v-151h-140v-1512h-133v1512h-139v-1512z" />
    <glyph glyph-name="periodcentered" unicode="&#xb7;" horiz-adv-x="509" 
d="M408 586q0 -63 -44.5 -108.5t-107.5 -45.5q-65 0 -109.5 45t-44.5 109t44.5 108.5t109.5 44.5q63 0 107.5 -45t44.5 -108z" />
    <glyph glyph-name="_00B9h" unicode="&#xb9;" horiz-adv-x="598" 
d="M387 555h-168v678q-15 -11 -59 -43t-64 -47v186l140 101h151v-875z" />
    <glyph glyph-name="_00BAh" unicode="&#xba;" horiz-adv-x="620" 
d="M580 1104q0 -149 -52 -219q-79 -109 -217 -109q-143 0 -221 113q-49 70 -49 215q0 86 16.5 145t69.5 111q78 67 184 67q104 0 183 -67q51 -51 68.5 -113t17.5 -143zM412 1102q0 82 -15 112q-24 50 -86 50q-63 0 -86 -47q-16 -33 -16 -113q0 -93 22 -123q20 -39 80 -39
q39 0 68 25q15 13 23 38t9 44t1 53z" />
    <glyph glyph-name="guillemotright" unicode="&#xbb;" horiz-adv-x="1024" 
d="M498 999l452 -442l-452 -444v260l190 184l-190 184v258zM90 999l453 -442l-453 -444v260l191 184l-191 184v258z" />
    <glyph glyph-name="onehalf" unicode="&#xbd;" horiz-adv-x="1521" 
d="M1149 874q127 0 212 -75.5t85 -182.5q0 -100 -68 -170l-258 -268h326v-178h-592v166l350 371q39 39 39 79q0 36 -23.5 58t-64.5 22q-42 0 -64 -28t-28 -93h-203q1 138 82 218.5t207 80.5zM1212 1452l-868 -1485h-194l868 1485h194zM432 555h-205v649l-139 -86v209l154 96
h190v-868z" />
    <glyph glyph-name="Adieresis" unicode="&#xc4;" horiz-adv-x="1232" 
d="M936 1511h-254v242h254v-242zM551 1511h-254v242h254v-242zM1243 0h-270l-109 307h-495l-109 -307h-268l522 1419h207zM788 537l-170 510l-4 -3l-170 -507h344z" />
    <glyph glyph-name="onesuperior" unicode="&#xc5;" horiz-adv-x="1232" 
d="M840 1675q0 -91 -66 -156t-158 -65t-157.5 65t-65.5 156q0 92 65.5 156.5t157.5 64.5q93 0 158.5 -64.5t65.5 -156.5zM1243 0h-270l-109 305h-495l-109 -305h-268l522 1417h207zM713 1675q0 41 -27.5 67.5t-69.5 26.5q-41 0 -68.5 -26.5t-27.5 -67.5q0 -39 27.5 -66.5
t68.5 -27.5t69 27.5t28 66.5zM788 535l-170 512l-4 -3l-170 -509h344z" />
    <glyph glyph-name="_00C7h" unicode="&#xc7;" horiz-adv-x="1128" 
d="M145 274q51 -113 156.5 -186t233.5 -94l-54 -205l117 -43q42 29 74 29q27 0 44 -15.5t17 -46.5q0 -63 -117 -63q-92 0 -186 51l-55 -127q129 -76 252 -76q114 0 189 57.5t75 151.5q0 82 -51 139.5t-140 57.5q-37 0 -51 -2l19 86q180 17 303.5 140.5t161.5 309.5h-267
q-31 -90 -96 -145t-154 -55q-123 0 -196 92q-30 40 -41.5 67.5t-19 99t-7.5 210.5q0 140 7 212t19.5 101.5t41.5 64.5q74 93 196 93q89 0 154.5 -54.5t95.5 -144.5h267q-38 199 -177.5 325t-339.5 126q-147 0 -279 -77.5t-192 -209.5q-42 -96 -45 -262q-2 -27 -2 -84v-179
q0 -54 2 -81q3 -170 45 -263z" />
    <glyph glyph-name="Eacute" unicode="&#xc9;" horiz-adv-x="1128" 
d="M1079 0h-934v1417h934v-239h-680v-349h580v-229h-580v-360h680v-240zM918 1661l-408 -137l-180 90l315 182z" />
    <glyph glyph-name="_00CBh" unicode="&#xcb;" horiz-adv-x="1128" 
d="M1079 0h-934v1419h934v-241h-680v-349h580v-229h-580v-360h680v-240zM928 1530h-256v242h256v-242zM543 1530h-256v242h256v-242z" />
    <glyph glyph-name="_00CCh" unicode="&#xcc;" horiz-adv-x="544" 
d="M399 0h-254v1419h254v-1419zM455 1604l-181 -84l-405 147l278 129z" />
    <glyph glyph-name="_00CDh" unicode="&#xcd;" horiz-adv-x="544" 
d="M399 0h-254v1419h254v-1419zM672 1661l-408 -137l-180 90l315 182z" />
    <glyph glyph-name="_00CEh" unicode="&#xce;" horiz-adv-x="544" 
d="M399 0h-254v1419h254v-1419zM713 1507h-250l-193 113l-190 -113h-254l321 269h246z" />
    <glyph glyph-name="_00CFh" unicode="&#xcf;" horiz-adv-x="544" 
d="M399 0h-254v1419h254v-1419zM600 1530h-256v242h256v-242zM215 1530h-256v242h256v-242z" />
    <glyph glyph-name="Odieresis" unicode="&#xd6;" horiz-adv-x="1232" 
d="M926 1511h-254v242h254v-242zM541 1511h-254v242h254v-242zM598 238q124 0 197 92q28 38 39.5 66.5t18.5 99.5t7 211q0 141 -7 212.5t-18.5 99.5t-39.5 66q-74 93 -197 93t-197 -93q-28 -38 -39.5 -66t-18.5 -99.5t-7 -212.5q0 -140 7 -211t18.5 -99.5t39.5 -66.5
q73 -92 197 -92zM598 -14q-148 0 -279.5 78t-191.5 210q-45 103 -45 265v342q0 158 45 262q60 132 191.5 209.5t279.5 77.5t279.5 -77.5t191.5 -209.5q45 -104 45 -262v-342q0 -162 -45 -265q-60 -132 -191.5 -210t-279.5 -78z" />
    <glyph glyph-name="Udieresis" unicode="&#xdc;" horiz-adv-x="1271" 
d="M956 1511h-254v242h254v-242zM571 1511h-254v242h254v-242zM1153 487q0 -147 -69 -262t-186.5 -176t-260.5 -61q-221 0 -369.5 144.5t-148.5 373.5v911h256v-889q0 -131 74.5 -209.5t187.5 -78.5q115 0 187.5 70.5t72.5 199.5v907h256v-930z" />
    <glyph glyph-name="germandbls" unicode="&#xdf;" horiz-adv-x="1067" 
d="M967 487q0 -76 -9 -139.5t-37 -130.5t-73.5 -113.5t-124 -76t-182.5 -29.5h-60v238h54q85 0 133 55t49 158v51q0 105 -41 151q-38 41 -109 41h-86v217h72q64 0 95.5 41t31.5 97q0 53 -41.5 106t-108.5 53q-87 0 -125 -47t-38 -121v-1038h-244v1030q0 188 117.5 291.5
t310.5 103.5q86 0 159 -34t118.5 -87.5t70.5 -116.5t25 -124q0 -78 -32 -147t-97 -105q50 -14 85.5 -48.5t53.5 -81.5t25.5 -94.5t7.5 -99.5z" />
    <glyph glyph-name="agrave" unicode="&#xe0;" 
d="M655 1124h-200l-305 306h305zM903 0h-244v78q0 -2 -6 -2q-31 -39 -89.5 -63.5t-133.5 -24.5q-138 0 -235 63q-134 90 -134 258q0 132 91.5 216.5t253.5 84.5h253v72q0 60 -40.5 93.5t-139.5 33.5q-160 0 -223 -74l-150 158q122 141 363 141q206 0 313 -78
q121 -84 121 -264v-692zM659 365v51h-217q-149 0 -149 -97q0 -43 39 -73.5t127 -30.5q127 0 168 41q32 32 32 109z" />
    <glyph glyph-name="acircumflex" unicode="&#xe2;" 
d="M870 1122h-229l-131 160l-129 -160h-234l240 310h244zM903 0h-244v78q0 -2 -6 -2q-31 -39 -89.5 -63.5t-133.5 -24.5q-138 0 -235 63q-134 90 -134 258q0 132 91.5 216.5t253.5 84.5h253v72q0 60 -40.5 93.5t-139.5 33.5q-160 0 -223 -74l-150 158q122 141 363 141
q206 0 313 -78q121 -84 121 -264v-692zM659 365v51h-217q-149 0 -149 -97q0 -43 39 -73.5t127 -30.5q127 0 168 41q32 32 32 109z" />
    <glyph glyph-name="adieresis" unicode="&#xe4;" 
d="M834 1159h-256v242h256v-242zM449 1159h-256v242h256v-242zM903 0h-244v78q0 -2 -6 -2q-31 -39 -89.5 -63.5t-133.5 -24.5q-138 0 -235 63q-134 90 -134 258q0 132 91.5 216.5t253.5 84.5h253v72q0 60 -40.5 93.5t-139.5 33.5q-160 0 -223 -74l-150 158q122 141 363 141
q206 0 313 -78q121 -84 121 -264v-692zM659 365v51h-217q-149 0 -149 -97q0 -43 39 -73.5t127 -30.5q127 0 168 41q32 32 32 109z" />
    <glyph glyph-name="ccedilla" unicode="&#xe7;" horiz-adv-x="897" 
d="M51 510q0 -223 103 -351t266 -161l-55 -160l116 -43q42 29 74 29q27 0 44 -15.5t17 -46.5q0 -63 -116 -63q-93 0 -187 51l-55 -127q129 -76 252 -76q114 0 189 57.5t75 151.5q0 82 -50.5 139.5t-139.5 57.5q-29 0 -43 -2l12 39q183 14 324 155l-162 181q-85 -97 -185 -97
q-115 0 -175 66.5t-60 214.5q0 150 60 217.5t175 67.5q102 0 185 -95l155 183q-151 151 -348 151q-93 0 -175.5 -30.5t-149.5 -91.5t-106.5 -164.5t-39.5 -237.5z" />
    <glyph glyph-name="egrave" unicode="&#xe8;" 
d="M676 1124h-201l-305 306h305zM940 432h-616q0 -73 34 -125q59 -90 179 -90q116 0 213 90l153 -168q-154 -151 -362 -151q-48 0 -93 6.5t-92 23.5t-87 43t-76 67t-61 94t-39.5 126t-14.5 160q0 114 25.5 205.5t67.5 150t99 98t116.5 56t123.5 16.5q86 0 163.5 -31t137 -88
t94.5 -143.5t35 -191.5v-148zM694 612q-6 93 -57.5 144t-126.5 51q-77 0 -128.5 -51t-57.5 -144h370z" />
    <glyph glyph-name="eacute" unicode="&#xe9;" 
d="M850 1430l-305 -306h-201l201 306h305zM940 432h-616q0 -73 34 -125q59 -90 179 -90q116 0 213 90l153 -168q-154 -151 -362 -151q-48 0 -93 6.5t-92 23.5t-87 43t-76 67t-61 94t-39.5 126t-14.5 160q0 114 25.5 205.5t67.5 150t99 98t116.5 56t123.5 16.5
q86 0 163.5 -31t137 -88t94.5 -143.5t35 -191.5v-148zM694 612q-6 93 -57.5 144t-126.5 51q-77 0 -128.5 -51t-57.5 -144h370z" />
    <glyph glyph-name="ecircumflex" unicode="&#xea;" 
d="M870 1122h-229l-131 160l-129 -160h-234l240 310h244zM940 432h-616q0 -73 34 -125q59 -90 179 -90q116 0 213 90l153 -168q-154 -151 -362 -151q-48 0 -93 6.5t-92 23.5t-87 43t-76 67t-61 94t-39.5 126t-14.5 160q0 114 25.5 205.5t67.5 150t99 98t116.5 56t123.5 16.5
q86 0 163.5 -31t137 -88t94.5 -143.5t35 -191.5v-148zM694 612q-6 93 -57.5 144t-126.5 51q-77 0 -128.5 -51t-57.5 -144h370z" />
    <glyph glyph-name="edieresis" unicode="&#xeb;" 
d="M834 1159h-254v242h254v-242zM449 1159h-254v242h254v-242zM940 432h-616q0 -73 34 -125q59 -90 179 -90q116 0 213 90l153 -168q-154 -151 -362 -151q-48 0 -93 6.5t-92 23.5t-87 43t-76 67t-61 94t-39.5 126t-14.5 160q0 114 25.5 205.5t67.5 150t99 98t116.5 56
t123.5 16.5q86 0 163.5 -31t137 -88t94.5 -143.5t35 -191.5v-148zM694 612q-6 93 -57.5 144t-126.5 51q-77 0 -128.5 -51t-57.5 -144h370z" />
    <glyph glyph-name="icircumflex" unicode="&#xee;" horiz-adv-x="509" 
d="M616 1122h-231l-131 160l-127 -160h-236l240 310h246zM377 0h-244v1022h244v-1022z" />
    <glyph glyph-name="idieresis" unicode="&#xef;" horiz-adv-x="509" 
d="M569 1159h-254v242h254v-242zM184 1159h-254v242h254v-242zM377 0h-244v1022h244v-1022z" />
    <glyph glyph-name="ocircumflex" unicode="&#xf4;" 
d="M874 1122h-229l-131 160l-129 -160h-233l239 310h244zM940 512q0 -136 -18 -215.5t-62 -136.5q-129 -172 -350 -172q-231 0 -358 178q-40 59 -57 137.5t-17 208.5q0 142 26 236.5t113 175.5q118 110 293 110q177 0 291 -110q88 -81 113.5 -174.5t25.5 -237.5zM696 510
q0 144 -26 195q-50 90 -160 90q-111 0 -158 -86q-30 -56 -30 -197q0 -51 1 -77.5t10.5 -68t28.5 -67.5q51 -72 148 -72q77 0 123 43q22 19 36 46.5t19.5 65t6.5 62t1 66.5z" />
    <glyph glyph-name="odieresis" unicode="&#xf6;" 
d="M831 1159h-253v242h253v-242zM446 1159h-253v242h253v-242zM940 512q0 -136 -18 -215.5t-62 -136.5q-129 -172 -350 -172q-231 0 -358 178q-40 59 -57 137.5t-17 208.5q0 142 26 236.5t113 175.5q118 110 293 110q177 0 291 -110q88 -81 113.5 -174.5t25.5 -237.5z
M696 510q0 144 -26 195q-50 90 -160 90q-111 0 -158 -86q-30 -56 -30 -197q0 -51 1 -77.5t10.5 -68t28.5 -67.5q51 -72 148 -72q77 0 123 43q22 19 36 46.5t19.5 65t6.5 62t1 66.5z" />
    <glyph glyph-name="divide" unicode="&#xf7;" horiz-adv-x="1214" 
d="M760 911q0 -63 -44 -107t-110 -44q-63 0 -107 44t-44 107t44 107.5t107 44.5q66 0 110 -44.5t44 -107.5zM1124 414h-1034v194h1034v-194zM606 262q66 0 110 -44t44 -107t-44 -107.5t-110 -44.5q-63 0 -107 44.5t-44 107.5t44 107t107 44z" />
    <glyph glyph-name="ugrave" unicode="&#xf9;" horiz-adv-x="1091" 
d="M688 1124h-199l-305 306h305zM963 0h-242v94q-6 0 -6 -2q-89 -102 -234 -102q-64 0 -126 23.5t-113.5 67.5t-83 114t-31.5 155v674h244v-606q0 -89 49 -139t125 -50q78 0 127 49.5t49 139.5v606h242v-1024z" />
    <glyph glyph-name="ucircumflex" unicode="&#xfb;" horiz-adv-x="1091" 
d="M903 1122h-229l-131 154l-129 -154h-234l240 310h246zM963 0h-242v94q-6 0 -6 -2q-89 -102 -234 -102q-64 0 -126 23.5t-113.5 67.5t-83 114t-31.5 155v674h244v-606q0 -89 49 -139t125 -50q78 0 127 49.5t49 139.5v606h242v-1024z" />
    <glyph glyph-name="udieresis" unicode="&#xfc;" horiz-adv-x="1091" 
d="M858 1159h-256v242h256v-242zM473 1159h-256v242h256v-242zM963 0h-242v94q-6 0 -6 -2q-89 -102 -234 -102q-64 0 -126 23.5t-113.5 67.5t-83 114t-31.5 155v674h244v-606q0 -89 49 -139t125 -50q78 0 127 49.5t49 139.5v606h242v-1024z" />
    <glyph glyph-name="oe" unicode="&#x153;" horiz-adv-x="1634" 
d="M696 510q0 -47 -1 -66.5t-5.5 -59t-19 -66.5t-37.5 -48q-51 -41 -123 -41q-102 0 -148 70q-19 26 -28.5 67.5t-10.5 68t-1 77.5q0 141 30 197q47 86 158 86q110 0 160 -90q7 -13 12.5 -30t8 -29.5t4 -36t1.5 -32v-36v-31.5zM940 432h616v148q0 139 -60 244t-156.5 157.5
t-213.5 52.5q-190 0 -303 -127q-10 7 -20 21q-121 106 -293 106q-176 0 -295 -108q-86 -83 -111.5 -177.5t-25.5 -236.5q0 -130 17.5 -208.5t58.5 -135.5q123 -180 356 -180q190 0 311 127q122 -127 336 -127q209 0 363 151l-154 168q-97 -90 -213 -90q-119 0 -178 90
q-35 53 -35 125zM1311 612h-369q4 93 55.5 144t128.5 51t128 -50.5t57 -144.5z" />
    <glyph glyph-name="tonos" unicode="&#x384;" horiz-adv-x="526" 
d="M592 1430l-305 -308h-201l201 308h305z" />
    <glyph glyph-name="dieresistonos" unicode="&#x385;" horiz-adv-x="948" 
d="M989 1157h-254v242h254v-242zM737 1430l-305 -308h-201l201 308h305zM236 1157h-256v242h256v-242z" />
    <glyph glyph-name="Alphatonos" unicode="&#x386;" horiz-adv-x="1232" 
d="M365 1430l-306 -306h-200l200 306h306zM1243 0h-270l-109 307h-495l-109 -307h-268l522 1419h207zM788 535l-170 512l-4 -3l-170 -509h344z" />
    <glyph glyph-name="Epsilontonos" unicode="&#x388;" horiz-adv-x="1128" 
d="M1079 0h-934v1419h934v-241h-680v-349h580v-229h-580v-360h680v-240zM109 1430l-306 -306h-200l200 306h306z" />
    <glyph glyph-name="Etatonos" unicode="&#x389;" horiz-adv-x="1306" 
d="M1163 0h-256v600h-508v-600h-254v1419h254v-590h508v590h256v-1419zM106 1430l-305 -306h-200l200 306h305z" />
    <glyph glyph-name="Iotatonos" unicode="&#x38a;" horiz-adv-x="544" 
d="M102 1430l-305 -306h-200l200 306h305zM399 0h-254v1419h254v-1419z" />
    <glyph glyph-name="Omicrontonos" unicode="&#x38c;" horiz-adv-x="1200" 
d="M170 1430l-305 -306h-201l201 306h305zM598 238q124 0 197 92q28 38 39.5 66.5t18.5 99.5t7 211q0 141 -7 212.5t-18.5 99.5t-39.5 66q-74 93 -197 93t-197 -93q-28 -38 -39.5 -66t-18.5 -99.5t-7 -212.5q0 -140 7 -211t18.5 -99.5t39.5 -66.5q73 -92 197 -92zM598 -14
q-148 0 -279.5 78t-191.5 210q-45 103 -45 265v342q0 158 45 262q60 132 191.5 209.5t279.5 77.5t279.5 -77.5t191.5 -209.5q45 -104 45 -262v-342q0 -162 -45 -265q-60 -132 -191.5 -210t-279.5 -78z" />
    <glyph glyph-name="Upsilontonos" unicode="&#x38e;" 
d="M1063 1419l-432 -837v-582h-244v582l-432 837h272l283 -583l281 583h272zM-84 1430l-307 -306h-199l199 306h307z" />
    <glyph glyph-name="Omegatonos" unicode="&#x38f;" horiz-adv-x="1200" 
d="M598 1178q-65 0 -117 -26.5t-84 -66.5q-28 -38 -39.5 -66t-18.5 -99.5t-7 -212.5q0 -181 11 -248t58 -123q41 -47 109 -76v-260h-459v240h131q-60 55 -81 133.5t-23 193.5q-2 23 -2 230q0 237 49 346q60 131 194 209t281 78t280 -78t193 -209q49 -109 49 -346
q0 -207 -2 -230q-2 -115 -23 -193.5t-81 -133.5h131v-240h-459v260q68 29 109 76q47 56 58 123t11 248q0 141 -7 212.5t-18.5 99.5t-39.5 66q-32 40 -85 66.5t-118 26.5zM139 1430l-307 -306h-199l199 306h307z" />
    <glyph glyph-name="iotadieresistonos" unicode="&#x390;" horiz-adv-x="544" 
d="M780 1157h-254v244h254v-244zM528 1430l-305 -306h-200l200 306h305zM27 1157h-256v244h256v-244zM514 0h-111q-125 0 -200.5 61.5t-75.5 196.5v766h244v-713q0 -49 26 -68.5t62 -19.5h55v-223z" />
    <glyph glyph-name="Alpha" unicode="&#x391;" horiz-adv-x="1232" 
d="M1243 0h-270l-109 307h-495l-109 -307h-268l522 1419h207zM788 535l-170 512l-4 -3l-170 -509h344z" />
    <glyph glyph-name="Beta" unicode="&#x392;" horiz-adv-x="1232" 
d="M1163 412q0 -184 -119 -298t-290 -114h-609v1419h562q208 0 321 -107t113 -284q0 -196 -178 -293q-2 0 4 -6q94 -35 145 -124.5t51 -192.5zM887 1014q0 77 -52 126.5t-151 49.5h-285v-350h285q100 0 151.5 49t51.5 125zM907 424q0 80 -51.5 133t-153.5 53h-303v-370h303
q100 0 152.5 53t52.5 131z" />
    <glyph glyph-name="Gamma" unicode="&#x393;" horiz-adv-x="1091" 
d="M1079 1178h-680v-1178h-254v1419h934v-241z" />
    <glyph glyph-name="Delta" unicode="&#x394;" horiz-adv-x="1232" 
d="M1243 0h-1251l522 1419h207zM891 227l-273 820l-4 -3l-274 -817h551z" />
    <glyph glyph-name="Epsilon" unicode="&#x395;" horiz-adv-x="1128" 
d="M1079 0h-934v1419h934v-241h-680v-349h580v-229h-580v-360h680v-240z" />
    <glyph glyph-name="Zeta" unicode="&#x396;" horiz-adv-x="1054" 
d="M995 0h-934v219l615 971h-590v229h909v-205l-616 -974h616v-240z" />
    <glyph glyph-name="Eta" unicode="&#x397;" horiz-adv-x="1306" 
d="M1163 0h-256v600h-508v-600h-254v1419h254v-590h508v590h256v-1419z" />
    <glyph glyph-name="Theta" unicode="&#x398;" horiz-adv-x="1200" 
d="M858 829q-4 122 -16.5 169.5t-44.5 86.5q-78 93 -199 93q-125 0 -199 -93q-33 -43 -46 -89.5t-17 -166.5h522zM860 600h-524q4 -133 16 -180t47 -90q73 -92 199 -92q124 0 197 92q36 44 48.5 91t16.5 179zM598 -14q-148 0 -279.5 78t-191.5 210q-45 103 -45 265v342
q0 158 45 262q60 132 191.5 209.5t279.5 77.5t279.5 -77.5t191.5 -209.5q45 -104 45 -262v-342q0 -162 -45 -265q-60 -132 -191.5 -210t-279.5 -78z" />
    <glyph glyph-name="Iota" unicode="&#x399;" horiz-adv-x="544" 
d="M399 0h-254v1419h254v-1419z" />
    <glyph glyph-name="Kappa" unicode="&#x39a;" horiz-adv-x="1271" 
d="M1290 0h-301l-375 643l-215 -250v-393h-254v1419h254v-645l7 2l538 643h307l-465 -567z" />
    <glyph glyph-name="Lambda" unicode="&#x39b;" horiz-adv-x="1232" 
d="M1243 0h-270q-50 147 -109 316.5t-113.5 329.5t-132.5 401q0 -3 -2 -3h-2q-66 -194 -132.5 -397.5t-110.5 -332t-111 -314.5h-268l522 1419h207z" />
    <glyph glyph-name="Mu" unicode="&#x39c;" horiz-adv-x="1521" 
d="M1397 0h-254v778l-6 -2l-265 -579h-202l-267 581l-4 -2v-776h-254v1419h238l391 -866l387 866h236v-1419z" />
    <glyph glyph-name="Nu" unicode="&#x39d;" horiz-adv-x="1378" 
d="M1239 0h-233l-603 926l-4 -2v-924h-254v1419h234l602 -927l2 4v923h256v-1419z" />
    <glyph glyph-name="Xi" unicode="&#x39e;" horiz-adv-x="1177" 
d="M1061 1178h-952v241h952v-241zM956 600h-745v229h745v-229zM1061 0h-952v240h952v-240z" />
    <glyph glyph-name="Omicron" unicode="&#x39f;" horiz-adv-x="1200" 
d="M598 238q124 0 197 92q28 38 39.5 66.5t18.5 99.5t7 211q0 141 -7 212.5t-18.5 99.5t-39.5 66q-74 93 -197 93t-197 -93q-28 -38 -39.5 -66t-18.5 -99.5t-7 -212.5q0 -140 7 -211t18.5 -99.5t39.5 -66.5q73 -92 197 -92zM598 -14q-148 0 -279.5 78t-191.5 210
q-45 103 -45 265v342q0 158 45 262q60 132 191.5 209.5t279.5 77.5t279.5 -77.5t191.5 -209.5q45 -104 45 -262v-342q0 -162 -45 -265q-60 -132 -191.5 -210t-279.5 -78z" />
    <glyph glyph-name="Pi" unicode="&#x3a0;" horiz-adv-x="1306" 
d="M1163 0h-256v1190h-508v-1190h-254v1419h1018v-1419z" />
    <glyph glyph-name="Rho" unicode="&#x3a1;" horiz-adv-x="1200" 
d="M1157 973q0 -83 -32.5 -163t-94.5 -142q-131 -131 -332 -131h-299v-537h-254v1419h527q141 0 253 -55t173 -162q59 -95 59 -229zM901 977q0 100 -58 150.5t-159 50.5h-285v-402h291q86 0 139 47q72 60 72 154z" />
    <glyph glyph-name="Sigma" unicode="&#x3a3;" horiz-adv-x="1054" 
d="M995 0h-934v201l312 528l-314 506v184h908v-229h-588l299 -461l-299 -489h616v-240z" />
    <glyph glyph-name="Tau" unicode="&#x3a4;" 
d="M1018 1190h-381v-1190h-256v1190h-381v229h1018v-229z" />
    <glyph glyph-name="Upsilon" unicode="&#x3a5;" 
d="M1063 1419l-432 -837v-582h-244v582l-432 837h272l283 -583l281 583h272z" />
    <glyph glyph-name="Phi" unicode="&#x3a6;" horiz-adv-x="1507" 
d="M881 1419h-258v-67q-167 0 -291 -83t-187 -228t-63 -332q0 -167 59 -299t183 -214t299 -87v-109h258v109q132 4 236 52t169.5 129.5t100 188t34.5 230.5q0 286 -144.5 464.5t-395.5 178.5v67zM623 1108v-754q-99 11 -164.5 67t-92 131.5t-26.5 166.5q0 52 4.5 95.5t22 96
t47 90t83 68t126.5 39.5zM881 354v754q73 -9 126.5 -39.5t82.5 -68t46.5 -90t22 -95.5t4.5 -96q0 -67 -15.5 -126.5t-47.5 -111t-88 -85.5t-131 -42z" />
    <glyph glyph-name="Chi" unicode="&#x3a7;" horiz-adv-x="1089" 
d="M1126 0h-288l-293 489l-293 -489h-291l440 727l-411 692h289l266 -456l264 456h291l-412 -692z" />
    <glyph glyph-name="Psi" unicode="&#x3a8;" horiz-adv-x="1492" 
d="M1372 750q0 -214 -141.5 -347t-358.5 -151v-252h-256v252q-216 12 -356.5 153t-140.5 363v651h254v-628q0 -122 68 -198t175 -87v913h256v-915q110 11 178 79.5t68 188.5v647h254v-669z" />
    <glyph glyph-name="Omega" unicode="&#x3a9;" horiz-adv-x="1200" 
d="M598 1178q-65 0 -117 -26.5t-84 -66.5q-28 -38 -39.5 -66t-18.5 -99.5t-7 -212.5q0 -181 11 -248t58 -123q41 -47 109 -76v-260h-459v240h131q-60 55 -81 133.5t-23 193.5q-2 23 -2 230q0 237 49 346q60 131 194 209t281 78t280 -78t193 -209q49 -109 49 -346
q0 -207 -2 -230q-2 -115 -23 -193.5t-81 -133.5h131v-240h-459v260q68 29 109 76q47 56 58 123t11 248q0 141 -7 212.5t-18.5 99.5t-39.5 66q-32 40 -85 66.5t-118 26.5z" />
    <glyph glyph-name="Iotadieresis" unicode="&#x3aa;" horiz-adv-x="544" 
d="M590 1511h-254v242h254v-242zM205 1511h-254v242h254v-242zM399 0h-254v1417h254v-1417z" />
    <glyph glyph-name="Upsilondieresis" unicode="&#x3ab;" 
d="M817 1511h-256v242h256v-242zM432 1511h-256v242h256v-242zM1063 1417l-432 -835v-582h-244v582l-432 835h272l283 -581l281 581h272z" />
    <glyph glyph-name="alphatonos" unicode="&#x3ac;" horiz-adv-x="1040" 
d="M862 1430l-305 -306h-201l201 306h305zM938 0h-244v90q-100 -100 -233 -100q-365 0 -365 499q0 89 8 161.5t32 147t63.5 124.5t106 82t155.5 32q133 0 233 -100v88h244v-1024zM694 512q0 43 -2 75t-12 74t-27.5 69t-51 46t-79.5 19q-41 0 -72 -11.5t-49.5 -35t-30 -48
t-16.5 -61.5t-6.5 -62.5t-1.5 -64.5q0 -48 2 -81t12 -74.5t28 -66.5t52 -43t82 -18q46 0 79 18.5t50.5 45t27.5 68t12.5 74t2.5 77.5z" />
    <glyph glyph-name="epsilontonos" unicode="&#x3ad;" horiz-adv-x="919" 
d="M821 1430l-307 -306h-199l199 306h307zM893 147q-148 -155 -393 -155q-174 0 -292 94t-118 240q0 57 41 116.5t102 83.5q-69 28 -99 80.5t-30 110.5q0 131 112 224t288 93q235 0 383 -155l-156 -179q-80 97 -217 97q-64 0 -113 -26.5t-49 -68.5q0 -36 37 -62t111 -26h159
v-190h-174q-65 0 -106 -28.5t-41 -73.5q0 -38 47.5 -67.5t128.5 -29.5q133 0 217 101z" />
    <glyph glyph-name="etatonos" unicode="&#x3ae;" horiz-adv-x="1091" 
d="M817 1430l-305 -306h-201l201 306h305zM963 0h-244v604q0 90 -48 140.5t-124 50.5q-77 0 -126.5 -50.5t-49.5 -140.5v-604h-244v1024h244q0 -94 2 -94q81 104 237 104q64 0 125.5 -23.5t113 -67.5t83 -114.5t31.5 -156.5v-672z" />
    <glyph glyph-name="iotatonos" unicode="&#x3af;" horiz-adv-x="544" 
d="M592 1430l-305 -308h-201l201 308h305zM514 0h-111q-125 0 -200.5 61.5t-75.5 196.5v766h244v-713q0 -49 26 -68.5t62 -19.5h55v-223z" />
    <glyph glyph-name="upsilondieresistonos" unicode="&#x3b0;" horiz-adv-x="1091" 
d="M1057 1157h-254v244h254v-244zM805 1430l-305 -306h-201l201 306h305zM301 1157h-254v244h254v-244zM965 371q0 -110 -61.5 -199.5t-157 -136.5t-201.5 -47q-105 0 -200.5 47t-156.5 136.5t-61 199.5v651h244v-604q0 -90 49.5 -140.5t126.5 -50.5t125.5 50.5t48.5 140.5
v604h244v-651z" />
    <glyph glyph-name="alpha" unicode="&#x3b1;" horiz-adv-x="1046" 
d="M936 0h-244v90q-100 -100 -235 -100q-365 0 -365 499q0 57 3 106t13 106.5t25.5 103.5t43.5 90.5t65.5 74t92.5 48t122 18.5q135 0 235 -100v88h244v-1024zM692 512q0 30 -1 53t-5 54t-11 54t-20 47t-31 39.5t-45 25.5t-61 10q-48 0 -82.5 -18.5t-52 -44.5t-27.5 -68.5
t-12 -74t-2 -77.5q0 -48 2 -81t12 -74.5t28 -66.5t52 -43t82 -18q34 0 61 9.5t45 24.5t31 39t20 46.5t11 54t5 55t1 54.5z" />
    <glyph glyph-name="beta" unicode="&#x3b2;" horiz-adv-x="1060" 
d="M963 487q0 -499 -375 -499q-118 0 -228 102v-90h-243v1030q0 189 114 292t312 103q74 0 136 -22.5t103 -59t70 -84t42 -97t13 -99.5q0 -189 -119 -252q50 -15 85.5 -49.5t54.5 -80.5t27 -93.5t8 -100.5zM571 700h-139v201h113q64 0 91.5 43t27.5 103q0 57 -37 112
t-103 55q-164 0 -164 -176v-528q0 -43 2.5 -76.5t13 -74t29 -67t52 -45t80.5 -18.5q44 0 77 16t51.5 40.5t29.5 61t14.5 70t3.5 75.5q0 36 -2 60.5t-10 55t-22.5 49t-42 31t-65.5 12.5z" />
    <glyph glyph-name="gamma" unicode="&#x3b3;" horiz-adv-x="878" 
d="M557 57l340 967h-260l-203 -590l-133 377q-35 93 -91 146t-167 81l-90 -221q67 -24 89 -47.5t48 -91.5l227 -627v-448h240v454z" />
    <glyph glyph-name="delta" unicode="&#x3b4;" 
d="M942 504q0 -130 -21.5 -211t-66.5 -141q-125 -164 -348 -164q-226 0 -352 178q-39 58 -56.5 135.5t-17.5 202.5q0 68 7.5 122.5t26 110t55.5 101.5t91 80q-98 79 -98 219q0 75 34.5 133.5t91 92t120.5 50.5t131 17q94 0 175 -23t183 -80l-111 -205q-152 88 -247 88
q-57 0 -79 -22.5t-22 -48.5q0 -19 19.5 -41t54 -43t64 -37t66.5 -33.5t44 -21.5q83 -44 134 -87.5t78 -100.5t35.5 -117t8.5 -154zM696 504q0 130 -36 195t-132 100h-14q-90 0 -158 -97q-18 -28 -26 -69t-8 -129q0 -48 4 -86t16.5 -75t32.5 -61.5t53 -39.5t78 -15
q77 0 121 33q42 33 55.5 93t13.5 151z" />
    <glyph glyph-name="epsilon" unicode="&#x3b5;" horiz-adv-x="919" 
d="M893 147q-148 -155 -393 -155q-174 0 -292 94t-118 240q0 57 41 116.5t102 83.5q-68 28 -98.5 81.5t-30.5 109.5q0 130 112.5 224.5t287.5 94.5q231 0 383 -155l-156 -181q-80 97 -217 97q-64 0 -113 -26.5t-49 -68.5q0 -36 37 -62t111 -26h159v-190h-174
q-65 0 -106 -28.5t-41 -73.5q0 -38 47 -66.5t129 -28.5q135 0 217 99z" />
    <glyph glyph-name="zeta" unicode="&#x3b6;" horiz-adv-x="827" 
d="M543 1202h-408v217h739v-192q-243 -176 -397.5 -401.5t-154.5 -393.5q0 -17 4 -49q10 -57 41 -88.5t92 -56.5q120 -50 200 -82q170 -68 170 -205q0 -49 -24 -113l-98 -244l-220 82l54 121l2 4q20 46 20 72q0 50 -76 80l-133 49q-112 42 -190 131.5t-98 214.5q-5 29 -5 68
q0 193 132 405.5t350 380.5z" />
    <glyph glyph-name="eta" unicode="&#x3b7;" horiz-adv-x="1091" 
d="M963 0h-244v606q0 90 -48 139.5t-124 49.5q-78 0 -127 -49.5t-49 -139.5v-606h-244v1024h244q0 -94 2 -94q90 104 237 104q64 0 125.5 -23.5t113 -67.5t83 -114t31.5 -155v-674z" />
    <glyph glyph-name="theta" unicode="&#x3b8;" 
d="M938 520v379q0 74 -3 118.5t-15 104t-41 107.5t-76 90q-119 111 -293 111t-293 -111q-48 -43 -78 -94t-43 -112t-16.5 -108t-3.5 -116v-367q0 -259 67 -354q64 -92 161.5 -136t205.5 -44q225 0 354 180q34 48 51 113.5t20 113t3 125.5zM510 1188q110 0 156 -82
q17 -28 21.5 -78.5t4.5 -185.5h-364q0 135 4.5 185.5t21.5 78.5q46 82 156 82zM510 238q-110 0 -156 81q-16 27 -21 95t-5 211h364q0 -143 -5 -211t-21 -95q-46 -81 -156 -81z" />
    <glyph glyph-name="iota" unicode="&#x3b9;" horiz-adv-x="544" 
d="M514 0h-111q-125 0 -200.5 61.5t-75.5 196.5v766h244v-713q0 -49 26 -68.5t62 -19.5h55v-223z" />
    <glyph glyph-name="kappa" unicode="&#x3ba;" horiz-adv-x="1046" 
d="M1059 0h-271l-288 440l-129 -147v-293h-244v1022h244v-391l6 2l348 389h297l-365 -406z" />
    <glyph glyph-name="lambda" unicode="&#x3bb;" horiz-adv-x="927" 
d="M936 -8q-147 0 -217.5 46.5t-112.5 166.5l-149 436l-221 -641h-252l362 969l-49 137q-10 30 -22.5 48t-49.5 33t-98 15v219q161 0 247.5 -43t129.5 -168l317 -934q24 -68 115 -75v-209z" />
    <glyph glyph-name="mu" unicode="&#x3bc;" horiz-adv-x="1083" 
d="M963 2h-242v92q-6 0 -6 -2q-89 -102 -234 -102q-60 0 -110 20v-405h-244v1419h244v-604q0 -90 49 -140.5t125 -50.5q77 0 126.5 50.5t49.5 140.5v604h242v-1022z" />
    <glyph glyph-name="nu" unicode="&#x3bd;" horiz-adv-x="921" 
d="M938 1024l-381 -1024h-195l-378 1024h258l217 -631l4 2l217 629h258z" />
    <glyph glyph-name="xi" unicode="&#x3be;" horiz-adv-x="872" 
d="M788 1108l107 209q-72 50 -151 76.5t-119 30t-93 3.5q-111 0 -207.5 -45t-158.5 -134.5t-62 -205.5q0 -43 14.5 -87t53 -92t96.5 -79q-54 -29 -95.5 -77.5t-63 -101t-31.5 -99t-10 -84.5q0 -162 75.5 -272.5t221.5 -155.5l141 -45q67 -19 67 -82q0 -19 -12 -51l-59 -135
l219 -89l98 246q27 70 27 123q0 45 -17 80t-51 60.5t-66 41.5t-79 33q-37 12 -160 60q-75 29 -114.5 74t-39.5 122q0 95 54 173.5t125 78.5h286v201h-241q-84 0 -135.5 43t-51.5 110t51 111.5t136 44.5q54 0 106 -16t139 -70z" />
    <glyph glyph-name="omicron" unicode="&#x3bf;" 
d="M940 512q0 -136 -18 -215.5t-62 -136.5q-129 -172 -350 -172q-231 0 -358 178q-40 59 -57 137.5t-17 208.5q0 142 26 236.5t113 175.5q114 110 293 110q183 0 293 -106q46 -43 75.5 -90.5t42 -104.5t16 -103t3.5 -118zM696 510q0 144 -26 195q-50 90 -160 90
q-111 0 -158 -86q-30 -56 -30 -197q0 -51 1 -77.5t10.5 -68t28.5 -67.5q46 -70 148 -70q72 0 123 41q22 19 36 46.5t19.5 65t6.5 62t1 66.5z" />
    <glyph glyph-name="pi" unicode="&#x3c0;" horiz-adv-x="1091" 
d="M963 0h-244v805h-348v-805h-244v1024h836v-1024z" />
    <glyph glyph-name="rho" unicode="&#x3c1;" horiz-adv-x="1040" 
d="M952 512q-1 -57 -5.5 -104.5t-15 -102.5t-27.5 -98.5t-45 -85.5t-64.5 -69.5t-90 -44.5t-118.5 -17q-141 0 -234 96v-481h-243v907q0 146 24 239.5t109 174.5q112 108 288 108q173 0 287 -106q86 -82 110.5 -176t24.5 -240zM707 510q0 138 -27 197q-46 88 -154 88
q-102 0 -149 -86q-18 -33 -23.5 -76t-5.5 -121v-10q0 -47 1.5 -73.5t10.5 -64.5t27 -65q46 -70 139 -70q75 0 119 41q27 27 42 72t17.5 80t2.5 88z" />
    <glyph glyph-name="sigma1" unicode="&#x3c2;" horiz-adv-x="915" 
d="M696 154l-209 90q-44 18 -72 44.5t-41 63t-17.5 71t-4.5 85.5q0 285 236 285q101 0 184 -95l156 183q-151 151 -348 151q-93 0 -175.5 -30.5t-149.5 -91.5t-106.5 -164.5t-39.5 -237.5q0 -199 55.5 -308t210.5 -180q75 -33 125 -53q51 -21 71.5 -37.5t20.5 -40.5
q0 -20 -27 -82l-45 -104l217 -92q9 19 37 79t41.5 91.5t27 80.5t13.5 87q0 138 -160 205z" />
    <glyph glyph-name="sigma" unicode="&#x3c3;" horiz-adv-x="1048" 
d="M1010 815h-144q46 -48 60 -125t14 -182q0 -134 -18 -213.5t-62 -136.5q-126 -170 -350 -170q-230 0 -356 178q-41 57 -58.5 134.5t-17.5 207.5q0 140 26 233t113 174q117 109 293 109h500v-209zM696 506q0 91 -4.5 129t-21.5 63q-48 88 -160 88q-111 0 -158 -84
q-19 -33 -24.5 -75t-5.5 -119q0 -51 1 -77t10.5 -67.5t28.5 -68.5q50 -68 148 -68q72 0 123 41q22 20 36 46.5t19.5 63.5t6.5 61t1 67z" />
    <glyph glyph-name="tau" unicode="&#x3c4;" horiz-adv-x="694" 
d="M682 813h-225v-514q0 -72 49 -72h96v-227h-125q-118 0 -190 68.5t-72 193.5v551h-199v211h666v-211z" />
    <glyph glyph-name="upsilon" unicode="&#x3c5;" horiz-adv-x="1091" 
d="M965 371q0 -110 -61.5 -199.5t-157 -136.5t-201.5 -47q-105 0 -200.5 47t-156.5 136.5t-61 199.5v653h244v-606q0 -90 49 -139.5t127 -49.5q77 0 125.5 49.5t48.5 139.5v606h244v-653z" />
    <glyph glyph-name="phi" unicode="&#x3c6;" horiz-adv-x="1271" 
d="M1198 512q0 -134 -18.5 -212.5t-63.5 -137.5q-128 -174 -356 -174v-381h-244v383l-2 -2q-230 0 -352 174q-45 63 -64.5 140.5t-19.5 209.5q0 70 4 117t17 103.5t42.5 104.5t75.5 91q53 50 141 84l86 -228q-60 -18 -94 -79q-28 -54 -28 -195q0 -36 1.5 -61.5t8.5 -60
t19.5 -58t36 -45.5t56.5 -33q5 -1 29.5 -12t42.5 -11v805h248q183 0 297 -106q46 -43 75.5 -91t42 -105t16 -103t3.5 -117zM954 510q0 144 -26 195q-35 62 -105 83q-27 9 -63 9v-570q23 0 65 11q44 14 64 34q29 26 44.5 70.5t18 79t2.5 88.5z" />
    <glyph glyph-name="chi" unicode="&#x3c7;" horiz-adv-x="983" 
d="M977 0h-291l-199 307l-200 -307h-291l352 522l-338 502h291l186 -299l185 299h293l-340 -502z" />
    <glyph glyph-name="psi" unicode="&#x3c8;" horiz-adv-x="1345" 
d="M1223 395q0 -95 -38.5 -173t-101 -127t-137.5 -76t-153 -29v-383h-244v383q-79 2 -153.5 29.5t-135.5 76.5t-98 126.5t-37 172.5v629h244v-584q0 -101 52 -151.5t128 -55.5v832h244q0 -832 2 -834q75 0 129.5 54.5t54.5 154.5v584h244v-629z" />
    <glyph glyph-name="omega" unicode="&#x3c9;" horiz-adv-x="1515" 
d="M764 129q-60 -72 -119 -105.5t-145 -33.5q-221 0 -346 180q-40 57 -57 135.5t-17 208.5q0 71 3.5 117t16 102.5t42 104t75.5 90.5q104 101 295 108v-241q-112 -3 -158 -82q-18 -31 -24 -74t-6 -125v-10q0 -46 1 -70t9.5 -64.5t25.5 -68.5q25 -38 52 -55t69 -17
q73 0 112.5 48t39.5 143v358h244v-358q0 -191 153 -191q42 0 67 17t50 55q18 28 27 68.5t10.5 66.5t1.5 70v8q0 81 -6.5 124.5t-24.5 74.5q-46 79 -158 82v241q191 -7 295 -108q61 -56 93 -128t38.5 -131.5t6.5 -154.5q0 -130 -17 -208.5t-57 -135.5q-64 -92 -145.5 -136
t-192.5 -44q-80 0 -140.5 35.5t-113.5 103.5z" />
    <glyph glyph-name="iotadieresis" unicode="&#x3ca;" horiz-adv-x="544" 
d="M569 1159h-254v242h254v-242zM184 1159h-254v242h254v-242zM514 0h-111q-125 0 -200.5 61.5t-75.5 196.5v766h244v-713q0 -49 26 -68.5t62 -19.5h55v-223z" />
    <glyph glyph-name="upsilondieresis" unicode="&#x3cb;" horiz-adv-x="1091" 
d="M864 1159h-256v242h256v-242zM479 1159h-256v242h256v-242zM965 371q0 -110 -61.5 -199.5t-157 -136.5t-201.5 -47q-105 0 -200.5 47t-156.5 136.5t-61 199.5v651h244v-604q0 -90 49.5 -140.5t126.5 -50.5t125.5 50.5t48.5 140.5v604h244v-651z" />
    <glyph glyph-name="omicrontonos" unicode="&#x3cc;" 
d="M852 1430l-307 -306h-199l201 306h305zM940 512q0 -136 -18 -215.5t-62 -136.5q-129 -172 -350 -172q-231 0 -358 178q-40 59 -57 137.5t-17 208.5q0 142 26 236.5t113 175.5q118 110 293 110q177 0 291 -110q88 -81 113.5 -174.5t25.5 -237.5zM696 510q0 144 -26 195
q-50 90 -160 90q-111 0 -158 -86q-30 -56 -30 -197q0 -51 1 -77.5t10.5 -68t28.5 -67.5q51 -72 148 -72q77 0 123 43q22 19 36 46.5t19.5 65t6.5 62t1 66.5z" />
    <glyph glyph-name="upsilontonos" unicode="&#x3cd;" horiz-adv-x="1091" 
d="M868 1430l-305 -306h-198l198 306h305zM965 371q0 -110 -61.5 -199.5t-157 -136.5t-201.5 -47q-105 0 -200.5 47t-156.5 136.5t-61 199.5v651h244v-604q0 -90 49.5 -140.5t126.5 -50.5t125.5 50.5t48.5 140.5v604h244v-651z" />
    <glyph glyph-name="omegatonos" unicode="&#x3ce;" horiz-adv-x="1515" 
d="M1075 1430l-305 -306h-201l201 306h305zM764 129q-60 -72 -119 -105.5t-145 -33.5q-221 0 -346 180q-40 57 -57 135.5t-17 208.5q0 71 3.5 117t16 102.5t42 104t75.5 90.5q104 101 295 108v-241q-112 -3 -158 -82q-18 -31 -24 -74t-6 -125v-10q0 -46 1 -70t9.5 -64.5
t25.5 -68.5q25 -38 52 -55t69 -17q73 0 112.5 48t39.5 143v358h244v-358q0 -191 153 -191q42 0 67 17t50 55q18 28 27 68.5t10.5 66.5t1.5 70v8q0 81 -6.5 124.5t-24.5 74.5q-46 79 -158 82v241q191 -7 295 -108q61 -56 93 -128t38.5 -131.5t6.5 -154.5q0 -130 -17 -208.5
t-57 -135.5q-64 -92 -145.5 -136t-192.5 -44q-80 0 -140.5 35.5t-113.5 103.5z" />
    <glyph glyph-name="endash" unicode="&#x2013;" horiz-adv-x="1024" 
d="M1024 440h-1024v234h1024v-234z" />
    <glyph glyph-name="emdash" unicode="&#x2014;" horiz-adv-x="2048" 
d="M0 440h2048v234h-2048v-234z" />
    <glyph glyph-name="afii00208" unicode="&#x2015;" horiz-adv-x="2048" 
d="M2048 440h-2048v234h2048v-234z" />
    <glyph glyph-name="quoteleft" unicode="&#x2018;" horiz-adv-x="509" 
d="M377 930h-244v375l244 176v-551z" />
    <glyph glyph-name="quoteright" unicode="&#x2019;" horiz-adv-x="509" 
d="M377 1085l-244 -176v510h244v-334z" />
    <glyph glyph-name="quotedblleft" unicode="&#x201c;" horiz-adv-x="735" 
d="M649 930h-243v395l243 176v-571zM315 930h-241v395l241 176v-571z" />
    <glyph glyph-name="quotedblright" unicode="&#x201d;" horiz-adv-x="718" 
d="M649 1085l-243 -176v572h243v-396zM315 1085l-241 -176v572h241v-396z" />
    <glyph glyph-name="dagger" unicode="&#x2020;" horiz-adv-x="978" 
d="M938 754h-332v-1112h-231v1112h-334v194h334v471h231v-471h332v-194z" />
    <glyph glyph-name="bullet" unicode="&#x2022;" 
d="M510 1075q154 0 261.5 -107t107.5 -259t-107.5 -259.5t-261.5 -107.5t-262.5 107.5t-108.5 259.5t108.5 259t262.5 107z" />
    <glyph glyph-name="ellipsis" unicode="&#x2026;" horiz-adv-x="1939" 
d="M1731 0h-244v233h244v-233zM1100 0h-244v233h244v-233zM469 0h-244v233h244v-233z" />
    <glyph glyph-name="perthousand" unicode="&#x2030;" horiz-adv-x="1994" 
d="M1907 301q0 -83 -10.5 -131t-38.5 -86q-79 -104 -218 -104q-141 0 -219 112q-47 67 -47 209q0 84 16 142t70 108q75 67 180 67q109 0 181 -65q54 -51 70 -110t16 -142zM616 1118q0 -83 -10.5 -130t-38.5 -83q-78 -106 -215 -106q-145 0 -221 110q-26 36 -35.5 82.5
t-9.5 126.5q0 57 3.5 92t23 80t57.5 80q76 68 182 68q104 0 180 -68q54 -50 69 -107.5t15 -144.5zM1106 1419l-676 -1421h-194l677 1421h193zM1268 301q0 -84 -10.5 -131.5t-38.5 -83.5q-78 -106 -215 -106q-142 0 -220 112q-47 67 -47 209q0 85 15 142.5t69 107.5
q75 67 183 67t180 -65q54 -51 69 -109t15 -143zM1731 291v8q0 78 -13 104q-24 43 -78 43q-57 0 -77 -45q-13 -30 -13 -100v-31q0 -52 19 -82q21 -34 71 -34q39 0 62 20q29 29 29 117zM442 1110v6q0 82 -14 107q-21 41 -76 41q-57 0 -78 -43q-14 -25 -14 -103v-31
q0 -52 19 -79q21 -37 73 -37q41 0 60 22q14 13 21.5 36t8 37.5t0.5 43.5zM1094 291v8q0 80 -15 104q-21 43 -75 43q-58 0 -78 -45q-15 -25 -15 -100v-31q0 -52 19 -82q24 -34 74 -34q38 0 61 20q29 29 29 117z" />
    <glyph glyph-name="_203Ah" unicode="&#x203a;" horiz-adv-x="1024" 
d="M313 999l453 -442l-453 -444v260l191 184l-191 184v258z" />
    <glyph glyph-name="Euro" unicode="&#x20ac;" horiz-adv-x="1171" 
d="M1149 381l-256 37q-27 -80 -93 -130t-151 -50q-125 0 -198 92q-27 33 -39 62.5t-19 88.5h471v162h-477q-2 6 -2 113h479v159h-473q7 69 20 102.5t40 67.5q78 93 198 93q84 0 149 -48.5t95 -128.5l250 50q-51 170 -181 274.5t-313 104.5q-147 0 -279 -77.5t-192 -209.5
q-34 -73 -45 -228h-121v-159h119v-113h-119v-162h123q10 -135 43 -207q60 -132 192 -210t279 -78q186 0 320.5 109.5t179.5 285.5z" />
    <glyph glyph-name="trademark" unicode="&#x2122;" horiz-adv-x="1976" 
d="M1829 578h-178v610l-4 -2l-240 -608h-119l-237 610l-4 -2v-608h-179v841h260l220 -581l219 581h262v-841zM745 1251h-245v-673h-178v673h-246v168h669v-168z" />
    <glyph glyph-name="FL0020" unicode="&#xe000;" horiz-adv-x="2021" 
 />
    <glyph glyph-name="FL0021" unicode="&#xe001;" horiz-adv-x="2021" 
 />
    </font>
</defs>
</svg>
