<?xml version="1.0" standalone="no"?>
<!DOCTYPE svg PUBLIC "-//W3C//DTD SVG 1.1//EN" "http://www.w3.org/Graphics/SVG/1.1/DTD/svg11.dtd" >
<svg xmlns="http://www.w3.org/2000/svg" xmlns:xlink="http://www.w3.org/1999/xlink" version="1.1">
<metadata>
Created by FontForge 20170731 at Thu Apr 22 17:10:45 2021
 By Aleksey,,,
 2002 PARACHUTE TYPE &#38; IMAGE CORP. All rights reserved. Designed by Panos Vassiliou. Based on DIN 1451 by the Deutsches Institut Normung 6  {www.parachute.gr}
</metadata>
<defs>
<font id="PFDinTextThin-Italic" horiz-adv-x="972" >
  <font-face 
    font-family="PF Din Text Thin"
    font-weight="400"
    font-style="italic"
    font-stretch="normal"
    units-per-em="2048"
    panose-1="2 0 3 6 5 0 0 9 0 4"
    ascent="1536"
    descent="-512"
    x-height="1010"
    cap-height="1425"
    bbox="-109 -547 2116 1858"
    underline-thickness="81"
    underline-position="-347"
    slope="-11"
    unicode-range="U+0020-2122"
  />
<missing-glyph horiz-adv-x="2048" 
 />
    <glyph glyph-name=".notdef" horiz-adv-x="2048" 
 />
    <glyph glyph-name=".null" horiz-adv-x="0" 
 />
    <glyph glyph-name="nonmarkingreturn" horiz-adv-x="682" 
 />
    <glyph glyph-name="space" unicode=" " horiz-adv-x="430" 
 />
    <glyph glyph-name="exclam" unicode="!" horiz-adv-x="415" 
d="M319 385l226 1040h-82l-205 -1040h61zM250 0l20 96h-88l-20 -96h88z" />
    <glyph glyph-name="quotedbl" unicode="&#x22;" horiz-adv-x="528" 
d="M616 1071l74 354h-74l-73 -354h73zM412 1071l73 354h-73l-72 -354h72z" />
    <glyph glyph-name="numbersign" unicode="#" horiz-adv-x="966" 
d="M1124 977l-14 -74h-211l-127 -375h203l-17 -73h-210l-154 -455h-80l156 455h-279l-153 -455h-80l155 455h-190l14 73h203l129 375h-197l17 74h205l153 446h72l-150 -446h281l154 446h71l-149 -446h198zM825 903h-282l-127 -375h280z" />
    <glyph glyph-name="dollar" unicode="$" horiz-adv-x="937" 
d="M1069 1245l66 78q-142 102 -314 113l31 149h-66l-32 -149q-163 -7 -289 -116t-158 -269q-31 -160 49 -252.5t242 -118.5l-125 -606q-168 11 -307 123l-72 -70q149 -130 361 -139l-49 -240h65l49 240q127 5 232 59.5t168.5 139t85.5 186.5q11 51 11.5 95.5t-9 79t-25.5 63
t-41 50.5t-52.5 38.5t-63 29t-69.5 20.5t-75 15l121 582q135 -11 266 -101zM737 1348l-119 -574q-10 2 -30.5 6.5t-30.5 7.5q-202 62 -162 259q28 136 126 214.5t216 86.5zM920 373q-28 -135 -134.5 -213t-246.5 -86l123 598q39 -6 69.5 -13.5t63 -20t54 -28t42 -38
t27.5 -51t10.5 -66t-8.5 -82.5z" />
    <glyph glyph-name="percent" unicode="%" horiz-adv-x="1257" 
d="M774 1157q17 83 17 129q0 58 -39 103q-42 57 -138 57q-93 0 -163 -55q-53 -45 -75 -95.5t-40 -138.5q-19 -87 -19 -125q0 -42 15 -69q45 -97 162 -97q115 0 198 92q29 29 47 72t35 127zM340 -2l946 1427h-80l-946 -1427h80zM1225 268q16 78 16 129q0 58 -39 103
q-46 57 -139 57q-90 0 -162 -57q-38 -30 -62 -69.5t-33 -69.5t-24 -93q-28 -129 -2 -192q44 -99 162 -99t203 91q28 32 44.5 74t35.5 126zM711 1296q13 -41 -9 -141q-12 -65 -31.5 -108.5t-58.5 -73.5q-44 -33 -102 -33q-74 0 -104 55q-27 51 -3 162q23 103 58 148
q56 67 137 67q89 0 113 -76zM1159 408q13 -41 -6 -140q-15 -69 -33.5 -111.5t-58.5 -70.5q-47 -35 -103 -35q-70 0 -104 58q-11 20 -12.5 47.5t1 44.5t9.5 53q0 2 1 7t1 7q12 60 23.5 91t31.5 57q56 67 140 67q89 0 110 -75z" />
    <glyph glyph-name="ampersand" unicode="&#x26;" horiz-adv-x="1255" 
d="M1239 614h-86q-24 -62 -41.5 -101.5t-47 -92.5t-63.5 -94l-243 497q174 92 259 171.5t107 187.5t-39 183t-182 75q-127 0 -212.5 -76.5t-115.5 -208.5q-8 -33 -8 -70q0 -86 72 -233q-205 -103 -320.5 -213t-144.5 -252q-37 -179 55 -288t283 -109q114 0 219 43.5
t232 146.5l86 -180h112l-125 256q66 76 109 156t94 202zM1042 1182q-20 -95 -95.5 -158.5t-213.5 -130.5q-43 95 -59 153.5t-4 118.5q7 32 22.5 65t41.5 66.5t66.5 54.5t88.5 21q78 0 124.5 -53.5t28.5 -136.5zM674 784l254 -534q-47 -46 -101 -81.5t-108 -58t-109.5 -35
t-104.5 -10.5t-93.5 14.5t-77 39.5t-54.5 64.5t-26 90.5t8 117q11 54 39 102.5t64.5 87.5t88.5 76.5t103.5 66.5t116.5 60z" />
    <glyph glyph-name="quotesingle" unicode="'" horiz-adv-x="503" 
d="M522 1071l74 354h-74l-73 -354h73z" />
    <glyph glyph-name="parenleft" unicode="(" horiz-adv-x="458" 
d="M717 1415l8 88q-111 -32 -188.5 -122t-104.5 -214l-223 -1071q-25 -127 13.5 -211.5t144.5 -113.5l24 75q-140 65 -106 232l229 1108q18 88 74.5 149.5t128.5 79.5z" />
    <glyph glyph-name="parenright" unicode=")" horiz-adv-x="458" 
d="M322 96l223 1071q26 124 -15.5 214t-140.5 122l-29 -88q64 -18 95.5 -79.5t13.5 -149.5l-229 -1108q-33 -165 -203 -232l-6 -75q116 29 191 114.5t100 210.5z" />
    <glyph glyph-name="asterisk" unicode="*" horiz-adv-x="618" 
d="M621 1133l227 124l-19 46l-225 -117l51 244h-63l-51 -244l-176 117l-37 -46l174 -124l-228 -127l21 -45l225 118l-51 -243h63l50 243l176 -118l39 45z" />
    <glyph glyph-name="plus" unicode="+" horiz-adv-x="1153" 
d="M1153 526l-18 -80h-426l-93 -446h-79l92 446h-426l16 80h426l92 441h80l-92 -441h428z" />
    <glyph glyph-name="comma" unicode="," horiz-adv-x="376" 
d="M188 -201l60 295h-86l-74 -358z" />
    <glyph glyph-name="hyphen" unicode="-" horiz-adv-x="737" 
d="M723 449l16 83h-522l-16 -83h522z" />
    <glyph glyph-name="period" unicode="." horiz-adv-x="415" 
d="M250 0l20 96h-88l-18 -96h86z" />
    <glyph glyph-name="slash" unicode="/" horiz-adv-x="577" 
d="M115 0l731 1438h-82l-731 -1438h82z" />
    <glyph glyph-name="zero" unicode="0" horiz-adv-x="894" 
d="M889 367l143 690q35 176 -51 278.5t-238 102.5q-99 0 -190.5 -43.5t-161.5 -131.5t-94 -206l-143 -690q-35 -178 49 -278.5t239 -100.5q100 0 191.5 42.5t161.5 130.5t94 206zM944 1044l-137 -663q-29 -140 -124 -224.5t-222 -84.5q-129 0 -188.5 84t-30.5 225l137 663
q29 141 123 224.5t223 83.5t188.5 -83.5t30.5 -224.5z" />
    <glyph glyph-name="one" unicode="1" horiz-adv-x="894" 
d="M498 0l295 1425h-86l-226 -147l-20 -100l227 149l-274 -1327h84z" />
    <glyph glyph-name="two" unicode="2" horiz-adv-x="894" 
d="M1028 1235q-27 92 -108.5 147.5t-196.5 55.5q-129 0 -245.5 -87.5t-170.5 -224.5h88q47 104 136 165t192 61q71 0 129.5 -39t81.5 -101q31 -86 -1.5 -181t-103.5 -169l-745 -776l-18 -86h741l16 86h-639l721 741q82 82 116.5 196.5t6.5 211.5z" />
    <glyph glyph-name="three" unicode="3" horiz-adv-x="894" 
d="M993 1061q34 168 -49 272.5t-258 104.5q-115 0 -227.5 -78t-169.5 -197h92q52 91 132 140t165 49q123 0 190 -81t39 -214q-24 -125 -124 -203t-218 -78h-57l-16 -78h75q126 0 187.5 -82t31.5 -227q-28 -138 -135.5 -227.5t-228.5 -89.5q-101 0 -153 46t-74 132h-89
q17 -129 91.5 -195.5t193.5 -66.5q171 0 309 112.5t174 294.5q10 48 11.5 88.5t-8.5 88.5t-45 91t-93 76q126 76 180 152.5t74 169.5z" />
    <glyph glyph-name="four" unicode="4" horiz-adv-x="894" 
d="M918 229l18 84h-123l92 443h-86l-90 -443h-559l737 1112h-92l-727 -1097l-20 -99h643l-47 -229h84l47 229h123z" />
    <glyph glyph-name="five" unicode="5" horiz-adv-x="894" 
d="M1065 1339l16 86h-680l-147 -706h102q123 129 262 129q72 0 121 -23t72 -58t31 -87t4 -98.5t-15 -104.5q-32 -162 -81 -246q-43 -72 -121 -115.5t-164 -43.5q-200 0 -229 182h-93q6 -69 33.5 -121.5t70.5 -83.5t95.5 -46t112.5 -15q102 0 206 61t166 156q24 37 42 92.5
t42 163.5q42 208 23 282q-19 86 -87 136.5t-165 50.5h-64q-117 0 -262 -125l111 534h598z" />
    <glyph glyph-name="six" unicode="6" horiz-adv-x="894" 
d="M449 764l460 661h-94l-559 -800q-70 -104 -98 -232q-19 -101 -4.5 -177t57 -126.5t101 -76t126.5 -25.5q73 0 143 23.5t135 72t115 134.5t74 200q17 94 2 168.5t-61.5 124.5t-108 74.5t-137 19t-147.5 -42.5zM817 397q-32 -152 -139.5 -245t-218.5 -93q-132 0 -190 93.5
t-27 244.5q32 150 131.5 239t224.5 89q124 0 187 -89t32 -239z" />
    <glyph glyph-name="seven" unicode="7" horiz-adv-x="894" 
d="M1149 1425l-19 -86l-790 -1339h-92l788 1339h-567l-47 -225h-84l65 311h746z" />
    <glyph glyph-name="eight" unicode="8" horiz-adv-x="894" 
d="M1038 1055q34 161 -51 272t-242 111q-158 0 -288 -110.5t-164 -272.5q-9 -45 -10 -88.5t8.5 -89t38.5 -84t76 -62.5q-78 -34 -138 -93t-93 -121t-48 -130q-36 -174 56 -286.5t261 -112.5q174 0 310.5 111.5t173.5 287.5q11 66 6 133.5t-42 128t-97 82.5q94 42 158 131
t85 193zM954 1059q-19 -93 -76.5 -161t-128 -99t-143.5 -31q-54 0 -100.5 19t-80.5 55.5t-47 91t1 125.5q32 137 132.5 215t215.5 78q55 0 101.5 -18.5t80.5 -55.5t46.5 -92t-1.5 -127zM844 389q-19 -90 -79.5 -163.5t-140.5 -113.5t-161 -40q-128 0 -203.5 90.5
t-46.5 226.5q27 135 140 225.5t241 90.5q126 0 201.5 -90.5t48.5 -225.5z" />
    <glyph glyph-name="nine" unicode="9" horiz-adv-x="894" 
d="M1049 1030q-23 -120 -99 -231l-559 -799h-94l461 659l-4 3q-71 -34 -146 -39t-137 19t-109.5 73t-63.5 122.5t1 168.5q24 114 74 200t116 135t137.5 73t147.5 24q67 0 124.5 -25.5t99.5 -76.5t56 -127.5t-5 -178.5zM963 1026q31 152 -27 245t-191 93q-112 0 -218 -92.5
t-138 -245.5q-33 -150 30.5 -239t188.5 -89q124 0 225.5 89.5t129.5 238.5z" />
    <glyph glyph-name="colon" unicode=":" horiz-adv-x="376" 
d="M330 492l20 96h-88l-18 -96h86zM227 0l21 96h-86l-21 -96h86z" />
    <glyph glyph-name="semicolon" unicode=";" horiz-adv-x="376" 
d="M330 492l20 96h-88l-18 -96h86zM188 -201l60 295h-86l-74 -358z" />
    <glyph glyph-name="less" unicode="&#x3c;" horiz-adv-x="1161" 
d="M1235 918l16 83l-1073 -477l-14 -65l876 -479l19 90l-789 419z" />
    <glyph glyph-name="equal" unicode="=" horiz-adv-x="1122" 
d="M1169 641l17 82h-932l-18 -82h933zM1087 250l19 84h-934l-16 -84h931z" />
    <glyph glyph-name="greater" unicode="&#x3e;" horiz-adv-x="1161" 
d="M1174 459l12 65l-877 477l-16 -83l786 -429l-962 -419l-19 -90z" />
    <glyph glyph-name="question" unicode="?" horiz-adv-x="858" 
d="M973 1085q33 164 -60 263q-81 90 -215 90q-86 0 -171 -42.5t-148.5 -117.5t-87.5 -164h90q36 103 114 170.5t195 67.5q96 0 159 -74t40 -191q-19 -80 -78 -153q-14 -17 -30.5 -36t-37 -41.5t-30.5 -33.5l-178 -192q-30 -33 -44 -62t-26 -75q-3 -11 -7 -32t-7 -32l-9 -43
h84l2 8q2 10 5 27.5t5 28t6 25t9 26.5q26 73 72 119l186 202q43 46 63 72q44 50 66 90.5t33 99.5zM449 0l18 96h-86l-21 -96h89z" />
    <glyph glyph-name="at" unicode="@" horiz-adv-x="1595" 
d="M1686 1063l-113 -543q-19 -92 -84 -147.5t-158 -55.5h-237l16 80q-32 -43 -112 -66.5t-169 -23.5q-118 0 -176 45q-76 61 -55 178q19 93 95 162.5t190 69.5h303l26 129q16 81 -40.5 122.5t-159.5 41.5q-51 0 -114.5 -28t-111.5 -66l-32 53q56 50 126.5 79t137.5 29
q44 0 80.5 -4.5t71 -15.5t57.5 -29.5t40 -46.5t18 -66.5t-7 -89.5l-100 -481h170q52 0 92 35t51 84l117 563q28 140 -48 225.5t-223 85.5h-469q-148 0 -258 -85t-139 -226l-141 -682q-29 -142 43.5 -231.5t222.5 -89.5h606l-14 -68h-602q-191 0 -280 106.5t-52 286.5
l139 670q37 178 171.5 285.5t324.5 107.5h463q190 0 280.5 -107.5t53.5 -285.5zM1171 698h-268q-92 0 -155 -40t-80 -119q-17 -75 32.5 -120.5t149.5 -45.5q43 0 85.5 7.5t86 24t74.5 49t41 76.5z" />
    <glyph glyph-name="A" unicode="A" horiz-adv-x="1173" 
d="M1145 0h-101l-47 348h-675l-193 -348h-100l805 1425h98zM985 430l-131 873h-2l-485 -873h618z" />
    <glyph glyph-name="B" unicode="B" horiz-adv-x="1173" 
d="M1296 1075q-36 -240 -284 -342v-4q62 -15 102.5 -53.5t54.5 -87.5t16.5 -105.5t-11.5 -107.5q-37 -171 -159 -273t-288 -102h-567l295 1425h503q187 0 275 -96.5t63 -253.5zM1196 1059q25 126 -41.5 203t-216.5 77h-403l-119 -567h405q149 0 248.5 80t126.5 207z
M1079 389q26 128 -38 214.5t-216 86.5h-426l-125 -602h426q152 0 252 87t127 214z" />
    <glyph glyph-name="C" unicode="C" horiz-adv-x="1056" 
d="M1167 1116h101q-21 143 -121.5 232.5t-261.5 89.5q-156 0 -284 -72.5t-208 -198.5q-33 -50 -53 -109t-43 -157q-29 -121 -43 -190q-7 -40 -19.5 -102.5t-17.5 -88.5q-16 -91 -16 -149q0 -63 12 -115q25 -115 131 -192.5t240 -77.5q161 0 299 89t217 232h-107
q-67 -100 -170 -163.5t-219 -63.5q-98 0 -164.5 38.5t-101.5 102.5q-41 74 -41 162q0 78 51 328q18 88 43 196q30 116 62 176.5t90 118.5q141 141 323 141q120 0 198 -60.5t103 -166.5z" />
    <glyph glyph-name="D" unicode="D" horiz-adv-x="1216" 
d="M1309 1155q-29 122 -135.5 196t-249.5 74h-469l-295 -1425h491q137 0 269 74t210 196q26 40 48 101.5t32.5 105t29 131t24.5 115.5q11 51 32 168q34 170 13 264zM1171 1194q41 -74 41 -160q0 -82 -49 -323q-25 -118 -43.5 -189.5t-58 -158.5t-90.5 -138
q-60 -62 -143 -100.5t-177 -38.5h-377l261 1253h370q94 0 162.5 -41t103.5 -104z" />
    <glyph glyph-name="E" unicode="E" horiz-adv-x="1056" 
d="M1282 1339l16 86h-843l-295 -1425h844l18 86h-748l123 592h637l19 88h-637l119 573h747z" />
    <glyph glyph-name="F" unicode="F" horiz-adv-x="1017" 
d="M1298 1425l-16 -86h-747l-121 -577h639l-19 -82h-637l-141 -680h-96l295 1425h843z" />
    <glyph glyph-name="G" unicode="G" horiz-adv-x="1173" 
d="M1167 1116h101q-21 143 -121.5 232.5t-261.5 89.5q-156 0 -284 -72.5t-208 -198.5q-33 -50 -53 -109t-43 -157q-29 -121 -43 -190q-7 -40 -19.5 -102.5t-17.5 -88.5q-16 -91 -16 -149q0 -63 12 -115q25 -116 129.5 -193t239.5 -77q248 0 419 186q131 138 164 301l52 248
h-408l-18 -82h315l-33 -154q-33 -163 -169.5 -284t-299.5 -121q-98 0 -164.5 38.5t-101.5 102.5q-41 74 -41 162q0 78 51 328q18 88 43 196q30 116 62 176.5t90 118.5q141 141 323 141q120 0 198 -60.5t103 -166.5z" />
    <glyph glyph-name="H" unicode="H" horiz-adv-x="1255" 
d="M1393 1425l-295 -1425h-99l142 680h-744l-141 -680h-96l295 1425h96l-137 -661h743l137 661h99z" />
    <glyph glyph-name="I" unicode="I" horiz-adv-x="415" 
d="M551 1425l-295 -1425h-96l295 1425h96z" />
    <glyph glyph-name="J" unicode="J" horiz-adv-x="897" 
d="M840 416l209 1009h-97l-204 -985q-16 -75 -50 -137t-76 -101.5t-92 -66t-97 -38t-91 -11.5q-115 0 -188 80l-88 -70q91 -108 262 -108q111 0 216.5 49.5t187.5 149t108 229.5z" />
    <glyph glyph-name="K" unicode="K" horiz-adv-x="1216" 
d="M846 883l543 542h-103l-919 -905l184 905h-96l-295 -1425h96l82 389l426 410l287 -799h114z" />
    <glyph glyph-name="L" unicode="L" horiz-adv-x="1056" 
d="M1004 0l18 86h-748l277 1339h-96l-295 -1425h844z" />
    <glyph glyph-name="M" unicode="M" horiz-adv-x="1492" 
d="M1368 0l295 1425h-111l-721 -1099l-262 1099h-114l-295 -1425h96l256 1237l244 -1014h106l664 1014l-256 -1237h98z" />
    <glyph glyph-name="N" unicode="N" horiz-adv-x="1333" 
d="M1182 0l295 1425h-99l-266 -1286l-543 1286h-114l-295 -1425h96l264 1276l545 -1276h117z" />
    <glyph glyph-name="O" unicode="O" horiz-adv-x="1136" 
d="M1243 1167q-29 122 -135 196.5t-244 74.5q-162 0 -286 -71.5t-205 -199.5q-31 -48 -51.5 -105t-45.5 -151q0 -2 -1 -5t-1 -5q-42 -156 -79 -381q-29 -166 -7 -264q25 -112 133.5 -191t241.5 -79q145 0 279.5 73.5t212.5 196.5q33 50 53 108.5t43 155.5q21 83 41 191
q25 121 39 190q30 173 12 266zM1118 1202q28 -51 33.5 -106t-6 -133t-47.5 -252q-49 -236 -84.5 -327t-106.5 -165q-139 -139 -325 -139q-95 0 -164 39t-103 102q-30 53 -36.5 105t4 133t45.5 252q50 238 85.5 328t108.5 163q60 62 144 101.5t178 39.5q95 0 167.5 -40
t106.5 -101z" />
    <glyph glyph-name="P" unicode="P" horiz-adv-x="1110" 
d="M1300 1012q-38 -162 -172 -281q-138 -121 -323 -121h-422l-127 -610h-96l295 1425h487q281 0 348 -198q34 -88 10 -215zM1204 1018q31 158 -44 239.5t-222 81.5h-403l-134 -643h412q126 0 229 74q64 46 106 112t56 136z" />
    <glyph glyph-name="Q" unicode="Q" horiz-adv-x="1173" 
d="M1264 1167q20 -89 -11 -266q-14 -69 -39 -190q-6 -27 -14 -67.5t-14 -70t-12 -53.5q-1 -4 -3.5 -12t-3.5 -12q-17 -64 -26.5 -95t-26.5 -72.5t-37 -72.5q-11 -17 -37 -51l160 -156l-70 -63l-155 151q-79 -72 -182 -111.5t-209 -39.5q-132 0 -240 79.5t-133 190.5
q-22 101 6 264q8 42 39 191q21 112 39 190q46 184 100 266q81 128 205 199.5t285 71.5q138 0 244 -74.5t135 -196.5zM1139 1202q-35 61 -106.5 101t-166.5 40q-182 0 -323 -141q-74 -74 -110 -164t-85 -327q-35 -170 -45.5 -251.5t-3.5 -133.5t37 -105q34 -64 102 -102.5
t166 -38.5q173 0 303 123l-174 168l70 67l168 -166q49 61 78 147.5t71 291.5q29 142 40 201t16 123t-4.5 96.5t-32.5 70.5z" />
    <glyph glyph-name="R" unicode="R" horiz-adv-x="1173" 
d="M1307 1057q-34 -157 -140 -254t-266 -133l201 -670h-111l-190 668h-406l-139 -668h-96l295 1425h540q80 0 145.5 -25t109 -72.5t59.5 -115.5t-2 -155zM1219 1057q14 75 2 129t-50.5 88.5t-93 50.5t-125.5 16h-417l-123 -591h415q146 0 255 80t137 227z" />
    <glyph glyph-name="S" unicode="S" horiz-adv-x="1095" 
d="M1214 1325l-65 -76q-164 101 -340 101q-64 0 -126 -18.5t-116.5 -54.5t-94.5 -95t-56 -133q-6 -35 -6 -62q0 -55 24 -95t60.5 -62t90 -38t100.5 -22.5t105.5 -16t92.5 -18.5q89 -24 144 -81.5t67 -129t-2 -153.5q-37 -176 -186 -279.5t-365 -103.5q-281 0 -455 151l76 70
q173 -133 399 -133q161 0 286.5 79t153.5 216q8 39 8 72t-6.5 58.5t-20 47.5t-30.5 37.5t-40.5 28.5t-47 21.5t-53.5 15t-56 10.5t-59 8q-41 5 -75 11t-70.5 16t-65.5 21.5t-56.5 28.5t-47.5 37.5t-35.5 48t-22.5 60t-6 73t11 87.5q38 174 170.5 279.5t339.5 105.5
q203 0 376 -113z" />
    <glyph glyph-name="T" unicode="T" horiz-adv-x="937" 
d="M1233 1425l-19 -88h-419l-277 -1337h-98l276 1337h-420l19 88h938z" />
    <glyph glyph-name="U" unicode="U" horiz-adv-x="1216" 
d="M1182 461l198 964h-96l-194 -940q-39 -185 -168.5 -292t-294.5 -107q-167 0 -249.5 117t-43.5 305l190 917h-98l-195 -944q-23 -113 -2 -204t73.5 -155.5t131.5 -99t172 -34.5q221 0 376 129t200 344z" />
    <glyph glyph-name="V" unicode="V" horiz-adv-x="1056" 
d="M1327 1425l-756 -1425h-84l-165 1425h100l137 -1280h4l662 1280h102z" />
    <glyph glyph-name="W" unicode="W" horiz-adv-x="1652" 
d="M1264 0l645 1425h-99l-548 -1253h-2l-84 1253h-107l-596 -1253h-4l-31 1253h-102l55 -1425h90l609 1278h2l84 -1278h88z" />
    <glyph glyph-name="X" unicode="X" horiz-adv-x="1013" 
d="M1253 1425l-544 -694l278 -731h-104l-242 643l-508 -643h-104l579 731l-256 694h105l221 -604l469 604h106z" />
    <glyph glyph-name="Y" unicode="Y" horiz-adv-x="937" 
d="M1225 1425l-586 -835l-123 -590h-96l123 590l-242 835h100l209 -741l516 741h99z" />
    <glyph glyph-name="Z" unicode="Z" horiz-adv-x="978" 
d="M1190 1339l16 86h-817l-16 -86h719l-1008 -1253l-18 -86h845l19 86h-748z" />
    <glyph glyph-name="bracketleft" unicode="[" horiz-adv-x="458" 
d="M709 1343l18 82h-278l-343 -1652h277l18 80h-186l309 1490h185z" />
    <glyph glyph-name="backslash" unicode="\" horiz-adv-x="577" 
d="M465 0h80l-135 1438h-82z" />
    <glyph glyph-name="bracketright" unicode="]" horiz-adv-x="458" 
d="M309 -227l342 1652h-278l-17 -82h185l-310 -1490h-184l-16 -80h278z" />
    <glyph glyph-name="asciicircum" unicode="^" horiz-adv-x="1153" 
d="M1087 782h68l-242 643h-82l-505 -643h67l467 592z" />
    <glyph glyph-name="underscore" unicode="_" horiz-adv-x="1024" 
d="M-31 -145l-16 -80h1030l16 80h-1030z" />
    <glyph glyph-name="grave" unicode="`" 
d="M809 1157h74l-105 283h-121z" />
    <glyph glyph-name="a" unicode="a" horiz-adv-x="1013" 
d="M891 0l209 1010h-88l-29 -144q-26 51 -59 84.5t-72 48.5t-71 20t-74 5q-103 0 -188 -43t-144 -119.5t-98 -172.5t-60 -210q-22 -105 -14.5 -195t37 -156t94 -104t158.5 -38q89 0 169 28.5t170 118.5l-28 -133h88zM907 504q-13 -64 -31 -119.5t-49.5 -114.5t-71.5 -100.5
t-100 -68.5t-131 -27q-73 0 -122.5 26t-73 66.5t-30 99.5t-1 115t19.5 123q15 67 32 120.5t48 114.5t70 102t100 68t135 27q292 0 205 -432z" />
    <glyph glyph-name="b" unicode="b" horiz-adv-x="917" 
d="M965 530q21 105 13 195t-38.5 156.5t-94.5 104.5t-155 38q-38 0 -59 -1t-60 -8.5t-69 -21.5t-70.5 -42.5t-79.5 -69.5l111 544h-86l-295 -1425h88l29 139q16 -35 37.5 -62t47 -43t49.5 -26.5t54.5 -14.5t51.5 -5.5t50 -1.5q83 0 153.5 29t122 78t92 119.5t66 148.5
t42.5 169zM864 506q-12 -64 -29.5 -120t-49 -115.5t-72 -101t-101 -68.5t-133.5 -27q-292 0 -205 432q12 64 30 120t49.5 115t72 100.5t100 68t131.5 26.5q62 0 106.5 -17t69.5 -49t38.5 -71t14.5 -90t-4.5 -98.5t-17.5 -104.5z" />
    <glyph glyph-name="c" unicode="c" horiz-adv-x="829" 
d="M913 850l68 65q-108 111 -266 111q-77 0 -146 -17t-134 -56t-117 -98t-92.5 -148t-63.5 -201q-25 -135 -10 -233t67 -162t123 -94.5t158 -30.5q164 0 313 110l-41 66q-121 -86 -246 -86q-175 0 -246.5 109t-29.5 321q44 212 162 322t293 110q126 0 208 -88z" />
    <glyph glyph-name="d" unicode="d" horiz-adv-x="917" 
d="M823 0l297 1425h-86l-116 -546q-26 46 -61.5 77t-76.5 45t-74 18.5t-73 4.5q-93 0 -171 -37.5t-135.5 -105.5t-98.5 -155.5t-66 -195.5q-26 -109 -26 -203.5t26.5 -172.5t93 -123t168.5 -45q91 0 171.5 30.5t170.5 126.5l-31 -143h88zM842 506q-12 -61 -30 -116
t-49.5 -115t-72 -102.5t-100.5 -70.5t-131 -28q-75 0 -124.5 27t-72 68t-28.5 102t-0.5 114.5t18.5 120.5q12 62 29.5 116.5t49 114.5t71.5 102t101 69.5t134 27.5q60 0 104 -18t68 -51t37.5 -72.5t14 -91t-4 -97.5t-14.5 -100z" />
    <glyph glyph-name="e" unicode="e" 
d="M987 496l6 39q79 491 -295 491q-58 0 -114.5 -14.5t-117 -52t-111 -95t-94 -150.5t-68.5 -212q-19 -89 -21 -162.5t10 -126t37.5 -93t57 -65.5t73 -41t82 -22t86.5 -6q170 0 311 98l-38 66q-128 -84 -261 -84q-141 0 -206.5 71.5t-65.5 194.5q0 78 18 164h711zM915 575
h-620q47 177 149.5 274t237.5 97q138 0 202.5 -96t30.5 -275z" />
    <glyph glyph-name="f" unicode="f" horiz-adv-x="475" 
d="M768 1348l16 77h-98q-95 0 -169.5 -63.5t-98.5 -177.5l-35 -172h-113l-16 -78h113l-271 -1274h88l271 1274h229l14 78h-227l29 147q33 189 188 189h80z" />
    <glyph glyph-name="g" unicode="g" horiz-adv-x="1013" 
d="M874 20l205 996h-88l-30 -150q-26 51 -59 84.5t-72 48.5t-72 20t-76 5q-103 0 -187 -43t-142.5 -119.5t-96.5 -172t-59 -210.5q-22 -105 -15 -195t36 -156t93.5 -104t157.5 -38q89 0 170 29t170 118l-33 -137q-36 -152 -144 -238t-251 -86q-118 0 -201 80l-74 -63
q50 -49 123 -77t146 -28q197 0 326.5 107.5t172.5 328.5zM887 504q-13 -64 -31 -119.5t-49.5 -114.5t-71.5 -100.5t-100 -68.5t-131 -27q-73 0 -122.5 26t-73 66.5t-30 99.5t-1 115t19.5 123q15 67 32 120.5t48 114.5t70 102t100 68t135 27q292 0 205 -432z" />
    <glyph glyph-name="h" unicode="h" horiz-adv-x="1054" 
d="M1040 633l-131 -633h-88l129 616q30 146 -34 233t-193 87q-130 0 -231.5 -87.5t-131.5 -232.5l-127 -616h-88l295 1425h88l-112 -544h4q67 75 159 109t179 34q63 0 121 -28t100.5 -77.5t60.5 -124.5t0 -161z" />
    <glyph glyph-name="i" unicode="i" horiz-adv-x="391" 
d="M532 1421l-18 -88h-88l18 88h88zM442 1014l-155 -787q-15 -75 14 -112t109 -37h8l-17 -78h-30q-218 0 -170 238l153 776h88z" />
    <glyph glyph-name="j" unicode="j" horiz-adv-x="432" 
d="M539 1337l18 88h-88l-18 -88h88zM225 -150l246 1162h-88l-244 -1159q-20 -96 -82 -145.5t-151 -49.5l-15 -74h19q125 0 208 74.5t107 191.5z" />
    <glyph glyph-name="k" unicode="k" horiz-adv-x="980" 
d="M680 647l389 365h-108l-646 -602l217 1011h-86l-301 -1421h86l60 285l317 301l248 -586h98z" />
    <glyph glyph-name="l" unicode="l" horiz-adv-x="432" 
d="M279 227l247 1194h-88l-243 -1183q-25 -116 20 -177t150 -61h30l17 78h-9q-159 0 -124 149z" />
    <glyph glyph-name="m" unicode="m" horiz-adv-x="1759" 
d="M1731 655l-138 -655h-88l127 616q30 146 -33 233t-194 87q-129 0 -228.5 -87.5t-129.5 -232.5l-129 -616h-89l129 616q30 146 -34 233t-193 87q-130 0 -231 -87.5t-131 -232.5l-129 -616h-86l208 1010h87l-27 -129h6q68 75 159 109t179 34q96 0 174.5 -50t108.5 -138l2 4
q69 77 142 120.5t127.5 54.5t123.5 11q63 0 121 -25.5t102 -71t63 -117.5t1 -157z" />
    <glyph glyph-name="n" unicode="n" horiz-adv-x="1017" 
d="M891 0l133 655q17 82 -1.5 153.5t-61.5 117.5t-101 72t-121 26q-87 0 -179 -34t-159 -109h-4l27 129h-88l-209 -1010h88l127 616q30 145 131.5 232.5t231.5 87.5q129 0 193 -87t34 -233l-127 -616h86z" />
    <glyph glyph-name="o" unicode="o" 
d="M987 508q32 136 25 242t-64 174q-86 102 -250 102t-290 -102q-95 -76 -138.5 -168.5t-74.5 -247.5q-29 -161 -29 -225q0 -75 24 -125q79 -172 293 -172q207 0 357 164q49 49 82.5 128t64.5 230zM915 782q11 -32 11.5 -73t-5.5 -82.5t-22 -120.5q-13 -65 -18 -86
q-45 -188 -166 -279q-98 -67 -213 -67q-156 0 -217 114q-40 66 -29 166q6 51 27 154q24 115 47.5 177t64.5 114q119 143 287 143q86 0 146.5 -41t86.5 -119z" />
    <glyph glyph-name="p" unicode="p" horiz-adv-x="1013" 
d="M1004 479q24 111 24 209q0 153 -76 244.5t-227 91.5q-44 0 -75 -4t-74.5 -17.5t-87.5 -47t-89 -85.5l29 144h-88l-293 -1424h88l111 541q28 -51 61.5 -82.5t74.5 -44t68.5 -15.5t73.5 -3q97 0 177.5 37t138.5 105.5t98 155.5t66 195zM913 504q-93 -430 -385 -430
q-291 0 -204 430q12 62 29.5 116.5t49 114.5t71.5 102.5t100.5 70.5t132.5 28q301 0 206 -432z" />
    <glyph glyph-name="q" unicode="q" horiz-adv-x="974" 
d="M770 -410l287 1381h-84l-29 -137q-23 49 -55.5 81.5t-72 46.5t-71 18.5t-73.5 4.5q-99 0 -179.5 -41t-135 -115t-90.5 -165t-58 -203q-20 -100 -11.5 -186.5t38.5 -150.5t91 -101t146 -37t162.5 27.5t163.5 113.5l-113 -537h84zM872 483q-12 -61 -29 -114t-47.5 -109.5
t-69 -96.5t-96 -65.5t-126.5 -25.5q-60 0 -103.5 16t-67 47t-36.5 68t-13 86.5t5 94t16 99.5q82 416 371 416q58 0 100.5 -18t65.5 -50.5t36 -72t13.5 -89t-4.5 -93.5t-15 -93z" />
    <glyph glyph-name="r" unicode="r" horiz-adv-x="673" 
d="M913 993l-71 -88q-50 33 -123 33q-118 0 -221.5 -84.5t-135.5 -230.5l-129 -623h-88l209 1012h88l-26 -127h2q164 156 395 137q56 -8 100 -29z" />
    <glyph glyph-name="s" unicode="s" horiz-adv-x="927" 
d="M973 934l-64 -72q-119 82 -268 82q-124 0 -202.5 -53.5t-98.5 -151.5q-17 -74 28.5 -120t147.5 -50q186 -11 264 -34q36 -12 61.5 -29.5t46 -49t23 -75.5t-7.5 -109q-25 -126 -153 -206t-306 -80q-205 0 -354 131l68 67q119 -116 321 -116q53 0 104 11.5t99.5 35t83.5 67
t47 101.5q19 85 -25.5 126.5t-134.5 55.5q-38 7 -117.5 11.5t-121.5 12.5q-100 21 -144.5 85.5t-21.5 166.5q29 135 137 210t274 75q189 0 314 -92z" />
    <glyph glyph-name="t" unicode="t" horiz-adv-x="475" 
d="M604 936l17 78h-166l63 309h-88l-63 -309h-113l-16 -78h112l-143 -715q-23 -107 19 -164t136 -57h50l14 74h-14q-31 0 -54 6.5t-37 14.5t-22 24.5t-10.5 28.5t-1 34.5t3.5 33.5t7 35q1 3 1 5l139 680h166z" />
    <glyph glyph-name="u" unicode="u" horiz-adv-x="1054" 
d="M905 0l209 1010h-88l-127 -617q-27 -144 -129.5 -231.5t-232.5 -87.5q-131 0 -194.5 86.5t-33.5 232.5l127 617h-88l-135 -660q-16 -77 3 -146.5t62 -116t101.5 -74t120.5 -27.5q90 0 181 34t159 109h4l-27 -129h88z" />
    <glyph glyph-name="v" unicode="v" horiz-adv-x="868" 
d="M1042 1012l-573 -1012h-90l-154 1012h94l132 -877h10l487 877h94z" />
    <glyph glyph-name="w" unicode="w" horiz-adv-x="1468" 
d="M1108 0l524 1012h-86l-448 -883h-8l-107 883h-96l-463 -883h-10l-84 883h-90l104 -1012h88l479 901l107 -901h90z" />
    <glyph glyph-name="x" unicode="x" horiz-adv-x="878" 
d="M596 520l416 494h-105l-350 -422l-174 422h-102l211 -494l-439 -520h103l372 451l189 -451h102z" />
    <glyph glyph-name="y" unicode="y" horiz-adv-x="835" 
d="M344 -260l696 1272h-96l-489 -906h-4l-140 906h-94l162 -1032l-98 -197q-72 -144 -228 -148l-16 -79q99 0 175 41t132 143z" />
    <glyph glyph-name="z" unicode="z" horiz-adv-x="847" 
d="M969 932l16 80h-672l-18 -80h582l-789 -852l-16 -80h704l17 80h-609z" />
    <glyph glyph-name="braceleft" unicode="{" horiz-adv-x="458" 
d="M752 1358l12 67h-115q-76 0 -134 -62t-77 -157l-55 -270q-24 -109 -81 -195t-144 -116l-8 -47q78 -30 99.5 -104t-5.5 -204l-58 -280q-19 -95 13 -157t108 -62h115l14 67h-100q-30 0 -48 19.5t-21.5 52t-1.5 63.5t9 64l60 285q23 108 -4.5 183.5t-77.5 96.5l2 4
q56 19 116 101.5t83 195.5l53 256q10 47 25 87t47 76t73 36h101z" />
    <glyph glyph-name="bar" unicode="|" horiz-adv-x="337" 
d="M221 -547l-2 2054h-78v-2054h80z" />
    <glyph glyph-name="braceright" unicode="}" horiz-adv-x="458" 
d="M571 578l9 47q-49 21 -76.5 71.5t-29.5 111.5t11 128l58 270q21 95 -12 157t-111 62h-115l-14 -67h100q31 0 49 -19.5t22 -52t2 -63.5t-9 -64l-54 -256q-23 -115 2 -196.5t74 -100.5v-4q-57 -19 -115 -95.5t-81 -184.5l-60 -285q-7 -33 -17.5 -64t-27.5 -63.5t-42.5 -52
t-55.5 -19.5h-101l-14 -67h115q76 0 133 62t78 157l59 280q30 134 80.5 206t142.5 102z" />
    <glyph glyph-name="asciitilde" unicode="~" horiz-adv-x="1153" 
d="M1106 506l-39 45q-11 -8 -28.5 -21.5t-25 -19t-18.5 -13t-19.5 -11.5t-17.5 -7q-27 -11 -54.5 -13t-63.5 7.5t-52.5 15t-62.5 23.5q-15 6 -56.5 21.5t-64.5 23.5q-64 23 -119 23q-119 0 -235 -111l39 -45q60 43 100 60.5t78 17.5q57 0 160 -41q37 -14 61.5 -23t63 -20
t68.5 -15.5t65 -4.5t65 8q79 23 156 100z" />
    <glyph glyph-name="nbspace" unicode="&#xa0;" horiz-adv-x="376" 
 />
    <glyph glyph-name="sterling" unicode="&#xa3;" horiz-adv-x="954" 
d="M1124 1264l88 28q-37 71 -94 106.5t-151 35.5q-169 0 -297 -109q-134 -115 -164 -264l-68 -328h-196l-15 -71h195l-119 -578h-207l-16 -84h811l18 84h-522l119 578h328l14 71h-330l66 309q27 127 126.5 219.5t223.5 92.5q121 0 190 -90z" />
    <glyph glyph-name="_00A4h" unicode="&#xa4;" horiz-adv-x="1138" 
d="M281 721q0 130 89 219.5t218 89.5t219 -89t90 -220q0 -129 -90 -218t-219 -89t-218 90t-89 217zM154 1102l118 -121q-88 -144 -88 -256q0 -127 84 -254l-114 -115l69 -63l113 115q131 -93 258 -93q122 0 256 93l119 -117l65 69q-10 9 -52 50.5t-64 60.5q86 130 86 254
q0 112 -91 256l117 117l-65 63l-115 -114q-131 88 -256 88q-119 0 -258 -91l-117 119z" />
    <glyph glyph-name="yen" unicode="&#xa5;" horiz-adv-x="937" 
d="M1225 1425l-529 -753h312l-15 -70h-346l-8 -12l-39 -191h350l-14 -67h-350l-70 -332h-96l69 332h-348l15 67h348l39 191l-4 12h-342l14 70h309l-217 753h96l209 -749l520 749h97z" />
    <glyph glyph-name="brokenbar" unicode="&#xa6;" horiz-adv-x="346" 
d="M135 389v-893h82v893h-82zM135 1505v-893h82v893h-82z" />
    <glyph glyph-name="section" unicode="&#xa7;" horiz-adv-x="894" 
d="M920 1268h77v24q0 117 -63.5 174.5t-169.5 57.5q-122 0 -221 -82t-125 -209q-8 -51 -1 -96t47.5 -84t110.5 -60q-130 -55 -196.5 -146.5t-95.5 -238.5q-29 -157 -0.5 -232.5t116.5 -109.5l74 -28q129 -50 173 -104.5t24 -147.5q-24 -105 -99 -166.5t-170 -61.5
q-91 0 -137 49.5t-51 137.5h-80v-23q0 -119 69 -180t175 -61q139 0 244 85t135 234q12 55 -2 109.5t-58.5 98t-111.5 56.5q253 29 323 371q16 78 17.5 132t-8 92t-39.5 66t-67.5 47t-102.5 42q-142 50 -183.5 98.5t-23.5 136.5q13 75 82 135t166 60q85 0 127.5 -47.5
t44.5 -128.5zM825 627q-15 -69 -37 -121t-57.5 -95.5t-90 -66t-126.5 -22.5q-47 0 -81 18.5t-52 48.5t-25 70.5t-5 82t11 85.5q11 48 28 92t48.5 94t83 80.5t117.5 30.5q60 0 109.5 -22t72.5 -60q17 -29 21.5 -61.5t0 -65t-17.5 -88.5z" />
    <glyph glyph-name="dieresis" unicode="&#xa8;" 
d="M977 1286l20 103h-96l-22 -103h98zM588 1286l20 103h-96l-23 -103h99z" />
    <glyph glyph-name="copyright" unicode="&#xa9;" horiz-adv-x="1583" 
d="M1475 1169q12 -29 20.5 -69.5t13 -71t7 -87.5t3 -77.5t0 -84.5t-0.5 -68q0 -27 1 -68.5t1 -70.5t-2 -52q-4 -73 -6.5 -108t-11.5 -79.5t-25 -78.5q-52 -120 -176 -194t-263 -74h-219q-141 0 -263.5 74t-174.5 194q-23 53 -34.5 141.5t-11 166t0.5 149.5v18
q0 72 -0.5 146.5t10 158t33.5 135.5q52 120 176.5 194.5t263.5 74.5h219q139 0 263 -74.5t176 -194.5zM1341 1212q-120 146 -305 146h-219q-99 0 -177.5 -40.5t-127.5 -105.5q-59 -73 -77.5 -158t-18.5 -294v-49q0 -251 18 -334q18 -91 78 -166q51 -65 129 -105t176 -40h219
q189 0 303 145q62 77 80.5 168.5t18.5 331.5q-2 244 -19 333.5t-78 167.5zM1239 926h-102q-70 137 -195 137q-109 0 -162 -80q-34 -41 -42.5 -91.5t-8.5 -197.5q0 -143 10 -194q10 -50 41 -92q61 -80 162 -80q124 0 195 139h100q-102 -231 -295 -231q-88 0 -163.5 47.5
t-110.5 128.5q-29 68 -29 260v24q-5 207 27 285q33 80 110.5 128t165.5 48q189 0 297 -231z" />
    <glyph glyph-name="guillemotleft" unicode="&#xab;" horiz-adv-x="851" 
d="M891 752l22 106l-387 -319l254 -318l23 107l-172 211zM590 752l22 106l-385 -319l254 -318l21 107l-170 211z" />
    <glyph glyph-name="logicalnot" unicode="&#xac;" horiz-adv-x="1024" 
d="M1024 885h-1024v-76h948v-393h76v469z" />
    <glyph glyph-name="sfthyphen" unicode="&#xad;" horiz-adv-x="737" 
d="M723 449l16 83h-522l-16 -83h522z" />
    <glyph glyph-name="registered" unicode="&#xae;" horiz-adv-x="1583" 
d="M1475 1169q-52 120 -176 194.5t-263 74.5h-219q-139 0 -263.5 -74.5t-176.5 -194.5q-45 -105 -45 -389v-96q0 -93 1.5 -150.5t12.5 -144t33 -135.5q52 -120 174.5 -194t263.5 -74h219q139 0 263 74t176 194q16 34 25 78.5t11.5 79.5t6.5 108q2 23 2 52t-1 70.5t-1 68.5
q0 4 0.5 68t0 84.5t-3 77.5t-7 87.5t-13 71t-20.5 69.5zM1341 1212q61 -78 78 -167.5t19 -333.5q0 -240 -18.5 -331.5t-80.5 -168.5q-114 -145 -303 -145h-219q-149 0 -251.5 87t-131.5 224q-18 93 -18 383q0 209 18.5 294t77.5 158q49 65 127.5 105.5t177.5 40.5h219
q185 0 305 -146zM1223 905q0 67 -39 123q-64 96 -191 96h-303v-817h84v367h193l170 -367h102l-184 373q88 42 127 96.5t41 128.5zM1145 905q-1 -73 -46.5 -115t-113.5 -42h-209v303h215q89 0 131 -62q20 -28 23 -84z" />
    <glyph glyph-name="degree" unicode="&#xb0;" horiz-adv-x="720" 
d="M715 1192q0 101 -71.5 173.5t-170.5 72.5q-98 0 -169 -72.5t-71 -173.5t71 -173.5t169 -72.5q99 0 170.5 72.5t71.5 173.5zM651 1192q0 -75 -51.5 -128.5t-126.5 -53.5q-73 0 -124.5 53.5t-51.5 128.5t51.5 128.5t124.5 53.5q75 0 126.5 -53.5t51.5 -128.5z" />
    <glyph glyph-name="plusminus" unicode="&#xb1;" horiz-adv-x="1153" 
d="M1176 590l16 82h-436l61 301h-78l-63 -301h-438l-17 -82h438l-63 -301h80l61 301h439zM1055 0l16 80h-956l-17 -80h957z" />
    <glyph glyph-name="twosuperior" unicode="&#xb2;" horiz-adv-x="854" 
d="M78 700l-17 -77h525l12 63h-451l461 397q39 34 56 66.5t26 75.5q20 96 -30 156.5t-168 60.5q-90 0 -160 -57t-99 -144h70q24 60 70.5 95.5t109.5 35.5q71 0 112 -41t28 -106q-8 -37 -31 -66t-62 -63z" />
    <glyph glyph-name="threesuperior" unicode="&#xb3;" horiz-adv-x="931" 
d="M334 588q116 0 205 66t112 173q12 61 -3 110.5t-83 86.5q133 74 156 184q20 91 -39 158.5t-174 67.5q-80 0 -157.5 -49.5t-112.5 -122.5h67q34 53 86.5 81.5t106.5 28.5q76 0 121 -48t30 -118q-13 -67 -75.5 -110t-135.5 -43h-45l-12 -58h55q80 0 122.5 -45.5
t25.5 -126.5q-17 -76 -85 -126t-145 -50q-120 0 -155 103h-74q12 -79 69.5 -120.5t139.5 -41.5z" />
    <glyph glyph-name="_00B6h" unicode="&#xb6;" horiz-adv-x="942" 
d="M489 -164h-86v1010q-149 3 -256.5 97.5t-107.5 223.5q0 132 104.5 234t245.5 102h529v-104h-146v-1563h-86v1563h-197v-1563z" />
    <glyph glyph-name="periodcentered" unicode="&#xb7;" horiz-adv-x="376" 
d="M326 571q0 35 -22.5 57.5t-55.5 22.5q-31 0 -53.5 -22.5t-22.5 -57.5q0 -32 22.5 -54.5t53.5 -22.5q32 0 55 22.5t23 54.5z" />
    <glyph glyph-name="onesuperior" unicode="&#xb9;" horiz-adv-x="724" 
d="M410 1372l-158 -764h63l170 824h-63l-131 -64l-15 -63z" />
    <glyph glyph-name="_00BAh" unicode="&#xba;" horiz-adv-x="649" 
d="M496 930q31 31 52 76.5t40 132.5q21 76 15 136.5t-50 104.5q-64 60 -168 60q-103 0 -192 -60q-61 -42 -89 -97.5t-45 -143.5q-17 -91 -15.5 -131t17.5 -72q54 -100 199 -100q134 0 236 94zM535 1298q10 -31 8.5 -65t-13.5 -96l-10 -50q-33 -112 -108 -161
q-62 -39 -142 -39q-103 0 -145 65q-27 47 -21 97q2 25 15 90q13 67 27 102.5t42 65.5q75 84 187 84q57 0 99.5 -24t60.5 -69z" />
    <glyph glyph-name="guillemotright" unicode="&#xbb;" horiz-adv-x="851" 
d="M469 221l387 318l-254 319l-22 -106l172 -213l-260 -211zM170 221l385 318l-254 319l-20 -106l170 -213l-258 -211z" />
    <glyph glyph-name="_00BCh" unicode="&#xbd;" horiz-adv-x="1460" 
d="M84 -35l1188 1497h-70l-1188 -1497h70zM735 78l-16 -78h524l14 63h-450l459 398q65 55 82 141q21 95 -30 156t-169 61q-90 0 -159.5 -56.5t-98.5 -144.5h70q57 132 180 132q71 0 111.5 -41.5t27.5 -106.5q-7 -37 -29.5 -66t-62.5 -63zM412 1372l-158 -764h63l170 824h-63
l-131 -64l-12 -63z" />
    <glyph glyph-name="Adieresis" unicode="&#xc4;" horiz-adv-x="1204" 
d="M1090 1642l20 99h94l-20 -99h-94zM705 1642l20 99h94l-20 -99h-94zM1051 0l-52 348h-692l-192 -348h-105l817 1425h103l225 -1425h-104zM850 1303h-4l-492 -873h635z" />
    <glyph glyph-name="_00C5h" unicode="&#xc5;" horiz-adv-x="1204" 
d="M872 1460q-84 0 -130 58t-27 141q17 82 86.5 140.5t152.5 58.5t128 -58.5t28 -140.5q-19 -84 -87 -141.5t-151 -57.5zM938 1784q-55 0 -98 -36.5t-54 -88.5q-12 -55 16.5 -91t84.5 -36q54 0 97.5 36t55.5 91q11 51 -18.5 88t-83.5 37zM1036 0l-49 348h-692l-195 -348
h-104l817 1425h102l226 -1425h-105zM838 1303h-4l-494 -873h635z" />
    <glyph glyph-name="Eacute" unicode="&#xc9;" horiz-adv-x="1056" 
d="M160 0l295 1425h866l-18 -86h-768l-119 -573h655l-18 -88h-656l-123 -592h768l-18 -86h-864zM844 1561l67 -23l332 207l-108 37z" />
    <glyph glyph-name="Odieresis" unicode="&#xd6;" horiz-adv-x="1136" 
d="M1253 901l-77 -381q-35 -162 -99 -264q-78 -121 -219 -195.5t-283 -74.5t-251 74.5t-138 195.5q-22 99 11 264l77 381q27 101 48 158.5t53 105.5q81 123 221 198t281 75q142 0 252 -75t137 -196q21 -95 -13 -266zM1128 1202q-87 141 -272 141t-328 -143
q-75 -72 -111 -161t-87 -328q-49 -235 -49.5 -327t43.5 -163q79 -141 270 -141q189 0 330 141q76 73 111 161t85 329q35 167 45.5 250.5t2.5 136.5t-40 104zM1067 1642l20 99h95l-21 -99h-94zM682 1642l20 99h95l-21 -99h-94z" />
    <glyph glyph-name="Udieresis" unicode="&#xdc;" horiz-adv-x="1249" 
d="M442 -12q-102 0 -184 34.5t-134.5 99t-72 155.5t3.5 204l195 942h98l-190 -915q-38 -187 48 -304.5t255 -117.5q168 0 301 107t172 292l194 938h101l-201 -964q-44 -210 -209.5 -340.5t-376.5 -130.5zM930 1642l18 99h94l-18 -99h-94zM545 1642l18 99h94l-18 -99h-94z
" />
    <glyph glyph-name="germandbls" unicode="&#xdf;" horiz-adv-x="1028" 
d="M1104 1112q11 53 -1 108t-44.5 101.5t-92.5 76t-137 29.5q-185 0 -302 -90.5t-154 -263.5l-232 -1073h86q9 43 18 80.5t21.5 93t63 289.5t131.5 620q11 52 35 98t64 86t102.5 63.5t140.5 23.5q53 0 95.5 -17.5t66 -45.5t39 -63t15.5 -69.5t-5 -64.5q-9 -41 -30.5 -80.5
t-56.5 -76.5t-89 -60t-119 -23h-119l-16 -76h147q120 0 169.5 -65.5t33.5 -165.5q-79 -469 -393 -469h-107l-18 -80h121q183 0 306 126.5t169 334.5q16 71 19.5 124.5t-7.5 104.5t-50.5 84t-105.5 45q201 98 236 295z" />
    <glyph glyph-name="agrave" unicode="&#xe0;" 
d="M823 1157h-73l-152 283h119zM1100 1010l-209 -1010h-88l28 133q-90 -90 -170 -118.5t-169 -28.5q-94 0 -158.5 38t-94 104t-37 156t14.5 195q21 114 60 210t98 172.5t144 119.5t188 43q42 0 74 -5t71 -20t72 -48.5t59 -84.5l29 144h88zM907 504q87 432 -205 432
q-74 0 -135 -27t-100 -68t-70 -102t-48 -114.5t-32 -120.5q-14 -67 -19.5 -123t1 -115t30 -99.5t73 -66.5t122.5 -26q71 0 131 27t100 68.5t71.5 100.5t49.5 114.5t31 119.5z" />
    <glyph glyph-name="acircumflex" unicode="&#xe2;" 
d="M1022 1153h-80l-133 223l-217 -223h-82l248 289h135zM1100 1010l-209 -1010h-88l28 133q-90 -90 -170 -118.5t-169 -28.5q-94 0 -158.5 38t-94 104t-37 156t14.5 195q21 114 60 210t98 172.5t144 119.5t188 43q42 0 74 -5t71 -20t72 -48.5t59 -84.5l29 144h88zM907 504
q87 432 -205 432q-74 0 -135 -27t-100 -68t-70 -102t-48 -114.5t-32 -120.5q-14 -67 -19.5 -123t1 -115t30 -99.5t73 -66.5t122.5 -26q71 0 131 27t100 68.5t71.5 100.5t49.5 114.5t31 119.5z" />
    <glyph glyph-name="adieresis" unicode="&#xe4;" 
d="M1036 1389l-20 -103h-96l20 103h96zM647 1389l-20 -103h-97l21 103h96zM1100 1010l-209 -1010h-88l28 133q-90 -90 -170 -118.5t-169 -28.5q-94 0 -158.5 38t-94 104t-37 156t14.5 195q21 114 60 210t98 172.5t144 119.5t188 43q42 0 74 -5t71 -20t72 -48.5t59 -84.5
l29 144h88zM907 504q87 432 -205 432q-74 0 -135 -27t-100 -68t-70 -102t-48 -114.5t-32 -120.5q-14 -67 -19.5 -123t1 -115t30 -99.5t73 -66.5t122.5 -26q71 0 131 27t100 68.5t71.5 100.5t49.5 114.5t31 119.5z" />
    <glyph glyph-name="ccedilla" unicode="&#xe7;" horiz-adv-x="849" 
d="M98 506q-22 -125 -14.5 -215.5t48.5 -152.5t96.5 -96.5t129.5 -47.5l-84 -205l54 -27q67 29 121 29q42 0 65.5 -19.5t15.5 -60.5q-10 -47 -70.5 -73.5t-135.5 -26.5q-13 0 -27 2.5t-31.5 8t-28 9t-31 11.5t-26.5 10l-45 -70q99 -47 197 -47q115 0 193 45.5t96 128.5
q13 64 -21.5 112t-114.5 48q-51 0 -100 -12l49 129h10q169 0 324 112l-43 64q-125 -86 -250 -86q-182 0 -256.5 109t-30.5 321t164 322t301 110q131 0 213 -88l70 65q-108 111 -274 111q-90 0 -174.5 -28.5t-162.5 -87t-138 -162.5t-89 -242z" />
    <glyph glyph-name="egrave" unicode="&#xe8;" 
d="M729 1157h74l-105 283h-120zM987 496l6 39q79 491 -295 491q-58 0 -114.5 -14.5t-117 -52t-111 -95t-94 -150.5t-68.5 -212q-19 -89 -21 -162.5t10 -126t37.5 -93t57 -65.5t73 -41t82 -22t86.5 -6q170 0 311 98l-38 66q-128 -84 -261 -84q-141 0 -206.5 71.5t-65.5 194.5
q0 78 18 164h711zM915 575h-620q47 177 149.5 274t237.5 97q138 0 202.5 -96t30.5 -275z" />
    <glyph glyph-name="eacute" unicode="&#xe9;" 
d="M717 1157l268 283h-119l-223 -283h74zM987 496l6 39q79 491 -295 491q-58 0 -114.5 -14.5t-117 -52t-111 -95t-94 -150.5t-68.5 -212q-19 -89 -21 -162.5t10 -126t37.5 -93t57 -65.5t73 -41t82 -22t86.5 -6q170 0 311 98l-38 66q-128 -84 -261 -84q-141 0 -206.5 71.5
t-65.5 194.5q0 78 18 164h711zM915 575h-620q47 177 149.5 274t237.5 97q138 0 202.5 -96t30.5 -275z" />
    <glyph glyph-name="ecircumflex" unicode="&#xea;" 
d="M899 1153h82l-129 289h-135l-248 -289h80l219 223zM987 496l6 39q79 491 -295 491q-58 0 -114.5 -14.5t-117 -52t-111 -95t-94 -150.5t-68.5 -212q-19 -89 -21 -162.5t10 -126t37.5 -93t57 -65.5t73 -41t82 -22t86.5 -6q170 0 311 98l-38 66q-128 -84 -261 -84
q-141 0 -206.5 71.5t-65.5 194.5q0 78 18 164h711zM915 575h-620q47 177 149.5 274t237.5 97q138 0 202.5 -96t30.5 -275z" />
    <glyph glyph-name="edieresis" unicode="&#xeb;" 
d="M995 1286l23 103h-98l-21 -103h96zM606 1286l23 103h-99l-20 -103h96zM987 496l6 39q79 491 -295 491q-58 0 -114.5 -14.5t-117 -52t-111 -95t-94 -150.5t-68.5 -212q-19 -89 -21 -162.5t10 -126t37.5 -93t57 -65.5t73 -41t82 -22t86.5 -6q170 0 311 98l-38 66
q-128 -84 -261 -84q-141 0 -206.5 71.5t-65.5 194.5q0 78 18 164h711zM918 575h-623q47 177 149.5 274t237.5 97q139 0 202.5 -94.5t33.5 -276.5z" />
    <glyph glyph-name="icircumflex" unicode="&#xee;" horiz-adv-x="376" 
d="M678 1149h-78l-127 215l-209 -215h-80l240 276h131zM444 1014l-170 -797q-30 -143 119 -143h8l-14 -74h-31q-103 0 -145.5 53.5t-17.5 173.5l167 787h84z" />
    <glyph glyph-name="idieresis" unicode="&#xef;" horiz-adv-x="376" 
d="M709 1389l-21 -103h-98l22 103h97zM319 1389l-20 -103h-98l22 103h96zM444 1014l-170 -797q-30 -143 119 -143h8l-14 -74h-31q-103 0 -145.5 53.5t-17.5 173.5l167 787h84z" />
    <glyph glyph-name="ocircumflex" unicode="&#xf4;" 
d="M911 1153h82l-129 289h-135l-248 -289h80l219 223zM987 508q32 136 25 242t-64 174q-86 102 -250 102t-290 -102q-95 -76 -138.5 -168.5t-74.5 -247.5q-29 -161 -29 -225q0 -75 24 -125q82 -172 293 -172q199 0 357 164q49 53 82.5 131.5t64.5 226.5zM915 782
q11 -32 11.5 -73t-5.5 -82.5t-22 -120.5q-13 -65 -18 -86q-47 -194 -166 -279q-94 -67 -213 -67q-153 0 -217 114q-40 70 -29 166q6 51 27 154q24 115 47.5 177t64.5 114q119 143 287 143q86 0 146.5 -41t86.5 -119z" />
    <glyph glyph-name="odieresis" unicode="&#xf6;" 
d="M1016 1286l20 103h-96l-20 -103h96zM627 1286l20 103h-96l-21 -103h97zM987 508q32 136 25 242t-64 174q-86 102 -250 102t-290 -102q-95 -76 -138.5 -168.5t-74.5 -247.5q-29 -161 -29 -225q0 -75 24 -125q82 -172 293 -172q199 0 357 164q49 53 82.5 131.5t64.5 226.5z
M915 782q11 -32 11.5 -73t-5.5 -82.5t-22 -120.5q-13 -65 -18 -86q-47 -194 -166 -279q-94 -67 -213 -67q-153 0 -217 114q-40 70 -29 166q6 51 27 154q24 115 47.5 177t64.5 114q119 143 287 143q86 0 146.5 -41t86.5 -119z" />
    <glyph glyph-name="divide" unicode="&#xf7;" horiz-adv-x="1153" 
d="M848 942q6 32 -11.5 55t-48.5 23q-32 0 -59 -23t-35 -55q-6 -32 12 -55t50 -23t59 23t33 55zM1147 446l14 74h-954l-17 -74h957zM659 33q6 31 -11.5 54.5t-49.5 23.5q-31 0 -58.5 -23.5t-33.5 -54.5q-6 -32 11.5 -55t49.5 -23t59 23t33 55z" />
    <glyph glyph-name="ugrave" unicode="&#xf9;" horiz-adv-x="1054" 
d="M700 1157h74l-106 283h-119zM905 0l209 1010h-88l-127 -617q-30 -144 -131.5 -231.5t-230.5 -87.5q-131 0 -194.5 86.5t-33.5 232.5l127 617h-88l-135 -660q-16 -77 3 -146.5t62 -116t101.5 -74t120.5 -27.5q90 0 181 34t159 109h4l-27 -129h88z" />
    <glyph glyph-name="ucircumflex" unicode="&#xfb;" horiz-adv-x="1054" 
d="M934 1153h82l-129 289h-135l-248 -289h80l219 223zM905 0l209 1010h-88l-127 -617q-30 -144 -131.5 -231.5t-230.5 -87.5q-131 0 -194.5 86.5t-33.5 232.5l127 617h-88l-135 -660q-16 -77 3 -146.5t62 -116t101.5 -74t120.5 -27.5q90 0 181 34t159 109h4l-27 -129h88z
" />
    <glyph glyph-name="udieresis" unicode="&#xfc;" horiz-adv-x="1054" 
d="M977 1286l20 103h-96l-22 -103h98zM588 1286l20 103h-96l-23 -103h99zM905 0l209 1010h-88l-127 -617q-30 -144 -131.5 -231.5t-230.5 -87.5q-131 0 -194.5 86.5t-33.5 232.5l127 617h-88l-135 -660q-16 -77 3 -146.5t62 -116t101.5 -74t120.5 -27.5q90 0 181 34t159 109
h4l-27 -129h88z" />
    <glyph glyph-name="oe" unicode="&#x153;" horiz-adv-x="1679" 
d="M903 506l4 14q23 81 27 139t-5 91t-32 77q-26 53 -83 83t-130 30t-145 -31t-119 -84q-57 -64 -82.5 -123t-54.5 -194q-29 -148 -29 -201q0 -50 31 -121q26 -53 84 -83.5t131 -30.5q165 0 256 104q56 59 86 123t59 188zM1700 535l-6 -39h-711q-18 -85 -18 -164
q0 -123 65.5 -194.5t206.5 -71.5q133 0 258 84l41 -66q-141 -98 -311 -98q-282 0 -336 233q-83 -127 -190.5 -180t-215.5 -53q-180 0 -266 125q-30 45 -41.5 86.5t-8 116t27.5 194.5q35 168 74.5 247t111.5 146q133 125 317 125q39 0 74 -5t75 -21t70.5 -41.5t55 -70
t33.5 -102.5q77 125 184.5 182.5t214.5 57.5q374 0 295 -491zM1622 575q31 180 -32.5 275.5t-200.5 95.5q-135 0 -238 -97t-152 -274h623z" />
    <glyph glyph-name="tonos" unicode="&#x384;" 
d="M717 1157l268 283h-119l-223 -283h74z" />
    <glyph glyph-name="dieresistonos" unicode="&#x385;" horiz-adv-x="786" 
d="M909 1286l23 103h-98l-21 -103h96zM549 1157l268 283h-121l-221 -283h74zM502 1286l20 103h-96l-23 -103h99z" />
    <glyph glyph-name="Alphatonos" unicode="&#x386;" horiz-adv-x="1173" 
d="M606 1444l-258 -273h-72l216 273h114zM1145 0h-101l-47 348h-675l-193 -348h-100l805 1425h98zM985 430l-131 873h-2l-485 -873h618z" />
    <glyph glyph-name="Epsilontonos" unicode="&#x388;" horiz-adv-x="1056" 
d="M94 1171l258 273h-114l-215 -273h71zM1282 1339l16 86h-843l-295 -1425h844l18 86h-748l123 592h637l19 88h-637l119 573h747z" />
    <glyph glyph-name="Etatonos" unicode="&#x389;" horiz-adv-x="1255" 
d="M362 1444l-258 -273h-71l215 273h114zM1393 1425l-295 -1425h-99l142 680h-744l-141 -680h-96l295 1425h96l-137 -661h743l137 661h99z" />
    <glyph glyph-name="Iotatonos" unicode="&#x38a;" horiz-adv-x="415" 
d="M379 1444l-258 -273h-72l215 273h115zM551 1425l-295 -1425h-96l295 1425h96z" />
    <glyph glyph-name="Omicrontonos" unicode="&#x38c;" horiz-adv-x="1136" 
d="M367 1444l-261 -273h-69l213 273h117zM1243 1167q18 -93 -12 -266q-14 -69 -39 -190q-20 -108 -41 -191q-23 -97 -43 -155.5t-53 -108.5q-78 -123 -212.5 -196.5t-279.5 -73.5q-133 0 -241.5 79t-133.5 191q-22 98 7 264q14 77 38 191q23 124 41 190q0 2 1 5t1 5
q25 94 45.5 151t51.5 105q81 128 205 199.5t286 71.5q138 0 244 -74.5t135 -196.5zM1118 1202q-34 61 -106.5 101t-167.5 40q-94 0 -178 -39.5t-144 -101.5q-73 -73 -108.5 -163t-85.5 -328q-35 -171 -45.5 -252t-4 -133t36.5 -105q34 -63 103 -102t164 -39q186 0 325 139
q71 74 106.5 165t84.5 327q36 174 47.5 252t6 133t-33.5 106z" />
    <glyph glyph-name="Upsilontonos" unicode="&#x38e;" horiz-adv-x="937" 
d="M1225 1425l-586 -835l-123 -590h-96l123 590l-242 835h100l209 -741l516 741h99zM258 1444l-260 -273h-72l215 273h117z" />
    <glyph glyph-name="Omegatonos" unicode="&#x38f;" horiz-adv-x="1136" 
d="M98 1171l258 273h-114l-215 -273h71zM1243 1167q-29 122 -135 196.5t-244 74.5q-137 0 -275.5 -75t-215.5 -196q-61 -93 -99 -266q-2 -11 -17.5 -78t-23.5 -112q-9 -44 -36 -191q-27 -153 -9 -244q27 -119 129 -190h-245l-17 -86h400l22 102q-84 29 -137 99t-61 157
q-7 82 49 353q50 238 85.5 328t108.5 163q60 62 144 101.5t178 39.5t161.5 -39.5t102.5 -101.5q41 -74 41 -164q0 -77 -51 -327q-48 -239 -82 -322q-40 -99 -123 -176.5t-195 -108.5l-20 -104h401l17 86h-244q135 78 207 190q52 84 92 244q21 83 41 191q28 134 37 190
q31 178 14 266z" />
    <glyph glyph-name="iotadieresistonos" unicode="&#x390;" horiz-adv-x="432" 
d="M713 1286l20 103h-96l-21 -103h97zM350 1157l268 283h-118l-224 -283h74zM303 1286l21 103h-97l-20 -103h96zM287 227l162 785h-89l-159 -774q-48 -238 170 -238h30l17 78h-8q-158 0 -123 149z" />
    <glyph glyph-name="Alpha" unicode="&#x391;" horiz-adv-x="1173" 
d="M1145 0h-101l-47 348h-675l-193 -348h-100l805 1425h98zM985 430l-131 873h-2l-485 -873h618z" />
    <glyph glyph-name="Beta" unicode="&#x392;" horiz-adv-x="1173" 
d="M1296 1075q-36 -240 -284 -342v-4q62 -15 102.5 -53.5t54.5 -87.5t16.5 -105.5t-11.5 -107.5q-37 -171 -159 -273t-288 -102h-567l295 1425h503q187 0 275 -96.5t63 -253.5zM1196 1059q25 126 -41.5 203t-216.5 77h-403l-119 -567h405q149 0 248.5 80t126.5 207z
M1079 389q26 128 -38 214.5t-216 86.5h-426l-125 -602h426q152 0 252 87t127 214z" />
    <glyph glyph-name="Gamma" unicode="&#x393;" horiz-adv-x="1017" 
d="M1298 1425l-16 -86h-747q-50 -239 -88 -418.5t-53 -248t-47 -225t-91 -447.5h-96l295 1425h843z" />
    <glyph glyph-name="Delta" unicode="&#x394;" horiz-adv-x="1173" 
d="M1145 0h-1116l805 1425h98zM1030 84l-176 1219h-2l-676 -1219h854z" />
    <glyph glyph-name="Epsilon" unicode="&#x395;" horiz-adv-x="1056" 
d="M1282 1339l16 86h-843l-295 -1425h844l18 86h-748l123 592h637l19 88h-637l119 573h747z" />
    <glyph glyph-name="Zeta" unicode="&#x396;" horiz-adv-x="978" 
d="M1190 1339l16 86h-817l-16 -86h719l-1008 -1253l-18 -86h845l19 86h-748z" />
    <glyph glyph-name="Eta" unicode="&#x397;" horiz-adv-x="1255" 
d="M1393 1425l-295 -1425h-99l142 680h-744l-141 -680h-96l295 1425h96l-137 -661h743l137 661h99z" />
    <glyph glyph-name="Theta" unicode="&#x398;" horiz-adv-x="1136" 
d="M1243 1167q-24 120 -133 195.5t-246 75.5t-275.5 -75t-215.5 -196q-22 -34 -40.5 -79t-28.5 -79t-30 -108q-18 -66 -41 -190q-25 -118 -36 -189q-32 -182 -13 -266q29 -122 135 -196t244 -74t276.5 74.5t215.5 195.5q22 34 40 78.5t28 80t28 107.5q28 121 41 189
q28 134 37 190q17 97 20.5 149t-6.5 117zM1106 764h-764q32 146 59.5 227t51.5 119t71 88q59 64 142 102.5t178 38.5q94 0 160 -38.5t100 -102.5q27 -47 35 -87.5t1.5 -119.5t-34.5 -227zM324 678h766q-36 -157 -63 -238.5t-52.5 -124t-73.5 -92.5q-60 -62 -142 -100.5
t-175 -38.5q-94 0 -160.5 38.5t-101.5 100.5q-27 50 -35 92t-0.5 124.5t37.5 238.5z" />
    <glyph glyph-name="Iota" unicode="&#x399;" horiz-adv-x="415" 
d="M551 1425l-295 -1425h-96l295 1425h96z" />
    <glyph glyph-name="Kappa" unicode="&#x39a;" horiz-adv-x="1216" 
d="M846 883l543 542h-103l-919 -905l184 905h-96l-295 -1425h96l82 389l426 410l287 -799h114z" />
    <glyph glyph-name="Lambda" unicode="&#x39b;" horiz-adv-x="1173" 
d="M1145 0h-101q-19 145 -31 226.5t-22.5 148.5t-46.5 312t-90 616h-2q-221 -397 -347.5 -624t-163.5 -294t-92 -167.5t-120 -217.5h-100l805 1425h98z" />
    <glyph glyph-name="Mu" unicode="&#x39c;" horiz-adv-x="1492" 
d="M1368 0l295 1425h-111l-721 -1099l-262 1099h-114l-295 -1425h96l256 1237l244 -1014h106l664 1014l-256 -1237h98z" />
    <glyph glyph-name="Nu" unicode="&#x39d;" horiz-adv-x="1333" 
d="M1182 0l295 1425h-99l-266 -1286l-543 1286h-114l-295 -1425h96l264 1276l545 -1276h117z" />
    <glyph glyph-name="Xi" unicode="&#x39e;" horiz-adv-x="1112" 
d="M1262 1339l18 86h-866l-19 -86h867zM1012 678l16 86h-637l-18 -86h639zM985 0l16 86h-864l-18 -86h866z" />
    <glyph glyph-name="Omicron" unicode="&#x39f;" horiz-adv-x="1136" 
d="M1243 1167q-29 122 -135 196.5t-244 74.5q-162 0 -286 -71.5t-205 -199.5q-33 -50 -54 -109t-45 -157q-28 -117 -41 -190q-9 -44 -36 -191q-30 -171 -9 -264q25 -112 133.5 -191t241.5 -79q145 0 278.5 73.5t213.5 196.5q32 49 51 104.5t45 159.5q21 83 41 191
q28 134 37 190q31 178 14 266zM1118 1202q28 -51 33.5 -106t-6 -133t-47.5 -252q-49 -234 -85 -324.5t-108 -165.5q-137 -141 -323 -141q-95 0 -164 39t-103 102q-30 53 -36.5 105t4 133t45.5 252q50 238 85.5 328t108.5 163q60 62 144 101.5t178 39.5q95 0 167.5 -40
t106.5 -101z" />
    <glyph glyph-name="Pi" unicode="&#x3a0;" horiz-adv-x="1255" 
d="M1393 1425l-295 -1425h-99l277 1337h-741l-279 -1337h-96l295 1425h938z" />
    <glyph glyph-name="Rho" unicode="&#x3a1;" horiz-adv-x="1110" 
d="M1300 1012q-38 -162 -172 -281q-138 -121 -323 -121h-422l-127 -610h-96l295 1425h487q281 0 348 -198q34 -88 10 -215zM1204 1018q31 158 -44 239.5t-222 81.5h-403l-134 -643h412q126 0 229 74q64 46 106 112t56 136z" />
    <glyph glyph-name="Sigma" unicode="&#x3a3;" horiz-adv-x="978" 
d="M1174 1339l16 86h-823l-17 -86l244 -604l-510 -649l-18 -86h845l19 86h-744l516 649l-249 604h721z" />
    <glyph glyph-name="Tau" unicode="&#x3a4;" horiz-adv-x="937" 
d="M1233 1425l-19 -88h-419l-277 -1337h-98l276 1337h-420l19 88h938z" />
    <glyph glyph-name="Upsilon" unicode="&#x3a5;" horiz-adv-x="937" 
d="M1225 1425l-586 -835l-123 -590h-96l123 590l-242 835h100l209 -741l516 741h99z" />
    <glyph glyph-name="Phi" unicode="&#x3a6;" horiz-adv-x="1464" 
d="M1520 639q63 219 20 424q-20 93 -98.5 162.5t-177.5 102t-201 32.5l14 65h-98l-12 -63q-161 0 -290.5 -49.5t-213 -131t-140 -191.5t-80.5 -225t-24 -237q0 -187 129 -294t361 -115l-25 -119h98l25 119q93 0 174.5 13t166.5 48.5t153 92.5t126 150t93 216zM1432 1085
q20 -52 29 -98t6.5 -97t-7.5 -86t-18 -102q-23 -119 -72.5 -209.5t-110 -144.5t-138 -87.5t-148.5 -45.5t-150 -12l224 1073q111 0 224.5 -52.5t160.5 -138.5zM948 1276l-223 -1073q-192 0 -303 89.5t-111 237.5q0 154 28 258.5t81 204.5q73 136 208 209.5t320 73.5z" />
    <glyph glyph-name="Chi" unicode="&#x3a7;" horiz-adv-x="1013" 
d="M1253 1425l-544 -694l278 -731h-104l-242 643l-508 -643h-104l579 731l-256 694h105l221 -604l469 604h106z" />
    <glyph glyph-name="Psi" unicode="&#x3a8;" horiz-adv-x="1445" 
d="M1475 758l137 667h-96l-134 -641q-41 -190 -179.5 -293t-350.5 -108l215 1042h-98l-215 -1044q-213 7 -307.5 120.5t-53.5 305.5l129 618h-98l-133 -645q-27 -134 13.5 -244t151.5 -179t277 -74l-59 -283h98l59 283q258 12 430.5 138t213.5 337z" />
    <glyph glyph-name="Omega" unicode="&#x3a9;" horiz-adv-x="1136" 
d="M1243 1167q-29 122 -135 196.5t-244 74.5q-137 0 -275.5 -75t-215.5 -196q-33 -50 -54 -109t-45 -157q-28 -117 -41 -190q-9 -44 -36 -191q-27 -153 -9 -244q27 -119 129 -190h-245l-17 -86h400l22 102q-84 29 -137 99t-61 157q-7 82 49 353q50 238 85.5 328t108.5 163
q60 62 144 101.5t178 39.5t161.5 -39.5t102.5 -101.5q41 -74 41 -164q0 -77 -51 -327q-48 -239 -82 -322q-40 -99 -123 -176.5t-195 -108.5l-20 -104h401l17 86h-244q135 78 207 190q52 84 92 244q21 83 41 191q28 134 37 190q31 178 14 266z" />
    <glyph glyph-name="Iotadieresis" unicode="&#x3aa;" horiz-adv-x="415" 
d="M813 1767l-20 -98h-99l21 98h98zM434 1767l-20 -98h-99l21 98h98zM551 1423l-295 -1423h-96l295 1423h96z" />
    <glyph glyph-name="Upsilondieresis" unicode="&#x3ab;" horiz-adv-x="937" 
d="M1079 1772l-20 -99h-94l20 99h94zM705 1772l-21 -99h-94l20 99h95zM1225 1425l-586 -835l-123 -590h-96l123 590l-242 835h100l209 -741l516 741h99z" />
    <glyph glyph-name="alphatonos" unicode="&#x3ac;" horiz-adv-x="1013" 
d="M741 1157l269 283h-119l-223 -283h73zM891 0l209 1010h-88l-29 -144q-26 51 -59 84.5t-72 48.5t-71 20t-74 5q-103 0 -187.5 -43t-143.5 -119.5t-98.5 -172t-60.5 -210.5q-21 -105 -13.5 -195t37 -156t94 -104t157.5 -38q89 0 169 28.5t170 118.5l-28 -133h88zM907 504
q-13 -64 -31 -119.5t-49.5 -114.5t-71.5 -100.5t-100 -68.5t-131 -27q-73 0 -122.5 26t-73 66.5t-30 99.5t-1 115t19.5 123q15 67 32 120.5t48 114.5t70 102t100 68t135 27q292 0 205 -432z" />
    <glyph glyph-name="epsilontonos" unicode="&#x3ad;" horiz-adv-x="860" 
d="M711 1157l268 283h-119l-223 -283h74zM930 850l67 65q-52 51 -128 81t-160 30q-94 0 -172 -24.5t-129 -65t-82.5 -88.5t-42.5 -100q-4 -20 -5.5 -41t3.5 -48.5t17 -51.5t38.5 -46t64.5 -35q-59 -15 -104 -46.5t-69.5 -68.5t-36.5 -66.5t-17 -55.5q-25 -125 61 -211
t254 -86q188 0 340 108l-41 64q-128 -88 -264 -88q-51 0 -100.5 13t-90.5 37.5t-62 65.5t-11 91q13 64 62 112t112 70t131 22h125l17 78h-109q-116 0 -180 48t-47 132q13 59 68.5 104.5t125 67t137.5 21.5q66 0 126.5 -23.5t101.5 -64.5z" />
    <glyph glyph-name="etatonos" unicode="&#x3ae;" horiz-adv-x="1017" 
d="M678 1157l268 283h-119l-223 -283h74zM825 -340l199 995q16 83 -2.5 154t-60.5 117t-100 72t-122 26q-87 0 -179 -34t-159 -109h-4l27 129h-88l-209 -1010h88l127 616q32 145 132.5 232.5t230.5 87.5q129 0 192.5 -87t34.5 -233l-195 -956h88z" />
    <glyph glyph-name="iotatonos" unicode="&#x3af;" horiz-adv-x="432" 
d="M436 1157l269 283h-119l-224 -283h74zM287 227l162 785h-89l-159 -774q-48 -238 170 -238h30l17 78h-8q-158 0 -123 149z" />
    <glyph glyph-name="upsilondieresistonos" unicode="&#x3b0;" horiz-adv-x="1054" 
d="M1030 1286l21 103h-97l-20 -103h96zM668 1157l268 283h-119l-223 -283h74zM621 1286l20 103h-96l-21 -103h97zM983 340l139 672h-88l-127 -617q-27 -144 -129.5 -231.5t-232.5 -87.5q-131 0 -195.5 86.5t-34.5 232.5l127 617h-88l-139 -672q-21 -98 15.5 -180t115 -128
t178.5 -46q157 0 291.5 101.5t167.5 252.5z" />
    <glyph glyph-name="alpha" unicode="&#x3b1;" horiz-adv-x="1013" 
d="M891 0l209 1010h-88l-29 -144q-26 51 -59 84.5t-72 48.5t-71 20t-74 5q-103 0 -187.5 -43t-143.5 -119.5t-98.5 -172t-60.5 -210.5q-21 -105 -13.5 -195t37 -156t94 -104t157.5 -38q89 0 169 28.5t170 118.5l-28 -133h88zM907 504q-13 -64 -31 -119.5t-49.5 -114.5
t-71.5 -100.5t-100 -68.5t-131 -27q-73 0 -122.5 26t-73 66.5t-30 99.5t-1 115t19.5 123q15 67 32 120.5t48 114.5t70 102t100 68t135 27q292 0 205 -432z" />
    <glyph glyph-name="beta" unicode="&#x3b2;" horiz-adv-x="1028" 
d="M1087 1112q9 35 5 71.5t-14 71.5t-33.5 66.5t-54 55t-75 37t-96.5 13.5q-371 0 -446 -354l-232 -1073h86l29 133q15 -41 43.5 -70.5t57 -44t70 -22.5t66 -9t62.5 -1q181 0 297.5 130t163.5 343q16 70 19 124t-8.5 105t-51.5 84t-107 45q75 36 122.5 86.5t66.5 97.5
t30 111zM997 1094q-10 -42 -29 -80.5t-50.5 -76.5t-83 -60.5t-115.5 -22.5h-139l-17 -76h168q120 0 171.5 -66t35.5 -165q-80 -479 -395 -479q-60 0 -104 17.5t-69 49.5t-39 71.5t-15.5 88.5t3 94.5t15.5 95.5l127 598q11 53 33 98t59.5 86t98 64t139.5 23q53 0 95 -17.5
t64.5 -45.5t37.5 -63t14.5 -69.5t-5.5 -64.5z" />
    <glyph glyph-name="gamma" unicode="&#x3b3;" horiz-adv-x="811" 
d="M362 -410l95 443l563 981h-96l-486 -858l-106 673q-19 144 -125 183l-47 -74q24 -13 39.5 -30.5t25.5 -47t14 -46.5t11 -60l112 -721l-94 -443h94z" />
    <glyph glyph-name="delta" unicode="&#x3b4;" 
d="M481 -12q98 0 176 25.5t130.5 67.5t92 107t62.5 133t41 156q17 82 22.5 144.5t-4.5 124t-40 104.5q-38 47 -121 98q-18 10 -55 25t-70 28.5t-70.5 34.5t-62.5 43t-38 54t-5 69q10 44 39 76t68.5 48.5t78.5 24t78 7.5q125 0 233 -62l49 80q-118 64 -274 64
q-155 0 -253.5 -64.5t-115.5 -175.5q-12 -80 21.5 -142.5t109.5 -94.5q-60 -18 -109.5 -43.5t-85 -53.5t-64.5 -65t-48 -70.5t-35 -80t-25 -84t-20 -89.5q-47 -223 4 -327q82 -162 291 -162zM717 909q76 -24 121.5 -64.5t61 -99t13.5 -121t-20 -149.5q-1 -5 -7.5 -33
t-11.5 -43q-24 -91 -58.5 -155.5t-104.5 -110.5q-95 -63 -211 -63q-138 0 -205 94q-67 107 -21 313q24 110 48.5 172.5t64.5 110.5q61 73 147 114.5t183 34.5z" />
    <glyph glyph-name="epsilon" unicode="&#x3b5;" horiz-adv-x="860" 
d="M930 850l67 65q-52 51 -128 81t-160 30q-94 0 -172 -24.5t-129 -65t-82.5 -88.5t-42.5 -100q-4 -20 -5.5 -41t3.5 -48.5t17 -51.5t38.5 -46t64.5 -35q-59 -15 -104 -46.5t-69.5 -68.5t-36.5 -66.5t-17 -55.5q-25 -125 61 -211t254 -86q188 0 340 108l-41 64
q-128 -88 -264 -88q-51 0 -100.5 13t-90.5 37.5t-62 65.5t-11 91q13 64 62 112t112 70t131 22h125l17 78h-109q-116 0 -180 48t-47 132q13 59 68.5 104.5t125 67t137.5 21.5q66 0 126.5 -23.5t101.5 -64.5z" />
    <glyph glyph-name="zeta" unicode="&#x3b6;" horiz-adv-x="741" 
d="M1094 1325l20 96h-653l-19 -80h564q-99 -62 -204 -140.5t-221.5 -187t-206.5 -218.5t-149 -237t-59 -241q0 -214 196 -278l254 -86q47 -16 65 -41t10.5 -57t-38.5 -78l-84 -121l76 -35l121 182q30 44 33.5 88t-30 85.5t-105.5 64.5l-222 78q-91 32 -136.5 81.5
t-45.5 141.5q0 131 111 301q64 98 161 204.5t199.5 196.5t194.5 161t168 120z" />
    <glyph glyph-name="eta" unicode="&#x3b7;" horiz-adv-x="1017" 
d="M825 -340l199 995q16 83 -2.5 154t-60.5 117t-100 72t-122 26q-87 0 -179 -34t-159 -109h-4l27 129h-88l-209 -1010h88l127 616q32 145 132.5 232.5t230.5 87.5q129 0 192.5 -87t34.5 -233l-195 -956h88z" />
    <glyph glyph-name="theta" unicode="&#x3b8;" 
d="M1081 926q17 76 24.5 124t7.5 103t-16.5 98.5t-49.5 83.5q-87 99 -252 99q-164 0 -291 -99q-97 -75 -139.5 -166t-75.5 -243q-14 -52 -49 -217q-5 -22 -18 -89.5t-21 -99.5q-2 -8 -8 -39.5t-8.5 -43.5t-7.5 -41.5t-6.5 -45t-3.5 -42t-1 -43.5t3 -39t7.5 -40t13.5 -34
q80 -164 293 -164q210 0 363 164q60 65 96 165q25 75 47 185q1 3 2 9t2 9q24 92 41 178q0 2 1 5.5t1 5.5q36 170 45 217zM1010 1198q36 -101 -25 -342l-18 -82h-627l18 92q16 81 26.5 123t38.5 110t66 113q118 136 287 136q87 0 148.5 -38t85.5 -112zM324 700h626l-30 -149
q-16 -76 -39.5 -149t-68.5 -151.5t-97 -113.5q-100 -65 -213 -65q-157 0 -217 112q-42 73 -27 197q4 38 35 182z" />
    <glyph glyph-name="iota" unicode="&#x3b9;" horiz-adv-x="391" 
d="M287 227l162 785h-89l-159 -774q-48 -238 170 -238h30l17 78h-8q-158 0 -123 149z" />
    <glyph glyph-name="kappa" unicode="&#x3ba;" horiz-adv-x="980" 
d="M680 647l389 365h-108l-646 -602l127 604h-88l-209 -1014h86l60 285l317 301l248 -586h98z" />
    <glyph glyph-name="lambda" unicode="&#x3bb;" horiz-adv-x="901" 
d="M895 -6l16 78q-56 11 -76 36.5t-30 102.5l-137 1036q-13 99 -69 136.5t-163 39.5l-16 -73q76 -6 117 -39t51 -109l18 -180l-596 -1022h99l509 887l9 2l94 -721q12 -95 50 -132t124 -42z" />
    <glyph glyph-name="mu" unicode="&#x3bc;" horiz-adv-x="1038" 
d="M911 0l209 1010h-88l-127 -617q-30 -144 -131.5 -231.5t-230.5 -87.5q-130 0 -195 87t-35 232l129 617v2h-88l-295 -1422h88l109 521q40 -59 108 -92t142 -33q90 0 181 34t159 109h4l-27 -129h88z" />
    <glyph glyph-name="nu" unicode="&#x3bd;" horiz-adv-x="868" 
d="M1042 1012l-573 -1012h-90l-154 1012h94l132 -877h10l487 877h94z" />
    <glyph glyph-name="xi" unicode="&#x3be;" horiz-adv-x="790" 
d="M508 803q-150 -45 -248 -173.5t-98 -289.5q0 -231 209 -305l239 -82q65 -23 72.5 -59.5t-37.5 -102.5l-84 -121l78 -49l121 182q30 44 33 87t-30.5 84.5t-105.5 66.5l-204 72q-199 66 -199 221q0 106 53.5 204t145.5 159t196 61h223l17 76h-172q-115 0 -194 49.5
t-79 148.5q0 86 58.5 162t144.5 118t172 42q136 0 238 -60l53 74q-109 68 -289 68q-113 0 -220.5 -52.5t-179 -149.5t-71.5 -212q0 -72 37 -132t121 -87z" />
    <glyph glyph-name="omicron" unicode="&#x3bf;" 
d="M987 508q32 136 25 242t-64 174q-86 102 -250 102t-290 -102q-95 -76 -138.5 -168.5t-74.5 -247.5q-29 -161 -29 -225q0 -75 24 -125q79 -172 293 -172q204 0 359 161q48 52 81 131.5t64 229.5zM915 782q11 -32 11.5 -73t-5.5 -82.5t-22 -120.5q-13 -65 -18 -86
q-46 -190 -168 -277q-94 -69 -211 -69q-155 0 -219 114q-38 67 -27 166q6 51 27 154q24 115 47.5 177t64.5 114q119 143 287 143q86 0 146.5 -41t86.5 -119z" />
    <glyph glyph-name="pi" unicode="&#x3c0;" horiz-adv-x="1054" 
d="M1120 1014l-211 -1014h-88l195 932h-590l-193 -932h-88l209 1014h766z" />
    <glyph glyph-name="rho" unicode="&#x3c1;" horiz-adv-x="1005" 
d="M999 479q17 77 24.5 132.5t8.5 116.5t-15 110.5t-48 87.5q-84 100 -244 100q-157 0 -283 -102q-94 -75 -134.5 -164.5t-74.5 -251.5l-186 -918h86l109 541q28 -51 61.5 -82.5t74.5 -44t68.5 -15.5t73.5 -3q98 0 181 40.5t140.5 111t97 156t60.5 185.5zM930 780
q8 -24 10.5 -48.5t-3.5 -66.5t-10.5 -66t-19.5 -95q-14 -68 -31 -123.5t-48.5 -115t-71 -99.5t-99.5 -66t-133 -26q-72 0 -121 27.5t-72 70t-30.5 102.5t-3 115.5t17.5 118.5q24 113 47.5 174.5t63.5 114.5q54 70 127.5 105.5t151.5 35.5q83 0 142.5 -40.5t82.5 -117.5z" />
    <glyph glyph-name="sigma1" unicode="&#x3c2;" horiz-adv-x="845" 
d="M963 844l63 67q-107 115 -268 115q-205 0 -349.5 -123.5t-203.5 -392.5q-24 -116 -17.5 -204t57.5 -151.5t152 -101.5l207 -80q71 -29 78 -62t-41 -99l-84 -121l78 -51l121 182q31 45 36.5 85.5t-22 78.5t-92.5 63l-223 90q-84 34 -123 76t-47.5 114.5t16.5 180.5
q43 213 155 319.5t300 106.5q122 0 207 -92z" />
    <glyph glyph-name="sigma" unicode="&#x3c3;" horiz-adv-x="1007" 
d="M1176 932l16 80h-498q-169 0 -291 -99q-51 -41 -85.5 -83.5t-57.5 -96.5t-36 -102.5t-29 -128.5q-31 -152 -31 -223q0 -73 24 -123q80 -170 295 -170q209 0 357 161q94 102 145 355q19 97 23 169t-15 142.5t-67 118.5h250zM911 774q16 -58 13 -111t-25 -163
q-10 -49 -18 -80t-23.5 -76.5t-33 -77.5t-46.5 -66t-65 -59q-95 -69 -213 -69q-156 0 -217 114q-23 43 -26.5 102.5t3 100t21.5 113.5q25 117 47 177t63 109q118 142 287 142q87 0 148 -39.5t85 -116.5z" />
    <glyph glyph-name="tau" unicode="&#x3c4;" horiz-adv-x="581" 
d="M766 932l16 80h-555l-16 -80h225l-143 -711q-23 -107 19.5 -164t136.5 -57h47l16 74h-14q-32 0 -55.5 6.5t-37.5 15.5t-21.5 26t-10.5 29t-1 35t4 34.5t7 35.5l141 676h242z" />
    <glyph glyph-name="upsilon" unicode="&#x3c5;" horiz-adv-x="1054" 
d="M983 340l139 672h-88l-127 -617q-27 -144 -129.5 -231.5t-232.5 -87.5q-131 0 -195.5 86.5t-34.5 232.5l127 617h-88l-139 -672q-21 -98 15.5 -180t115 -128t178.5 -46q157 0 291.5 101.5t167.5 252.5z" />
    <glyph glyph-name="phi" unicode="&#x3c6;" horiz-adv-x="1144" 
d="M1165 508q22 105 28 169t-9.5 129t-59.5 118q-35 42 -114 72t-176 30h-95l-198 -952q-60 0 -128 18.5t-98 48.5q-34 34 -48.5 82.5t-13.5 93t11 103.5q3 16 8.5 43t8.5 43q21 106 42.5 167t57.5 109q65 91 199 136l-11 83q-103 -29 -163 -77q-91 -70 -137.5 -166.5
t-78.5 -249.5q-20 -96 -21.5 -175t7.5 -118t23 -65q41 -81 128 -121.5t197 -40.5l-82 -398h93l81 398q111 0 219.5 40.5t182.5 121.5q50 55 83.5 132.5t63.5 225.5zM1092 782q16 -53 12.5 -111.5t-27.5 -164.5l-18 -86q-50 -192 -168 -279q-43 -30 -119 -48.5t-139 -18.5
l180 868q57 0 113.5 -17.5t103 -55t62.5 -87.5z" />
    <glyph glyph-name="chi" unicode="&#x3c7;" horiz-adv-x="878" 
d="M596 520l416 494h-105l-350 -422l-174 422h-102l211 -494l-439 -520h103l372 451l189 -451h102z" />
    <glyph glyph-name="psi" unicode="&#x3c8;" horiz-adv-x="1263" 
d="M1198 381l131 631h-88l-125 -604q-32 -153 -136.5 -242.5t-270.5 -89.5h-19l203 977h-88l-203 -977q-175 1 -246 90t-39 242l125 604h-86l-137 -654q-33 -156 67.5 -263t297.5 -107l-84 -398h86l86 398q204 0 346.5 106.5t179.5 286.5z" />
    <glyph glyph-name="omega" unicode="&#x3c9;" horiz-adv-x="1540" 
d="M1554 510q-51 -250 -141 -350q-79 -88 -154 -128.5t-167 -41.5q-63 0 -119.5 18.5t-103 63t-62.5 108.5q-152 -192 -332 -192q-200 0 -282 172q-25 52 -25 125q0 64 29 225q31 155 74.5 247.5t138.5 168.5q103 81 221 98l-19 -92q-130 -26 -215 -133q-41 -49 -64.5 -111
t-47.5 -178q0 -2 -1 -6t-1 -6q-15 -70 -20.5 -110.5t-0.5 -96t29 -98.5q32 -59 70 -87t110 -28q130 0 218.5 89t117.5 230l78 379h88l-78 -379q-30 -140 22 -229.5t183 -89.5q277 0 366 432q24 113 26.5 174t-17.5 115q-45 107 -160 133l18 92q115 -18 180 -98
q34 -40 51 -83.5t18 -98.5t-5.5 -105t-22.5 -129z" />
    <glyph glyph-name="iotadieresis" unicode="&#x3ca;" horiz-adv-x="376" 
d="M709 1389l-21 -103h-98l22 103h97zM319 1389l-20 -103h-98l22 103h96zM444 1014l-170 -797q-30 -143 119 -143h8l-14 -74h-31q-103 0 -145.5 53.5t-17.5 173.5l167 787h84z" />
    <glyph glyph-name="upsilondieresis" unicode="&#x3cb;" horiz-adv-x="1054" 
d="M1001 1286l23 103h-98l-21 -103h96zM612 1286l23 103h-98l-21 -103h96zM983 340l139 672h-88l-127 -617q-30 -144 -131.5 -231.5t-230.5 -87.5q-131 0 -195.5 86.5t-34.5 232.5l127 617h-88l-139 -672q-21 -98 15.5 -180t115 -128t178.5 -46q157 0 292 101.5t167 252.5z
" />
    <glyph glyph-name="omicrontonos" unicode="&#x3cc;" 
d="M719 1157l268 283h-119l-223 -283h74zM987 508q32 136 25 242t-64 174q-86 102 -250 102t-290 -102q-95 -76 -138.5 -168.5t-74.5 -247.5q-29 -161 -29 -225q0 -75 24 -125q82 -172 293 -172q199 0 357 164q49 53 82.5 131.5t64.5 226.5zM915 782q11 -32 11.5 -73
t-5.5 -82.5t-22 -120.5q-13 -65 -18 -86q-47 -194 -166 -279q-94 -67 -213 -67q-153 0 -217 114q-40 70 -29 166q6 51 27 154q24 115 47.5 177t64.5 114q119 143 287 143q86 0 146.5 -41t86.5 -119z" />
    <glyph glyph-name="upsilontonos" unicode="&#x3cd;" horiz-adv-x="1054" 
d="M739 1157l269 283h-119l-223 -283h73zM983 340l139 672h-88l-127 -617q-30 -144 -131.5 -231.5t-230.5 -87.5q-131 0 -195.5 86.5t-34.5 232.5l127 617h-88l-139 -672q-21 -98 15.5 -180t115 -128t178.5 -46q157 0 291.5 101.5t167.5 252.5z" />
    <glyph glyph-name="omegatonos" unicode="&#x3ce;" horiz-adv-x="1540" 
d="M1229 1440l-268 -283h-74l223 283h119zM1554 510q-51 -250 -141 -350q-79 -88 -154 -128.5t-167 -41.5q-63 0 -119.5 18.5t-103 63t-62.5 108.5q-152 -192 -332 -192q-200 0 -282 172q-25 52 -25 125q0 64 29 225q29 153 73 246.5t140 169.5q103 81 221 98l-19 -92
q-130 -26 -215 -133q-47 -55 -73 -119t-39 -170q-3 -24 -13 -86.5t-11.5 -88t4 -67t24.5 -75.5q32 -58 71 -86.5t111 -28.5q130 0 218.5 89t117.5 230l78 379h88l-78 -379q-29 -141 23 -230t182 -89q277 0 366 432q24 113 26.5 174t-17.5 115q-45 107 -160 133l18 92
q115 -18 180 -98q34 -40 51 -83.5t18 -98.5t-5.5 -105t-22.5 -129z" />
    <glyph glyph-name="endash" unicode="&#x2013;" horiz-adv-x="1024" 
d="M1102 502l16 76h-999l-15 -76h998z" />
    <glyph glyph-name="emdash" unicode="&#x2014;" horiz-adv-x="2048" 
d="M2101 502l15 76h-1997l-15 -76h1997z" />
    <glyph glyph-name="afii00208" unicode="&#x2015;" horiz-adv-x="2048" 
d="M2101 502l15 76h-1997l-15 -76h1997z" />
    <glyph glyph-name="quoteleft" unicode="&#x2018;" horiz-adv-x="301" 
d="M367 1110l63 307l-98 -63l-49 -244h84z" />
    <glyph glyph-name="quoteright" unicode="&#x2019;" horiz-adv-x="299" 
d="M317 1407l-73 -358l104 63l60 295h-91z" />
    <glyph glyph-name="quotedblleft" unicode="&#x201c;" horiz-adv-x="514" 
d="M678 1417l-68 -348h-84l54 285zM465 1417l-68 -348h-84l54 285z" />
    <glyph glyph-name="quotedblright" unicode="&#x201d;" horiz-adv-x="520" 
d="M610 1122l58 287h-84l-72 -348zM397 1122l58 287h-84l-72 -348z" />
    <glyph glyph-name="dagger" unicode="&#x2020;" horiz-adv-x="894" 
d="M1022 836l20 96h-354l103 493h-97l-102 -493h-354l-19 -96h352l-258 -1242h99l258 1242h352z" />
    <glyph glyph-name="bullet" unicode="&#x2022;" horiz-adv-x="937" 
d="M831 713q0 101 -71 173t-170 72q-98 0 -169 -72t-71 -173t71 -173.5t169 -72.5t169.5 72.5t71.5 173.5z" />
    <glyph glyph-name="ellipsis" unicode="&#x2026;" horiz-adv-x="1714" 
d="M1516 0l20 96h-88l-21 -96h89zM926 0l20 96h-88l-18 -96h86zM330 0l20 96h-88l-18 -96h86z" />
    <glyph glyph-name="perthousand" unicode="&#x2030;" horiz-adv-x="1843" 
d="M1804 268q17 83 17 129q0 58 -39 103q-46 57 -140 57q-89 0 -161 -57q-38 -30 -62 -69.5t-33 -69.5t-24 -93q-28 -129 -2 -192q46 -99 164 -99q115 0 200 91q28 32 44.5 74t35.5 126zM774 1157q17 83 17 129q0 58 -39 103q-42 57 -138 57q-93 0 -163 -55
q-53 -45 -75 -95.5t-40 -138.5q-19 -87 -19 -125q0 -42 15 -69q45 -97 162 -97q115 0 198 92q29 29 47 72t35 127zM340 -2l946 1427h-80l-946 -1427h80zM1225 268q16 78 16 129q0 58 -39 103q-46 57 -139 57q-90 0 -162 -57q-38 -30 -62 -69.5t-33 -69.5t-24 -93
q-28 -129 -2 -192q44 -99 162 -99t203 91q28 32 44.5 74t35.5 126zM1741 408q11 -42 -8 -140q-15 -68 -34 -111t-59 -71q-47 -35 -102 -35q-70 0 -104 58q-11 20 -12.5 47.5t1 44.5t9.5 53q0 2 1 7t1 7q13 63 24 93t33 55q56 67 137 67q89 0 113 -75zM711 1296
q13 -41 -9 -141q-12 -65 -31.5 -108.5t-58.5 -73.5q-44 -33 -102 -33q-74 0 -104 55q-27 51 -3 162q23 103 58 148q56 67 137 67q89 0 113 -76zM1159 408q13 -41 -6 -140q-15 -69 -33.5 -111.5t-58.5 -70.5q-47 -35 -103 -35q-70 0 -104 58q-11 20 -12.5 47.5t1 44.5t9.5 53
q0 2 1 7t1 7q12 60 23.5 91t31.5 57q56 67 140 67q89 0 110 -75z" />
    <glyph glyph-name="Euro" unicode="&#x20ac;" horiz-adv-x="1126" 
d="M1161 1116h107q-21 143 -121.5 232.5t-261.5 89.5q-137 0 -276 -75t-216 -196q-33 -50 -53 -109t-43 -157l-6 -27h-123l-14 -69h120q-2 -12 -9.5 -43.5t-10.5 -50.5q-19 -87 -25 -129h-120l-15 -68h123q-34 -166 -12 -258q29 -121 135.5 -195.5t243.5 -74.5q161 0 299 89
t217 232h-107q-67 -100 -170 -163.5t-219 -63.5q-185 0 -264 141q-33 60 -39 115t10 178h639l15 68h-641q7 46 24 129q18 80 21 94h641l14 69h-639q31 134 63.5 199.5t94.5 128.5q60 63 143 102t180 39q116 0 192.5 -63.5t102.5 -163.5z" />
    <glyph glyph-name="trademark" unicode="&#x2122;" horiz-adv-x="1923" 
d="M975 1333l340 -731h59l342 729v-729h72v828h-109l-333 -736l-334 736h-109v-828h72v731zM416 602v756h260v72h-592v-72h260v-756h72z" />
    <glyph glyph-name="CR" horiz-adv-x="1024" 
 />
    </font>
</defs>
</svg>
