<?xml version="1.0" standalone="no"?>
<!DOCTYPE svg PUBLIC "-//W3C//DTD SVG 1.1//EN" "http://www.w3.org/Graphics/SVG/1.1/DTD/svg11.dtd" >
<svg xmlns="http://www.w3.org/2000/svg" xmlns:xlink="http://www.w3.org/1999/xlink" version="1.1">
<metadata>
Created by FontForge 20170731 at Thu Apr 22 17:10:44 2021
 By Aleksey,,,
 2002 PARACHUTE TYPE &#38; IMAGE CORP. All rights reserved. Designed by Panos Vassiliou. Based on DIN 1451 by the Deutsches Institut Normung 6  {www.parachute.gr}
</metadata>
<defs>
<font id="PFDinTextLight-Regular" horiz-adv-x="1001" >
  <font-face 
    font-family="PF Din Text Light"
    font-weight="400"
    font-stretch="normal"
    units-per-em="2048"
    panose-1="2 0 4 6 2 0 0 2 0 4"
    ascent="1536"
    descent="-512"
    x-height="1012"
    cap-height="1425"
    bbox="-383 -532 2048 1915"
    underline-thickness="102"
    underline-position="-399"
    unicode-range="U+0020-2122"
  />
<missing-glyph horiz-adv-x="2048" 
 />
    <glyph glyph-name=".notdef" horiz-adv-x="2048" 
 />
    <glyph glyph-name=".null" horiz-adv-x="0" 
 />
    <glyph glyph-name="nonmarkingreturn" horiz-adv-x="682" 
 />
    <glyph glyph-name="space" unicode=" " horiz-adv-x="460" 
 />
    <glyph glyph-name="exclam" unicode="!" horiz-adv-x="454" 
d="M287 1425l-11 -1048h-96l-10 1048h117zM287 0h-123v127h123v-127z" />
    <glyph glyph-name="quotedbl" unicode="&#x22;" horiz-adv-x="581" 
d="M446 1071h-98v354h98v-354zM221 1071h-98v354h98v-354z" />
    <glyph glyph-name="numbersign" unicode="#" horiz-adv-x="1005" 
d="M961 889h-216l-47 -348h203v-92h-215l-59 -449h-107l62 449h-256l-60 -449h-108l63 449h-190v92h205l47 348h-195v92h209l61 442h99l-60 -442h260l62 442h100l-61 -442h203v-92zM645 889h-260l-47 -348h258z" />
    <glyph glyph-name="dollar" unicode="$" horiz-adv-x="976" 
d="M956 381q0 -163 -109 -271t-296 -120v-236h-86v234q-229 15 -404 155l76 95q166 -119 328 -132v558q-170 31 -270.5 125t-100.5 253q0 163 103 272.5t268 121.5v147h86v-147q186 -15 344 -121l-66 -105q-144 89 -278 103v-533q405 -61 405 -399zM465 795v520
q-107 -13 -178.5 -84t-71.5 -193q0 -50 17 -90t46.5 -67t61 -44t68.5 -28q10 -3 29.5 -7.5t27.5 -6.5zM551 651v-547q128 13 208.5 83.5t80.5 193.5q0 69 -22 118t-64.5 78.5t-89.5 46t-113 27.5z" />
    <glyph glyph-name="percent" unicode="%" horiz-adv-x="1296" 
d="M561 1151q0 -83 -9.5 -126.5t-33.5 -74.5q-69 -96 -190 -96q-124 0 -193 100q-39 59 -39 197q0 88 12.5 139t61.5 96q60 60 158 60q95 0 159 -60q47 -45 60.5 -97t13.5 -138zM1030 1425l-670 -1425h-100l670 1425h100zM1206 274q0 -82 -10.5 -125t-34.5 -75
q-67 -94 -188 -94q-126 0 -193 98q-23 31 -32 73.5t-9 122.5q0 86 13.5 138.5t60.5 97.5q63 59 160 59q98 0 157 -59q49 -45 62.5 -96.5t13.5 -139.5zM471 1149q0 96 -20 135q-37 70 -123 70q-81 0 -117 -62q-16 -24 -20.5 -50.5t-4.5 -90.5q0 -39 0.5 -55t8 -46.5
t22.5 -52.5q39 -51 111 -51q83 -1 116.5 59t26.5 144zM1114 272q0 97 -20 136q-38 71 -121 71q-79 0 -119 -63q-25 -46 -25 -142q0 -34 1 -53.5t9 -48.5t23 -51q39 -51 111 -51q81 -1 114.5 59t26.5 143z" />
    <glyph glyph-name="ampersand" unicode="&#x26;" horiz-adv-x="1294" 
d="M1212 0h-149l-119 170q-103 -94 -199.5 -136t-212.5 -42q-197 0 -317.5 110.5t-120.5 292.5q0 140 95.5 252.5t269.5 206.5q-67 97 -94 158.5t-27 132.5q0 136 75.5 215.5t209.5 79.5q127 0 208.5 -77t81.5 -189q0 -59 -18 -108t-58 -92.5t-87 -78.5t-121 -80l323 -450
q56 92 82 268h117q-21 -120 -48 -204.5t-81 -160.5zM803 1174q0 73 -53 121t-127 48q-44 0 -77 -18.5t-50.5 -48t-26 -59.5t-8.5 -60q0 -56 27.5 -114t82.5 -136q113 58 172.5 118t59.5 149zM879 262l-355 502q-146 -75 -228.5 -162t-82.5 -203q0 -87 34 -152.5t89 -100.5
t126.5 -46t144.5 3.5t145.5 55.5t126.5 103z" />
    <glyph glyph-name="quotesingle" unicode="'" horiz-adv-x="507" 
d="M311 1071h-98v354h98v-354z" />
    <glyph glyph-name="parenleft" unicode="(" horiz-adv-x="497" 
d="M463 -125l-14 -102q-121 23 -190 114.5t-69 221.5v1050q0 130 70.5 224.5t188.5 119.5l14 -110q-71 -18 -117.5 -75t-46.5 -140v-1088q0 -83 44 -136.5t120 -78.5z" />
    <glyph glyph-name="parenright" unicode=")" horiz-adv-x="497" 
d="M342 109q0 -130 -69 -221.5t-191 -114.5l-14 102q76 25 120.5 78.5t44.5 136.5v1088q0 83 -46.5 140t-118.5 75l14 110q118 -25 189 -119t71 -225v-1050z" />
    <glyph glyph-name="asterisk" unicode="*" horiz-adv-x="657" 
d="M612 1012l-37 -58l-192 109v-229h-82v229l-192 -109l-39 58l196 118l-196 119l39 60l192 -111v229h82v-229l192 111l37 -60l-194 -119z" />
    <glyph glyph-name="plus" unicode="+" horiz-adv-x="1191" 
d="M1079 442h-432v-442h-102v442h-434v101h434v436h102v-436h432v-101z" />
    <glyph glyph-name="comma" unicode="," horiz-adv-x="415" 
d="M266 -188l-121 -88v403h121v-315z" />
    <glyph glyph-name="hyphen" unicode="-" horiz-adv-x="776" 
d="M668 440h-559v115h559v-115z" />
    <glyph glyph-name="period" unicode="." horiz-adv-x="444" 
d="M283 0h-123v129h123v-129z" />
    <glyph glyph-name="slash" unicode="/" horiz-adv-x="616" 
d="M590 1438l-455 -1438h-104l454 1438h105z" />
    <glyph glyph-name="zero" unicode="0" horiz-adv-x="931" 
d="M852 377q0 -92 -31.5 -167t-85 -122.5t-122.5 -73.5t-146 -26t-146.5 26t-123 73.5t-85.5 122.5t-32 167v672q0 92 32 167t85.5 122.5t123 73.5t146.5 26t146 -26t122.5 -73.5t85 -122.5t31.5 -167v-672zM731 389v647q0 128 -72.5 204.5t-191.5 76.5q-121 0 -192.5 -76
t-71.5 -205v-647q0 -129 71.5 -206t192.5 -77q119 0 191.5 77t72.5 206z" />
    <glyph glyph-name="one" unicode="1" horiz-adv-x="931" 
d="M537 1423v-1423h-123v1294l-197 -145v137l197 137h123z" />
    <glyph glyph-name="two" unicode="2" horiz-adv-x="931" 
d="M844 0h-776v121l587 749q53 67 64 150.5t-33 169.5q-33 56 -94.5 91.5t-128.5 35.5q-99 0 -171 -58.5t-95 -160.5h-125q20 148 125.5 244t246.5 96q121 0 218 -57.5t145 -151.5q52 -103 39 -215.5t-80 -200.5l-547 -692h625v-121z" />
    <glyph glyph-name="three" unicode="3" horiz-adv-x="931" 
d="M829 403q0 -188 -117.5 -301.5t-299.5 -113.5q-130 0 -232 76t-139 217h125q82 -175 260 -175q115 0 198 81t83 210q0 132 -76.5 209.5t-194.5 77.5h-88v107h70q115 0 193.5 71.5t78.5 186.5q0 114 -80 191t-192 77q-83 0 -152 -47t-98 -135h-123q30 129 132 216t231 87
q119 0 212.5 -55.5t142 -142.5t48.5 -187q0 -59 -12.5 -107t-54.5 -104.5t-115 -102.5q200 -102 200 -336z" />
    <glyph glyph-name="four" unicode="4" horiz-adv-x="931" 
d="M907 223h-123v-223h-120v223h-641v127l501 1075h133l-507 -1085h514v432h120v-432h123v-117z" />
    <glyph glyph-name="five" unicode="5" horiz-adv-x="931" 
d="M854 467q0 -172 -35 -256q-41 -97 -138 -160t-204 -63q-138 0 -246 73.5t-143 223.5h125q30 -85 94.5 -132t161.5 -47q178 0 236 146q13 32 20 74t7.5 66.5t0.5 76.5q0 58 -5 102.5t-21.5 94.5t-44.5 83t-79 54.5t-120 21.5q-72 0 -125 -29.5t-100 -95.5h-132v725h717
v-120h-600v-474q54 52 107.5 78.5t86 30.5t85.5 4q102 0 187.5 -51t127.5 -141q37 -81 37 -285z" />
    <glyph glyph-name="six" unicode="6" horiz-adv-x="931" 
d="M856 426q0 -115 -33.5 -202t-91.5 -137t-128 -74.5t-150 -24.5q-71 0 -137.5 26.5t-120.5 76.5t-86.5 130.5t-32.5 179.5q0 125 53 234l397 790h136l-322 -645h4q93 40 195 31q136 -13 226.5 -112.5t90.5 -272.5zM735 406q0 139 -76 220t-192 81q-119 0 -194.5 -81
t-75.5 -220q0 -140 73 -224t197 -84q103 0 185.5 84.5t82.5 223.5z" />
    <glyph glyph-name="seven" unicode="7" horiz-adv-x="931" 
d="M887 1305l-516 -1305h-131l514 1305h-525v-220h-120v340h778v-120z" />
    <glyph glyph-name="eight" unicode="8" horiz-adv-x="931" 
d="M885 395q0 -177 -121.5 -292t-296.5 -115t-296.5 115t-121.5 292q0 102 50 194.5t149 143.5q-90 47 -131 132t-41 182q0 165 113 278t278 113t277 -113t112 -278q0 -101 -43.5 -184.5t-126.5 -129.5q94 -39 146.5 -137t52.5 -201zM735 1051q0 124 -80.5 195t-187.5 71
q-109 0 -189.5 -70.5t-80.5 -195.5t80.5 -196t189.5 -71q107 0 187.5 70.5t80.5 196.5zM764 397q0 125 -88.5 208t-208.5 83t-208.5 -83t-88.5 -208t88.5 -208t208.5 -83t208.5 83t88.5 208z" />
    <glyph glyph-name="nine" unicode="9" horiz-adv-x="931" 
d="M868 1022q0 -128 -53 -231l-397 -791h-137l323 643l-4 2q-88 -43 -194 -33q-137 13 -227.5 114t-90.5 273q0 115 33.5 202.5t91 137.5t127 74.5t149.5 24.5q72 0 138.5 -26.5t121 -76.5t87 -131t32.5 -182zM745 1018q0 141 -72 224t-196 83q-103 0 -185.5 -82.5
t-82.5 -224.5q0 -137 76 -218t192 -81t192 81t76 218z" />
    <glyph glyph-name="colon" unicode=":" horiz-adv-x="415" 
d="M266 481h-123v127h123v-127zM266 0h-123v127h123v-127z" />
    <glyph glyph-name="semicolon" unicode=";" horiz-adv-x="415" 
d="M266 481h-123v127h123v-127zM266 -168l-121 -88v383h121v-295z" />
    <glyph glyph-name="less" unicode="&#x3c;" horiz-adv-x="1189" 
d="M1077 -23l-999 474v90l999 473v-111l-870 -409l870 -402v-115z" />
    <glyph glyph-name="equal" unicode="=" horiz-adv-x="1161" 
d="M1073 635h-969v106h969v-106zM1073 244h-969v106h969v-106z" />
    <glyph glyph-name="greater" unicode="&#x3e;" horiz-adv-x="1198" 
d="M1104 451l-1000 -474v115l871 402l-871 409v111l1000 -473v-90z" />
    <glyph glyph-name="question" unicode="?" horiz-adv-x="897" 
d="M784 1075q0 -56 -11 -95t-38 -83q-4 -7 -13 -20.5t-13 -20.5q-27 -38 -35 -47l-144 -197q-37 -52 -43 -110q-4 -28 -4 -47v-78h-121v61q0 77 9.5 121.5t38.5 83.5l137 188q68 94 84 140q2 5 7.5 20t7.5 20.5t6.5 21.5t5 22t2.5 23t-1 24q-4 96 -76 155.5t-153 59.5
q-115 0 -172.5 -64.5t-71.5 -167.5h-125q2 2 2 15q0 12 3 18q12 134 116.5 227t237.5 93q140 0 246 -92q118 -103 118 -271zM485 0h-123v127h123v-127z" />
    <glyph glyph-name="at" unicode="@" horiz-adv-x="1632" 
d="M1501 526q0 -96 -57.5 -156.5t-157.5 -60.5q-7 -10 -62 -10t-121.5 5t-68.5 5v78q-1 -1 -3 -2t-3 -2q-28 -41 -94.5 -62.5t-151.5 -21.5q-117 0 -194 51q-92 65 -92 182q0 97 64.5 166.5t184.5 69.5h289v115q0 75 -59.5 113t-161.5 38q-54 0 -107.5 -26t-91.5 -64l-69 66
q48 55 116 86.5t144 31.5q74 0 130.5 -12t103.5 -40.5t71.5 -80t24.5 -125.5v-458h153q46 0 73.5 29.5t27.5 72.5v549q0 130 -88 208.5t-230 78.5h-471q-142 0 -229.5 -78.5t-87.5 -208.5v-668q0 -130 88 -213.5t229 -83.5h625v-98h-621q-196 0 -313 110t-117 291v654
q0 182 117 291.5t313 109.5h467q196 0 313 -109.5t117 -291.5v-529zM590 541q0 -67 53.5 -107.5t149.5 -40.5q241 0 241 154v137h-254q-89 0 -139.5 -36.5t-50.5 -106.5z" />
    <glyph glyph-name="A" unicode="A" horiz-adv-x="1212" 
d="M1190 0h-139l-121 340h-647l-121 -340h-139l522 1425h125zM893 453l-287 800h-6l-281 -800h574z" />
    <glyph glyph-name="B" unicode="B" horiz-adv-x="1212" 
d="M1135 383q0 -114 -54 -203t-141 -134.5t-190 -45.5h-590v1425h536q200 0 307 -98.5t107 -261.5q0 -36 -4 -67.5t-17.5 -71t-35.5 -72t-62.5 -65t-95.5 -56.5v-4q83 -18 139.5 -76.5t78.5 -126.5t22 -143zM680 1309h-385v-523h385q142 0 219.5 74t77.5 191
q0 114 -77.5 186t-219.5 72zM700 674h-405v-553h405q144 0 221.5 79.5t77.5 196.5t-77.5 197t-221.5 80z" />
    <glyph glyph-name="C" unicode="C" horiz-adv-x="1095" 
d="M1079 336q-48 -155 -172.5 -252.5t-300.5 -97.5q-142 0 -268 75t-182 199q-23 49 -31.5 107t-13.5 159q-2 25 -2 82v203q0 59 2 86q5 101 13.5 159t31.5 107q56 124 182 199.5t268 75.5q175 0 300 -97.5t173 -253.5h-145q-40 96 -127 158t-201 62q-177 0 -276 -129
q-39 -51 -56.5 -96t-25.5 -128.5t-8 -242.5t8.5 -242.5t25.5 -127.5t56 -95q100 -131 276 -131q113 0 201 63t127 158h145z" />
    <glyph glyph-name="D" unicode="D" horiz-adv-x="1255" 
d="M1149 887v-346q-4 -73 -6.5 -107.5t-11.5 -79.5t-25 -80q-53 -123 -182 -198.5t-271 -75.5h-493v1425h487q148 0 275.5 -75t183.5 -199q21 -49 29.5 -107t13.5 -157zM1016 711q0 161 -7 241t-23.5 124.5t-55.5 94.5q-45 59 -118.5 96.5t-164.5 37.5h-352v-1184h358
q176 0 275 129q39 49 56 94t24.5 126.5t7.5 240.5z" />
    <glyph glyph-name="E" unicode="E" horiz-adv-x="1095" 
d="M1042 0h-882v1425h882v-120h-747v-525h637v-118h-637v-541h747v-121z" />
    <glyph glyph-name="F" unicode="F" horiz-adv-x="1054" 
d="M1042 1305h-747v-531h637v-115h-637v-659h-135v1425h882v-120z" />
    <glyph glyph-name="G" unicode="G" horiz-adv-x="1212" 
d="M606 1438q175 0 300 -97.5t173 -253.5h-145q-40 96 -127 158t-201 62q-177 0 -276 -129q-39 -51 -56.5 -96t-25.5 -128.5t-8 -242.5t8.5 -242.5t25.5 -127.5t56 -95q100 -131 276 -131q102 0 187.5 53.5t132.5 140t47 183.5v131h-314v116h445v-260q0 -156 -105 -303
q-143 -190 -393 -190q-142 0 -268 75t-182 199q-23 49 -31.5 107t-13.5 159q-2 25 -2 82q0 262 2 289q5 101 13.5 159t31.5 107q56 124 182 199.5t268 75.5z" />
    <glyph glyph-name="H" unicode="H" horiz-adv-x="1294" 
d="M1135 0h-136v664h-704v-664h-135v1425h135v-647h704v647h136v-1425z" />
    <glyph glyph-name="I" unicode="I" horiz-adv-x="454" 
d="M295 0h-135v1425h135v-1425z" />
    <glyph glyph-name="J" unicode="J" horiz-adv-x="935" 
d="M793 1425v-1001q0 -99 -38 -182.5t-100 -138t-141.5 -85t-163.5 -30.5q-186 0 -311 125l100 92q91 -84 205 -84q43 0 85.5 10.5t84 35t73 61t51 93t19.5 125.5v979h136z" />
    <glyph glyph-name="K" unicode="K" horiz-adv-x="1255" 
d="M1217 0h-158l-445 766l-319 -375v-391h-135v1425h135v-845l6 4l700 841h150l-446 -548z" />
    <glyph glyph-name="L" unicode="L" horiz-adv-x="1095" 
d="M1042 0h-882v1425h135v-1304h747v-121z" />
    <glyph glyph-name="M" unicode="M" horiz-adv-x="1531" 
d="M1401 0h-133v1133l-6 -7l-416 -907h-131l-418 914l-2 -7v-1126h-135v1425h143l479 -1050l480 1050h139v-1425z" />
    <glyph glyph-name="N" unicode="N" horiz-adv-x="1372" 
d="M1219 0h-144l-778 1198l-2 -6v-1192h-135v1425h143l778 -1204l2 6v1198h136v-1425z" />
    <glyph glyph-name="O" unicode="O" horiz-adv-x="1175" 
d="M1083 711q0 -87 -4 -185q-3 -178 -41 -266q-53 -123 -182 -198.5t-270 -75.5q-143 0 -270 75t-183 199q-43 94 -43 262v16t-0.5 39t-1 55.5t-0.5 66.5v69.5t0.5 68.5t1.5 60q3 179 43 266q56 124 183 199.5t270 75.5q140 0 269.5 -76t182.5 -199q38 -88 41 -266
q4 -102 4 -186zM950 711q0 159 -7.5 241.5t-25 129t-55.5 96.5q-99 129 -276 129q-180 0 -279 -129q-38 -50 -55.5 -96.5t-25 -129t-7.5 -241.5q0 -160 7.5 -242.5t25 -128t55.5 -94.5q100 -131 279 -131q176 0 276 131q38 49 55.5 94.5t25 128t7.5 242.5z" />
    <glyph glyph-name="P" unicode="P" horiz-adv-x="1148" 
d="M1128 1004q0 -78 -30 -153.5t-88 -133.5q-123 -123 -314 -123h-401v-594h-135v1425h506q291 0 405 -202q57 -96 57 -219zM993 1010q0 142 -88 218.5t-225 76.5h-385v-590h393q122 0 201 67q52 41 78 102t26 126z" />
    <glyph glyph-name="Q" unicode="Q" horiz-adv-x="1212" 
d="M1233 68l-78 -86l-190 149q-152 -145 -359 -145q-141 0 -268.5 75t-183.5 199q-21 49 -29.5 107t-13.5 159q-2 25 -2 82v203q0 59 2 86q5 101 13.5 159t29.5 107q56 124 183.5 199.5t268.5 75.5t270.5 -76t182.5 -199q21 -49 29.5 -107t13.5 -159q2 -27 2 -86v-203
q0 -57 -2 -82q-2 -111 -14 -176.5t-52 -126.5zM973 711q0 231 -16 314t-72 153q-102 129 -279 129t-276 -129q-39 -51 -56.5 -96t-25.5 -128.5t-8 -242.5t8.5 -242.5t25.5 -127.5t56 -95q100 -131 276 -131q143 0 248 102l-205 162l78 90l201 -158q29 55 37 149t8 251z" />
    <glyph glyph-name="R" unicode="R" horiz-adv-x="1212" 
d="M1151 0h-154l-325 651h-377v-651h-135v1425h563q171 0 287 -104t116 -272q0 -152 -84 -251.5t-235 -138.5zM1001 1049q0 131 -83 196.5t-220 65.5h-403v-547h397q138 0 223.5 74.5t85.5 210.5z" />
    <glyph glyph-name="S" unicode="S" horiz-adv-x="1134" 
d="M1053 379q0 -180 -132.5 -285.5t-357.5 -105.5q-299 0 -514 164l86 98q201 -137 430 -137q158 0 258.5 70.5t100.5 195.5q0 139 -101 205q-72 49 -250 69q-128 16 -215.5 44t-150.5 89q-96 96 -96 256q0 177 117 286.5t331 109.5q218 0 426 -123l-72 -105
q-190 103 -364 103q-82 0 -151 -28.5t-114.5 -92.5t-45.5 -154q0 -57 21.5 -100t53.5 -67t81.5 -42t91 -25.5t98.5 -17.5t88 -18q124 -31 190 -66q95 -49 143 -134.5t48 -188.5z" />
    <glyph glyph-name="T" unicode="T" horiz-adv-x="974" 
d="M975 1309h-420v-1309h-135v1309h-418v116h973v-116z" />
    <glyph glyph-name="U" unicode="U" horiz-adv-x="1255" 
d="M1124 467q0 -212 -141.5 -345.5t-353.5 -133.5q-213 0 -354.5 138t-141.5 361v938h133v-913q0 -173 103 -282t260 -109t258.5 99t101.5 272v933h135v-958z" />
    <glyph glyph-name="V" unicode="V" horiz-adv-x="1095" 
d="M1077 1425l-475 -1425h-108l-474 1425h142l385 -1185h6l383 1185h141z" />
    <glyph glyph-name="W" unicode="W" horiz-adv-x="1689" 
d="M1655 1425l-359 -1425h-116l-334 1204h-2l-330 -1204h-119l-358 1425h141l277 -1179h6l323 1179h123l330 -1179h4l275 1179h139z" />
    <glyph glyph-name="X" unicode="X" horiz-adv-x="1052" 
d="M1038 0h-147l-365 610l-364 -610h-148l441 731l-410 694h148l333 -571l334 571h150l-412 -694z" />
    <glyph glyph-name="Y" unicode="Y" horiz-adv-x="974" 
d="M977 1425l-424 -835v-590h-129v590l-428 835h141l350 -710l353 710h137z" />
    <glyph glyph-name="Z" unicode="Z" horiz-adv-x="1015" 
d="M948 0h-880v121l735 1188h-707v116h852v-116l-733 -1188h733v-121z" />
    <glyph glyph-name="bracketleft" unicode="[" horiz-adv-x="497" 
d="M465 -221h-311v1648h311v-96h-191v-1458h191v-94z" />
    <glyph glyph-name="backslash" unicode="\" horiz-adv-x="616" 
d="M588 0h-105l-454 1438h102z" />
    <glyph glyph-name="bracketright" unicode="]" horiz-adv-x="497" 
d="M379 -221h-309v94h190v1458h-190v96h309v-1648z" />
    <glyph glyph-name="asciicircum" unicode="^" horiz-adv-x="1191" 
d="M1044 739h-100l-348 602l-346 -602h-100l397 686h98z" />
    <glyph glyph-name="underscore" unicode="_" horiz-adv-x="1024" 
d="M1024 -246h-1024v105h1024v-105z" />
    <glyph glyph-name="grave" unicode="`" horiz-adv-x="843" 
d="M580 1155h-103l-235 285h166z" />
    <glyph glyph-name="a" unicode="a" horiz-adv-x="983" 
d="M455 1026q202 0 301 -72q112 -76 112 -254v-700h-125q0 96 -6 90q-31 -48 -117 -76t-192 -28q-152 0 -240 59q-122 83 -122 234q0 58 19.5 110t57.5 94t99.5 67t138.5 25h362v148q0 93 -75.5 139.5t-202.5 46.5q-69 0 -136.5 -30.5t-111.5 -75.5l-82 88q61 64 144 99.5
t176 35.5zM182 289q0 -86 68 -136.5t190 -50.5q153 0 234 56q69 50 69 137v174h-319q-112 0 -177 -46t-65 -134z" />
    <glyph glyph-name="b" unicode="b" horiz-adv-x="972" 
d="M901 530q0 -90 -10.5 -165.5t-37 -147t-68 -121t-108.5 -79t-153 -29.5q-43 0 -77.5 5t-75.5 18.5t-79 44t-69 75.5v-131h-125v1425h125v-538q67 84 139.5 111.5t161.5 27.5q79 0 142.5 -26.5t106 -72t71.5 -109.5t42 -135t15 -153zM774 508q0 62 -6 113t-24 105.5
t-47.5 91.5t-80.5 61t-120 24q-273 0 -273 -395q0 -399 273 -399q70 0 121.5 25t81 63t47 93.5t23 106t5.5 111.5z" />
    <glyph glyph-name="c" unicode="c" horiz-adv-x="864" 
d="M829 113q-135 -125 -313 -125q-90 0 -169.5 29t-145 88t-104 162t-38.5 239q0 137 38.5 240.5t104 162.5t145 88t169.5 29q175 0 311 -123l-77 -92q-99 92 -226 92q-166 0 -254 -99.5t-88 -297.5q0 -196 88 -296.5t254 -100.5q129 0 226 94z" />
    <glyph glyph-name="d" unicode="d" horiz-adv-x="972" 
d="M870 0h-122v133q-108 -145 -302 -145q-376 0 -376 542q0 102 21.5 189t65 157t117.5 110t172 40q186 0 302 -141v540h122v-1425zM748 508q0 395 -273 395q-69 0 -121 -24t-81.5 -61t-47.5 -91.5t-24 -105.5t-6 -113q0 -399 280 -399q273 0 273 399z" />
    <glyph glyph-name="e" unicode="e" 
d="M911 475h-694q0 -80 17 -145t52.5 -117t97.5 -80.5t146 -28.5q128 0 240 89l80 -93q-129 -112 -313 -112q-67 0 -127 14t-120 51t-103 93.5t-70 148.5t-27 209q0 116 25 208.5t65 150t95 95.5t110 53t115 15q173 0 292 -119.5t119 -322.5v-109zM784 586q-6 158 -82 240.5
t-202 82.5q-122 0 -197.5 -84.5t-85.5 -238.5h567z" />
    <glyph glyph-name="f" unicode="f" horiz-adv-x="509" 
d="M524 909h-225v-909h-123v909h-115v107h115v158q0 120 67.5 185.5t170.5 65.5h110v-110h-92q-41 0 -68.5 -13.5t-41 -38.5t-18.5 -51.5t-5 -60.5v-135h225v-107z" />
    <glyph glyph-name="g" unicode="g" horiz-adv-x="1042" 
d="M899 12q0 -110 -34.5 -195.5t-95 -137.5t-138 -78.5t-168.5 -26.5q-155 0 -297 119l86 86q102 -84 215 -84q97 0 172 45.5t111 122.5q20 53 24 83.5t1 82t-1 98.5q-116 -141 -301 -141q-98 0 -173 41.5t-118 112.5t-64.5 157t-21.5 184q0 83 10.5 157.5t37.5 146.5
t68.5 123.5t108.5 83.5t152 32q193 0 301 -145v133h125v-1000zM774 504q0 399 -272 399q-281 0 -281 -399q0 -62 6 -113t24 -105.5t48 -91.5t82 -61t121 -24q272 0 272 395z" />
    <glyph glyph-name="h" unicode="h" horiz-adv-x="1083" 
d="M938 0h-123v612q0 132 -76.5 211.5t-195.5 79.5q-121 0 -198 -79t-77 -212v-612h-123v1425h123v-536h6q52 69 133 102t168 33q63 0 126.5 -24t116.5 -67.5t86.5 -111.5t33.5 -147v-674z" />
    <glyph glyph-name="i" unicode="i" horiz-adv-x="425" 
d="M274 1303h-122v122h122v-122zM274 0h-122v1014h122v-1014z" />
    <glyph glyph-name="j" unicode="j" horiz-adv-x="466" 
d="M297 1303h-123v122h123v-122zM297 1014v-1164q0 -118 -77 -194t-200 -76h-36v109q51 0 67 6q123 27 123 164v1155h123z" />
    <glyph glyph-name="k" unicode="k" horiz-adv-x="1017" 
d="M993 0h-137l-356 553l-232 -266v-287h-123v1425h123v-968l494 555h149l-331 -373z" />
    <glyph glyph-name="l" unicode="l" horiz-adv-x="466" 
d="M430 0h-49q-114 0 -175 52t-61 169v1204h123v-1187q0 -129 135 -129h27v-109z" />
    <glyph glyph-name="m" unicode="m" horiz-adv-x="1779" 
d="M1616 0h-123v612q0 132 -76.5 211.5t-195.5 79.5q-121 0 -198 -79t-77 -212v-612h-123v612q0 132 -76.5 211.5t-195.5 79.5q-121 0 -198 -79t-77 -212v-612h-122v1012h122v-123h7q52 69 134 103t167 34q97 0 180.5 -46.5t138.5 -127.5v4q77 100 159.5 135t190.5 35
q65 0 129 -24.5t116.5 -68t85 -111.5t32.5 -148v-674z" />
    <glyph glyph-name="n" unicode="n" horiz-adv-x="1056" 
d="M926 0h-125v612q0 133 -76.5 212t-196.5 79t-196 -79t-76 -212v-612h-125v1012h125v-123h4q52 69 134 103t167 34q64 0 128 -24.5t117 -68t86.5 -111.5t33.5 -148v-674z" />
    <glyph glyph-name="o" unicode="o" 
d="M911 508q0 -145 -18 -222.5t-57 -133.5q-120 -164 -336 -164q-219 0 -342 170q-36 53 -52 131t-16 219q0 156 23.5 245.5t107.5 170.5q110 102 279 102q170 0 280 -102q82 -78 106.5 -170t24.5 -246zM788 506q0 103 -8 159t-32 99q-37 70 -102.5 106.5t-145.5 36.5
q-158 0 -236 -129q-29 -47 -40 -105t-11 -165q0 -116 18 -178q25 -97 60 -135q78 -86 209 -86q110 0 186 61q54 43 74 106t26 152q2 14 2 78z" />
    <glyph glyph-name="p" unicode="p" horiz-adv-x="1042" 
d="M936 481q0 -81 -13 -153t-41.5 -135.5t-71.5 -108.5t-106.5 -71.5t-142.5 -26.5q-89 0 -162 27.5t-141 111.5v-535h-123v1422h123v-131q64 86 137 114.5t166 28.5q86 0 152.5 -30t108 -79.5t68 -121.5t36.5 -147.5t10 -164.5zM811 504q0 61 -5.5 111.5t-23 106t-47 93.5
t-82 63t-123.5 25q-272 0 -272 -399q0 -395 272 -395q69 0 121 24t82 61t48 91.5t24 105.5t6 113z" />
    <glyph glyph-name="q" unicode="q" horiz-adv-x="1042" 
d="M920 -410h-123v537q-116 -141 -301 -141q-98 0 -172 39t-118 108.5t-65.5 156.5t-21.5 191q0 89 10.5 165t37 147.5t68 121t108.5 79.5t153 30q193 0 301 -145v133h123v-1422zM797 504q0 399 -273 399q-280 0 -280 -399q0 -62 6 -113t24 -105.5t47.5 -91.5t81.5 -61
t121 -24q273 0 273 395z" />
    <glyph glyph-name="r" unicode="r" horiz-adv-x="718" 
d="M750 985l-78 -119q-59 37 -133 37q-109 0 -190 -75t-81 -207v-621h-123v1014h123v-123h4q120 148 344 133q66 -3 134 -39z" />
    <glyph glyph-name="s" unicode="s" horiz-adv-x="956" 
d="M877 281q0 -130 -116.5 -211.5t-297.5 -81.5q-221 0 -406 141l78 92q145 -121 346 -121q69 0 127.5 18t100 62.5t41.5 110.5q0 75 -48.5 110.5t-134.5 49.5q-65 10 -121 10q-60 0 -122 12q-108 21 -169 87t-61 173q0 139 99.5 216t267.5 77q208 0 354 -100l-67 -99
q-142 86 -287 86q-117 0 -178.5 -47.5t-61.5 -134.5q0 -96 107 -129q68 -18 127 -20q141 -10 231 -33q191 -53 191 -268z" />
    <glyph glyph-name="t" unicode="t" horiz-adv-x="509" 
d="M444 0h-65q-101 0 -161 57.5t-60 165.5v682h-113v109h113v336h123v-336h163v-109h-163v-639q0 -27 1.5 -44.5t9 -41t20.5 -37.5t38.5 -24t61.5 -10h32v-109z" />
    <glyph glyph-name="u" unicode="u" horiz-adv-x="1083" 
d="M934 0h-123v123h-6q-52 -70 -133 -103.5t-168 -33.5q-65 0 -129 24t-116.5 67.5t-85 111t-32.5 147.5v676h123v-613q0 -131 77 -210.5t196 -79.5q121 0 197.5 78.5t76.5 211.5v613h123v-1012z" />
    <glyph glyph-name="v" unicode="v" horiz-adv-x="892" 
d="M870 1014l-374 -1014h-115l-373 1014h131l297 -826h10l291 826h133z" />
    <glyph glyph-name="w" unicode="w" horiz-adv-x="1490" 
d="M1456 1014l-323 -1014h-117l-275 846l-4 -6l-272 -840h-119l-323 1014h129l251 -832h9l268 832h121l272 -832h8l250 832h125z" />
    <glyph glyph-name="x" unicode="x" horiz-adv-x="921" 
d="M872 0h-147l-266 418l-269 -418h-145l342 520l-326 494h146l252 -396l248 396h149l-328 -494z" />
    <glyph glyph-name="y" unicode="y" horiz-adv-x="868" 
d="M868 1014l-434 -1237q-62 -173 -241 -187q-7 0 -30 -1t-30 -1v111q5 1 20 1.5t27.5 2t18.5 4.5q97 17 131 125l51 166l-379 1016h133l307 -848h4l289 848h133z" />
    <glyph glyph-name="z" unicode="z" horiz-adv-x="876" 
d="M805 0h-733v113l602 790h-572v111h703v-111l-596 -790h596v-113z" />
    <glyph glyph-name="braceleft" unicode="{" horiz-adv-x="497" 
d="M498 -221h-127q-81 0 -129.5 60.5t-48.5 158.5v283q0 124 -38.5 194.5t-123.5 93.5v70q81 23 121.5 104.5t40.5 188.5v274q0 98 48.5 158.5t129.5 60.5h127v-86h-95q-38 0 -62.5 -32.5t-32 -72t-7.5 -85.5v-256q0 -114 -47.5 -192.5t-99.5 -92.5v-6q52 -14 99.5 -88.5
t47.5 -181.5v-279q0 -33 4.5 -63t15.5 -59.5t32 -47.5t50 -18h95v-86z" />
    <glyph glyph-name="bar" unicode="|" horiz-adv-x="376" 
d="M242 -532h-103v2037h103v-2037z" />
    <glyph glyph-name="braceright" unicode="}" horiz-adv-x="497" 
d="M483 569q-85 -23 -123 -93.5t-38 -194.5v-283q0 -97 -50 -158t-129 -61h-127v86h95q29 0 50 18t32 47.5t15.5 59.5t4.5 63v279q0 107 47.5 181t97.5 89v6q-50 14 -97.5 93t-47.5 192v256q0 33 -4.5 64t-15.5 60.5t-32 47.5t-50 18h-95v86h127q79 0 129 -61t50 -158v-274
q0 -107 40 -188.5t121 -104.5v-70z" />
    <glyph glyph-name="asciitilde" unicode="~" horiz-adv-x="1191" 
d="M1040 514q-36 -47 -69 -75.5t-74 -41.5q-31 -10 -68.5 -11t-70 3.5t-74 17t-70 23t-69.5 27.5q-110 45 -166 45q-42 0 -79 -22t-89 -70l-59 61q38 55 96 93t133 38q50 0 139 -29q13 -5 57 -22.5t70 -24.5q18 -5 64.5 -20t65 -19t49.5 -4t57 11q8 3 16 8.5t13.5 9.5
t15.5 13.5t14.5 14l19 19l19.5 19.5z" />
    <glyph glyph-name="nbspace" unicode="&#xa0;" horiz-adv-x="415" 
 />
    <glyph glyph-name="sterling" unicode="&#xa3;" horiz-adv-x="991" 
d="M991 1268l-117 -39q-83 90 -202 90q-116 0 -192.5 -84t-76.5 -197v-295h299v-88h-296v-538h524v-117h-850v117h207v538h-189v88h189v310q0 153 114 270q111 111 287 111q106 0 177.5 -42t125.5 -124z" />
    <glyph glyph-name="_00A4h" unicode="&#xa4;" horiz-adv-x="1138" 
d="M291 725q0 124 85 209.5t208 85.5t209 -85t86 -210q0 -123 -86 -208t-209 -85t-208 86t-85 207zM135 1096l119 -121q-82 -130 -82 -250q0 -124 80 -248l-117 -115l84 -79l115 114q121 -86 252 -86q126 0 250 86l118 -116l82 84l-118 112q81 125 81 248q0 117 -84 250
l117 117l-82 79l-114 -114q-122 82 -250 82q-124 0 -252 -84l-117 116z" />
    <glyph glyph-name="yen" unicode="&#xa5;" horiz-adv-x="964" 
d="M965 1425l-365 -725h289v-86h-332l-12 -24v-174h344v-86h-344v-330h-127v330h-340v86h340v174l-12 24h-328v86h284l-364 725h133l350 -716l350 716h134z" />
    <glyph glyph-name="brokenbar" unicode="&#xa6;" horiz-adv-x="376" 
d="M242 594h-103v911h103v-911zM242 -516h-103v911h103v-911z" />
    <glyph glyph-name="section" unicode="&#xa7;" horiz-adv-x="931" 
d="M813 637q0 -68 -9.5 -123.5t-32.5 -107t-68 -86.5t-109 -48q95 -24 149 -96.5t54 -159.5q0 -151 -95.5 -241t-240.5 -90q-123 0 -212 76.5t-106 218.5h111q18 -87 72.5 -135t144.5 -48t148.5 55t58.5 152q0 82 -53 133.5t-187 95.5l-80 27q-106 36 -153 117.5t-47 234.5
q0 145 43.5 235t150.5 142q-186 53 -186 232q0 130 86.5 215.5t214.5 85.5q124 0 207.5 -70t99.5 -213h-110q-13 78 -63.5 126t-133.5 48q-91 0 -142 -53.5t-51 -122.5q0 -79 49.5 -121.5t196.5 -89.5q90 -30 139 -54.5t87.5 -67.5t52.5 -105.5t14 -161.5zM700 629v12
q0 55 -1.5 79.5t-11.5 53.5t-32 55q-26 34 -77.5 54t-110.5 20q-49 0 -86.5 -19.5t-58.5 -48t-34.5 -67.5t-17.5 -72t-4 -67q0 -51 10 -97.5t31.5 -90t62.5 -69.5t97 -26q136 0 192 88q25 38 33 82t8 113z" />
    <glyph glyph-name="dieresis" unicode="&#xa8;" horiz-adv-x="843" 
d="M668 1251h-133v138h133v-138zM281 1251h-134v138h134v-138z" />
    <glyph glyph-name="copyright" unicode="&#xa9;" horiz-adv-x="1622" 
d="M1409 897l-2 -375q0 -166 -43 -266q-53 -120 -182.5 -195t-272.5 -75h-221q-330 0 -452 270q-47 102 -50 268v187q0 278 33 376q36 111 90 179q67 79 168.5 125.5t210.5 46.5h221q166 0 282.5 -72t172.5 -199q34 -79 45 -270zM1307 711q0 164 -9 250t-28 134.5t-62 100.5
q-112 143 -299 143h-221q-187 0 -299 -143q-42 -51 -61 -100t-28 -136t-9 -249q0 -167 7.5 -250.5t26.5 -135.5t62 -102q115 -139 301 -139h221q98 0 175.5 38t127.5 99q60 74 77.5 163t17.5 327zM1126 477q-45 -119 -123.5 -182.5t-187.5 -63.5q-99 0 -175.5 48t-113.5 133
q-28 57 -28 172v131q0 158 18 215q26 76 57 114q41 55 106.5 86t135.5 31q109 0 187.5 -63.5t123.5 -182.5h-118q-66 138 -193 138q-101 0 -158 -76q-31 -46 -41 -94t-10 -187q0 -140 10 -188t41 -92q57 -76 158 -76q64 0 113.5 36.5t79.5 100.5h118z" />
    <glyph glyph-name="guillemotleft" unicode="&#xab;" horiz-adv-x="903" 
d="M791 201l-353 344l353 342v-133l-218 -209l218 -211v-133zM463 201l-350 344l350 342v-133l-215 -209l215 -211v-133z" />
    <glyph glyph-name="logicalnot" unicode="&#xac;" horiz-adv-x="1024" 
d="M922 96v393h-922v111h1032v-504h-110z" />
    <glyph glyph-name="sfthyphen" unicode="&#xad;" horiz-adv-x="776" 
d="M109 481h559v115h-559v-115z" />
    <glyph glyph-name="registered" unicode="&#xae;" horiz-adv-x="1622" 
d="M1409 711v-105q0 -57 -2 -84q-5 -101 -13.5 -159t-29.5 -107q-53 -120 -182.5 -195t-272.5 -75h-221q-143 0 -270 74.5t-182 195.5q-45 97 -48 268v187q0 278 33 376q37 115 88 179q67 79 168.5 125.5t210.5 46.5h221q143 0 272.5 -75t182.5 -196q34 -79 45 -270v-186z
M1307 711q0 164 -9 250t-28 134.5t-62 100.5q-112 143 -299 143h-221q-185 0 -303 -139q-60 -74 -77 -162t-17 -327q0 -167 7.5 -250.5t26.5 -135.5t62 -102q115 -139 301 -139h221q98 0 175.5 38t127.5 99q60 74 77.5 163t17.5 327zM1133 303h-123l-174 363h-183v-363h-102
v825h315q138 0 203 -100q39 -53 39 -125q0 -150 -166 -229zM1014 903q0 40 -23 78q-38 57 -127 57h-211v-282h205q69 0 112.5 38.5t43.5 108.5z" />
    <glyph glyph-name="degree" unicode="&#xb0;" horiz-adv-x="759" 
d="M639 1180q0 -106 -76 -182t-182 -76t-183 76t-77 182t77 182t183 76t182 -76t76 -182zM555 1180q0 72 -51 123t-123 51q-73 0 -123.5 -51t-50.5 -123t50.5 -123t123.5 -51q72 0 123 51t51 123z" />
    <glyph glyph-name="plusminus" unicode="&#xb1;" horiz-adv-x="1191" 
d="M1092 584h-445v-299h-102v299h-445v102h445v299h102v-299h445v-102zM1092 0h-992v102h992v-102z" />
    <glyph glyph-name="twosuperior" unicode="&#xb2;" horiz-adv-x="823" 
d="M670 608h-537v97l365 391q59 63 59 118q0 60 -42.5 98t-108.5 38q-60 0 -96.5 -35t-47.5 -94h-98q8 95 72.5 157t162.5 62q119 0 187.5 -65t68.5 -161q0 -86 -57 -145l-354 -373h426v-88z" />
    <glyph glyph-name="threesuperior" unicode="&#xb3;" horiz-adv-x="688" 
d="M602 842q0 -109 -77.5 -175.5t-196.5 -66.5q-87 0 -153.5 44t-90.5 126h96q54 -100 158 -100q67 0 116.5 46t49.5 120q0 77 -45 121t-115 44h-68v64h56q68 0 114 40.5t46 106.5q0 65 -47.5 110.5t-112.5 45.5q-47 0 -88 -27t-60 -79h-98q19 76 86 126t154 50
q116 0 190 -67t74 -157q0 -110 -119 -180h-2q133 -62 133 -192z" />
    <glyph glyph-name="_00B6h" unicode="&#xb6;" horiz-adv-x="942" 
d="M494 -162h-107v996q-147 3 -252.5 99t-105.5 228q0 135 105.5 238.5t248.5 103.5h532v-125h-143v-1540h-106v1540h-172v-1540z" />
    <glyph glyph-name="periodcentered" unicode="&#xb7;" horiz-adv-x="415" 
d="M303 575q0 -41 -27.5 -68.5t-66.5 -27.5q-41 0 -68.5 27.5t-27.5 68.5t27.5 69t68.5 28q39 0 66.5 -28t27.5 -69z" />
    <glyph glyph-name="guillemotright" unicode="&#xbb;" horiz-adv-x="903" 
d="M795 545l-351 -344v133l218 211l-218 209v133zM119 887l350 -342l-350 -344v133l217 211l-217 209v133z" />
    <glyph glyph-name="onehalf" unicode="&#xbd;" horiz-adv-x="1460" 
d="M1393 0h-537v96l365 391q59 63 59 119q0 60 -43 97.5t-109 37.5q-59 0 -95.5 -35t-47.5 -94h-98q8 95 72.5 157t162.5 62q119 0 187.5 -64.5t68.5 -160.5q0 -86 -57 -145l-354 -373h426v-88zM1128 1462l-874 -1497h-94l874 1497h94zM360 598h-96v741l-125 -73v94l125 72
h96v-834z" />
    <glyph glyph-name="Adieresis" unicode="&#xc4;" horiz-adv-x="1212" 
d="M874 1608h-131v133h131v-133zM498 1608h-131v133h131v-133zM1190 0h-139l-121 340h-647l-121 -340h-139l522 1425h125zM893 453l-287 800h-6l-281 -800h574z" />
    <glyph glyph-name="onesuperior" unicode="&#xc5;" horiz-adv-x="1212" 
d="M606 1915q82 0 139.5 -56.5t57.5 -138.5q0 -81 -57.5 -137.5t-139.5 -56.5t-138 56t-56 138t56 138.5t138 56.5zM1190 0h-139l-121 340h-647l-121 -340h-139l522 1425h125zM739 1720q0 54 -39 92.5t-94 38.5t-93 -38.5t-38 -92.5t38 -92.5t93 -38.5t94 38.5t39 92.5z
M893 453l-287 800h-6l-281 -800h574z" />
    <glyph glyph-name="Eacute" unicode="&#xc9;" horiz-adv-x="1095" 
d="M860 1794l-254 -276h-104l196 276h162zM1042 0h-882v1425h882v-120h-747v-525h637v-118h-637v-541h747v-121z" />
    <glyph glyph-name="Odieresis" unicode="&#xd6;" horiz-adv-x="1212" 
d="M846 1608h-131v133h131v-133zM469 1608h-131v133h131v-133zM1083 711q0 -87 -4 -185q-3 -178 -41 -266q-53 -123 -182 -198.5t-270 -75.5q-143 0 -270 75t-183 199q-40 87 -43 266q-2 25 -2 82v203q0 59 2 86q3 179 43 266q56 124 183 199.5t270 75.5q140 0 269.5 -76
t182.5 -199q38 -88 41 -266q4 -102 4 -186zM950 711q0 159 -7.5 241.5t-25 129t-55.5 96.5q-99 129 -276 129q-180 0 -279 -129q-38 -50 -55.5 -96.5t-25 -129t-7.5 -241.5q0 -160 7.5 -242.5t25 -128t55.5 -94.5q100 -131 279 -131q176 0 276 131q38 49 55.5 94.5t25 128
t7.5 242.5z" />
    <glyph glyph-name="Udieresis" unicode="&#xdc;" horiz-adv-x="1255" 
d="M881 1608h-131v133h131v-133zM504 1608h-131v133h131v-133zM1124 467q0 -212 -141.5 -345.5t-353.5 -133.5q-213 0 -354.5 138t-141.5 361v936h133v-911q0 -173 103 -283t260 -110t258.5 99.5t101.5 273.5v931h135v-956z" />
    <glyph glyph-name="germandbls" unicode="&#xdf;" horiz-adv-x="1056" 
d="M942 467q0 -99 -22 -181.5t-67.5 -148.5t-123.5 -102.5t-182 -36.5h-105v119h97q270 0 270 364v37q-2 49 -15 91t-39 78t-71.5 56.5t-105.5 20.5h-136v104h107q59 0 104 21.5t69.5 55.5t36 71t11.5 74q0 36 -15 76t-43.5 77t-78 61.5t-109.5 24.5q-73 0 -126 -21.5
t-81 -59t-40.5 -79.5t-12.5 -92v-1077h-123v1069q0 177 105 271t293 94q80 0 149 -31t112.5 -79.5t68 -105.5t24.5 -112q0 -96 -36 -168.5t-128 -118.5q67 -12 111.5 -45t65.5 -84.5t28.5 -102.5t7.5 -120z" />
    <glyph glyph-name="agrave" unicode="&#xe0;" 
d="M602 1155h-102l-236 285h164zM455 1026q202 0 301 -72q112 -76 112 -254v-700h-125q0 96 -6 90q-31 -48 -117 -76t-192 -28q-155 0 -240 57q-122 81 -122 236q0 58 19.5 110t57.5 94t99.5 67t138.5 25h362v148q0 93 -75.5 139.5t-202.5 46.5q-69 0 -136.5 -30.5
t-111.5 -75.5l-82 88q61 64 144 99.5t176 35.5zM182 289q0 -86 68 -136.5t190 -50.5q153 0 234 56q69 50 69 137v174h-319q-112 0 -177 -46t-65 -134z" />
    <glyph glyph-name="acircumflex" unicode="&#xe2;" 
d="M776 1153h-114l-170 207l-164 -207h-115l199 287h166zM455 1026q202 0 301 -72q112 -76 112 -254v-700h-125q0 96 -6 90q-31 -48 -117 -76t-192 -28q-152 0 -240 59q-122 83 -122 234q0 58 19.5 110t57.5 94t99.5 67t138.5 25h362v148q0 93 -75.5 139.5t-202.5 46.5
q-69 0 -136.5 -30.5t-111.5 -75.5l-82 88q61 64 144 99.5t176 35.5zM182 289q0 -86 68 -136.5t190 -50.5q153 0 234 56q69 50 69 137v174h-319q-112 0 -177 -46t-65 -134z" />
    <glyph glyph-name="adieresis" unicode="&#xe4;" 
d="M745 1253h-133v136h133v-136zM360 1253h-133v136h133v-136zM455 1026q202 0 301 -72q112 -76 112 -254v-700h-125q0 96 -6 90q-31 -48 -117 -76t-192 -28q-152 0 -240 59q-122 83 -122 234q0 58 19.5 110t57.5 94t99.5 67t138.5 25h362v148q0 93 -75.5 139.5t-202.5 46.5
q-69 0 -136.5 -30.5t-111.5 -75.5l-82 88q61 64 144 99.5t176 35.5zM182 289q0 -86 68 -136.5t190 -50.5q153 0 234 56q69 50 69 137v174h-319q-112 0 -177 -46t-65 -134z" />
    <glyph glyph-name="ccedilla" unicode="&#xe7;" horiz-adv-x="864" 
d="M829 113l-79 90q-97 -94 -226 -94q-166 0 -254 100.5t-88 296.5q0 198 88 297.5t254 99.5q127 0 226 -92l77 92q-136 123 -311 123q-90 0 -169.5 -29t-145 -88t-104 -162.5t-38.5 -240.5q0 -122 30.5 -216.5t85.5 -155t123.5 -95.5t152.5 -49l-62 -185q47 -19 78 -28
q43 24 78 24q41 0 67.5 -23.5t26.5 -70.5q0 -46 -40.5 -70t-109.5 -24q-90 0 -178 43q-6 -15 -19 -43.5t-18 -40.5q109 -59 226 -59q105 0 175 51.5t70 136.5q0 73 -45 124.5t-125 51.5q-24 0 -86 -12l39 123q172 6 301 125z" />
    <glyph glyph-name="egrave" unicode="&#xe8;" 
d="M602 1155h-102l-236 285h164zM911 475h-694q0 -80 17 -145t52.5 -117t97.5 -80.5t146 -28.5q128 0 240 89l80 -93q-129 -112 -313 -112q-67 0 -127 14t-120 51t-103 93.5t-70 148.5t-27 209q0 111 25 201t65 148.5t94.5 98.5t110.5 57t115 17q173 0 292 -119.5
t119 -322.5v-109zM784 586q-6 158 -82 240.5t-202 82.5q-122 0 -197.5 -84.5t-85.5 -238.5h567z" />
    <glyph glyph-name="eacute" unicode="&#xe9;" 
d="M733 1440l-235 -285h-103l172 285h166zM911 475h-694q0 -80 17 -145t52.5 -117t97.5 -80.5t146 -28.5q128 0 240 89l80 -93q-129 -112 -313 -112q-67 0 -127 14t-120 51t-103 93.5t-70 148.5t-27 209q0 116 25 208.5t65 150t95 95.5t110 53t115 15q173 0 292 -119.5
t119 -322.5v-109zM784 586q-6 158 -82 240.5t-202 82.5q-122 0 -197.5 -84.5t-85.5 -238.5h567z" />
    <glyph glyph-name="ecircumflex" unicode="&#xea;" 
d="M776 1153h-114l-170 207l-164 -207h-115l199 287h166zM911 475h-694q0 -80 17 -145t52.5 -117t97.5 -80.5t146 -28.5q128 0 240 89l80 -93q-129 -112 -313 -112q-67 0 -127 14t-120 51t-103 93.5t-70 148.5t-27 209q0 116 25 208.5t65 150t95 95.5t110 53t115 15
q173 0 292 -119.5t119 -322.5v-109zM784 586q-6 158 -82 240.5t-202 82.5q-122 0 -197.5 -84.5t-85.5 -238.5h567z" />
    <glyph glyph-name="edieresis" unicode="&#xeb;" 
d="M774 1253h-133v136h133v-136zM389 1253h-133v136h133v-136zM911 475h-694q0 -80 17 -145t52.5 -117t97.5 -80.5t146 -28.5q128 0 240 89l80 -93q-129 -112 -313 -112q-67 0 -127 14t-120 51t-103 93.5t-70 148.5t-27 209q0 116 25 208.5t65 150t95 95.5t110 53t115 15
q173 0 292 -119.5t119 -322.5v-109zM784 586q-6 158 -82 240.5t-202 82.5q-122 0 -197.5 -84.5t-85.5 -238.5h567z" />
    <glyph glyph-name="icircumflex" unicode="&#xee;" horiz-adv-x="425" 
d="M500 1153h-115l-170 207l-164 -207h-114l196 287h168zM274 0h-122v1012h122v-1012z" />
    <glyph glyph-name="idieresis" unicode="&#xef;" horiz-adv-x="425" 
d="M475 1253h-133v136h133v-136zM90 1253h-133v136h133v-136zM274 0h-122v1012h122v-1012z" />
    <glyph glyph-name="ocircumflex" unicode="&#xf4;" 
d="M784 1153h-114l-168 207l-166 -207h-115l199 287h166zM911 508q0 -145 -18 -222.5t-57 -133.5q-120 -164 -336 -164q-215 0 -340 172q-37 52 -53.5 130t-16.5 218q0 156 23.5 245.5t107.5 170.5q110 102 279 102q170 0 280 -102q82 -78 106.5 -170t24.5 -246zM788 506
q0 103 -8 159t-32 99q-37 70 -102.5 106.5t-145.5 36.5q-75 0 -137 -32.5t-101 -96.5q-29 -47 -39 -104t-10 -166q0 -116 18 -178q26 -89 62 -133q77 -88 207 -88q110 0 186 61q54 43 74 106t26 152q2 14 2 39v39z" />
    <glyph glyph-name="odieresis" unicode="&#xf6;" 
d="M768 1253h-133v136h133v-136zM381 1253h-133v136h133v-136zM911 508q0 -145 -18 -222.5t-57 -133.5q-120 -164 -336 -164q-215 0 -340 172q-37 52 -53.5 130t-16.5 218q0 156 23.5 245.5t107.5 170.5q110 102 279 102q170 0 280 -102q82 -78 106.5 -170t24.5 -246z
M788 506q0 103 -8 159t-32 99q-37 70 -102.5 106.5t-145.5 36.5q-75 0 -137 -32.5t-101 -96.5q-29 -47 -39 -104t-10 -166q0 -116 18 -178q26 -89 62 -133q77 -88 207 -88q110 0 186 61q54 43 74 106t26 152q2 14 2 39v39z" />
    <glyph glyph-name="divide" unicode="&#xf7;" horiz-adv-x="1191" 
d="M690 936q0 -39 -26.5 -66.5t-67.5 -27.5t-68.5 27.5t-27.5 66.5t27.5 66.5t68.5 27.5t67.5 -27.5t26.5 -66.5zM1092 440h-992v99h992v-99zM596 143q41 0 67.5 -27.5t26.5 -66.5t-26.5 -66.5t-67.5 -27.5t-68.5 27.5t-27.5 66.5t27.5 66.5t68.5 27.5z" />
    <glyph glyph-name="ugrave" unicode="&#xf9;" horiz-adv-x="1083" 
d="M639 1155h-102l-236 285h164zM934 0h-123v123h-6q-52 -70 -133 -103.5t-168 -33.5q-65 0 -129 24t-116.5 67.5t-85 111t-32.5 147.5v676h123v-613q0 -131 77 -210.5t196 -79.5q121 0 197.5 78.5t76.5 211.5v613h123v-1012z" />
    <glyph glyph-name="ucircumflex" unicode="&#xfb;" horiz-adv-x="1083" 
d="M823 1153h-114l-170 207l-164 -207h-115l199 287h166zM934 0h-123v123h-6q-52 -70 -133 -103.5t-168 -33.5q-65 0 -129 24t-116.5 67.5t-85 111t-32.5 147.5v676h123v-613q0 -131 77 -210.5t196 -79.5q121 0 197.5 78.5t76.5 211.5v613h123v-1012z" />
    <glyph glyph-name="udieresis" unicode="&#xfc;" horiz-adv-x="1083" 
d="M801 1253h-135v136h135v-136zM414 1253h-133v136h133v-136zM934 0h-123v123h-6q-52 -70 -133 -103.5t-168 -33.5q-65 0 -129 24t-116.5 67.5t-85 111t-32.5 147.5v676h123v-613q0 -131 77 -210.5t196 -79.5q121 0 197.5 78.5t76.5 211.5v613h123v-1012z" />
    <glyph glyph-name="oe" unicode="&#x153;" horiz-adv-x="1699" 
d="M1610 455h-699q0 -186 87 -272.5t233 -86.5q134 0 246 92l88 -75q-136 -125 -330 -125q-134 0 -230 51.5t-153 173.5q-29 -60 -70 -104.5t-87.5 -70.5t-95 -38t-99.5 -12q-184 0 -301 125q-61 65 -85 145.5t-24 249.5q0 165 24.5 243t84.5 148q118 127 301 127
q109 0 203 -51.5t151 -171.5q36 81 96 133t120.5 71t127.5 19q110 0 204 -54.5t151 -156t57 -227.5v-133zM1501 555q-7 170 -91 266.5t-212 96.5q-126 0 -204.5 -92t-84.5 -271h592zM788 506q0 119 -13 183t-50 122q-36 50 -95 78.5t-130 28.5t-130.5 -28.5t-95.5 -78.5
q-36 -58 -48.5 -121t-12.5 -182q0 -122 12 -185t49 -120q36 -50 95.5 -78.5t130.5 -28.5t130 28.5t95 78.5q36 56 49.5 121t13.5 182z" />
    <glyph glyph-name="tonos" unicode="&#x384;" horiz-adv-x="843" 
d="M655 1440l-235 -285h-103l172 285h166z" />
    <glyph glyph-name="dieresistonos" unicode="&#x385;" horiz-adv-x="804" 
d="M711 1251h-133v138h133v-138zM561 1440l-235 -285h-103l172 285h166zM221 1251h-135v138h135v-138z" />
    <glyph glyph-name="Alphatonos" unicode="&#x386;" horiz-adv-x="1212" 
d="M338 1440l-229 -277h-103l170 277h162zM1190 0h-139l-121 340h-647l-121 -340h-139l522 1425h125zM893 453l-287 800h-6l-281 -800h574z" />
    <glyph glyph-name="Epsilontonos" unicode="&#x388;" horiz-adv-x="1095" 
d="M1042 0h-882v1425h882v-120h-747v-525h637v-118h-637v-541h747v-121zM76 1442l-232 -277h-100l168 277h164z" />
    <glyph glyph-name="Etatonos" unicode="&#x389;" horiz-adv-x="1294" 
d="M1135 0h-136v664h-704v-664h-135v1425h135v-647h704v647h136v-1425zM82 1442l-232 -277h-100l170 277h162z" />
    <glyph glyph-name="Iotatonos" unicode="&#x38a;" horiz-adv-x="454" 
d="M90 1442l-229 -277h-103l170 277h162zM295 0h-135v1425h135v-1425z" />
    <glyph glyph-name="Omicrontonos" unicode="&#x38c;" horiz-adv-x="1175" 
d="M1083 711q0 -87 -4 -185q-3 -178 -41 -266q-53 -123 -182 -198.5t-270 -75.5q-143 0 -270 75t-183 199q-23 50 -31.5 109t-11.5 157q-7 274 0 371q1 10 3 40.5t2.5 40t3 34t4 35t4.5 30t6.5 31.5t8.5 27t11 28q56 124 183 199.5t270 75.5q140 0 269.5 -76t182.5 -199
q38 -88 41 -266q4 -102 4 -186zM98 1442l-229 -277h-100l168 277h161zM950 711q0 159 -7.5 241.5t-25 129t-55.5 96.5q-99 129 -276 129q-180 0 -279 -129q-38 -50 -55.5 -96.5t-25 -129t-7.5 -241.5q0 -160 7.5 -242.5t25 -128t55.5 -94.5q100 -131 279 -131q176 0 276 131
q38 49 55.5 94.5t25 128t7.5 242.5z" />
    <glyph glyph-name="Upsilontonos" unicode="&#x38e;" horiz-adv-x="974" 
d="M977 1425l-424 -835v-590h-129v590l-428 835h141l350 -710l353 710h137zM-51 1442l-232 -277h-100l168 277h164z" />
    <glyph glyph-name="Omegatonos" unicode="&#x38f;" horiz-adv-x="1175" 
d="M1116 0h-416v143q86 28 140.5 87t79.5 137q18 56 25 126.5t7 217.5q0 159 -7.5 241.5t-25 129t-55.5 96.5q-44 58 -115 93.5t-163 35.5q-93 0 -165 -35.5t-116 -93.5q-38 -50 -55.5 -96.5t-25 -129t-7.5 -241.5q0 -158 9 -233.5t30 -131.5q28 -70 84 -125.5t131 -79.5
v-141h-416v121h221q-61 44 -96 101t-61 138q-31 101 -33 199q-1 18 -1 40.5t0.5 56t0.5 55.5v100q0 59 2 86q3 173 43 266q56 123 184 199t271 76q142 0 271.5 -76t182.5 -199q38 -88 41 -266q2 -27 2 -86v-199q0 -55 -2 -80q-3 -145 -37 -229q-45 -114 -149 -182h221v-121z
M84 1442l-231 -277h-101l170 277h162z" />
    <glyph glyph-name="iotadieresistonos" unicode="&#x390;" horiz-adv-x="466" 
d="M535 1253h-134v136h134v-136zM387 1440l-235 -285h-103l172 285h166zM45 1253h-133v136h133v-136zM430 0h-49q-114 0 -175 52t-61 169v793h123v-776q0 -129 135 -129h27v-109z" />
    <glyph glyph-name="Alpha" unicode="&#x391;" horiz-adv-x="1212" 
d="M1190 0h-139l-121 340h-647l-121 -340h-139l522 1425h125zM893 453l-287 800h-6l-281 -800h574z" />
    <glyph glyph-name="Beta" unicode="&#x392;" horiz-adv-x="1212" 
d="M1135 383q0 -114 -54 -203t-141 -134.5t-190 -45.5h-590v1425h536q200 0 307 -98.5t107 -261.5q0 -36 -4 -67.5t-17.5 -71t-35.5 -72t-62.5 -65t-95.5 -56.5v-4q83 -18 139.5 -76.5t78.5 -126.5t22 -143zM680 1309h-385v-523h385q142 0 219.5 74t77.5 191
q0 114 -77.5 186t-219.5 72zM700 674h-405v-553h405q144 0 221.5 79.5t77.5 196.5t-77.5 197t-221.5 80z" />
    <glyph glyph-name="Gamma" unicode="&#x393;" horiz-adv-x="1054" 
d="M1042 1305h-747v-1305h-135v1425h882v-120z" />
    <glyph glyph-name="Delta" unicode="&#x394;" horiz-adv-x="1212" 
d="M1190 0h-1167l522 1425h125zM1008 115l-402 1138h-6l-397 -1138h805z" />
    <glyph glyph-name="Epsilon" unicode="&#x395;" horiz-adv-x="1095" 
d="M1042 0h-882v1425h882v-120h-747v-525h637v-118h-637v-541h747v-121z" />
    <glyph glyph-name="Zeta" unicode="&#x396;" horiz-adv-x="1015" 
d="M948 0h-880v121l735 1188h-707v116h852v-116l-733 -1188h733v-121z" />
    <glyph glyph-name="Eta" unicode="&#x397;" horiz-adv-x="1294" 
d="M1135 0h-136v664h-704v-664h-135v1425h135v-647h704v647h136v-1425z" />
    <glyph glyph-name="Theta" unicode="&#x398;" horiz-adv-x="1175" 
d="M1083 711q0 -87 -4 -185q-3 -178 -41 -266q-53 -123 -182 -198.5t-270 -75.5q-143 0 -270 75t-183 199q-40 87 -43 266q-2 25 -2 82v203q0 59 2 86q3 176 43 266q56 124 183 199.5t270 75.5q140 0 269.5 -76t182.5 -199q38 -91 41 -266q4 -102 4 -186zM948 778
q-3 134 -13 207.5t-25.5 109t-49.5 81.5q-44 58 -114.5 93.5t-159.5 35.5q-178 0 -277 -129q-34 -46 -49.5 -81.5t-25.5 -109t-13 -207.5h727zM948 662h-727q4 -201 21 -276t67 -138q99 -129 277 -129q89 0 159.5 35.5t114.5 93.5q50 63 67 138t21 276z" />
    <glyph glyph-name="Iota" unicode="&#x399;" horiz-adv-x="454" 
d="M295 0h-135v1425h135v-1425z" />
    <glyph glyph-name="Kappa" unicode="&#x39a;" horiz-adv-x="1255" 
d="M1217 0h-158l-445 766l-319 -375v-391h-135v1425h135v-845l6 4l700 841h150l-446 -548z" />
    <glyph glyph-name="Lambda" unicode="&#x39b;" horiz-adv-x="1212" 
d="M1190 0h-139q-7 21 -136 381q-18 56 -53 153.5t-107.5 300.5t-148.5 418h-6q-284 -814 -303 -872q-13 -37 -52 -149t-83 -232h-139l522 1425h125z" />
    <glyph glyph-name="Mu" unicode="&#x39c;" horiz-adv-x="1531" 
d="M1401 0h-133v1133l-6 -7l-416 -907h-131l-418 914l-2 -7v-1126h-135v1425h143l479 -1050l480 1050h139v-1425z" />
    <glyph glyph-name="Nu" unicode="&#x39d;" horiz-adv-x="1372" 
d="M1219 0h-144l-778 1198l-2 -6v-1192h-135v1425h143l778 -1204l2 6v1198h136v-1425z" />
    <glyph glyph-name="Xi" unicode="&#x39e;" horiz-adv-x="1150" 
d="M1022 1305h-903v120h903v-120zM907 662h-674v116h674v-116zM1022 0h-903v121h903v-121z" />
    <glyph glyph-name="Omicron" unicode="&#x39f;" horiz-adv-x="1175" 
d="M1083 711q0 -87 -4 -185q-3 -178 -41 -266q-53 -123 -182 -198.5t-270 -75.5q-143 0 -270 75t-183 199q-40 87 -43 266q-2 25 -2 82v203q0 59 2 86q3 179 43 266q56 124 183 199.5t270 75.5q140 0 269.5 -76t182.5 -199q38 -88 41 -266q4 -102 4 -186zM950 711
q0 159 -7.5 241.5t-25 129t-55.5 96.5q-99 129 -276 129q-180 0 -279 -129q-38 -50 -55.5 -96.5t-25 -129t-7.5 -241.5q0 -160 7.5 -242.5t25 -128t55.5 -94.5q100 -131 279 -131q176 0 276 131q38 49 55.5 94.5t25 128t7.5 242.5z" />
    <glyph glyph-name="Pi" unicode="&#x3a0;" horiz-adv-x="1294" 
d="M1135 0h-136v1309h-704v-1309h-135v1425h975v-1425z" />
    <glyph glyph-name="Rho" unicode="&#x3a1;" horiz-adv-x="1157" 
d="M1128 1004q0 -78 -30 -153.5t-88 -133.5q-123 -123 -314 -123h-401v-594h-135v1425h506q291 0 405 -202q57 -96 57 -219zM993 1010q0 142 -88 218.5t-225 76.5h-385v-590h393q122 0 201 67q52 41 78 102t26 126z" />
    <glyph glyph-name="Sigma" unicode="&#x3a3;" horiz-adv-x="1015" 
d="M948 0h-880v121l366 612l-358 576v116h852v-116h-705l365 -576l-373 -612h733v-121z" />
    <glyph glyph-name="Tau" unicode="&#x3a4;" horiz-adv-x="974" 
d="M975 1309h-420v-1309h-135v1309h-418v116h973v-116z" />
    <glyph glyph-name="Upsilon" unicode="&#x3a5;" horiz-adv-x="974" 
d="M977 1425l-424 -835v-590h-129v590l-428 835h141l350 -710l353 710h137z" />
    <glyph glyph-name="Phi" unicode="&#x3a6;" horiz-adv-x="1501" 
d="M1415 729q0 -290 -155 -451.5t-441 -162.5v-115h-135v115q-124 0 -228.5 36.5t-186.5 109t-128.5 192t-46.5 274.5q0 632 590 635v63h135v-63q596 0 596 -633zM1286 729q0 262 -115 385t-352 125v-1001q99 0 178 24.5t132.5 67.5t89 105t51.5 135t16 159zM684 1239
q-103 -1 -183.5 -28.5t-132 -73.5t-85 -112t-47 -137.5t-13.5 -154.5q0 -88 15.5 -161t50 -136t87 -106t131 -67.5t177.5 -24.5v1001z" />
    <glyph glyph-name="Chi" unicode="&#x3a7;" horiz-adv-x="1052" 
d="M1038 0h-147l-365 610l-364 -610h-148l441 731l-410 694h148l333 -571l334 571h150l-412 -694z" />
    <glyph glyph-name="Psi" unicode="&#x3a8;" horiz-adv-x="1484" 
d="M1354 758q0 -214 -148 -344t-397 -138v-276h-133v276q-252 8 -398.5 142.5t-146.5 359.5v647h133v-622q0 -178 110 -282.5t302 -110.5v1015h133v-1015q193 5 302.5 100t109.5 272v643h133v-667z" />
    <glyph glyph-name="Omega" unicode="&#x3a9;" horiz-adv-x="1175" 
d="M1116 0h-416v143q86 28 140.5 87t79.5 137q18 56 25 126.5t7 217.5q0 159 -7.5 241.5t-25 129t-55.5 96.5q-44 58 -115 93.5t-163 35.5q-93 0 -165 -35.5t-116 -93.5q-38 -50 -55.5 -96.5t-25 -129t-7.5 -241.5q0 -158 9 -233.5t30 -131.5q28 -70 84 -125.5t131 -79.5
v-141h-416v121h221q-61 44 -96 101t-61 138q-31 101 -33 199q-1 35 -0.5 185.5t2.5 152.5q3 173 43 266q56 123 184 199t271 76q141 0 270 -76.5t182 -198.5q40 -93 43 -266q2 -27 2 -186q0 -154 -2 -179q-3 -145 -37 -229q-45 -114 -149 -182h221v-121z" />
    <glyph glyph-name="Iotadieresis" unicode="&#x3aa;" horiz-adv-x="454" 
d="M492 1608h-132v133h132v-133zM115 1608h-131v133h131v-133zM295 0h-135v1423h135v-1423z" />
    <glyph glyph-name="Upsilondieresis" unicode="&#x3ab;" horiz-adv-x="974" 
d="M748 1628h-132v133h132v-133zM373 1628h-131v133h131v-133zM977 1425l-424 -835v-590h-129v590l-428 835h141l350 -710l353 710h137z" />
    <glyph glyph-name="alphatonos" unicode="&#x3ac;" horiz-adv-x="1038" 
d="M764 1440l-236 -285h-102l174 285h164zM913 0h-122v127q-116 -141 -304 -141q-99 0 -172.5 38t-117 107t-64 155.5t-20.5 192.5q0 89 10 164.5t36.5 147.5t67.5 122t107.5 80.5t152.5 30.5q196 0 304 -145v133h122v-1012zM791 504q0 399 -273 399q-59 0 -105.5 -16.5
t-75.5 -47.5t-48.5 -67.5t-28.5 -85t-12.5 -90t-3.5 -92.5q0 -63 5 -113.5t22.5 -105.5t46 -91.5t80 -60.5t120.5 -24q273 0 273 395z" />
    <glyph glyph-name="epsilontonos" unicode="&#x3ad;" horiz-adv-x="890" 
d="M709 1440l-236 -285h-102l174 285h164zM842 113q-64 -56 -152.5 -88.5t-185.5 -32.5q-170 0 -279.5 87t-109.5 216q0 28 8 57.5t26 62.5t54.5 62.5t87.5 46.5q-162 55 -162 215q0 112 104 199.5t275 87.5q95 0 181.5 -33.5t150.5 -91.5l-78 -90q-48 42 -112.5 67
t-129.5 25q-104 0 -186 -46t-82 -120q0 -71 68.5 -116.5t173.5 -45.5h122v-102h-137q-98 0 -169.5 -49.5t-71.5 -132.5q0 -56 44 -99t107 -63t131 -20q64 0 128.5 26t113.5 68z" />
    <glyph glyph-name="etatonos" unicode="&#x3ae;" horiz-adv-x="1056" 
d="M692 1440l-235 -285h-105l174 285h166zM926 0h-125v612q0 133 -76.5 212t-196.5 79t-196 -79t-76 -212v-612h-125v1012h125v-123h4q52 69 133.5 102t167.5 33q64 0 128 -24t117.5 -67.5t86.5 -111t33 -147.5v-674z" />
    <glyph glyph-name="iotatonos" unicode="&#x3af;" horiz-adv-x="466" 
d="M457 1440l-236 -285h-102l172 285h166zM430 0h-49q-114 0 -175 52t-61 169v793h123v-776q0 -129 135 -129h27v-109z" />
    <glyph glyph-name="upsilondieresistonos" unicode="&#x3b0;" horiz-adv-x="1083" 
d="M858 1253h-133v136h133v-136zM711 1440l-238 -285h-102l174 285h166zM369 1253h-133v136h133v-136zM940 1012v-666q0 -102 -57 -185.5t-148 -128t-194 -44.5q-102 0 -192.5 45.5t-147 129t-56.5 183.5v666h123v-613q0 -133 77 -211.5t198 -78.5t197.5 78.5t76.5 211.5
v613h123z" />
    <glyph glyph-name="alpha" unicode="&#x3b1;" horiz-adv-x="1038" 
d="M911 0h-123v127q-116 -141 -303 -141q-79 0 -143 26.5t-106.5 71.5t-71 108.5t-41 135t-12.5 153.5q0 543 374 543q195 0 303 -145v133h123v-1012zM788 504q0 399 -272 399q-59 0 -105.5 -16.5t-75.5 -47.5t-48.5 -67.5t-28.5 -85t-12.5 -90t-3.5 -92.5q0 -63 5 -113.5
t22.5 -105.5t46 -91.5t80 -60.5t120.5 -24q272 0 272 395z" />
    <glyph glyph-name="beta" unicode="&#x3b2;" horiz-adv-x="1056" 
d="M946 467q0 -79 -13 -148.5t-42.5 -131t-73 -106t-108 -70t-144.5 -25.5q-59 0 -105 8t-102 41.5t-94 91.5v-127h-123v1069q0 179 100 272t287 93q80 0 149 -31.5t113 -80.5t68.5 -106t24.5 -110q0 -48 -5.5 -85t-21 -76t-47.5 -70.5t-80 -55.5q68 -12 113 -45t66.5 -84
t29.5 -102.5t8 -120.5zM813 530q0 100 -58 167t-177 67h-168v104h139q48 0 85.5 14.5t60.5 37t38 53t21 59t6 58.5q0 36 -13.5 75.5t-40 77t-74.5 62t-108 24.5q-260 0 -260 -252v-583q0 -390 277 -390q52 0 94 14.5t70 38t48.5 59t32 70.5t18 81t8 82t1.5 81z" />
    <glyph glyph-name="gamma" unicode="&#x3b3;" horiz-adv-x="841" 
d="M844 1014l-365 -971v-453h-125v447l-241 698q-25 73 -54.5 117.5t-76.5 60.5l47 107q59 -16 102 -57t57 -86q10 -32 34.5 -100t35.5 -101q60 -165 110 -309t46 -144h8l291 791h131z" />
    <glyph glyph-name="delta" unicode="&#x3b4;" 
d="M911 483q0 -138 -18 -211.5t-57 -126.5q-121 -157 -336 -157q-220 0 -340 166q-37 49 -53.5 123t-16.5 206q0 88 10 154t37 131.5t80.5 114t134.5 80.5q-80 45 -117.5 95t-37.5 130q0 122 90.5 186t249.5 64q174 0 307 -70l-58 -108q-120 63 -249 63q-209 0 -209 -133
q0 -38 25.5 -70.5t68.5 -57t85 -42.5t91.5 -37t71.5 -31q96 -51 143 -100q60 -63 79 -150.5t19 -218.5zM788 481q0 84 -10.5 144t-37 113.5t-76.5 91t-125 61.5q-91 0 -161.5 -38t-113.5 -103q-29 -44 -40 -103t-11 -164q0 -94 15.5 -167.5t64.5 -127.5q80 -86 207 -86
q103 0 184 60q55 43 76 103t26 143q2 12 2 36v37z" />
    <glyph glyph-name="epsilon" unicode="&#x3b5;" horiz-adv-x="890" 
d="M842 113q-64 -56 -152.5 -88.5t-185.5 -32.5q-170 0 -279.5 88t-109.5 217q0 26 8 55.5t26 63t55 63.5t87 47q-162 48 -162 213q0 112 104 199.5t275 87.5q95 0 181.5 -33.5t150.5 -91.5l-78 -90q-48 42 -112.5 67t-129.5 25q-104 0 -186 -46t-82 -120q0 -71 68.5 -116.5
t173.5 -45.5h122v-100h-137q-97 0 -169 -50.5t-72 -133.5q0 -82 87 -132t195 -50q64 0 128.5 26t113.5 68z" />
    <glyph glyph-name="zeta" unicode="&#x3b6;" horiz-adv-x="761" 
d="M838 1311q-170 -126 -309 -275.5t-225.5 -312t-86.5 -297.5q0 -113 60.5 -184.5t164.5 -104.5l215 -69q118 -39 155.5 -109t2.5 -147l-88 -197l-113 47l66 137q29 58 16 92.5t-78 55.5l-249 82q-130 41 -209.5 144.5t-79.5 248.5q0 91 34.5 194t105 218t191 240.5
t279.5 242.5h-536v108h684v-114z" />
    <glyph glyph-name="eta" unicode="&#x3b7;" horiz-adv-x="1056" 
d="M926 0h-125v612q0 133 -76.5 212t-196.5 79t-196 -79t-76 -212v-612h-125v1012h125v-123h4q52 69 134 103t167 34q64 0 128 -24.5t117 -68t86.5 -111.5t33.5 -148v-674z" />
    <glyph glyph-name="theta" unicode="&#x3b8;" 
d="M911 713q0 -41 -1 -102.5t-1 -82.5v-20q-4 -164 -26 -236q-32 -98 -70 -143q-120 -141 -313 -141q-223 0 -340 168q-32 46 -48.5 112.5t-19 114.5t-2.5 125v20v398q0 76 3 121.5t15 102t40 101.5t73 86q111 103 279 103q169 0 282 -101q45 -41 72.5 -85.5t39 -102
t14.5 -102.5t3 -123v-213zM793 793v143q0 166 -45 246q-37 67 -102.5 102t-145.5 35q-157 0 -238 -123q-53 -82 -53 -248v-155h584zM793 686h-584v-201q0 -57 2 -88q6 -113 65 -188q79 -103 224 -103q109 0 184 62q58 43 83.5 147.5t25.5 214.5v156z" />
    <glyph glyph-name="iota" unicode="&#x3b9;" horiz-adv-x="466" 
d="M430 0h-49q-114 0 -175 52t-61 169v793h123v-776q0 -129 135 -129h27v-109z" />
    <glyph glyph-name="kappa" unicode="&#x3ba;" horiz-adv-x="1013" 
d="M993 0h-137l-356 551l-232 -264v-287h-123v1014h123v-557l494 555h149l-331 -373z" />
    <glyph glyph-name="lambda" unicode="&#x3bb;" horiz-adv-x="899" 
d="M664 176l-211 647h-7l-309 -823h-131l385 987l-63 199q-23 71 -67 97.5t-124 31.5v106q117 0 187 -37.5t106 -144.5l340 -1010q25 -74 52 -96.5t91 -30.5v-108q-103 5 -160 42.5t-89 139.5z" />
    <glyph glyph-name="mu" unicode="&#x3bc;" horiz-adv-x="1067" 
d="M938 0h-123v123h-6q-52 -69 -133.5 -103t-167.5 -34q-63 0 -127 26t-113 72v-494h-123v1424h123v-615q0 -131 77 -210.5t196 -79.5q121 0 197.5 78.5t76.5 211.5v613h123v-1012z" />
    <glyph glyph-name="nu" unicode="&#x3bd;" horiz-adv-x="892" 
d="M870 1014l-374 -1014h-115l-373 1014h131l297 -826h10l291 826h133z" />
    <glyph glyph-name="xi" unicode="&#x3be;" horiz-adv-x="825" 
d="M856 1362l-55 -102q-114 63 -256 63q-111 0 -203 -68t-92 -174q0 -76 46 -129.5t113 -76.5t146 -23h190v-109h-243q-126 0 -209.5 -96.5t-83.5 -222.5q0 -116 62.5 -183.5t170.5 -103.5l215 -69q118 -39 155.5 -109t2.5 -147l-88 -197l-113 47l66 137q29 58 16 92.5
t-78 55.5l-249 82q-132 43 -210.5 142.5t-78.5 242.5q0 49 10 99t34.5 108.5t77.5 107.5t128 74q-59 16 -102 49t-65 74t-32 80t-10 79q0 100 58.5 181.5t152 125.5t200.5 44q207 0 324 -74z" />
    <glyph glyph-name="omicron" unicode="&#x3bf;" 
d="M911 508q0 -145 -18 -222.5t-57 -133.5q-120 -164 -336 -164q-215 0 -340 172q-37 52 -53.5 130t-16.5 218q0 156 23.5 245.5t107.5 170.5q110 102 279 102q170 0 280 -102q82 -78 106.5 -170t24.5 -246zM788 506q0 103 -8 159t-32 99q-37 70 -102.5 106.5t-145.5 36.5
q-75 0 -137 -32.5t-101 -96.5q-29 -47 -39 -104t-10 -166q0 -8 -0.5 -35.5t0 -42t1.5 -37t3.5 -40.5t7.5 -34q18 -60 68 -122q77 -88 207 -88q110 0 186 61q54 43 74 106t26 152q2 14 2 39v39z" />
    <glyph glyph-name="pi" unicode="&#x3c0;" horiz-adv-x="1083" 
d="M938 0h-123v903h-547v-903h-123v1014h793v-1014z" />
    <glyph glyph-name="rho" unicode="&#x3c1;" horiz-adv-x="1034" 
d="M928 487q0 -80 -11.5 -150t-39 -135.5t-69.5 -112.5t-107.5 -75t-147.5 -28q-89 0 -162 27.5t-141 111.5v-535h-123v918q0 158 22.5 247.5t104.5 168.5q106 102 274 102q167 0 273 -102q81 -78 104 -176.5t23 -260.5zM799 504q0 108 -6.5 162t-28.5 96q-72 141 -240 141
q-72 0 -133 -31.5t-98 -95.5q-29 -48 -38 -103t-9 -165q0 -208 71 -303q70 -96 205 -96q108 0 172 55q62 51 83.5 138t21.5 202z" />
    <glyph glyph-name="sigma1" unicode="&#x3c2;" horiz-adv-x="880" 
d="M870 903l-77 -92q-99 92 -226 92q-166 0 -253 -99t-87 -298q0 -130 49.5 -215.5t165.5 -130.5l252 -97q201 -76 127 -241l-88 -195l-112 49l65 134q31 56 18.5 89.5t-79.5 59.5l-234 86q-160 59 -223.5 170t-63.5 291q0 110 25.5 199t68.5 148t102 98.5t123.5 57
t135.5 17.5q175 0 311 -123z" />
    <glyph glyph-name="sigma" unicode="&#x3c3;" horiz-adv-x="1042" 
d="M965 903h-183q81 -74 105 -166t24 -235q0 -250 -75 -352q-122 -162 -336 -162q-220 0 -340 170q-37 50 -53.5 128t-16.5 216q0 152 24 241.5t107 167.5q109 101 279 101h465v-109zM788 500q0 103 -8 158t-32 98q-38 68 -103.5 104.5t-144.5 36.5q-163 0 -238 -127
q-30 -50 -39.5 -103.5t-9.5 -164.5v-19q0 -60 2.5 -97t17.5 -87.5t43 -87.5q80 -105 224 -105q109 0 184 62q29 24 49 56t30.5 62t16.5 71.5t7 70t1 72.5z" />
    <glyph glyph-name="tau" unicode="&#x3c4;" horiz-adv-x="628" 
d="M618 903h-253v-637q0 -27 1.5 -44.5t9 -41t20.5 -37.5t38.5 -24t61.5 -10h32v-109h-65q-101 0 -161 57.5t-60 165.5v680h-224v109h600v-109z" />
    <glyph glyph-name="upsilon" unicode="&#x3c5;" horiz-adv-x="1067" 
d="M932 1014v-668q0 -102 -57.5 -185.5t-148.5 -128t-194 -44.5q-102 0 -192.5 45.5t-146.5 129t-56 183.5v668h123v-615q0 -133 77 -211.5t198 -78.5t197.5 78.5t76.5 211.5v615h123z" />
    <glyph glyph-name="phi" unicode="&#x3c6;" horiz-adv-x="1187" 
d="M1102 508q0 -144 -18 -221.5t-58 -134.5q-59 -81 -158 -122.5t-211 -41.5v-398h-127v398q-114 0 -210 41t-154 123q-40 60 -59 136t-19 220q0 154 24.5 245t108.5 171q51 51 150 80l41 -117q-113 -39 -160 -123q-23 -43 -31 -100t-8 -158v-78q5 -88 26.5 -151.5
t75.5 -106.5q34 -28 96 -44.5t119 -16.5v917h132q98 0 181 -30t128 -72q84 -81 107.5 -170.5t23.5 -245.5zM979 506q0 138 -22 210t-76 120q-76 71 -224 71v-801q53 0 114 13.5t91 36.5q117 85 117 268v82z" />
    <glyph glyph-name="chi" unicode="&#x3c7;" horiz-adv-x="917" 
d="M866 0h-145l-268 418l-267 -418h-145l342 520l-326 494h146l250 -396l249 396h148l-326 -494z" />
    <glyph glyph-name="psi" unicode="&#x3c8;" horiz-adv-x="1290" 
d="M1147 375q0 -175 -123 -281t-319 -106v-398h-123v398q-189 0 -314 107t-125 265v654h123v-606q0 -137 82 -217t234 -80v944h123v-944h14q147 0 226 79.5t79 217.5v606h123v-639z" />
    <glyph glyph-name="omega" unicode="&#x3c9;" horiz-adv-x="1562" 
d="M1399 162q-61 -88 -132 -130t-167 -42q-100 0 -185 42.5t-133 131.5q-64 -90 -129.5 -132t-160.5 -42q-107 0 -186.5 42t-143.5 130q-37 52 -53.5 130t-16.5 218q0 156 23.5 245.5t107.5 170.5q88 88 230 98v-123q-130 -23 -189 -121q-29 -49 -39 -105.5t-10 -164.5
q0 -8 -0.5 -22t2 -53.5t8 -74.5t19.5 -76t35 -67q42 -54 83 -80t107 -26q120 0 184 78.5t64 211.5v385h125v-385q0 -133 64.5 -211.5t185.5 -78.5q254 0 254 397q0 107 -10.5 165t-39.5 107q-59 98 -188 121v123q141 -10 229 -98q84 -81 107.5 -170.5t23.5 -245.5
q0 -251 -69 -348z" />
    <glyph glyph-name="iotadieresis" unicode="&#x3ca;" horiz-adv-x="466" 
d="M475 1253h-133v136h133v-136zM90 1253h-133v136h133v-136zM430 0h-49q-114 0 -175 52t-61 169v793h123v-776q0 -129 135 -129h27v-109z" />
    <glyph glyph-name="upsilondieresis" unicode="&#x3cb;" horiz-adv-x="1083" 
d="M801 1253h-133v136h133v-136zM416 1253h-135v136h135v-136zM940 1012v-666q0 -102 -57 -185.5t-148 -128t-194 -44.5q-102 0 -192.5 45.5t-147 129t-56.5 183.5v666h123v-613q0 -133 77 -211.5t198 -78.5t197.5 78.5t76.5 211.5v613h123z" />
    <glyph glyph-name="omicrontonos" unicode="&#x3cc;" 
d="M737 1440l-235 -285h-103l174 285h164zM911 508q0 -145 -18 -222.5t-57 -133.5q-120 -164 -336 -164q-215 0 -340 172q-37 52 -53.5 130t-16.5 218q0 156 23.5 245.5t107.5 170.5q110 102 279 102q170 0 280 -102q82 -78 106.5 -170t24.5 -246zM788 506q0 103 -8 159
t-32 99q-37 70 -102.5 106.5t-145.5 36.5q-75 0 -137 -32.5t-101 -96.5q-29 -47 -39 -104t-10 -166q0 -116 18 -178q26 -89 62 -133q77 -88 207 -88q110 0 186 61q54 43 74 106t26 152q2 14 2 39v39z" />
    <glyph glyph-name="upsilontonos" unicode="&#x3cd;" horiz-adv-x="1083" 
d="M760 1440l-236 -285h-102l174 285h164zM940 1012v-666q0 -102 -57 -185.5t-148 -128t-194 -44.5q-102 0 -192.5 45.5t-147 129t-56.5 183.5v666h123v-613q0 -133 77 -211.5t198 -78.5t197.5 78.5t76.5 211.5v613h123z" />
    <glyph glyph-name="omegatonos" unicode="&#x3ce;" horiz-adv-x="1562" 
d="M1001 1440l-235 -285h-104l174 285h165zM1399 162q-61 -88 -132 -130t-167 -42q-100 0 -185 42.5t-133 131.5q-64 -90 -129.5 -132t-160.5 -42q-107 0 -186.5 42t-143.5 130q-37 52 -53.5 130t-16.5 218q0 156 23.5 245.5t107.5 170.5q88 88 230 98v-123
q-130 -23 -189 -121q-29 -49 -39 -105.5t-10 -164.5q0 -8 -0.5 -22t2 -53.5t8 -74.5t19.5 -76t35 -67q42 -54 83 -80t107 -26q120 0 184 78.5t64 211.5v385h125v-385q0 -133 64.5 -211.5t185.5 -78.5q254 0 254 397q0 107 -10.5 165t-39.5 107q-59 98 -188 121v123
q141 -10 229 -98q84 -81 107.5 -170.5t23.5 -245.5q0 -251 -69 -348z" />
    <glyph glyph-name="endash" unicode="&#x2013;" horiz-adv-x="1024" 
d="M1024 489h-1024v111h1024v-111z" />
    <glyph glyph-name="emdash" unicode="&#x2014;" horiz-adv-x="2048" 
d="M0 489h2048v111h-2048v-111z" />
    <glyph glyph-name="afii00208" unicode="&#x2015;" horiz-adv-x="2048" 
d="M2048 489h-2048v111h2048v-111z" />
    <glyph glyph-name="quoteleft" unicode="&#x2018;" horiz-adv-x="360" 
d="M242 1169h-121v265l121 88v-353z" />
    <glyph glyph-name="quoteright" unicode="&#x2019;" horiz-adv-x="360" 
d="M242 1264l-121 -88v352h121v-264z" />
    <glyph glyph-name="quotedblleft" unicode="&#x201c;" horiz-adv-x="571" 
d="M471 1169h-123v267l123 88v-355zM223 1169h-121v267l121 88v-355z" />
    <glyph glyph-name="quotedblright" unicode="&#x201d;" horiz-adv-x="571" 
d="M469 1264l-121 -88v352h121v-264zM221 1264l-121 -88v352h121v-264z" />
    <glyph glyph-name="dagger" unicode="&#x2020;" horiz-adv-x="931" 
d="M887 819h-357v-1214h-127v1214h-356v113h356v493h127v-493h357v-113z" />
    <glyph glyph-name="bullet" unicode="&#x2022;" horiz-adv-x="974" 
d="M770 713q0 -116 -82.5 -197.5t-198.5 -81.5t-198 81t-82 198q0 116 82 197t198 81t198.5 -81t82.5 -197z" />
    <glyph glyph-name="ellipsis" unicode="&#x2026;" horiz-adv-x="1818" 
d="M1612 0h-125v129h125v-129zM991 0h-123v129h123v-129zM369 0h-123v129h123v-129z" />
    <glyph glyph-name="perthousand" unicode="&#x2030;" horiz-adv-x="1910" 
d="M1810 274q0 -83 -9.5 -125.5t-33.5 -74.5q-67 -94 -190 -94q-126 0 -193 98q-21 31 -29.5 74.5t-8.5 121.5q0 46 1.5 70.5t8 57.5t22 58.5t41.5 49.5q59 59 158 59q97 0 160 -59q47 -45 60 -97t13 -139zM561 1151q0 -83 -9.5 -126.5t-33.5 -74.5q-69 -96 -190 -96
q-124 0 -193 100q-39 59 -39 197q0 88 12.5 139t61.5 96q60 60 158 60q95 0 159 -60q47 -45 60.5 -97t13.5 -138zM1030 1425l-670 -1425h-100l670 1425h100zM1206 274q0 -82 -10.5 -125t-34.5 -75q-67 -94 -188 -94q-126 0 -193 98q-23 31 -32 73.5t-9 122.5
q0 86 13.5 138.5t60.5 97.5q63 59 160 59q98 0 157 -59q49 -45 62.5 -96.5t13.5 -139.5zM1720 272q0 97 -20 136q-38 71 -123 71q-80 0 -117 -63q-16 -23 -20 -49.5t-4 -92.5v-8q0 -35 1 -51.5t8 -44.5t21 -49q39 -51 111 -51h4q74 0 107.5 49.5t33.5 124.5q0 5 -1 14t-1 14
zM471 1149q0 96 -20 135q-37 70 -123 70q-81 0 -117 -62q-17 -21 -21 -50.5t-4 -98.5q0 -33 1 -51.5t8.5 -46t21.5 -48.5q39 -51 111 -51q143 0 143 203zM1114 272q0 97 -20 136q-38 71 -121 71q-79 0 -119 -63q-25 -46 -25 -142q0 -34 1 -53.5t9 -48.5t23 -51
q39 -51 111 -51h4q72 0 105.5 50t33.5 124q0 5 -1 14.5t-1 13.5z" />
    <glyph glyph-name="_2039h" unicode="&#x2039;" horiz-adv-x="903" 
d="M596 201l-350 344l350 342v-133l-215 -209l215 -211v-133z" />
    <glyph glyph-name="Euro" unicode="&#x20ac;" horiz-adv-x="1163" 
d="M254 508h618v86h-620l-2 88l2 115h620v86h-618q4 118 23 177.5t63 117.5q99 129 276 129q114 0 201 -62t127 -158h146q-48 155 -173 253t-301 98q-142 0 -268 -75.5t-182 -199.5q-45 -98 -45 -280h-127v-86h125v-203h-125v-86h127q10 -171 45 -248q56 -124 182 -199
t268 -75q176 0 301 97.5t173 252.5h-146q-39 -95 -127 -158t-201 -63q-173 0 -278 129q-41 53 -59 106t-25 158z" />
    <glyph glyph-name="trademark" unicode="&#x2122;" horiz-adv-x="1945" 
d="M1804 602h-96v713l-4 -6l-318 -707h-69q-90 201 -141.5 315.5t-97 215t-64 141t-19.5 39.5v-711h-96v825h150l303 -698l303 698h149v-825zM694 1335h-258v-733h-96v733h-256v92h610v-92z" />
    <glyph glyph-name="CR" horiz-adv-x="1024" 
 />
    </font>
</defs>
</svg>
