<?xml version="1.0" standalone="no"?>
<!DOCTYPE svg PUBLIC "-//W3C//DTD SVG 1.1//EN" "http://www.w3.org/Graphics/SVG/1.1/DTD/svg11.dtd" >
<svg xmlns="http://www.w3.org/2000/svg" xmlns:xlink="http://www.w3.org/1999/xlink" version="1.1">
<metadata>
Created by FontForge 20170731 at Thu Apr 22 17:10:45 2021
 By Aleksey,,,
 2002 PARACHUTE TYPE &#38; IMAGE CORP. All rights reserved. Designed by Panos Vassiliou. Based on DIN 1451 by the Deutsches Institut Normung 6  {www.parachute.gr}
</metadata>
<defs>
<font id="PFDinText-Italic" horiz-adv-x="980" >
  <font-face 
    font-family="PF Din Text"
    font-weight="400"
    font-style="italic"
    font-stretch="normal"
    units-per-em="2048"
    panose-1="2 0 6 6 2 0 0 9 0 4"
    ascent="1536"
    descent="-512"
    x-height="1014"
    cap-height="1425"
    bbox="-217 -514 2128 1894"
    underline-thickness="122"
    underline-position="-450"
    slope="-11"
    unicode-range="U+0020-2122"
  />
<missing-glyph horiz-adv-x="2048" 
 />
    <glyph glyph-name=".notdef" horiz-adv-x="2048" 
 />
    <glyph glyph-name=".null" horiz-adv-x="0" 
 />
    <glyph glyph-name="nonmarkingreturn" horiz-adv-x="682" 
 />
    <glyph glyph-name="space" unicode=" " horiz-adv-x="444" 
 />
    <glyph glyph-name="exclam" unicode="!" horiz-adv-x="481" 
d="M616 1425l-231 -1063h-139l211 1063h159zM356 170l-34 -170h-164l35 170h163z" />
    <glyph glyph-name="quotedbl" unicode="&#x22;" horiz-adv-x="616" 
d="M786 1425l-73 -352h-127l73 352h127zM545 1425l-74 -352h-127l74 352h127z" />
    <glyph glyph-name="numbersign" unicode="#" horiz-adv-x="997" 
d="M1159 987l-24 -117h-207l-107 -311h193l-25 -117h-207l-149 -442h-137l153 442h-211l-151 -442h-137l153 442h-180l22 117h199l107 311h-183l23 117h201l151 438h127l-147 -438h213l151 438h129l-149 -438h192zM797 870h-215l-105 -311h211z" />
    <glyph glyph-name="dollar" unicode="$" horiz-adv-x="970" 
d="M1049 1161l110 139q-125 112 -305 134l29 147h-107l-31 -145q-161 -17 -283.5 -129t-154.5 -275q-10 -55 -10 -90q0 -121 77 -196.5t208 -104.5l-103 -494q-147 21 -274 148l-123 -129q130 -154 364 -176l-49 -228h109l49 228q176 17 303 126t164 277q10 44 10 96
q0 132 -85.5 210.5t-225.5 101.5l98 471q122 -24 230 -111zM711 1272l-93 -449l-43 15q-114 43 -114 145q0 27 4 43q19 99 91 166t155 80zM586 147l98 476q90 -17 140 -55.5t50 -116.5q0 -28 -6 -58q-22 -105 -98.5 -168.5t-183.5 -77.5z" />
    <glyph glyph-name="percent" unicode="%" horiz-adv-x="1271" 
d="M801 1143q-17 -80 -36 -124.5t-50 -80.5q-88 -98 -213 -98q-104 0 -156 82q-22 42 -22 92q0 28 6 71q1 10 2.5 30.5t2.5 34t5 34.5t10 41q27 94 103 157q76 64 174 64q95 0 149 -62q41 -53 41 -110q0 -56 -16 -131zM1317 1425l-952 -1425h-121l952 1425h121zM1243 283
q-17 -82 -36 -126.5t-50 -78.5q-91 -98 -213 -98q-107 0 -156 81q-22 36 -22 91q0 28 6 71q10 98 21 139q20 56 41.5 92t60.5 68q78 62 174 62q98 0 148 -62q43 -52 43 -110q0 -49 -17 -129zM698 1268q-21 63 -94 63q-71 0 -117 -55q-33 -44 -49 -133q-12 -54 -12 -86
q0 -37 12 -56q27 -47 88 -47h6q68 0 107.5 57.5t50.5 131.5q12 68 12 92q0 23 -4 33zM1141 408q-21 63 -94 63q-72 0 -117 -57q-30 -40 -49 -131l-2 -7q-13 -58 -13 -79q0 -34 15 -58q24 -47 86 -47q43 0 88 29q22 17 37.5 44t21.5 48t14 55l5 13q12 67 12 92t-4 35z" />
    <glyph glyph-name="ampersand" unicode="&#x26;" horiz-adv-x="1269" 
d="M1270 655q-74 -234 -199 -372l139 -283h-190l-74 156q-107 -86 -206.5 -125t-215.5 -39q-164 0 -262 84.5t-98 228.5q0 54 10 98q56 264 430 455q-55 110 -55 197q0 41 8 80q30 137 125 221t229 84q111 0 177.5 -61.5t66.5 -159.5q0 -30 -6 -60q-24 -115 -107.5 -195
t-228.5 -157l195 -391q68 89 114 239h148zM1004 1159q4 20 4 33q0 52 -35 82.5t-90 30.5q-69 0 -111 -49t-57 -111q-4 -14 -4 -43q0 -66 51 -174q67 32 111.5 60t82 72.5t48.5 98.5zM887 276l-221 461q-138 -66 -226.5 -144.5t-111.5 -184.5l-2 -7q-7 -40 -7 -61
q0 -99 64 -152t164 -53q84 0 174 36t166 105z" />
    <glyph glyph-name="quotesingle" unicode="'" horiz-adv-x="481" 
d="M604 1425l-74 -352h-127l74 352h127z" />
    <glyph glyph-name="parenleft" unicode="(" horiz-adv-x="520" 
d="M772 1362l10 139q-129 -12 -231.5 -113t-130.5 -239l-213 -1024q-10 -48 -10 -84q0 -108 61 -182t166 -84l47 137q-131 30 -131 149q0 32 4 48l219 1056q16 82 74 133t135 64z" />
    <glyph glyph-name="parenright" unicode=")" horiz-adv-x="520" 
d="M399 125l213 1024q9 43 9 82q0 110 -60.5 185t-165.5 85l-47 -139q59 -11 95 -50.5t36 -101.5q0 -29 -4 -45l-219 -1056q-16 -81 -72.5 -129.5t-136.5 -67.5l-10 -137q132 12 232 111.5t130 238.5z" />
    <glyph glyph-name="asterisk" unicode="*" horiz-adv-x="671" 
d="M868 1239l-198 -109l151 -110l-63 -76l-152 98l-43 -208h-100l45 208l-193 -98l-32 76l198 110l-153 109l65 78l150 -100l43 208h100l-43 -208l191 100z" />
    <glyph glyph-name="plus" unicode="+" horiz-adv-x="1173" 
d="M1184 565l-27 -131h-416l-90 -434h-129l90 434h-415l26 131h416l90 430h127l-88 -430h416z" />
    <glyph glyph-name="comma" unicode="," horiz-adv-x="444" 
d="M338 172l-70 -326l-190 -120l96 446h164z" />
    <glyph glyph-name="hyphen" unicode="-" horiz-adv-x="782" 
d="M799 584l-31 -154h-575l32 154h574z" />
    <glyph glyph-name="period" unicode="." horiz-adv-x="454" 
d="M346 172l-37 -172h-164l35 172h166z" />
    <glyph glyph-name="slash" unicode="/" horiz-adv-x="632" 
d="M907 1438l-753 -1438h-129l755 1438h127z" />
    <glyph glyph-name="zero" unicode="0" horiz-adv-x="929" 
d="M1067 1036l-133 -647q-26 -124 -97 -216.5t-164.5 -138.5t-195.5 -46q-138 0 -234 83.5t-96 227.5q0 29 11 90l135 647q26 124 97 217t164.5 139t195.5 46q138 0 232.5 -83t94.5 -225q0 -53 -10 -94zM901 1024q8 33 8 70q0 84 -48 131t-132 47q-103 0 -177 -66t-99 -182
l-129 -623q-9 -41 -9 -71q0 -84 48 -130t135 -46q101 0 175.5 65.5t98.5 181.5z" />
    <glyph glyph-name="one" unicode="1" horiz-adv-x="929" 
d="M852 1425l-295 -1425h-164l258 1249l-237 -155l37 178l235 153h166z" />
    <glyph glyph-name="two" unicode="2" horiz-adv-x="929" 
d="M1055 1223q14 -43 14 -97q0 -88 -37.5 -176.5t-103.5 -154.5l-621 -629h572l-35 -166h-778l34 168l707 713q44 44 70 99.5t26 111.5q0 34 -12 69q-18 48 -64 79.5t-102 31.5q-91 0 -162.5 -53.5t-111.5 -159.5h-164q43 174 172 276.5t284 102.5q119 0 200.5 -58
t111.5 -157z" />
    <glyph glyph-name="three" unicode="3" horiz-adv-x="929" 
d="M1030 1040q-42 -193 -225 -303q121 -82 121 -235q0 -47 -8 -86q-39 -191 -183 -309.5t-323 -118.5q-137 0 -223.5 87.5t-86.5 246.5h164q19 -82 62.5 -125t130.5 -43q98 0 183.5 71t109.5 185q6 35 6 65q0 89 -52.5 138t-140.5 49h-100l31 147h84q105 0 184.5 63.5
t101.5 163.5q4 16 4 49q0 83 -52.5 135t-135.5 52q-73 0 -142 -45.5t-108 -132.5h-166q50 142 178 243t265 101q153 0 241 -90t88 -226q0 -43 -8 -82z" />
    <glyph glyph-name="four" unicode="4" horiz-adv-x="929" 
d="M979 1425l-703 -1050h429l86 420h163l-86 -420h115l-33 -158h-114l-45 -217h-164l45 217h-602l32 164l695 1044h182z" />
    <glyph glyph-name="five" unicode="5" horiz-adv-x="929" 
d="M1122 1425l-35 -165h-569l-82 -392q73 57 135 76t134 19q100 0 173.5 -55t96.5 -148q8 -36 8 -68q0 -65 -31 -217q-38 -180 -86 -256q-69 -108 -168.5 -169.5t-224.5 -61.5q-65 0 -122.5 19.5t-104 58t-74 102.5t-27.5 145v13h168q10 -172 187 -172q68 0 129 34t94 88
q42 71 70 216q0 1 1 3t1 3q14 75 14 120q0 179 -182 179q-64 0 -117.5 -28t-106.5 -93h-161l155 749h725z" />
    <glyph glyph-name="six" unicode="6" horiz-adv-x="929" 
d="M985 1425l-432 -620l6 -2q61 24 131 24q21 0 53 -4q96 -14 155.5 -84.5t59.5 -189.5q0 -51 -12 -113q-24 -116 -74 -205t-116.5 -140.5t-139.5 -77t-151 -25.5q-129 0 -223.5 85.5t-94.5 229.5q0 53 15 111q35 142 98 235l543 776h182zM606 682q-100 0 -178.5 -69.5
t-103.5 -194.5q-9 -44 -9 -82q0 -89 47.5 -137.5t133.5 -48.5q57 0 113 28.5t104 91t67 148.5q8 54 8 71q0 92 -49.5 142.5t-132.5 50.5z" />
    <glyph glyph-name="seven" unicode="7" horiz-adv-x="929" 
d="M1176 1425l-35 -174l-742 -1251h-184l748 1260h-435l-45 -213h-161l77 378h777z" />
    <glyph glyph-name="eight" unicode="8" horiz-adv-x="929" 
d="M1071 1034q-40 -185 -213 -299q60 -37 90.5 -100t30.5 -139q0 -40 -10 -88q-38 -184 -180 -302t-316 -118q-153 0 -251.5 91t-98.5 238q0 39 10 91q23 103 85 189t161 138q-98 82 -98 217q0 43 8 82q33 171 162.5 287.5t300.5 116.5q144 0 236.5 -91t92.5 -229
q0 -36 -10 -84zM909 1038q6 30 6 58q0 84 -54 130t-132 46q-59 0 -115 -25.5t-100.5 -80t-60.5 -128.5q-7 -35 -7 -55q0 -82 54.5 -129t132.5 -47q93 0 173 61t103 170zM602 664q-102 0 -192.5 -72t-114.5 -182q-6 -27 -6 -56q0 -88 60 -144t149 -56q102 0 192.5 74
t114.5 182q6 27 6 55q0 88 -60 143.5t-149 55.5z" />
    <glyph glyph-name="nine" unicode="9" horiz-adv-x="929" 
d="M1069 1012q-26 -125 -100 -236l-543 -776h-182l432 621h-6q-61 -23 -123 -23q-35 0 -62 6q-96 16 -155.5 86t-59.5 189q0 43 13 110q24 117 73 205.5t114.5 140.5t139.5 77.5t156 25.5q130 0 222.5 -84.5t92.5 -233.5q0 -50 -12 -108zM905 1008q8 39 8 82
q0 89 -46.5 136.5t-133.5 47.5q-98 0 -177 -68.5t-107 -197.5q-9 -61 -9 -72q0 -92 49.5 -142.5t133.5 -50.5q100 0 178.5 70t103.5 195z" />
    <glyph glyph-name="colon" unicode=":" horiz-adv-x="444" 
d="M434 637l-35 -170h-163l34 170h164zM338 170l-35 -170h-164l35 170h164z" />
    <glyph glyph-name="semicolon" unicode=";" horiz-adv-x="444" 
d="M434 637l-35 -170h-163l34 170h164zM338 170l-70 -346l-190 -121l96 467h164z" />
    <glyph glyph-name="less" unicode="&#x3c;" horiz-adv-x="1159" 
d="M1274 1030l-31 -147l-893 -381l735 -379l-30 -148l-877 465l25 123z" />
    <glyph glyph-name="equal" unicode="=" horiz-adv-x="1144" 
d="M1221 766l-29 -137h-963l29 137h963zM1139 373l-29 -137h-960l26 137h963z" />
    <glyph glyph-name="greater" unicode="&#x3e;" horiz-adv-x="1175" 
d="M1190 563l-25 -123l-1071 -465l31 148l893 379l-735 381l30 147z" />
    <glyph glyph-name="question" unicode="?" horiz-adv-x="894" 
d="M1010 1063q-16 -76 -52.5 -132t-113.5 -140l-174 -189q-25 -27 -41 -60t-22 -57t-15 -71l-10 -52h-164l33 152q17 77 77 145l166 185q7 7 31 32.5t32.5 36t28 33t28 38t19.5 37.5t15 43t4 44q0 73 -48 118.5t-110 45.5q-103 0 -164.5 -62t-89.5 -163h-164q0 2 4 17.5
t5 16.5q36 149 164 253t270 104q127 0 213 -80t86 -211q0 -45 -8 -84zM543 170l-37 -170h-164l35 170h166z" />
    <glyph glyph-name="at" unicode="@" horiz-adv-x="1589" 
d="M1679 1044l-106 -514q-21 -101 -95.5 -166t-177.5 -65h-256l17 76q-6 0 -6 -2q-72 -84 -238 -84q-118 0 -182 57q-57 51 -57 131q0 28 6 58q23 103 103 172t204 69h252l20 94q4 12 4 35q0 51 -43 77t-123 26q-95 0 -196 -84l-80 82q138 131 295 131q285 0 285 -195
q0 -34 -9 -74l-88 -424h123q35 0 59.5 21.5t30.5 54.5l111 533q6 35 6 61q0 91 -61.5 143t-171.5 52h-445q-127 0 -216 -69.5t-114 -186.5l-135 -647q-6 -35 -6 -64q0 -92 60.5 -147.5t168.5 -55.5h613l-31 -139h-606q-166 0 -260 83.5t-94 227.5q0 57 10 101l131 632
q38 185 180.5 298.5t335.5 113.5h438q167 0 261 -84.5t94 -228.5q0 -35 -11 -99zM1120 664h-221q-79 0 -127.5 -31t-60.5 -90q-2 -8 -2 -25q0 -100 153 -100q107 0 161.5 29.5t76.5 121.5z" />
    <glyph glyph-name="A" unicode="A" horiz-adv-x="1193" 
d="M1182 0h-185l-45 328h-575l-180 -328h-185l803 1425h154zM936 483l-92 703h-6l-379 -703h477z" />
    <glyph glyph-name="B" unicode="B" horiz-adv-x="1193" 
d="M1313 1053q-7 -47 -23.5 -90.5t-47 -88t-82.5 -80.5t-120 -57l-2 -6q87 -22 128.5 -88.5t41.5 -157.5q0 -38 -10 -90q-34 -177 -166.5 -286t-296.5 -109h-583l297 1425h520q175 0 262.5 -78t87.5 -221q0 -36 -6 -73zM928 1268h-338l-94 -461h338q123 0 201.5 64t99.5 167
q6 27 6 56q0 80 -54 127t-159 47zM821 651h-358l-101 -485h359q72 0 133 27.5t99.5 71t59.5 95t21 103.5q0 81 -52.5 134.5t-152.5 53.5h-8z" />
    <glyph glyph-name="C" unicode="C" horiz-adv-x="1083" 
d="M1292 1047h-186q-12 94 -78.5 153.5t-169.5 59.5q-149 0 -264 -115q-43 -43 -67 -83.5t-48 -120.5t-55 -230q-45 -218 -45 -299q0 -71 35 -133q64 -115 217 -115q103 0 193.5 61t142.5 152h186q-177 -391 -559 -391q-140 0 -250 78t-137 202q-10 52 -10 99q0 73 18 167
q31 153 37 179q27 140 37 180q26 97 47 156t53 110q185 281 506 281q181 0 286.5 -113t110.5 -278z" />
    <glyph glyph-name="D" unicode="D" horiz-adv-x="1232" 
d="M1325 1147q10 -52 10 -98q0 -73 -18 -168q-3 -14 -14 -65t-19 -93q-6 -26 -13.5 -63.5t-13.5 -64t-12 -48.5q-22 -98 -40.5 -156.5t-49.5 -111.5q-78 -131 -210.5 -205t-297.5 -74h-495l297 1425h477q145 0 258.5 -76t140.5 -202zM1116 1139q-29 52 -85.5 86.5
t-135.5 34.5h-305l-228 -1094h314q147 0 264 117q60 63 89 135.5t77 292.5q45 218 45 297q0 69 -35 131z" />
    <glyph glyph-name="E" unicode="E" horiz-adv-x="1083" 
d="M1325 1425l-33 -165h-702l-96 -461h600l-33 -158h-600l-99 -475h703l-35 -166h-878l297 1425h876z" />
    <glyph glyph-name="F" unicode="F" horiz-adv-x="1046" 
d="M1325 1425l-33 -165h-702l-98 -472h600l-33 -157h-600l-131 -631h-176l297 1425h876z" />
    <glyph glyph-name="G" unicode="G" horiz-adv-x="1193" 
d="M1292 1047h-184q-14 94 -79.5 153.5t-168.5 59.5q-151 0 -266 -115q-43 -45 -66 -85.5t-45.5 -117t-54.5 -231.5q-49 -238 -49 -310q0 -63 35 -122q68 -115 219 -115q134 0 245.5 100t139.5 236l20 100h-293l35 164h467l-57 -277q-36 -167 -166 -307q-181 -194 -430 -194
q-140 0 -249 78t-136 202q-10 41 -10 107q0 80 16 159q2 9 15.5 73t21.5 106q36 164 41 180q40 175 98 266q185 281 504 281q182 0 287 -112.5t110 -278.5z" />
    <glyph glyph-name="H" unicode="H" horiz-adv-x="1269" 
d="M1413 1425l-295 -1425h-176l133 641h-614l-133 -641h-176l297 1425h174l-129 -626h614l129 626h176z" />
    <glyph glyph-name="I" unicode="I" horiz-adv-x="481" 
d="M623 1425l-295 -1425h-176l297 1425h174z" />
    <glyph glyph-name="J" unicode="J" horiz-adv-x="931" 
d="M1092 1425l-207 -991q-42 -207 -187.5 -326.5t-345.5 -119.5q-101 0 -177 39t-120 108l156 121q64 -90 174 -90q46 0 94.5 16t96.5 48.5t85.5 91t53.5 135.5l200 968h177z" />
    <glyph glyph-name="K" unicode="K" horiz-adv-x="1232" 
d="M1456 1425l-557 -555l318 -870h-209l-258 721l-340 -328l-82 -393h-176l297 1425h174l-158 -768l6 2l782 766h203z" />
    <glyph glyph-name="L" unicode="L" horiz-adv-x="1083" 
d="M1065 166l-35 -166h-878l297 1425h174l-261 -1259h703z" />
    <glyph glyph-name="M" unicode="M" horiz-adv-x="1492" 
d="M1659 1425l-295 -1425h-174l205 995l-6 -2l-510 -782h-154l-186 784l-4 -4l-207 -991h-176l297 1425h174l229 -983l637 983h170z" />
    <glyph glyph-name="N" unicode="N" horiz-adv-x="1343" 
d="M1493 1425l-297 -1425h-172l-465 1094l-4 -2l-227 -1092h-176l297 1425h172l464 -1097l5 4l227 1093h176z" />
    <glyph glyph-name="O" unicode="O" horiz-adv-x="1157" 
d="M1257 1157q11 -45 11 -108q0 -73 -15 -158q-41 -238 -73 -359q-43 -175 -101 -266q-82 -127 -222.5 -203.5t-283.5 -76.5q-140 0 -250 78t-137 202q-10 52 -10 99q0 67 19 167q46 254 73 359q49 184 101 266q87 133 216 207t289 74q132 0 244 -78t139 -203zM1057 1145
q-29 51 -84 83t-135 32q-150 0 -265 -115q-63 -63 -93.5 -140t-73.5 -294q-50 -236 -50 -303q0 -66 37 -129q64 -115 217 -115q149 0 264 115q44 44 67 85t44.5 116t54.5 231q50 229 50 309q0 61 -33 125z" />
    <glyph glyph-name="P" unicode="P" horiz-adv-x="1132" 
d="M1317 993q-40 -180 -172 -293q-151 -127 -344 -127h-355l-118 -573h-176l297 1425h493q291 0 367 -208q20 -62 20 -119q0 -50 -12 -105zM1143 999q8 33 8 72q0 93 -61 141t-164 48h-336l-109 -521h346q109 0 187 60q105 75 129 200z" />
    <glyph glyph-name="Q" unicode="Q" horiz-adv-x="1193" 
d="M1278 1157q10 -41 10 -108q0 -78 -14 -158q-39 -227 -74 -359q-40 -150 -63 -200q-16 -36 -37 -66q-2 -8 -15 -20l154 -152l-129 -121l-147 146q-173 -133 -369 -133q-140 0 -250 78t-137 202q-10 52 -10 99q0 73 18 167q44 241 74 359q44 178 100 266q87 133 216.5 207
t289.5 74q132 0 244 -78t139 -203zM1077 1145q-29 51 -84 83t-135 32q-149 0 -264 -115q-43 -43 -67 -83.5t-48 -120.5t-55 -230q-45 -218 -45 -299q0 -71 35 -133q64 -115 217 -115q114 0 211 72l-158 153l129 123l148 -145q53 87 104 344q45 232 45 309q0 61 -33 125z" />
    <glyph glyph-name="R" unicode="R" horiz-adv-x="1193" 
d="M1325 1036q-57 -321 -371 -391l197 -645h-201l-178 627h-313l-131 -627h-176l297 1425h546q150 0 244 -86t94 -225q0 -24 -8 -78zM1159 1036q4 36 4 51q0 181 -219 181h-354l-101 -484h353q119 0 208 66.5t109 185.5z" />
    <glyph glyph-name="S" unicode="S" horiz-adv-x="1120" 
d="M1257 1300l-124 -145q-156 107 -330 107q-114 0 -202 -61t-112 -175q-4 -16 -4 -43q0 -23 6.5 -42.5t15.5 -33t26 -26t30.5 -20t38 -16t38.5 -12.5t41.5 -11.5t39.5 -10.5q32 -9 112 -25.5t111 -29.5q94 -39 141.5 -112t47.5 -167q0 -33 -11 -86q-41 -189 -192.5 -296
t-376.5 -107q-302 0 -481 182l143 133q145 -139 377 -139q140 0 236.5 61t119.5 166q6 30 6 58q0 80 -57 122q-50 39 -205 58q-124 15 -202.5 42.5t-129.5 96.5q-53 74 -53 172q0 35 10 90q38 182 180.5 295t352.5 113q224 0 407 -138z" />
    <glyph glyph-name="T" unicode="T" horiz-adv-x="970" 
d="M1264 1425l-33 -157h-395l-263 -1268h-176l262 1268h-393l33 157h965z" />
    <glyph glyph-name="U" unicode="U" horiz-adv-x="1232" 
d="M1403 1425l-197 -950q-44 -218 -204.5 -352.5t-372.5 -134.5q-178 0 -295 108t-117 287q0 55 12 113l193 929h174l-186 -905q-11 -60 -11 -92q0 -121 68 -191.5t184 -70.5q139 0 245.5 88.5t139.5 245.5l191 925h176z" />
    <glyph glyph-name="V" unicode="V" horiz-adv-x="1083" 
d="M1368 1425l-756 -1425h-139l-166 1425h185l108 -1132h6l578 1132h184z" />
    <glyph glyph-name="W" unicode="W" horiz-adv-x="1642" 
d="M1909 1425l-643 -1425h-150l-63 1104h-6l-519 -1104h-149l-53 1425h184l18 -1079h7l514 1079h137l69 -1079h7l464 1079h183z" />
    <glyph glyph-name="X" unicode="X" horiz-adv-x="1044" 
d="M1313 1425l-543 -694l277 -731h-197l-211 567l-446 -567h-195l580 731l-259 694h197l191 -530l409 530h197z" />
    <glyph glyph-name="Y" unicode="Y" horiz-adv-x="970" 
d="M1282 1425l-592 -837l-121 -588h-168l123 588l-245 837h184l180 -667l455 667h184z" />
    <glyph glyph-name="Z" unicode="Z" horiz-adv-x="1009" 
d="M1239 1425l-29 -143l-905 -1116h674l-35 -166h-878l32 158l901 1110h-645l33 157h852z" />
    <glyph glyph-name="bracketleft" unicode="[" horiz-adv-x="520" 
d="M778 1430l-22 -115h-187l-295 -1415h187l-23 -115h-336l340 1645h336z" />
    <glyph glyph-name="backslash" unicode="\" horiz-adv-x="632" 
d="M608 -2h-127l-162 1440h130z" />
    <glyph glyph-name="bracketright" unicode="]" horiz-adv-x="520" 
d="M686 1430l-340 -1645h-336l23 115h186l293 1415h-186l24 115h336z" />
    <glyph glyph-name="asciicircum" unicode="^" horiz-adv-x="1173" 
d="M1192 684h-133l-203 612l-457 -612h-133l559 741h113z" />
    <glyph glyph-name="underscore" unicode="_" horiz-adv-x="1024" 
d="M971 -264h-1026l26 123h1024z" />
    <glyph glyph-name="grave" unicode="`" horiz-adv-x="622" 
d="M700 1149h-135l-196 289h217z" />
    <glyph glyph-name="a" unicode="a" horiz-adv-x="993" 
d="M1096 1014l-211 -1014h-164l24 119q-137 -131 -290 -131q-74 0 -129 26t-86.5 72.5t-46.5 105t-15 130.5q0 68 17 161q15 83 39 157.5t64 146.5t91 123.5t123.5 83.5t157.5 32q159 0 237 -131l25 119h164zM825 506q19 89 19 153q0 201 -172 201q-60 0 -108 -22.5
t-78.5 -55.5t-55 -84t-37 -94t-24.5 -98q-19 -97 -19 -156q0 -194 176 -194q58 0 105 22t77.5 55.5t55 83t37.5 92.5t24 97z" />
    <glyph glyph-name="b" unicode="b" horiz-adv-x="991" 
d="M1020 530q-101 -542 -459 -542q-181 0 -256 131l-24 -119h-164l295 1425h163l-108 -530q76 71 144.5 101t144.5 30q100 0 164 -42.5t90 -110t26 -160.5q0 -82 -16 -183zM844 508q18 95 18 158q0 192 -176 192q-58 0 -105 -22t-77.5 -55.5t-55 -83t-37.5 -92.5t-24 -97
q-18 -85 -18 -154q0 -200 172 -200q60 0 108 22.5t78.5 55.5t55 84t37 94t24.5 98z" />
    <glyph glyph-name="c" unicode="c" horiz-adv-x="860" 
d="M1012 885l-131 -125q-69 100 -191 100q-290 0 -364 -354q-15 -68 -15 -123q0 -227 234 -227q118 0 231 98l82 -123q-162 -143 -356 -143q-70 0 -132.5 22t-113.5 65t-81 116t-30 167q0 58 17 148q28 137 81.5 239t127.5 162.5t160 89.5t186 29q184 0 295 -141z" />
    <glyph glyph-name="d" unicode="d" horiz-adv-x="991" 
d="M1120 1425l-295 -1425h-163l24 119q-131 -131 -291 -131q-276 0 -276 319q0 103 26 223q19 82 42 149t60.5 133.5t84.5 112t114.5 73.5t149.5 28q164 0 250 -131l110 530h164zM766 508q18 88 18 154q0 196 -174 196q-59 0 -107 -22t-78.5 -55t-54.5 -82.5t-37 -92.5
t-24 -98q-20 -106 -20 -162q0 -192 176 -192q59 0 107 23.5t78 57.5t54.5 86t37 93t24.5 94z" />
    <glyph glyph-name="e" unicode="e" 
d="M1010 565l-19 -112h-649q-10 -55 -10 -97q0 -99 52 -156t165 -57q124 0 246 95l77 -121q-162 -129 -352 -129q-49 0 -95 9t-93.5 33.5t-82.5 63t-57 102t-22 144.5q0 72 18 164q24 115 66.5 207t93 149.5t111 96t118.5 54t117 15.5q150 0 237 -96.5t87 -261.5
q0 -54 -8 -103zM854 590v6q8 54 8 74q0 98 -50 149t-140 51q-106 0 -186 -73t-115 -207h483z" />
    <glyph glyph-name="f" unicode="f" horiz-adv-x="526" 
d="M836 1425l-33 -155h-103q-61 0 -91 -35t-42 -96l-26 -125h209l-31 -148h-209l-244 -1175h-166l246 1175h-104l30 148h105l31 145q28 131 111 198.5t198 67.5h119z" />
    <glyph glyph-name="g" unicode="g" horiz-adv-x="1019" 
d="M1094 1016l-205 -993q-46 -220 -178 -331.5t-318 -111.5q-85 0 -168.5 38t-134.5 101l133 115q77 -88 183 -88q115 0 199.5 66.5t113.5 187.5l26 119q-77 -71 -144 -101t-142 -30q-147 0 -216 85t-69 226q0 84 19 184q16 85 38.5 158t61 146t87.5 124t120.5 83t156.5 32
q170 0 248 -131l25 121h164zM825 506q19 89 19 153q0 201 -172 201q-60 0 -108.5 -22.5t-79 -55.5t-55 -84t-36.5 -93.5t-24 -98.5q-21 -111 -21 -162q0 -188 176 -188q58 0 105.5 22t78 55.5t55 83t38 92.5t24.5 97z" />
    <glyph glyph-name="h" unicode="h" horiz-adv-x="1056" 
d="M1053 629l-131 -629h-164l125 608q8 36 8 76q0 88 -49 131t-135 43q-100 0 -178.5 -67.5t-102.5 -182.5l-125 -608h-166l297 1425h164l-111 -526h7q127 127 301 127q109 0 189.5 -81t80.5 -218q0 -54 -10 -98z" />
    <glyph glyph-name="i" unicode="i" horiz-adv-x="448" 
d="M600 1423l-35 -166h-164l35 166h164zM514 1016l-156 -766q-4 -20 -4 -31q0 -63 92 -63h41l-30 -156h-72q-201 0 -201 170q0 31 9 72l157 774h164z" />
    <glyph glyph-name="j" unicode="j" horiz-adv-x="485" 
d="M623 1425l-35 -165h-164l35 165h164zM537 1014l-240 -1149q-56 -277 -338 -277h-59l32 154h31q25 0 29 4q117 10 143 131l238 1137h164z" />
    <glyph glyph-name="k" unicode="k" horiz-adv-x="1009" 
d="M1137 1014l-414 -387l266 -627h-182l-215 508l-232 -219l-61 -289h-164l299 1423h164l-190 -901l6 2l526 490h197z" />
    <glyph glyph-name="l" unicode="l" horiz-adv-x="485" 
d="M594 1423l-242 -1173q-4 -20 -4 -31q0 -63 92 -63h41l-30 -156h-72q-201 0 -201 170q0 36 8 72l244 1181h164z" />
    <glyph glyph-name="m" unicode="m" horiz-adv-x="1701" 
d="M1683 647l-131 -647h-163l124 608q26 127 -22.5 188.5t-151.5 61.5q-101 0 -178.5 -67.5t-101.5 -182.5l-127 -608h-164l125 608q25 125 -23.5 187.5t-150.5 62.5t-180.5 -67.5t-102.5 -182.5l-125 -608h-164l209 1014h164l-22 -115h6q61 64 139 95.5t160 31.5
q175 0 254 -164l2 2q87 89 174.5 125.5t191.5 36.5q111 0 190 -75.5t79 -209.5q0 -34 -11 -94z" />
    <glyph glyph-name="n" unicode="n" horiz-adv-x="1046" 
d="M1047 637l-132 -637h-163l125 608q8 36 8 74q0 87 -49 131.5t-134 44.5q-102 0 -180 -67.5t-102 -182.5l-125 -608h-164l209 1014h164l-23 -115h6q61 64 139 95.5t160 31.5q111 0 191 -78.5t80 -216.5q0 -39 -10 -94z" />
    <glyph glyph-name="o" unicode="o" 
d="M1001 508q-26 -138 -61 -216t-88 -136q-152 -168 -365 -168q-216 0 -299 176q-26 57 -26 127q0 74 28 217q28 145 73 239.5t143 174.5q125 104 296 104q70 0 126 -17.5t91.5 -47t56.5 -61t32 -66.5q18 -50 18 -123q0 -67 -25 -203zM852 739q-20 59 -67.5 90t-114.5 31
q-138 0 -224 -108q-33 -40 -52.5 -92t-39.5 -152q-18 -85 -18 -141q0 -45 10 -74q21 -64 41 -86q47 -53 135 -53t166 55q44 31 74.5 81.5t42 87.5t26.5 103q3 10 6.5 30t6.5 30q18 82 18 129q0 36 -10 69z" />
    <glyph glyph-name="p" unicode="p" horiz-adv-x="1019" 
d="M1024 483q-111 -495 -457 -495q-160 0 -248 131l-108 -529h-164l295 1426h164l-25 -121q131 131 289 131q77 0 132.5 -25t87.5 -71t46.5 -102.5t14.5 -127.5q0 -92 -27 -217zM858 506q21 107 21 160q0 194 -179 194q-58 0 -105.5 -23.5t-77.5 -57.5t-54.5 -86t-37 -93
t-24.5 -94q-18 -88 -18 -152q0 -198 172 -198q60 0 108 22.5t78.5 55t55 82.5t37 92.5t24.5 97.5z" />
    <glyph glyph-name="q" unicode="q" horiz-adv-x="1007" 
d="M1104 1001l-293 -1411h-164l111 527q-140 -129 -291 -129q-272 0 -272 313q0 70 18 176q15 84 37 156.5t60 144.5t86 122.5t118.5 82t155.5 31.5q168 0 245 -129l25 116h164zM836 500q18 88 18 153q0 195 -170 195q-59 0 -106.5 -22t-77 -54.5t-53.5 -82.5t-36 -92
t-24 -97q-20 -102 -20 -158q0 -186 174 -186q57 0 104 22t76.5 54.5t53.5 81.5t36.5 91t24.5 95z" />
    <glyph glyph-name="r" unicode="r" horiz-adv-x="739" 
d="M963 973l-138 -158q-57 45 -123 45q-92 0 -171.5 -65t-102.5 -181l-127 -614h-166l211 1014h164l-23 -115h5q127 127 307 127h10q89 -3 154 -53z" />
    <glyph glyph-name="s" unicode="s" horiz-adv-x="940" 
d="M1006 911l-119 -131q-111 90 -252 90q-102 0 -160 -39.5t-72 -109.5q-2 -8 -2 -27q0 -86 136 -94q106 -6 168 -14q50 -7 104 -27q125 -50 125 -184q0 -32 -10 -84q-29 -138 -161 -220.5t-310 -82.5q-228 0 -377 155l127 127q57 -65 128 -96t171 -31q97 0 169.5 40
t88.5 118q2 10 2 29q0 48 -31 67.5t-92 30.5q-55 12 -113 12q-46 0 -110 11q-185 44 -185 204q0 31 9 68q31 146 146.5 224.5t279.5 78.5q116 0 196 -29t144 -86z" />
    <glyph glyph-name="t" unicode="t" horiz-adv-x="526" 
d="M674 1014l-31 -148h-151l-121 -587q-4 -36 -4 -52q0 -36 16 -54.5t57 -18.5h56l-31 -154h-88q-86 0 -135 44.5t-49 129.5q0 32 6 66l129 626h-105l31 148h104l64 309h164l-64 -309h152z" />
    <glyph glyph-name="u" unicode="u" horiz-adv-x="1056" 
d="M1128 1014l-208 -1014h-164l22 115h-6q-121 -127 -291 -127q-113 0 -198.5 73.5t-85.5 200.5q0 41 8 80l139 672h164l-125 -608q-8 -36 -8 -76q0 -88 49 -132t135 -44q100 0 178.5 68.5t102.5 183.5l125 608h163z" />
    <glyph glyph-name="v" unicode="v" horiz-adv-x="872" 
d="M1079 1014l-575 -1014h-142l-153 1014h174l102 -754h7l411 754h176z" />
    <glyph glyph-name="w" unicode="w" horiz-adv-x="1435" 
d="M1628 1014l-528 -1014h-148l-75 770l-7 -2l-391 -768h-149l-107 1014h174l56 -758h8l393 758h143l80 -758h8l371 758h172z" />
    <glyph glyph-name="x" unicode="x" horiz-adv-x="925" 
d="M1087 1014l-425 -496l229 -518h-195l-157 375l-312 -375h-194l444 520l-219 494h195l145 -359l293 359h196z" />
    <glyph glyph-name="y" unicode="y" horiz-adv-x="862" 
d="M1079 1014l-684 -1239q-57 -105 -130.5 -149t-172.5 -46h-61l30 152h31q27 0 31 4q95 10 145 106l94 178l-157 994h174l104 -770h6l414 770h176z" />
    <glyph glyph-name="z" unicode="z" horiz-adv-x="866" 
d="M1008 1014l-29 -144l-684 -714h534l-30 -156h-731l28 139l690 727h-510l31 148h701z" />
    <glyph glyph-name="braceleft" unicode="{" horiz-adv-x="520" 
d="M801 1425l-23 -110h-82q-50 0 -83.5 -53t-47.5 -125l-51 -256q-12 -62 -39.5 -113.5t-60 -82t-59.5 -48.5t-48 -25v-6q36 -15 69.5 -62.5t33.5 -127.5q0 -34 -9 -74l-55 -266q-8 -50 -8 -78q0 -100 65 -100h82l-22 -109h-137q-66 0 -105 42.5t-39 115.5q0 31 6 61l58 285
q12 55 12 102q0 146 -113 160l23 104q78 11 132 85.5t77 181.5l59 278q23 101 87 161t143 60h135z" />
    <glyph glyph-name="bar" unicode="|" horiz-adv-x="407" 
d="M266 1503l-4 -2017h-123v2017h127z" />
    <glyph glyph-name="braceright" unicode="}" horiz-adv-x="520" 
d="M635 659l-23 -104q-79 -10 -132 -79.5t-77 -182.5l-59 -285q-21 -98 -85.5 -158.5t-143.5 -60.5h-135l22 109h82q49 0 82 53t47 125l55 266q12 60 39.5 110.5t59.5 81t59 48.5t47 24v6q-34 16 -67 63.5t-33 127.5q0 39 8 78l53 256q8 50 8 77q0 101 -65 101h-82l10 53
l47 57h23q101 0 104 -10q55 -3 87 -44t32 -107q0 -30 -6 -60l-57 -278q-11 -60 -11 -97q0 -69 28 -115t83 -55z" />
    <glyph glyph-name="asciitilde" unicode="~" horiz-adv-x="1173" 
d="M1139 524q-87 -109 -176 -139q-41 -14 -84 -14q-26 0 -52 4t-57 15.5t-46.5 17.5t-53 23t-43.5 20q-100 49 -148 49q-31 0 -64.5 -17t-56.5 -36t-63 -56l-53 84q120 156 266 156q68 0 147 -37l103 -51q88 -43 147 -43q32 0 62 12q18 8 40 25.5t35 30t45 44.5z" />
    <glyph glyph-name="nbspace" unicode="&#xa0;" horiz-adv-x="444" 
 />
    <glyph glyph-name="sterling" unicode="&#xa3;" horiz-adv-x="985" 
d="M1253 1235l-166 -53q-29 46 -65.5 68t-99.5 22q-98 0 -178 -70.5t-101 -169.5l-57 -272h243l-22 -111h-242l-102 -491h495l-32 -158h-848l33 158h196l101 491h-172l22 111h174l57 280q35 168 170 279q134 115 312 115q115 0 181 -51t101 -148z" />
    <glyph glyph-name="_00A4h" unicode="&#xa4;" horiz-adv-x="1138" 
d="M213 961q-72 -110 -72 -236q0 -123 72 -236l-117 -112l115 -119l117 117q109 -74 237 -74q129 0 238 74l117 -119l114 121l-116 112q71 112 71 236q0 127 -71 236l114 112l-114 121l-115 -117q-110 72 -238 72q-127 0 -237 -72l-117 117l-115 -117zM305 725q0 108 76 184
t182 76q109 0 185 -76q75 -75 75 -184q0 -107 -75 -182q-76 -76 -185 -76q-106 0 -182 76t-76 182z" />
    <glyph glyph-name="yen" unicode="&#xa5;" horiz-adv-x="942" 
d="M1253 1425l-475 -684h238l-23 -110h-291l-30 -43l-31 -154h311l-22 -110h-312l-67 -324h-158l66 324h-312l25 110h311l31 154l-12 43h-291l25 110h235l-190 684h174l174 -671l448 671h176z" />
    <glyph glyph-name="brokenbar" unicode="&#xa6;" horiz-adv-x="407" 
d="M266 1503l-4 -891h-123v891h127zM266 377l-4 -891h-123v891h127z" />
    <glyph glyph-name="section" unicode="&#xa7;" horiz-adv-x="929" 
d="M1028 1202h-145q11 75 -23 121.5t-110 46.5q-78 0 -130 -44.5t-65 -102.5q-12 -71 25 -108t157 -79q65 -24 104 -44t71 -49.5t43.5 -69.5t10.5 -96t-18 -136q-18 -91 -43 -155.5t-74.5 -120.5t-121.5 -84q67 -24 92.5 -90.5t7.5 -151.5q-31 -155 -151.5 -251.5
t-264.5 -96.5q-129 0 -203.5 89.5t-50.5 242.5h148q5 -87 37.5 -132t113.5 -45q76 0 136 48.5t77 132.5q14 73 -20.5 115t-151.5 87l-71 27q-103 38 -132.5 121.5t3.5 238.5q31 143 85.5 232t149.5 135q-67 20 -95 81.5t-11 141.5q29 136 134.5 224t237.5 88
q62 0 112.5 -18.5t87 -57.5t49 -98.5t-0.5 -141.5zM799 748q-5 35 -14 56t-31 40q-36 33 -107 33q-50 0 -90 -23.5t-65.5 -63t-40.5 -77t-25 -80.5q-10 -45 -10.5 -86.5t9 -81t39.5 -63t79 -23.5q103 0 170 63q24 22 41 60q18 39 30 86q27 92 15 160z" />
    <glyph glyph-name="dieresis" unicode="&#xa8;" horiz-adv-x="622" 
d="M860 1389l-37 -183h-176l39 183h174zM502 1389l-39 -183h-174l37 183h176z" />
    <glyph glyph-name="copyright" unicode="&#xa9;" horiz-adv-x="1579" 
d="M1145 901h-135q-24 62 -71 98.5t-108 36.5q-85 0 -141 -71q-30 -37 -37.5 -82.5t-7.5 -186.5q1 -141 10 -184.5t41 -83.5q56 -70 144 -70q61 0 106.5 37t69.5 99h135q-30 -122 -110.5 -194.5t-196.5 -72.5q-93 0 -175 50.5t-118 134.5q-33 81 -33 231q0 54 10 219
q6 91 33 148q39 71 114 113t156 42q118 0 200 -71.5t114 -192.5zM1376 1178q19 -41 30 -100t13.5 -105t3.5 -119q2 -57 2 -186q0 -111 -14 -207q-12 -148 -57 -228q-58 -105 -173 -169t-243 -64h-213q-140 0 -267.5 75.5t-183.5 198.5q-18 41 -28.5 99.5t-13 104t-3.5 118.5
q-2 55 -2 199q2 100 13 196q12 143 59 228q59 108 172 170.5t242 62.5h213q142 0 269 -75t181 -199zM1208 1196q-47 59 -118 96t-162 37h-213q-177 0 -279 -133q-43 -55 -60 -109t-24 -169v-193q0 -142 4 -193q3 -71 15 -124q17 -81 73 -152q105 -133 281 -133h213
q174 0 276 133q51 65 67.5 135.5t16.5 245.5v88q-2 235 -17.5 318.5t-72.5 152.5z" />
    <glyph glyph-name="guillemotleft" unicode="&#xab;" horiz-adv-x="917" 
d="M1008 926l-35 -170l-248 -205l162 -207l-35 -170l-295 377zM668 926l-37 -170l-248 -205l164 -207l-35 -170l-297 377z" />
    <glyph glyph-name="logicalnot" unicode="&#xac;" horiz-adv-x="1024" 
d="M864 244v389h-864v158h1024v-547h-160z" />
    <glyph glyph-name="sfthyphen" unicode="&#xad;" horiz-adv-x="782" 
d="M768 430l31 154h-574l-32 -154h575z" />
    <glyph glyph-name="registered" unicode="&#xae;" horiz-adv-x="1579" 
d="M1341 1178q28 -59 37 -136.5t11 -187.5q2 -57 2 -186q0 -104 -15 -207q-12 -148 -57 -228q-58 -105 -173 -169t-243 -64h-213q-140 0 -267 75.5t-183 198.5q-18 41 -28.5 99.5t-13 104t-3.5 118.5q-2 55 -2 199q3 112 12 196q12 143 59 228q59 108 172 170.5t242 62.5
h213q142 0 269 -75t181 -199zM1174 1196q-47 59 -118.5 96t-162.5 37h-213q-177 0 -279 -133q-43 -55 -60 -109t-24 -169v-193q0 -129 5 -193q3 -76 14 -124q17 -79 74 -152q105 -133 280 -133h213q175 0 277 133q51 65 67.5 135.5t16.5 245.5v88q-2 235 -17.5 318.5
t-72.5 152.5zM1098 915q0 -161 -154 -231l191 -373h-144l-172 359h-153v-359h-129v838h315q139 0 207 -105q39 -56 39 -129zM983 907v17q0 31 -18 63q-31 49 -113 49h-190v-256h186q60 0 97.5 33.5t37.5 93.5z" />
    <glyph glyph-name="degree" unicode="&#xb0;" horiz-adv-x="768" 
d="M756 1163q0 -115 -79 -194.5t-190 -79.5t-189.5 79.5t-78.5 194.5t78.5 195t189.5 80t190 -80t79 -195zM647 1163q0 68 -47 116t-113 48t-112.5 -48t-46.5 -116t46.5 -116t112.5 -48t113 48t47 116z" />
    <glyph glyph-name="plusminus" unicode="&#xb1;" horiz-adv-x="1173" 
d="M1223 707l-27 -132h-426l-61 -294h-129l61 294h-426l27 132h428l59 294h129l-61 -294h426zM1104 131l-27 -131h-981l27 131h981z" />
    <glyph glyph-name="twosuperior" unicode="&#xb2;" horiz-adv-x="573" 
d="M434 578h-489l24 112l424 424q42 42 51 90q2 8 2 29q0 25 -4 37l-2 -2q-9 28 -33.5 45.5t-56.5 17.5q-52 0 -94.5 -34t-62.5 -93h-119q26 104 111 174t180 70q73 0 125 -36t69 -97q12 -30 12 -64q0 -25 -6 -49q-20 -89 -80 -149l-362 -357h336z" />
    <glyph glyph-name="threesuperior" unicode="&#xb3;" horiz-adv-x="573" 
d="M510 827q-24 -118 -114.5 -191t-202.5 -73q-86 0 -141.5 57t-55.5 158v4h117q12 -49 36.5 -74.5t73.5 -25.5q56 0 104 39.5t60 101.5q4 14 4 39q0 48 -29.5 74.5t-76.5 26.5h-72l23 108h61q60 0 105 35t55 90q2 8 2 25q0 45 -30 74.5t-77 29.5q-42 0 -81 -27.5t-64 -80.5
h-119q34 94 115.5 159.5t169.5 65.5q96 0 152.5 -56.5t56.5 -138.5q0 -21 -7 -49q-21 -114 -126 -180q65 -50 65 -139q0 -36 -4 -52z" />
    <glyph glyph-name="_00B6h" unicode="&#xb6;" horiz-adv-x="942" 
d="M496 -162h-115v991q-146 3 -251 100t-105 230q0 135 106 239.5t250 104.5h532v-133h-141v-1532h-115v1532h-161v-1532z" />
    <glyph glyph-name="periodcentered" unicode="&#xb7;" horiz-adv-x="444" 
d="M424 582q0 -49 -34 -84t-81 -35t-79.5 34.5t-32.5 84.5q0 48 32.5 82t79.5 34t81 -34.5t34 -81.5z" />
    <glyph glyph-name="onesuperior" unicode="&#xb9;" horiz-adv-x="1193" 
d="M989 1894q82 0 127.5 -58t28.5 -142q-17 -83 -88.5 -142t-151.5 -59q-82 0 -127 58.5t-26 142.5q17 83 86 141.5t151 58.5zM1182 0h-185l-45 328h-575l-180 -328h-185l803 1425h154zM1067 1694q11 50 -17 85.5t-77 35.5t-91 -35.5t-53 -85.5q-11 -51 16.5 -86t78.5 -35
q50 0 91.5 35t51.5 86zM936 483l-92 703h-6l-379 -703h477z" />
    <glyph glyph-name="guillemotright" unicode="&#xbb;" horiz-adv-x="917" 
d="M932 551l-451 -377l35 170l248 207l-164 205l37 170zM295 926l297 -375l-453 -377l35 170l250 207l-164 205z" />
    <glyph glyph-name="onehalf" unicode="&#xbd;" horiz-adv-x="1458" 
d="M1241 0h-553l27 123l440 383q60 50 70 106q4 20 4 29q0 41 -29.5 64.5t-79.5 23.5q-54 0 -93 -34t-60 -93h-138q28 110 114 178t196 68q109 0 168 -53t59 -136q0 -31 -4 -47q-16 -87 -92 -153l-396 -342h392zM1298 1460l-1181 -1495h-123l1177 1495h127zM358 586h-135
l148 712l-154 -84l29 134l149 82h137z" />
    <glyph glyph-name="Adieresis" unicode="&#xc4;" horiz-adv-x="1193" 
d="M1225 1741l-37 -178h-174l37 178h174zM870 1741l-36 -178h-175l37 178h174zM1182 0h-185l-45 328h-575l-180 -328h-185l803 1425h154zM936 483l-92 703h-6l-379 -703h477z" />
    <glyph glyph-name="Eacute" unicode="&#xc9;" horiz-adv-x="1083" 
d="M1243 1794l-323 -283h-136l244 283h215zM1325 1425l-33 -165h-704l-94 -461h600l-33 -158h-600l-99 -475h703l-35 -166h-878l297 1425h876z" />
    <glyph glyph-name="Odieresis" unicode="&#xd6;" horiz-adv-x="1193" 
d="M1225 1741l-37 -178h-174l37 178h174zM870 1741l-36 -178h-175l37 178h174zM1257 1157q24 -108 -6 -266q-33 -220 -73 -359q-40 -172 -99 -266q-82 -127 -223.5 -203.5t-282.5 -76.5t-250.5 76.5t-138.5 203.5q-22 101 13 266q36 225 73 359q45 181 99 266
q86 130 219.5 205.5t285.5 75.5q132 0 244 -78t139 -203zM1055 1145q-64 115 -217 115q-150 0 -265 -115q-63 -63 -93.5 -140t-73.5 -294q-48 -218 -48 -299q0 -71 35 -133q64 -115 217 -115q149 0 264 115q62 62 90.5 134.5t77.5 297.5q45 222 46.5 299.5t-33.5 134.5z" />
    <glyph glyph-name="Udieresis" unicode="&#xdc;" horiz-adv-x="1232" 
d="M1239 1741l-37 -178h-174l37 178h174zM885 1741l-37 -178h-174l37 178h174zM1403 1423l-197 -948q-29 -143 -118.5 -255t-213.5 -172t-260 -60q-208 0 -320.5 141.5t-64.5 366.5l193 927h174l-186 -903q-32 -158 36.5 -256t204.5 -98q139 0 245 88.5t140 245.5l191 923
h176z" />
    <glyph glyph-name="germandbls" unicode="&#xdf;" horiz-adv-x="1032" 
d="M1108 1090q-42 -205 -203 -277q46 -10 76 -33.5t44 -54t16.5 -73.5t-2 -83.5t-15.5 -93.5q-103 -475 -496 -475h-75l34 166l72 -2q193 -7 270 233q49 146 27 238q-25 102 -139 102h-109l29 146h84q91 0 148 58.5t71 131.5q9 29 1.5 66t-22.5 69t-51.5 54t-85.5 22
q-117 0 -180.5 -63t-83.5 -158q-211 -1016 -221 -1063h-166l221 1055q38 181 164.5 278t312.5 97q54 0 100.5 -15t78.5 -40t56.5 -58.5t35.5 -71.5t14.5 -77.5t-6.5 -77.5z" />
    <glyph glyph-name="agrave" unicode="&#xe0;" 
d="M862 1151h-135l-197 287h218zM1096 1014l-211 -1014h-164l24 119q-137 -131 -290 -131q-76 0 -131.5 27.5t-86.5 74t-45.5 111t-13 134t14.5 148.5q16 83 40 157.5t64.5 146.5t91.5 123.5t123.5 83.5t157.5 32q159 0 237 -131l25 119h164zM825 506q79 354 -153 354
q-60 0 -108 -22.5t-78.5 -55.5t-55 -84t-37 -94t-24.5 -98q-9 -46 -13.5 -83.5t-5.5 -80t9 -73.5t28.5 -58t54 -41t84.5 -14q58 0 105 22t77.5 55.5t55 83t37.5 92.5t24 97z" />
    <glyph glyph-name="acircumflex" unicode="&#xe2;" 
d="M1040 1151h-153l-107 188l-184 -188h-154l260 287h197zM1096 1014l-211 -1014h-164l24 119q-137 -131 -290 -131q-76 0 -131.5 27.5t-86.5 74t-45.5 111t-13 134t14.5 148.5q16 83 40 157.5t64.5 146.5t91.5 123.5t123.5 83.5t157.5 32q159 0 237 -131l25 119h164z
M825 506q79 354 -153 354q-60 0 -108 -22.5t-78.5 -55.5t-55 -84t-37 -94t-24.5 -98q-9 -46 -13.5 -83.5t-5.5 -80t9 -73.5t28.5 -58t54 -41t84.5 -14q58 0 105 22t77.5 55.5t55 83t37.5 92.5t24 97z" />
    <glyph glyph-name="adieresis" unicode="&#xe4;" 
d="M1053 1389l-39 -181h-174l37 181h176zM692 1389l-37 -181h-176l39 181h174zM1096 1014l-211 -1014h-164l24 119q-137 -131 -290 -131q-76 0 -131.5 27.5t-86.5 74t-45.5 111t-13 134t14.5 148.5q16 85 39 158t61.5 146t88 124t121 83t156.5 32q170 0 248 -131l25 119h164
zM825 506q79 354 -153 354q-60 0 -108 -22.5t-78.5 -55.5t-55 -84t-37 -94t-24.5 -98q-9 -46 -13.5 -83.5t-5.5 -80t9 -73.5t28.5 -58t54 -41t84.5 -14q58 0 105 22t77.5 55.5t55 83t37.5 92.5t24 97z" />
    <glyph glyph-name="ccedilla" unicode="&#xe7;" horiz-adv-x="860" 
d="M1012 885l-131 -125q-69 100 -189 100q-292 0 -366 -354q-71 -350 219 -350q119 0 231 100l82 -125q-146 -127 -321 -141h-21l-57 -113q56 19 112 19t91.5 -36t19.5 -104q-17 -83 -95 -130.5t-184 -47.5q-114 0 -210 66l47 57q68 -43 155 -43q68 0 113 24.5t55 67.5
q6 35 -10 55.5t-49 20.5q-52 0 -98 -31l-58 25l84 174q-76 10 -135 44.5t-100 97t-50 154t15 216.5q27 135 86 238.5t136 163t160.5 89t172.5 29.5q184 0 295 -141z" />
    <glyph glyph-name="egrave" unicode="&#xe8;" 
d="M856 1151h-135l-197 287h217zM1010 565l-19 -112h-649q-9 -51 -10 -97.5t12 -85.5t37.5 -67t67 -44t100.5 -16q124 0 246 95l77 -121q-162 -129 -352 -129q-41 0 -79.5 6.5t-79.5 22.5t-74.5 41.5t-60.5 66.5t-42 93t-14.5 125.5t18.5 160.5q24 115 66.5 207t93 149.5
t111 96t118.5 54t117 15.5q174 0 261 -126t55 -335zM854 590q24 136 -26 208t-156 72t-186 -73t-115 -207h483z" />
    <glyph glyph-name="eacute" unicode="&#xe9;" 
d="M1051 1438l-316 -287h-135l234 287h217zM1010 565l-19 -112h-649q-9 -51 -10 -97.5t12 -85.5t37.5 -67t67 -44t100.5 -16q124 0 246 95l77 -121q-162 -129 -352 -129q-41 0 -79.5 6.5t-79.5 22.5t-74.5 41.5t-60.5 66.5t-42 93t-14.5 125.5t18.5 160.5q24 115 66.5 207
t93 149.5t111 96t118.5 54t117 15.5q174 0 261 -126t55 -335zM854 590q24 136 -26 208t-156 72t-186 -73t-115 -207h483z" />
    <glyph glyph-name="ecircumflex" unicode="&#xea;" 
d="M1028 1151h-154l-108 188l-182 -188h-154l260 287h197zM1010 565l-19 -112h-649q-9 -51 -10 -97.5t12 -85.5t37.5 -67t67 -44t100.5 -16q124 0 246 95l77 -121q-162 -129 -352 -129q-41 0 -79.5 6.5t-79.5 22.5t-74.5 41.5t-60.5 66.5t-42 93t-14.5 125.5t18.5 160.5
q24 115 66.5 207t93 149.5t111 96t118.5 54t117 15.5q174 0 261 -126t55 -335zM854 590q24 136 -26 208t-156 72t-186 -73t-115 -207h483z" />
    <glyph glyph-name="edieresis" unicode="&#xeb;" 
d="M1047 1389l-37 -181h-176l36 181h177zM686 1389l-37 -181h-176l39 181h174zM1010 565l-19 -112h-649q-9 -51 -10 -97.5t12 -85.5t37.5 -67t67 -44t100.5 -16q124 0 246 95l77 -121q-162 -129 -352 -129q-41 0 -79.5 6.5t-79.5 22.5t-74.5 41.5t-60.5 66.5t-42 93
t-14.5 125.5t18.5 160.5q24 115 66.5 207t93 149.5t111 96t118.5 54t117 15.5q174 0 261 -126t55 -335zM856 590q23 137 -27.5 208.5t-156.5 71.5t-186 -73t-115 -207h485z" />
    <glyph glyph-name="icircumflex" unicode="&#xee;" horiz-adv-x="444" 
d="M758 1149h-154l-104 186l-183 -186h-151l258 285h194zM514 1016l-160 -768q-18 -94 88 -94h41l-32 -154h-70q-111 0 -165 57.5t-26 182.5l162 776h162z" />
    <glyph glyph-name="idieresis" unicode="&#xef;" horiz-adv-x="444" 
d="M774 1389l-37 -181h-176l37 181h176zM414 1389l-37 -181h-174l37 181h174zM514 1016l-160 -768q-18 -94 88 -94h41l-32 -154h-70q-111 0 -165 57.5t-26 182.5l162 776h162z" />
    <glyph glyph-name="ocircumflex" unicode="&#xf4;" 
d="M1032 1151h-153l-109 188l-182 -188h-154l260 287h197zM1001 508q-26 -138 -61 -216t-88 -136q-152 -168 -365 -168q-216 0 -299 176q-26 57 -26 127q0 74 28 217q28 145 73 239.5t143 174.5q125 104 296 104q70 0 126 -17.5t91.5 -47t56.5 -61t32 -66.5q16 -44 18 -99
t-4 -103.5t-21 -123.5zM852 739q-20 59 -67.5 90t-114.5 31q-138 0 -224 -108q-33 -40 -52.5 -92t-39.5 -152q-10 -54 -14 -77t-4.5 -65t10.5 -73q21 -64 41 -86q47 -53 135 -53q86 0 166 53q44 32 74.5 83t42 88t26.5 103q3 10 6.5 30t6.5 30q29 127 8 198z" />
    <glyph glyph-name="odieresis" unicode="&#xf6;" 
d="M1053 1389l-39 -181h-174l37 181h176zM692 1389l-37 -181h-176l39 181h174zM1001 508q-26 -138 -61 -216t-88 -136q-152 -168 -365 -168q-216 0 -299 176q-26 57 -26 127q0 74 28 217q28 145 73 239.5t143 174.5q125 104 296 104q70 0 126 -17.5t91.5 -47t56.5 -61
t32 -66.5q16 -44 18 -99t-4 -103.5t-21 -123.5zM852 739q-20 59 -67.5 90t-114.5 31q-138 0 -224 -108q-33 -40 -52.5 -92t-39.5 -152q-10 -54 -14 -77t-4.5 -65t10.5 -73q21 -64 41 -86q47 -53 135 -53q86 0 166 53q44 32 74.5 83t42 88t26.5 103q3 10 6.5 30t6.5 30
q29 127 8 198z" />
    <glyph glyph-name="divide" unicode="&#xf7;" horiz-adv-x="1173" 
d="M893 928q-11 -48 -50.5 -82.5t-86.5 -34.5t-74 35t-16 82q11 48 50.5 82t86.5 34t74 -34.5t16 -81.5zM1194 563l-27 -129h-981l27 129h981zM627 188q47 0 73 -33.5t15 -80.5q-10 -49 -50 -83t-87 -34q-48 0 -74.5 34t-16.5 83q10 47 51.5 80.5t88.5 33.5z" />
    <glyph glyph-name="ugrave" unicode="&#xf9;" horiz-adv-x="1056" 
d="M823 1151h-135l-196 287h217zM1128 1014l-208 -1014h-164l22 115h-6q-121 -127 -291 -127q-61 0 -117 23t-98.5 66t-60.5 112t0 153l139 672h164l-125 -608q-25 -126 24 -189t152 -63q100 0 178.5 68.5t102.5 183.5l125 608h163z" />
    <glyph glyph-name="ucircumflex" unicode="&#xfb;" horiz-adv-x="1056" 
d="M1057 1151h-154l-108 188l-183 -188h-153l260 287h196zM1128 1014l-208 -1014h-164l22 115h-6q-121 -127 -291 -127q-61 0 -117 23t-98.5 66t-60.5 112t0 153l139 672h164l-125 -608q-25 -126 24 -189t152 -63q100 0 178.5 68.5t102.5 183.5l125 608h163z" />
    <glyph glyph-name="udieresis" unicode="&#xfc;" horiz-adv-x="1056" 
d="M1059 1389l-39 -181h-174l37 181h176zM698 1389l-36 -181h-177l37 181h176zM1128 1014l-208 -1014h-164l22 115h-6q-121 -127 -291 -127q-61 0 -117 23t-98.5 66t-60.5 112t0 153l139 672h164l-125 -608q-25 -126 24 -189t152 -63q100 0 178.5 68.5t102.5 183.5l125 608
h163z" />
    <glyph glyph-name="oe" unicode="&#x153;" horiz-adv-x="1628" 
d="M1665 575l-29 -133h-649q-31 -151 28 -226t181 -75q131 0 248 97l96 -103q-163 -147 -373 -147q-254 0 -313 190q-151 -190 -367 -190q-105 0 -167.5 35.5t-104.5 93.5q-30 46 -42.5 89.5t-9.5 117t27 184.5q36 166 75.5 247t111.5 144q146 127 325 127q212 0 289 -186
q151 186 361 186q169 0 262.5 -126t50.5 -325zM1505 580q24 138 -27.5 215t-158.5 77q-108 0 -188.5 -74t-114.5 -218h489zM838 506q14 66 20 107.5t3.5 84.5t-17.5 78q-42 96 -172 96q-131 0 -211 -96q-68 -84 -107 -268q-14 -66 -20 -107.5t-3.5 -84.5t17.5 -78
q43 -97 172 -97q131 0 211 97q40 48 63 109.5t44 158.5z" />
    <glyph glyph-name="tonos" unicode="&#x384;" horiz-adv-x="622" 
d="M872 1438l-317 -289h-135l235 289h217z" />
    <glyph glyph-name="dieresistonos" unicode="&#x385;" horiz-adv-x="782" 
d="M1044 1389l-36 -183h-174l36 183h174zM885 1438l-318 -289h-133l234 289h217zM475 1389l-37 -183h-174l37 183h174z" />
    <glyph glyph-name="Alphatonos" unicode="&#x386;" horiz-adv-x="1193" 
d="M649 1440l-311 -285h-135l231 285h215zM1182 0h-185l-45 328h-575l-180 -328h-185l803 1425h154zM936 483l-92 703h-6l-379 -703h477z" />
    <glyph glyph-name="Epsilontonos" unicode="&#x388;" horiz-adv-x="1083" 
d="M1325 1425l-33 -165h-702l-96 -461h600l-33 -158h-600l-99 -475h703l-35 -166h-878l297 1425h876zM389 1440l-313 -285h-133l231 285h215z" />
    <glyph glyph-name="Etatonos" unicode="&#x389;" horiz-adv-x="1269" 
d="M1413 1425l-295 -1425h-176l133 641h-614l-133 -641h-176l297 1425h174l-129 -626h614l129 626h176zM389 1440l-313 -285h-133l231 285h215z" />
    <glyph glyph-name="Iotatonos" unicode="&#x38a;" horiz-adv-x="481" 
d="M389 1440l-313 -285h-133l231 285h215zM623 1425l-295 -1425h-176l297 1425h174z" />
    <glyph glyph-name="Omicrontonos" unicode="&#x38c;" horiz-adv-x="1157" 
d="M426 1440l-311 -285h-135l231 285h215zM1257 1157q11 -45 11 -108q0 -73 -15 -158q-41 -238 -73 -359q-43 -175 -101 -266q-82 -127 -222.5 -203.5t-283.5 -76.5q-140 0 -250 78t-137 202q-10 52 -10 99q0 67 19 167q46 254 73 359q49 184 101 266q87 133 216 207t289 74
q132 0 244 -78t139 -203zM1057 1145q-29 51 -84 83t-135 32q-150 0 -265 -115q-63 -63 -93.5 -140t-73.5 -294q-50 -236 -50 -303q0 -66 37 -129q64 -115 217 -115q149 0 264 115q44 44 67 85t44.5 116t54.5 231q50 229 50 309q0 61 -33 125z" />
    <glyph glyph-name="Upsilontonos" unicode="&#x38e;" horiz-adv-x="970" 
d="M1282 1425l-592 -837l-121 -588h-168l123 588l-245 837h184l180 -667l455 667h184zM229 1440l-313 -285h-133l231 285h215z" />
    <glyph glyph-name="Omegatonos" unicode="&#x38f;" horiz-adv-x="1157" 
d="M403 1440l-311 -285h-135l231 285h215zM1268 1157q22 -101 -13 -266q-5 -32 -34 -180q-8 -42 -21 -96t-16 -68q-3 -9 -9.5 -33.5t-9 -34t-8 -29t-9.5 -30t-9.5 -26t-11.5 -28.5t-13 -26q-53 -104 -158 -174h179l-33 -166h-412l41 195q104 34 182 143q46 66 71 130t63 243
q44 221 45.5 299t-33.5 135q-28 51 -84.5 83t-136.5 32q-154 0 -269 -115q-44 -44 -67.5 -84t-47 -120t-53.5 -230q-39 -188 -42.5 -262t20.5 -119q43 -102 125 -135l-39 -195h-412l35 166h176q-57 57 -68.5 126.5t-2.5 180.5q2 14 4.5 48.5t6.5 64.5t11 67q35 167 39 181
q34 144 82 243q51 111 123 183q86 84 196 131t219 47q142 0 254.5 -77.5t139.5 -203.5z" />
    <glyph glyph-name="iotadieresistonos" unicode="&#x390;" horiz-adv-x="485" 
d="M893 1389l-37 -181h-176l37 181h176zM731 1438l-315 -287h-135l233 287h217zM324 1389l-37 -181h-176l36 181h177zM516 1014l-158 -764q-11 -48 10.5 -71t77.5 -23h41l-30 -156h-72q-242 0 -192 242l159 772h164z" />
    <glyph glyph-name="Alpha" unicode="&#x391;" horiz-adv-x="1193" 
d="M1182 0h-185l-45 328h-575l-180 -328h-185l803 1425h154zM936 483l-92 703h-6l-379 -703h477z" />
    <glyph glyph-name="Beta" unicode="&#x392;" horiz-adv-x="1193" 
d="M1313 1053q-7 -47 -23.5 -90.5t-47 -88t-82.5 -80.5t-120 -57l-2 -6q56 -14 95 -49t55 -80.5t20 -100t-8 -106.5q-36 -177 -168.5 -286t-296.5 -109h-583l297 1425h520q196 0 282 -98t62 -274zM928 1268h-338l-94 -461h338q123 0 201.5 64t99.5 167q21 101 -31.5 165.5
t-175.5 64.5zM821 651h-358l-101 -485h359q144 -3 237 103q74 85 76 189q1 106 -76 159q-54 36 -137 34z" />
    <glyph glyph-name="Gamma" unicode="&#x393;" horiz-adv-x="1046" 
d="M1325 1425l-33 -165h-702q-14 -69 -124 -594t-138 -666h-176l297 1425h876z" />
    <glyph glyph-name="Delta" unicode="&#x394;" horiz-adv-x="1193" 
d="M1182 0h-1170l803 1425h154zM975 158l-131 1028h-6l-555 -1028h692z" />
    <glyph glyph-name="Epsilon" unicode="&#x395;" horiz-adv-x="1083" 
d="M1325 1425l-33 -165h-702l-96 -461h600l-33 -158h-600l-99 -475h703l-35 -166h-878l297 1425h876z" />
    <glyph glyph-name="Zeta" unicode="&#x396;" horiz-adv-x="1009" 
d="M1239 1425l-29 -143l-905 -1116h674l-35 -166h-878l32 158l901 1110h-645l33 157h852z" />
    <glyph glyph-name="Eta" unicode="&#x397;" horiz-adv-x="1269" 
d="M1413 1425l-295 -1425h-176l133 641h-614l-133 -641h-176l297 1425h174l-129 -626h614l129 626h176z" />
    <glyph glyph-name="Theta" unicode="&#x398;" horiz-adv-x="1157" 
d="M1059 799q30 176 27.5 231t-33.5 113q-65 117 -215 117q-148 0 -265 -117q-54 -57 -82 -118.5t-67 -225.5h635zM1026 641h-612q-21 -122 -23 -137q-9 -62 -10.5 -103t4.5 -70t15.5 -47t27.5 -40q65 -80 182 -80q147 0 264 117q57 57 85.5 121t66.5 239zM1264 1157
q10 -41 10 -108q0 -78 -14 -158q-39 -227 -74 -359q-43 -175 -101 -266q-82 -127 -222 -203.5t-283 -76.5q-140 0 -250 78t-137 202q-11 57 -11 99q0 67 19 167q46 254 73 359q49 184 101 266q87 133 216.5 207t289.5 74q132 0 244 -78t139 -203z" />
    <glyph glyph-name="Iota" unicode="&#x399;" horiz-adv-x="481" 
d="M623 1425l-295 -1425h-176l297 1425h174z" />
    <glyph glyph-name="Kappa" unicode="&#x39a;" horiz-adv-x="1232" 
d="M1456 1425l-557 -555l318 -870h-209l-258 721l-340 -328l-82 -393h-176l297 1425h174l-158 -768l6 2l782 766h203z" />
    <glyph glyph-name="Lambda" unicode="&#x39b;" horiz-adv-x="1193" 
d="M1182 0h-185q-19 138 -29.5 215t-17.5 138t-35 282.5t-71 550.5h-6q-449 -838 -641 -1186h-185l803 1425h154z" />
    <glyph glyph-name="Mu" unicode="&#x39c;" horiz-adv-x="1492" 
d="M1659 1425l-295 -1425h-174l205 995l-6 -2l-510 -782h-154l-186 784l-4 -4l-207 -991h-176l297 1425h174l229 -983l637 983h170z" />
    <glyph glyph-name="Nu" unicode="&#x39d;" horiz-adv-x="1343" 
d="M1493 1425l-297 -1425h-172l-465 1094l-4 -2l-227 -1092h-176l297 1425h172l464 -1097l5 4l227 1093h176z" />
    <glyph glyph-name="Xi" unicode="&#x39e;" horiz-adv-x="1134" 
d="M1309 1425l-35 -165h-899l35 165h899zM1071 799l-33 -158h-684l33 158h684zM1047 166l-35 -166h-897l35 166h897z" />
    <glyph glyph-name="Omicron" unicode="&#x39f;" horiz-adv-x="1157" 
d="M1257 1157q11 -45 11 -108q0 -73 -15 -158q-41 -238 -73 -359q-43 -175 -101 -266q-82 -127 -222.5 -203.5t-283.5 -76.5q-140 0 -250 78t-137 202q-10 52 -10 99q0 67 19 167q46 254 73 359q49 184 101 266q87 133 216 207t289 74q132 0 244 -78t139 -203zM1057 1145
q-29 51 -84 83t-135 32q-150 0 -265 -115q-63 -63 -93.5 -140t-73.5 -294q-50 -236 -50 -303q0 -66 37 -129q64 -115 217 -115q149 0 264 115q44 44 67 85t44.5 116t54.5 231q50 229 50 309q0 61 -33 125z" />
    <glyph glyph-name="Pi" unicode="&#x3a0;" horiz-adv-x="1269" 
d="M1413 1425l-295 -1425h-176l262 1268h-614l-262 -1268h-176l297 1425h964z" />
    <glyph glyph-name="Rho" unicode="&#x3a1;" horiz-adv-x="1132" 
d="M1317 993q-40 -180 -172 -293q-151 -127 -344 -127h-355l-118 -573h-176l297 1425h493q291 0 367 -208q34 -94 8 -224zM1143 999q28 126 -33.5 193.5t-183.5 67.5h-336l-109 -521h346q109 0 187 60q105 75 129 200z" />
    <glyph glyph-name="Sigma" unicode="&#x3a3;" horiz-adv-x="1009" 
d="M1214 1425l-32 -157h-645l223 -535l-455 -567h674l-35 -166h-878l32 158l455 575l-219 549l28 143h852z" />
    <glyph glyph-name="Tau" unicode="&#x3a4;" horiz-adv-x="970" 
d="M1264 1425l-33 -157h-395l-263 -1268h-176l262 1268h-393l33 157h965z" />
    <glyph glyph-name="Upsilon" unicode="&#x3a5;" horiz-adv-x="970" 
d="M1282 1425l-592 -837l-121 -588h-168l123 588l-245 837h184l180 -667l455 667h184z" />
    <glyph glyph-name="Phi" unicode="&#x3a6;" horiz-adv-x="1462" 
d="M1546 815q-22 -105 -34.5 -157.5t-39 -131t-59.5 -135.5q-51 -90 -154 -156t-210.5 -95t-204.5 -29l-25 -111h-174l23 111q-142 4 -253 78t-163 199t-25 269q23 124 52 213.5t47.5 124t52.5 86.5q81 125 235.5 203t313.5 78l12 63h176l-14 -63q70 0 119 -10
q117 -25 204 -95.5t111 -175.5q31 -145 10 -266zM1374 956q-11 76 -57.5 130t-110.5 79t-139 25l-188 -907q150 7 257 75t162 187q31 69 58 211t18 200zM891 1192q-94 -1 -175.5 -36t-131.5 -87q-93 -93 -150.5 -260t-34.5 -297q19 -105 100 -167t203 -62z" />
    <glyph glyph-name="Chi" unicode="&#x3a7;" horiz-adv-x="1044" 
d="M1313 1425l-543 -694l277 -731h-197l-211 567l-446 -567h-195l580 731l-259 694h197l191 -530l409 530h197z" />
    <glyph glyph-name="Psi" unicode="&#x3a8;" horiz-adv-x="1449" 
d="M1620 1425l-139 -669q-45 -215 -214 -346.5t-399 -143.5l-55 -266h-176l55 268q-225 8 -339 150t-68 358l135 649h176l-131 -624q-33 -159 40 -254.5t224 -100.5l203 979h176l-203 -979q151 0 262.5 89t143.5 245l135 645h174z" />
    <glyph glyph-name="Omega" unicode="&#x3a9;" horiz-adv-x="1157" 
d="M1268 1157q20 -95 -11 -266q-21 -104 -36 -180q-8 -42 -21 -96t-16 -68q-3 -12 -6 -21q-2 -6 -7.5 -26.5t-7 -26.5t-6.5 -23t-7 -24t-7 -21t-9 -23t-9 -20.5t-11 -21.5q-53 -104 -158 -174h179l-33 -166h-412l41 195q104 34 182 143q46 65 70 129.5t61 243.5
q46 222 48 299.5t-33 134.5q-28 51 -84.5 83t-136.5 32q-154 0 -269 -115q-43 -43 -67 -83.5t-48 -120.5t-55 -230q-38 -188 -41 -262t21 -119q43 -102 125 -135l-39 -195h-412l35 166h176q-57 57 -68.5 126.5t-2.5 180.5q2 14 4.5 48.5t6.5 64.5t11 67q35 167 39 181
q35 147 82 243q51 111 123 183q86 84 196 131t219 47q142 0 254.5 -77.5t139.5 -203.5z" />
    <glyph glyph-name="Iotadieresis" unicode="&#x3aa;" horiz-adv-x="481" 
d="M868 1749l-37 -178h-176l37 178h176zM512 1749l-37 -178h-176l37 178h176zM623 1423l-295 -1423h-176l297 1423h174z" />
    <glyph glyph-name="Upsilondieresis" unicode="&#x3ab;" horiz-adv-x="970" 
d="M1116 1749l-39 -178h-174l39 178h174zM760 1749l-37 -178h-174l37 178h174zM1282 1425l-592 -837l-121 -588h-168l123 588l-245 837h184l180 -669l455 669h184z" />
    <glyph glyph-name="alphatonos" unicode="&#x3ac;" horiz-adv-x="1009" 
d="M1065 1438l-315 -287h-136l234 287h217zM1096 1014l-211 -1014h-164l24 119q-137 -131 -290 -131q-76 0 -131.5 27.5t-86.5 74t-45 111t-12.5 134t15.5 148.5q15 83 39 157.5t64 146.5t91 123.5t123.5 83.5t157.5 32q159 0 237 -131l25 119h164zM825 506q79 354 -153 354
q-60 0 -108 -22.5t-78.5 -55.5t-55 -84t-37 -94t-24.5 -98q-9 -46 -13.5 -83.5t-5.5 -80t9 -73.5t28.5 -58t54 -41t84.5 -14q58 0 105 22t77.5 55.5t55 83t37.5 92.5t24 97z" />
    <glyph glyph-name="epsilontonos" unicode="&#x3ad;" horiz-adv-x="878" 
d="M1034 1438l-315 -287h-135l233 287h217zM1018 885l-131 -125q-33 45 -87 72.5t-116 27.5q-90 0 -164 -39t-86 -94q-2 -6 -2 -20q0 -49 47 -83t129 -34h131l-26 -135h-148q-82 0 -151.5 -44t-81.5 -108q-2 -6 -2 -18q0 -58 61 -93.5t148 -35.5q61 0 126 27t117 73l82 -125
q-80 -65 -177.5 -102t-197.5 -37q-159 0 -253.5 91t-65.5 224q9 41 31.5 81.5t69.5 80.5t108 55q-49 20 -76 57.5t-33 73.5t0 74q20 123 135 210t304 87q97 0 177.5 -38t131.5 -103z" />
    <glyph glyph-name="etatonos" unicode="&#x3ae;" horiz-adv-x="1046" 
d="M1018 1438l-316 -287h-135l234 287h217zM1047 637l-195 -946h-166l191 917q25 123 -24.5 186.5t-150.5 63.5q-102 0 -180 -67.5t-102 -182.5l-125 -608h-164l209 1014h164l-23 -115h6q61 64 139 95.5t160 31.5q61 0 115 -25.5t94 -74.5t54.5 -121.5t-2.5 -167.5z" />
    <glyph glyph-name="iotatonos" unicode="&#x3af;" horiz-adv-x="485" 
d="M788 1438l-317 -289h-135l235 289h217zM516 1014l-158 -764q-11 -48 10.5 -71t77.5 -23h41l-30 -156h-72q-242 0 -192 242l159 772h164z" />
    <glyph glyph-name="upsilondieresistonos" unicode="&#x3b0;" horiz-adv-x="1056" 
d="M1182 1389l-37 -181h-176l37 181h176zM1020 1438l-315 -287h-136l234 287h217zM612 1389l-37 -181h-176l37 181h176zM1133 1014l-136 -660q-22 -106 -97 -191t-175 -130t-201 -45t-180.5 46t-118 131t-16.5 189l137 660h164l-125 -608q-24 -115 26 -183.5t150 -68.5
q101 0 180 68.5t103 183.5l125 608h164z" />
    <glyph glyph-name="alpha" unicode="&#x3b1;" horiz-adv-x="993" 
d="M1096 1014l-211 -1014h-164l24 119q-137 -131 -290 -131q-76 0 -132 27.5t-87 74t-45.5 111t-13 134t15.5 148.5q15 83 39 157.5t64.5 146.5t91.5 124t124 83.5t158 31.5q159 0 237 -131l25 119h164zM825 506q79 354 -153 354q-60 0 -108 -22.5t-78.5 -55.5t-55 -84
t-37 -94t-24.5 -98q-9 -46 -13.5 -83.5t-5.5 -80t9 -73.5t28.5 -58t54 -41t84.5 -14q58 0 105 22t77.5 55.5t55 83t37.5 92.5t24 97z" />
    <glyph glyph-name="beta" unicode="&#x3b2;" horiz-adv-x="1032" 
d="M1096 1090q-12 -90 -58.5 -164t-132.5 -113q55 -10 88 -41t43.5 -79.5t8.5 -100.5t-15 -117q-15 -79 -36.5 -145t-59 -131.5t-85.5 -110t-119.5 -72.5t-158.5 -28q-177 0 -252 127l-22 -115h-166l221 1055q38 183 156.5 279t302.5 96q79 0 140.5 -32.5t94 -83.5
t46 -109.5t4.5 -114.5zM930 1073q1 24 1.5 52t-10 56t-26.5 51t-46.5 37.5t-70.5 14.5q-60 0 -107.5 -18.5t-77.5 -51.5t-48 -70t-27 -81l-117 -563q-75 -346 158 -346q58 0 106 22t79 55t55.5 82t38 92t24.5 97q10 52 10 88q0 147 -155 147h-158l31 146h131q90 0 142 57.5
t67 132.5z" />
    <glyph glyph-name="gamma" unicode="&#x3b3;" horiz-adv-x="833" 
d="M412 -410l92 449l553 975h-183l-409 -735q-12 82 -40.5 266.5t-41.5 275.5q-12 89 -47 136t-111 67l-84 -150q26 -10 43 -24t27 -37t15 -43t10 -57l104 -670l-94 -453h166z" />
    <glyph glyph-name="delta" unicode="&#x3b4;" 
d="M848 141q-146 -153 -361 -153q-207 0 -290 170q-26 55 -28.5 125t21.5 209q32 175 106 294t210 170q-52 40 -72.5 90t-7.5 125q12 67 50.5 119.5t93.5 84t117.5 47.5t127.5 16q89 0 156 -19.5t137 -62.5l-92 -150q-111 71 -225 74q-73 0 -127 -26.5t-64 -79.5
q0 -3 -1 -8.5t-1 -8.5q0 -37 32 -69.5t67 -49.5t88 -38t65 -27q93 -46 134 -115t39 -158t-22 -208q-25 -137 -61 -214t-92 -137zM700 860h-20q-68 0 -131 -34t-103 -91q-32 -45 -54 -98t-42 -145q-39 -188 12 -269q49 -76 158 -76q84 0 166 54q67 44 100 117t52 171
q20 98 17.5 170t-40.5 122t-115 79z" />
    <glyph glyph-name="epsilon" unicode="&#x3b5;" horiz-adv-x="878" 
d="M1018 885l-131 -125q-33 45 -87 72.5t-116 27.5q-90 0 -164 -39t-86 -94q-2 -6 -2 -20q0 -49 47 -83t129 -34h131l-26 -135h-148q-82 0 -151.5 -44t-81.5 -108q-2 -6 -2 -18q0 -58 61 -93.5t148 -35.5q61 0 126 27t117 73l82 -125q-80 -65 -177.5 -102t-197.5 -37
q-159 0 -253.5 91t-65.5 224q9 41 31.5 81.5t69.5 80.5t108 55q-49 20 -76 57.5t-33 73.5t0 74q20 123 135 210t304 87q97 0 177.5 -38t131.5 -103z" />
    <glyph glyph-name="zeta" unicode="&#x3b6;" horiz-adv-x="776" 
d="M1126 1423l-30 -141q-79 -51 -172 -124.5t-199.5 -175t-192 -204t-142 -216.5t-56.5 -208q0 -115 137 -172q102 -47 201 -88q61 -26 92.5 -57.5t32 -86t-44.5 -128.5l-136 -215l-147 74l80 124q33 57 33 82q0 38 -54 60l-176 69q-96 38 -150.5 117t-54.5 193
q0 106 50.5 223t127.5 217.5t179.5 201t194 173.5t184.5 135h-471l30 147h684z" />
    <glyph glyph-name="eta" unicode="&#x3b7;" horiz-adv-x="1046" 
d="M1047 637l-195 -946h-166l191 917q25 123 -24.5 186.5t-150.5 63.5q-102 0 -180 -67.5t-102 -182.5l-125 -608h-164l209 1014h164l-23 -115h6q61 64 139 95.5t160 31.5q61 0 115 -25.5t94 -74.5t54.5 -121.5t-2.5 -167.5z" />
    <glyph glyph-name="theta" unicode="&#x3b8;" 
d="M1087 915q-7 -35 -40 -204q-8 -41 -21.5 -101t-17.5 -78q-16 -72 -26.5 -113t-36 -102t-58.5 -106q-65 -86 -99 -113q-134 -110 -301 -110q-217 0 -299 174q-10 22 -16.5 45.5t-7 54.5t-1 49.5t5.5 58.5t7.5 51.5t10.5 59t10 51.5q5 26 16.5 86.5t17.5 92.5
q8 41 24.5 113.5t20.5 90.5q15 70 28.5 118.5t37.5 105t62 104t90 88.5q126 105 299 105q169 0 256 -103q35 -43 52 -90t15.5 -107t-7.5 -101t-22 -120zM940 1151q-20 59 -67.5 89t-114.5 30q-135 0 -223 -107q-25 -29 -45 -73t-28 -71t-22 -89.5t-16 -71.5l-10 -47h493
l8 39q2 13 13.5 71.5t16 87t4.5 71.5t-9 71zM877 664h-492l-20 -91q-30 -140 -29 -200q0 -41 10 -72q1 -2 4 -12.5l4 -14t3.5 -12.5t4.5 -13t5.5 -12t6.5 -12.5t7.5 -10.5t9.5 -11q46 -49 131 -49q91 0 166 53q106 71 166 354z" />
    <glyph glyph-name="iota" unicode="&#x3b9;" horiz-adv-x="448" 
d="M516 1014l-158 -764q-11 -48 10.5 -71t77.5 -23h41l-30 -156h-72q-240 0 -192 242l159 772h164z" />
    <glyph glyph-name="kappa" unicode="&#x3ba;" horiz-adv-x="999" 
d="M1137 1014l-414 -387l266 -627h-182l-215 506l-232 -217l-61 -289h-164l211 1014h164l-102 -492l6 2l526 490h197z" />
    <glyph glyph-name="lambda" unicode="&#x3bb;" horiz-adv-x="862" 
d="M893 -8q-114 5 -162 45.5t-61 148.5l-72 576l-420 -762h-184l575 983l-18 176q-6 55 -39 81t-98 26h-23l33 155q66 0 111 -7.5t83 -28t59 -59.5t28 -99l122 -971q7 -64 24 -81t75 -25z" />
    <glyph glyph-name="mu" unicode="&#x3bc;" horiz-adv-x="1042" 
d="M1130 1014l-208 -1014h-164l22 115h-6q-61 -64 -139 -95.5t-160 -31.5q-95 0 -166 59l-94 -457h-164l295 1424h164v-2l-125 -606q-24 -115 26 -182.5t150 -67.5t178.5 67.5t102.5 182.5l125 608h163z" />
    <glyph glyph-name="nu" unicode="&#x3bd;" horiz-adv-x="872" 
d="M1079 1014l-575 -1014h-142l-153 1014h174l102 -754h7l411 754h176z" />
    <glyph glyph-name="xi" unicode="&#x3be;" horiz-adv-x="823" 
d="M1038 1198l107 148q-119 90 -320 90q-112 0 -214.5 -43.5t-177 -129t-95.5 -196.5q-8 -30 -5 -70t13 -76.5t39 -71.5t72 -56q-229 -82 -289 -375q-33 -149 22 -255.5t172 -146.5l185 -65q50 -17 51.5 -54.5t-31.5 -80.5l-88 -135l148 -74l135 215q35 54 46 97t4.5 72.5
t-33 54.5t-56.5 40.5t-76 32.5q-34 11 -162 61q-84 34 -122.5 92t-18.5 156q25 113 109.5 201t185.5 88h250l29 145h-201q-103 0 -164.5 54.5t-40.5 146.5q20 89 104 149t187 60q63 0 117 -15t118 -59z" />
    <glyph glyph-name="omicron" unicode="&#x3bf;" 
d="M1001 508q-26 -138 -61 -216t-88 -136q-152 -168 -365 -168q-216 0 -299 176q-26 57 -26 127q0 74 28 217q28 145 73 239.5t143 174.5q125 104 296 104q70 0 126 -17.5t91.5 -47t57 -60.5t33.5 -67q15 -44 16.5 -99t-5 -103.5t-20.5 -123.5zM852 739q-20 59 -67.5 90
t-114.5 31q-138 0 -224 -108q-33 -40 -52.5 -92t-39.5 -152q-10 -54 -14 -77t-4.5 -65t10.5 -73q21 -64 41 -86q47 -53 135 -53t166 55q44 31 74.5 81.5t42 87.5t26.5 103q3 10 6.5 30t6.5 30q29 127 8 198z" />
    <glyph glyph-name="pi" unicode="&#x3c0;" horiz-adv-x="1056" 
d="M1130 1016l-208 -1016h-164l178 866h-457l-178 -866h-166l211 1016h784z" />
    <glyph glyph-name="rho" unicode="&#x3c1;" horiz-adv-x="1011" 
d="M1016 500q-112 -512 -461 -512q-164 0 -248 131l-108 -529h-164l188 918q29 145 73 240.5t140 173.5q125 104 293 104q167 0 248 -104q44 -55 59 -124.5t8.5 -135t-28.5 -162.5zM866 739q-38 121 -176 121q-132 0 -215 -108q-33 -42 -51.5 -92t-38.5 -152
q-11 -56 -16 -94.5t-2 -87.5t20 -84q44 -86 158 -86q91 0 157 51q33 24 58 58.5t42.5 81t25.5 76.5t20 83q20 95 24 144.5t-6 88.5z" />
    <glyph glyph-name="sigma1" unicode="&#x3c2;" horiz-adv-x="862" 
d="M942 760l135 127q-64 75 -137.5 107t-169.5 32q-75 0 -144.5 -18t-135 -58t-118 -100.5t-93.5 -150t-62 -201.5q-11 -58 -13 -108.5t1 -89.5t16.5 -74t26.5 -59t39.5 -48t45.5 -38.5t55 -32.5t57.5 -27.5t62.5 -26.5q7 -3 22.5 -9.5t22.5 -9.5q32 -14 48.5 -29.5
t18.5 -33t-5 -35t-23 -41.5l-86 -129l143 -88q9 14 27.5 42t32 48t12.5 19q29 44 46 73t36 68.5t21 69t-5 60.5t-34.5 57t-73.5 46l-209 93q-89 40 -113.5 112.5t-1.5 190.5q33 181 129 270.5t242 89.5q109 0 184 -98z" />
    <glyph glyph-name="sigma" unicode="&#x3c3;" horiz-adv-x="1013" 
d="M1196 1014q-7 -38 -17 -81.5t-14 -66.5h-182q41 -68 43.5 -165.5t-22.5 -196.5q-53 -247 -150 -352q-156 -164 -367 -164q-217 0 -299 174q-26 57 -27.5 128.5t25.5 213.5q30 144 74.5 235.5t142.5 171.5q124 103 297 103h496zM850 731q-20 59 -67.5 90t-114.5 31
q-137 0 -224 -109q-32 -40 -51 -89.5t-41 -149.5q0 -2 -1 -5t-1 -5q-12 -59 -17 -91.5t-2 -79.5t21 -81q50 -90 170 -90q89 0 164 55q29 20 52 48t36.5 52t26.5 62t18.5 59.5t14.5 63.5q0 2 1 5t1 5q36 163 14 229z" />
    <glyph glyph-name="tau" unicode="&#x3c4;" horiz-adv-x="636" 
d="M811 1014l-31 -148h-211l-120 -587q-5 -33 -5.5 -60t17.5 -45t57 -18h55l-30 -156h-86q-105 0 -155 63.5t-26 178.5l130 624h-207l30 148h582z" />
    <glyph glyph-name="upsilon" unicode="&#x3c5;" horiz-adv-x="1056" 
d="M1133 1014l-136 -658q-22 -106 -97 -191.5t-175 -131t-201 -45.5q-76 0 -141 27t-109.5 74.5t-62.5 117t-2 149.5l137 658h164l-125 -608q-24 -115 26 -182.5t150 -67.5q102 0 180.5 67.5t102.5 182.5l125 608h164z" />
    <glyph glyph-name="phi" unicode="&#x3c6;" horiz-adv-x="1175" 
d="M1200 508q27 126 27 227q0 100 -72 187q-89 104 -266 104h-172l-180 -870q-105 0 -158 53q-66 66 -39 227q3 12 7 35t7 35q22 100 38 148.5t44 84.5q59 79 158 109l-25 158q-87 -23 -163 -84q-98 -80 -143 -174.5t-73 -239.5q-27 -147 -23 -221t34 -131q83 -168 301 -168
l-82 -396h166l82 396q231 0 383 168q52 55 85.5 133t63.5 219zM1034 506q-2 -9 -8.5 -39.5t-10 -44.5t-11.5 -40.5t-15 -43.5t-18.5 -37.5t-24.5 -36.5q-11 -14 -25 -25.5t-24 -18t-32 -19t-34 -19.5q-54 -28 -129 -28l148 710q42 0 82 -12q42 -14 73 -43t44 -70
q12 -36 9 -88.5t-24 -144.5z" />
    <glyph glyph-name="chi" unicode="&#x3c7;" horiz-adv-x="913" 
d="M1075 1014l-424 -496l230 -518h-197l-156 375l-311 -375h-197l445 520l-219 494h196l144 -359l293 359h196z" />
    <glyph glyph-name="psi" unicode="&#x3c8;" horiz-adv-x="1249" 
d="M1329 1014l-133 -645q-25 -121 -101 -209t-177.5 -130t-215.5 -42l-84 -396h-163l84 396q-109 0 -193.5 53t-122.5 144.5t-16 197.5l133 631h164l-125 -604q-25 -117 26 -185t168 -69l185 899h164l-185 -899h8q110 0 190 68.5t105 185.5l125 604h164z" />
    <glyph glyph-name="omega" unicode="&#x3c9;" horiz-adv-x="1501" 
d="M1520 510q-50 -239 -142 -344q-77 -89 -157.5 -132.5t-176.5 -43.5q-183 0 -260 151q-79 -79 -147 -115t-158 -36q-105 0 -171.5 42.5t-108.5 133.5q-27 58 -29.5 128.5t23.5 215.5q30 148 74 241.5t141 172.5q119 96 274 104l-35 -168q-118 -10 -198 -106
q-32 -40 -49 -87.5t-44 -156.5q-15 -59 -21.5 -95t-4 -84.5t21.5 -84.5q23 -42 55 -65t87 -23q99 0 165.5 66.5t90.5 183.5l81 391h164l-80 -391q-24 -118 14.5 -184t139.5 -66q53 0 97.5 23t74.5 58.5t54 84.5t37 93.5t22 92.5q21 108 23.5 152.5t-13.5 91.5
q-39 96 -156 106l35 168q164 -8 232 -104q41 -57 56.5 -124.5t11 -131t-22.5 -158.5z" />
    <glyph glyph-name="iotadieresis" unicode="&#x3ca;" horiz-adv-x="468" 
d="M774 1389l-37 -181h-176l37 181h176zM414 1389l-37 -181h-174l37 181h174zM514 1016l-160 -768q-18 -94 88 -94h41l-32 -154h-70q-111 0 -164 57.5t-27 182.5l162 776h162z" />
    <glyph glyph-name="upsilondieresis" unicode="&#x3cb;" horiz-adv-x="1056" 
d="M1073 1389l-37 -181h-176l39 181h174zM715 1389l-39 -181h-174l37 181h176zM1133 1014l-136 -660q-22 -106 -97 -191t-175 -130t-201 -45t-180.5 46t-118 131t-16.5 189l137 660h164l-125 -608q-24 -115 26 -183.5t150 -68.5q101 0 180 68.5t103 183.5l125 608h164z" />
    <glyph glyph-name="omicrontonos" unicode="&#x3cc;" 
d="M1061 1438l-316 -287h-135l234 287h217zM1001 508q-26 -138 -61 -216t-88 -136q-152 -168 -365 -168q-216 0 -299 176q-26 57 -26 127q0 74 28 217q28 145 73 239.5t143 174.5q125 104 296 104q70 0 126 -17.5t91 -47t56 -60.5t33 -67q15 -44 17 -98.5t-4 -104.5
t-20 -123zM852 739q-20 59 -67.5 90t-114.5 31q-138 0 -224 -108q-33 -40 -52.5 -92t-39.5 -152q-10 -54 -14 -77t-4.5 -65t10.5 -73q21 -64 41 -86q47 -53 135 -53q91 0 166 53q34 23 58.5 54t41 74t24 68.5t19.5 77.5q3 10 6.5 30t6.5 30q29 127 8 198z" />
    <glyph glyph-name="upsilontonos" unicode="&#x3cd;" horiz-adv-x="1056" 
d="M1085 1438l-315 -287h-135l233 287h217zM1133 1014l-136 -660q-22 -106 -97 -191t-175 -130t-201 -45t-180.5 46t-118 131t-16.5 189l137 660h164l-125 -608q-24 -115 26 -183.5t150 -68.5q101 0 180 68.5t103 183.5l125 608h164z" />
    <glyph glyph-name="omegatonos" unicode="&#x3ce;" horiz-adv-x="1501" 
d="M1292 1438l-315 -287h-135l233 287h217zM1520 510q-50 -239 -142 -344q-77 -89 -157.5 -132.5t-176.5 -43.5q-183 0 -260 151q-79 -79 -147 -115t-158 -36q-105 0 -171.5 42.5t-108.5 133.5q-27 58 -29.5 128.5t23.5 215.5q30 148 74 241.5t141 172.5q119 96 274 104
l-35 -168q-118 -10 -198 -106q-35 -44 -54 -93.5t-39 -150.5q-2 -9 -8 -39t-8 -41.5t-6 -37t-3.5 -40.5t1.5 -35.5t6 -37.5t14 -33q23 -42 55 -65t87 -23q99 0 165.5 66.5t90.5 183.5l81 391h164l-80 -391q-24 -119 14.5 -184.5t139.5 -65.5q53 0 97.5 23t74.5 58.5t54 84.5
t37 93.5t22 92.5q21 108 23.5 152.5t-13.5 91.5q-39 96 -156 106l35 168q164 -8 232 -104q41 -57 56.5 -124.5t11 -131t-22.5 -158.5z" />
    <glyph glyph-name="endash" unicode="&#x2013;" horiz-adv-x="1024" 
d="M1096 471h-998l33 158h997z" />
    <glyph glyph-name="emdash" unicode="&#x2014;" horiz-adv-x="2048" 
d="M98 471h1997l33 158h-1997z" />
    <glyph glyph-name="afii00208" unicode="&#x2015;" horiz-adv-x="2048" 
d="M2095 471h-1997l33 158h1997z" />
    <glyph glyph-name="quoteleft" unicode="&#x2018;" horiz-adv-x="421" 
d="M608 1524l-84 -410h-164l60 289z" />
    <glyph glyph-name="quoteright" unicode="&#x2019;" horiz-adv-x="419" 
d="M608 1507l-59 -266l-189 -123l84 389h164z" />
    <glyph glyph-name="quotedblleft" unicode="&#x201c;" horiz-adv-x="612" 
d="M854 1524l-96 -410h-162l70 289zM578 1524l-97 -410h-164l72 289z" />
    <glyph glyph-name="quotedblright" unicode="&#x201d;" horiz-adv-x="612" 
d="M850 1528l-66 -287l-188 -123l90 410h164zM571 1528l-65 -287l-189 -123l91 410h163z" />
    <glyph glyph-name="dagger" unicode="&#x2020;" horiz-adv-x="929" 
d="M1079 934l-28 -135h-340l-246 -1180h-158l244 1180h-340l29 135h340l100 491h160l-103 -491h342z" />
    <glyph glyph-name="bullet" unicode="&#x2022;" horiz-adv-x="970" 
d="M922 713q0 -134 -93 -229t-223 -95q-129 0 -223 95.5t-94 228.5t94 228t223 95q131 0 223.5 -95t92.5 -228z" />
    <glyph glyph-name="ellipsis" unicode="&#x2026;" horiz-adv-x="1853" 
d="M1679 172l-34 -172h-164l35 172h163zM1059 172l-37 -172h-164l35 172h166zM434 172l-35 -172h-166l37 172h164z" />
    <glyph glyph-name="perthousand" unicode="&#x2030;" horiz-adv-x="1890" 
d="M1317 1425l-952 -1425h-121l952 1425h121zM1243 283q-17 -82 -36 -126.5t-50 -78.5q-91 -98 -213 -98q-104 0 -156 81q-40 60 -28 156q6 59 33 145q33 103 102 160q78 62 174 62q98 0 148 -62q43 -52 43 -110q0 -49 -17 -129zM1141 408q-21 63 -94 63q-72 0 -117 -57
q-16 -19 -25.5 -44.5t-23.5 -86.5q-8 -35 -11.5 -56t-1.5 -45.5t13 -42.5q24 -47 86 -47q43 0 88 29q11 8 20 17t16 21t11.5 20.5t9 25.5t6.5 23.5t6.5 27t5.5 25.5q21 94 11 127zM1833 283q-17 -82 -36 -126.5t-50 -78.5q-91 -98 -213 -98q-104 0 -156 81q-40 60 -28 156
q6 63 32 145q32 102 103 160q78 62 174 62q97 0 147 -62q43 -52 43 -110q0 -54 -16 -129zM1731 408q-21 63 -95 63q-71 0 -116 -57q-17 -20 -26.5 -45.5t-23.5 -85.5q-8 -35 -11.5 -56t-1.5 -45.5t13 -42.5q24 -47 86 -47q44 0 89 29q11 8 20 17t16 21t11.5 20.5t9 25.5
t6.5 23.5t6.5 27t5.5 25.5q21 94 11 127zM686 1108q-17 -82 -36 -126.5t-50 -78.5q-91 -98 -213 -98q-104 0 -156 82q-40 60 -28 155q6 60 33 146q33 103 102 160q77 61 174 61q98 0 147 -61q43 -52 43 -111q0 -54 -16 -129zM584 1233q-21 63 -95 63q-71 0 -116 -57
q-16 -19 -25.5 -44.5t-23.5 -86.5q-8 -36 -11.5 -56t-1.5 -44.5t13 -42.5q24 -47 86 -47q44 0 88 28q11 8 20 17t16 21t11.5 20.5t9 25.5t6.5 23.5t6.5 27t5.5 25.5q21 94 11 127z" />
    <glyph glyph-name="Euro" unicode="&#x20ac;" horiz-adv-x="1146" 
d="M1133 1047h186q-5 169 -110.5 280t-286.5 111q-107 0 -217.5 -47t-194.5 -131q-52 -52 -123 -183q-45 -81 -68 -184h-133l-22 -111h131q-2 -7 -6.5 -22.5t-8 -29.5t-6.5 -28q-2 -12 -5 -32t-5.5 -35t-5.5 -27h-129l-25 -110h134q-11 -82 -11 -125q0 -53 13 -107
q35 -128 139.5 -204t241.5 -76q182 0 335 111t224 280h-187q-51 -92 -144 -152.5t-192 -60.5q-85 0 -134.5 25t-84.5 85q-32 54 -32 125q0 44 8 99h551l22 110h-555q1 5 21 103q3 11 8 34.5t8 36.5h555l23 111h-553q27 103 53 153.5t74 98.5q115 115 264 115
q104 0 169.5 -61t78.5 -152z" />
    <glyph glyph-name="trademark" unicode="&#x2122;" horiz-adv-x="1927" 
d="M1270 1288h-2q-13 -53 -40 -180.5t-61 -290.5t-45 -217h-125l170 825h199l123 -649l391 649h197l-170 -825h-125l141 690l-6 -2l-424 -688h-86q-36 180 -70 351.5t-49 247.5t-18 89zM997 1425l-26 -118h-246l-147 -707h-125l145 707h-246l25 118h620z" />
    <glyph glyph-name="CR" horiz-adv-x="1024" 
 />
    </font>
</defs>
</svg>
